<svg width="173" height="173" viewBox="0 0 173 173" fill="none" xmlns="http://www.w3.org/2000/svg">
<path d="M57.5212 45.426C57.1252 45.69 56.7293 45.954 56.3333 46.218C55.9703 46.449 55.5743 46.6469 55.1453 46.8119C54.3204 47.1749 53.4624 47.4389 52.5715 47.6039C51.7135 47.8019 50.8556 47.9669 49.9976 48.0989C49.3706 48.1979 48.7272 48.2804 48.0672 48.3464C47.4402 48.4454 46.7968 48.5278 46.1368 48.5938C44.7179 48.6268 43.1505 48.6763 41.4345 48.7423C39.7516 48.7753 38.3492 48.9568 37.2273 49.2868C36.4023 49.6498 35.6598 50.1613 34.9999 50.8212C34.3729 51.5142 33.7294 52.1907 33.0695 52.8506C32.6405 53.2796 32.162 53.6591 31.634 53.9891C31.1721 54.3191 30.7101 54.649 30.2481 54.979C29.5881 55.507 28.9612 56.068 28.3672 56.6619C27.8062 57.2229 27.1793 57.7179 26.4863 58.1469C25.9913 58.4438 25.4799 58.7243 24.9519 58.9883C24.4569 59.2193 23.9124 59.4008 23.3185 59.5328C23.2195 59.5658 23.104 59.5823 22.972 59.5823C22.84 59.6483 22.7245 59.6978 22.6255 59.7308C22.5265 59.6978 22.411 59.6483 22.279 59.5823C22.114 59.5493 21.982 59.5163 21.883 59.4833C21.784 59.4503 21.652 59.4173 21.4871 59.3843C21.3551 59.3843 21.2561 59.3513 21.1901 59.2853C21.0911 59.2523 20.9921 59.1533 20.8931 58.9883C20.7941 58.8893 20.7281 58.7903 20.6951 58.6913C20.6291 58.6253 20.5466 58.5428 20.4476 58.4438C20.3486 58.3448 20.2496 58.2459 20.1506 58.1469C20.0846 58.0149 20.0351 57.8664 20.0021 57.7014C19.9691 57.5364 19.9196 57.3879 19.8536 57.2559C19.6556 56.7279 19.4742 56.1505 19.3092 55.5235C19.1442 54.9625 18.8637 54.451 18.4677 53.9891C18.0057 53.5271 17.4778 53.1641 16.8838 52.9001C16.2568 52.6691 15.6959 52.4052 15.2009 52.1082C15.1019 52.0092 14.9864 51.9267 14.8544 51.8607C14.7224 51.7947 14.6234 51.7287 14.5574 51.6627C14.4254 51.5307 14.3099 51.3822 14.2109 51.2172C14.1449 51.0852 14.0624 50.9367 13.9634 50.7717C13.9304 50.7387 13.8809 50.6562 13.8149 50.5242C13.749 50.4583 13.6995 50.3758 13.6665 50.2768C13.6335 50.1778 13.6335 50.0458 13.6665 49.8808C13.6665 49.7488 13.65 49.6333 13.617 49.5343C13.584 48.9733 13.6335 48.4289 13.7655 47.9009C13.8974 47.3729 14.0459 46.8284 14.2109 46.2675C14.4089 45.4755 14.6069 44.6505 14.8049 43.7926C15.0689 42.9346 15.4979 42.1757 16.0918 41.5157C16.4548 41.1527 16.8508 40.8227 17.2798 40.5258C17.7417 40.2618 18.1707 39.9648 18.5667 39.6348C18.9957 39.3378 19.3752 39.0243 19.7051 38.6944C20.0681 38.3314 20.4476 37.9849 20.8436 37.6549C21.1736 37.3909 21.4706 37.1269 21.7345 36.8629C22.0645 36.599 22.378 36.3185 22.675 36.0215C23.104 35.5925 23.4505 35.114 23.7144 34.5861C24.0114 34.0251 24.3579 33.5136 24.7539 33.0516C25.3149 32.2927 26.1068 31.6987 27.1298 31.2697C27.8557 31.0057 28.5817 30.7748 29.3077 30.5768C30.0666 30.4118 30.8091 30.1973 31.535 29.9333C32.261 29.6693 32.987 29.3723 33.7129 29.0423C34.4719 28.7454 35.2309 28.5144 35.9898 28.3494C36.1548 28.3164 36.3363 28.2999 36.5343 28.2999C36.7323 28.2999 36.9303 28.2999 37.1283 28.2999C37.3922 28.2999 37.6727 28.3494 37.9697 28.4484C38.2997 28.5144 38.6132 28.5969 38.9102 28.6959C39.1742 28.8279 39.4381 28.9928 39.7021 29.1908C39.9991 29.3558 40.3126 29.4383 40.6426 29.4383C40.8076 29.4053 40.9561 29.3888 41.0881 29.3888C41.253 29.4218 41.418 29.4218 41.583 29.3888C41.715 29.3888 41.781 29.3888 41.781 29.3888C41.814 29.3558 41.7975 29.3063 41.7315 29.2403C41.6985 29.1413 41.6655 29.0753 41.6325 29.0423C41.6325 28.9104 41.5995 28.7454 41.5335 28.5474C41.5335 28.3494 41.484 28.2009 41.385 28.1019C41.352 28.0689 41.2695 28.0194 41.1376 27.9534C41.0386 27.9204 40.9561 27.9039 40.8901 27.9039C40.3291 27.6069 39.8176 27.3924 39.3556 27.2604C38.2337 26.9305 37.1943 26.419 36.2373 25.726C35.6103 25.363 34.9174 24.8021 34.1584 24.0431C33.4654 23.2841 32.7395 22.5582 31.9805 21.8652C31.2546 21.1392 30.5286 20.6443 29.8026 20.3803C29.2087 20.1163 28.5982 19.9018 27.9712 19.7368C27.3773 19.6048 26.7668 19.3903 26.1398 19.0934C26.0738 19.0274 25.9583 18.9779 25.7933 18.9449C25.6613 18.8789 25.5623 18.8129 25.4964 18.7469C25.3974 18.6479 25.2984 18.5489 25.1994 18.4499C25.1334 18.3179 25.0839 18.2024 25.0509 18.1034C24.9849 18.0374 24.8859 17.9384 24.7539 17.8064C24.6549 17.7074 24.5889 17.6084 24.5559 17.5094C24.5229 17.4104 24.5064 17.2949 24.5064 17.1629C24.5394 16.998 24.5394 16.866 24.5064 16.767C24.5064 16.635 24.4899 16.4865 24.4569 16.3215C24.4569 16.1895 24.4404 16.074 24.4074 15.975C24.4404 15.876 24.4899 15.7605 24.5559 15.6285C24.6549 15.5295 24.7374 15.414 24.8034 15.282C24.8364 15.183 24.8694 15.0841 24.9024 14.9851C24.9684 14.8531 25.0509 14.7376 25.1499 14.6386C25.4139 14.2426 25.7603 13.8961 26.1893 13.5991C26.6513 13.2691 27.0473 12.9392 27.3773 12.6092C27.7402 12.2462 28.0867 11.8667 28.4167 11.4707C28.8127 11.0748 29.2252 10.7613 29.6541 10.5303C30.1161 10.2663 30.6111 10.0683 31.1391 9.93632C31.7 9.83732 32.261 9.73833 32.822 9.63933C33.251 9.54034 33.7129 9.44134 34.2079 9.34235C34.7359 9.21035 35.2309 9.14436 35.6928 9.14436C36.4518 9.11136 37.1943 9.19386 37.9202 9.39185C38.7122 9.58984 39.5041 9.65583 40.2961 9.58984C41.319 9.49084 42.342 9.32585 43.3649 9.09486C44.4539 8.86387 45.4768 8.99587 46.4338 9.49084C47.0278 9.75483 47.5227 10.1508 47.9187 10.6788C48.3477 11.2398 48.7437 11.7677 49.1066 12.2627C49.5026 12.8567 49.9316 13.4506 50.3936 14.0446C50.8556 14.6386 51.367 15.1501 51.928 15.579C52.819 16.206 53.7924 16.9155 54.8484 17.7074C55.9373 18.4664 56.8448 19.2418 57.5707 20.0338C58.0987 20.5618 58.5442 21.1392 58.9071 21.7662C59.3031 22.4262 59.7651 23.0531 60.2931 23.6471C60.7221 24.0761 61.184 24.4721 61.679 24.8351C62.207 25.231 62.6855 25.6765 63.1144 26.1715C63.1474 26.2705 63.2134 26.3695 63.3124 26.4685C63.4114 26.5675 63.4774 26.6665 63.5104 26.7655C63.8404 27.4254 63.9724 28.1184 63.9064 28.8444C63.8734 29.5373 63.7909 30.2138 63.6589 30.8737C63.4939 31.7647 63.3124 32.7052 63.1144 33.6951C62.9494 34.6521 62.8669 35.5925 62.8669 36.5165C62.8999 36.7475 62.8999 36.9784 62.8669 37.2094C62.8669 37.4734 62.8669 37.7044 62.8669 37.9024C62.8999 38.1994 62.9329 38.4964 62.9659 38.7933C63.0319 39.0573 63.0814 39.3378 63.1144 39.6348C63.1474 39.7998 63.1804 40.0308 63.2134 40.3278C63.2794 40.5918 63.2794 40.7897 63.2134 40.9217C63.1804 41.0867 63.0814 41.2517 62.9164 41.4167C62.7515 41.5817 62.6195 41.7137 62.5205 41.8127C62.4875 41.8457 62.438 41.8952 62.372 41.9612C62.372 42.0272 62.3555 42.0767 62.3225 42.1097C62.2235 42.1427 62.141 42.1262 62.075 42.0602C62.042 42.0272 61.9925 42.0107 61.9265 42.0107C61.7615 41.9117 61.5635 41.8457 61.3325 41.8127C61.1345 41.7467 60.953 41.6642 60.7881 41.5652C60.7221 41.4992 60.6726 41.4167 60.6396 41.3177C60.6066 41.2187 60.5571 41.1362 60.4911 41.0702C60.1611 40.4763 59.9466 39.9318 59.8476 39.4368C59.6496 38.5789 59.5836 37.6879 59.6496 36.7639C59.7156 35.84 59.8311 34.9325 59.9961 34.0416C60.1611 33.2826 60.3426 32.5072 60.5406 31.7152C60.7716 30.9562 60.854 30.1808 60.7881 29.3888C60.7881 29.2568 60.7551 29.1248 60.6891 28.9928C60.6561 28.8279 60.6231 28.6629 60.5901 28.4979C60.4251 27.6729 60.0621 26.914 59.5011 26.221C58.9401 25.528 58.3132 24.9341 57.6202 24.4391C56.9932 24.0101 56.3333 23.6141 55.6403 23.2511C54.9474 22.8882 54.3039 22.4427 53.7099 21.9147C52.918 21.2547 52.258 20.4298 51.73 19.4398C51.235 18.4829 50.6576 17.5754 49.9976 16.7175C49.6016 16.1235 48.9582 15.447 48.0672 14.6881C47.1762 13.9291 46.1863 13.2691 45.0974 12.7082C44.0084 12.1472 42.969 11.8667 41.979 11.8667C41.1541 11.8337 40.3456 11.9492 39.5536 12.2132C38.7947 12.4442 38.0192 12.5597 37.2273 12.5597C36.6333 12.5597 36.0228 12.5432 35.3958 12.5102C34.8349 12.4772 34.2574 12.4937 33.6634 12.5597C33.5644 12.5927 33.4324 12.6257 33.2675 12.6587C33.1355 12.6587 33.02 12.6752 32.921 12.7082C32.657 12.7742 32.3765 12.9227 32.0795 13.1537C31.8155 13.4176 31.601 13.6651 31.436 13.8961C31.3701 14.0281 31.2711 14.1931 31.1391 14.3911C31.0071 14.5891 30.9411 14.7541 30.9411 14.8861C30.9081 14.9851 30.8916 15.1006 30.8916 15.2325C30.9246 15.3315 30.9576 15.4305 30.9906 15.5295C30.9906 15.6615 30.9741 15.81 30.9411 15.975C30.9411 16.107 30.9741 16.239 31.0401 16.371C31.1061 16.503 31.1721 16.635 31.2381 16.767C31.3701 16.899 31.469 17.031 31.535 17.1629C32.063 17.9549 32.7395 18.5654 33.5644 18.9944C34.4554 19.4233 35.2144 19.9843 35.8413 20.6773C36.2373 21.0733 36.5838 21.4857 36.8808 21.9147C37.2108 22.3767 37.5572 22.8222 37.9202 23.2511C38.0522 23.3831 38.1677 23.5316 38.2667 23.6966C38.4317 23.8616 38.5802 24.0101 38.7122 24.1421C39.1412 24.4391 39.6031 24.6371 40.0981 24.7361C40.5931 24.8351 41.1046 24.8186 41.6325 24.6866C42.1935 24.5876 42.705 24.5711 43.167 24.6371C43.6619 24.7361 44.1404 24.9176 44.6024 25.1815C44.9324 25.3795 45.2293 25.6435 45.4933 25.9735C45.7903 26.2705 46.0213 26.5675 46.1863 26.8645C46.2853 26.9635 46.3678 27.0789 46.4338 27.2109C46.5328 27.3099 46.5988 27.4089 46.6318 27.5079C46.6318 27.6399 46.6318 27.7719 46.6318 27.9039C46.6318 28.0359 46.6318 28.1679 46.6318 28.2999C46.6648 29.1248 46.4998 29.8508 46.1368 30.4778C45.9388 30.8078 45.6583 31.0882 45.2953 31.3192C44.9654 31.5832 44.6354 31.8142 44.3054 32.0122C42.6225 32.9031 40.9066 33.2661 39.1577 33.1011C38.6297 33.0351 38.1017 32.9361 37.5737 32.8042C37.0788 32.6392 36.5673 32.5567 36.0393 32.5567C35.2804 32.5237 34.5049 32.6062 33.7129 32.8042C32.954 32.9691 32.228 33.2001 31.535 33.4971C31.1391 33.6291 30.7596 33.7776 30.3966 33.9426C30.0996 34.1076 29.8026 34.3386 29.5056 34.6356C29.4067 34.7346 29.2747 34.8335 29.1097 34.9325C29.0107 35.0315 28.9447 35.1305 28.9117 35.2295C28.8457 35.2955 28.7962 35.411 28.7632 35.576C28.7962 35.741 28.7962 35.873 28.7632 35.972C28.7302 36.071 28.6807 36.1865 28.6147 36.3185C28.6147 36.4505 28.6147 36.5825 28.6147 36.7145C28.6147 36.9784 28.6312 37.2259 28.6642 37.4569C28.7302 37.7209 28.7302 37.9849 28.6642 38.2489C28.6642 38.3809 28.6312 38.5129 28.5652 38.6449C28.5322 38.7438 28.4992 38.8428 28.4662 38.9418C28.4662 39.0738 28.4332 39.2058 28.3672 39.3378C28.3342 39.5028 28.3012 39.6348 28.2682 39.7338C28.2022 39.7998 28.1032 39.8658 27.9712 39.9318C27.8722 40.0308 27.7732 40.1298 27.6742 40.2288C27.5752 40.2618 27.4598 40.3443 27.3278 40.4763C27.2618 40.6083 27.1793 40.6908 27.0803 40.7237C26.9483 40.7237 26.7833 40.7237 26.5853 40.7237C26.3873 40.7237 26.2223 40.7237 26.0903 40.7237C25.7603 40.7237 25.4139 40.6743 25.0509 40.5753C24.7209 40.5093 24.3744 40.4928 24.0114 40.5258C23.9124 40.5588 23.7804 40.5918 23.6154 40.6248C23.5165 40.6578 23.401 40.7072 23.269 40.7732C23.17 40.8062 23.038 40.8392 22.873 40.8722C22.741 40.8722 22.6255 40.8887 22.5265 40.9217C22.4275 41.0207 22.345 41.1362 22.279 41.2682C22.213 41.4002 22.1635 41.5157 22.1305 41.6147C21.8335 42.0437 21.5201 42.4562 21.1901 42.8521C20.9591 43.1491 20.6786 43.4296 20.3486 43.6936C20.0846 43.9576 19.8371 44.2381 19.6062 44.5351C19.2762 44.865 18.9792 45.228 18.7152 45.624C18.5172 46.02 18.3192 46.416 18.1212 46.8119C17.9892 47.0099 17.8902 47.2079 17.8242 47.4059C17.7912 47.6369 17.7417 47.8514 17.6758 48.0494C17.6758 48.1154 17.6428 48.2144 17.5768 48.3464C17.5438 48.4454 17.5273 48.5279 17.5273 48.5938C17.5603 48.6928 17.6263 48.7918 17.7252 48.8908C17.8572 49.0228 17.9397 49.1383 17.9727 49.2373C18.0387 49.3033 18.1047 49.4023 18.1707 49.5343C18.2367 49.6663 18.3027 49.7653 18.3687 49.8313C18.4677 49.9303 18.5832 50.0128 18.7152 50.0788C18.9132 50.1448 19.0782 50.2108 19.2102 50.2768C19.5072 50.4418 19.8041 50.6067 20.1011 50.7717C20.4311 50.9697 20.7281 51.1677 20.9921 51.3657C21.784 51.9597 22.477 52.7186 23.071 53.6426C23.137 53.8406 23.2195 54.0881 23.3185 54.3851C23.4505 54.649 23.5989 54.8635 23.7639 55.0285C23.8629 55.1275 24.0114 55.21 24.2094 55.276C24.4734 55.342 24.6879 55.3915 24.8529 55.4245C24.8859 55.4575 24.9189 55.4905 24.9519 55.5235C25.0509 55.5565 25.1334 55.573 25.1994 55.573C25.2654 55.573 25.3149 55.5565 25.3479 55.5235C25.4139 55.4575 25.4799 55.4245 25.5459 55.4245C25.7108 55.3255 25.8758 55.2265 26.0408 55.1275C26.2718 55.0285 26.4533 54.913 26.5853 54.781C26.8163 54.55 27.0308 54.3026 27.2288 54.0386C27.4268 53.7746 27.6082 53.5271 27.7732 53.2961C28.1362 52.8671 28.4827 52.4217 28.8127 51.9597C29.1757 51.4647 29.4562 50.9532 29.6541 50.4253C29.6871 50.3263 29.7366 50.2108 29.8026 50.0788C29.8686 49.9468 29.9181 49.8313 29.9511 49.7323C30.0831 48.9403 29.9841 48.1814 29.6541 47.4554C29.3242 46.7294 29.0767 46.02 28.9117 45.327C28.7797 44.865 28.6972 44.3536 28.6642 43.7926C28.6642 43.2646 28.7302 42.7696 28.8622 42.3077C28.9282 42.1757 28.9942 42.0437 29.0602 41.9117C29.1592 41.8127 29.2417 41.7302 29.3077 41.6642C29.3737 41.5322 29.4232 41.4167 29.4562 41.3177C29.5221 41.1857 29.6046 41.0702 29.7036 40.9712C29.8026 40.8722 29.9181 40.7897 30.0501 40.7237C30.2481 40.6578 30.4131 40.5918 30.5451 40.5258C30.5781 40.4928 30.6276 40.4433 30.6936 40.3773C30.8256 40.3113 30.9411 40.2618 31.0401 40.2288C31.1391 40.1958 31.2546 40.2123 31.3866 40.2783C31.5515 40.3113 31.7 40.3278 31.832 40.3278C31.931 40.3608 32.0465 40.3773 32.1785 40.3773C32.3435 40.3443 32.492 40.3608 32.624 40.4268C32.723 40.4598 32.822 40.5258 32.921 40.6248C33.053 40.6907 33.1685 40.7732 33.2675 40.8722C33.5644 41.0372 33.8449 41.2517 34.1089 41.5157C34.4389 41.7797 34.6699 42.0767 34.8019 42.4067C34.9339 42.6047 35.0329 42.8356 35.0989 43.0996C35.1979 43.3306 35.2804 43.5451 35.3464 43.7431C35.4453 43.9741 35.5113 44.2381 35.5443 44.5351C35.5773 44.832 35.6598 45.0795 35.7918 45.2775C35.8248 45.3765 35.9073 45.459 36.0393 45.525C36.1713 45.591 36.2868 45.6735 36.3858 45.7725C36.4518 45.7725 36.5178 45.8055 36.5838 45.8715C36.6828 45.9705 36.7653 46.053 36.8313 46.119C36.8973 46.119 36.9798 46.1025 37.0788 46.0695C37.2108 46.0035 37.3097 45.9705 37.3757 45.9705C37.6067 45.9375 37.8212 45.888 38.0192 45.822C38.2502 45.789 38.4812 45.723 38.7122 45.624C39.3391 45.393 39.9496 45.1125 40.5436 44.7825C41.2036 44.4526 41.8635 44.1886 42.5235 43.9906C43.4804 43.6936 44.4539 43.6111 45.4438 43.7431C45.9388 43.7761 46.4338 43.8421 46.9288 43.9411C47.4567 44.0731 47.9682 44.1556 48.4632 44.1886C49.2551 44.1886 50.0471 44.1226 50.8391 43.9906C51.664 43.8916 52.456 43.7596 53.2149 43.5946C53.7759 43.4956 54.3369 43.3636 54.8979 43.1986C55.4918 43.0006 56.0858 42.8686 56.6798 42.8026C56.8118 42.8026 57.0097 42.7696 57.2737 42.7036C57.5377 42.6377 57.7192 42.6212 57.8182 42.6541C57.9172 42.6871 57.9997 42.7696 58.0657 42.9016C58.1647 43.0006 58.2307 43.0666 58.2637 43.0996C58.2967 43.1326 58.3627 43.1986 58.4617 43.2976C58.6267 43.3966 58.7092 43.4791 58.7092 43.5451C58.7092 43.6111 58.6762 43.7101 58.6102 43.8421C58.5772 43.9411 58.5442 44.0071 58.5112 44.0401C58.4452 44.1721 58.3957 44.3206 58.3627 44.4856C58.3627 44.6175 58.3297 44.7165 58.2637 44.7825C58.1647 44.8815 58.0492 44.964 57.9172 45.03C57.8182 45.129 57.6862 45.261 57.5212 45.426ZM91.3438 79.2486C90.9479 79.5126 90.5519 79.7766 90.1559 80.0406C89.7929 80.2716 89.3969 80.4696 88.968 80.6346C88.143 80.9975 87.2851 81.2615 86.3941 81.4265C85.5361 81.6245 84.6782 81.7895 83.8202 81.9215C83.1933 82.0205 82.5498 82.103 81.8898 82.169C81.2629 82.268 80.6194 82.3505 79.9594 82.4165C78.5405 82.4495 76.9731 82.499 75.2572 82.565C73.5743 82.598 72.1718 82.7795 71.0499 83.1094C70.2249 83.4724 69.4825 83.9839 68.8225 84.6439C68.1955 85.3368 67.5521 86.0133 66.8921 86.6733C66.4631 87.1022 65.9846 87.4817 65.4567 87.8117C64.9947 88.1417 64.5327 88.4717 64.0707 88.8016C63.4108 89.3296 62.7838 89.8906 62.1898 90.4846C61.6289 91.0455 61.0019 91.5405 60.3089 91.9695C59.814 92.2665 59.3025 92.547 58.7745 92.8109C58.2795 93.0419 57.7351 93.2234 57.1411 93.3554C57.0421 93.3884 56.9266 93.4049 56.7946 93.4049C56.6626 93.4709 56.5471 93.5204 56.4481 93.5534C56.3491 93.5204 56.2336 93.4709 56.1016 93.4049C55.9367 93.3719 55.8047 93.3389 55.7057 93.3059C55.6067 93.2729 55.4747 93.2399 55.3097 93.2069C55.1777 93.2069 55.0787 93.1739 55.0127 93.1079C54.9137 93.0749 54.8147 92.9759 54.7157 92.8109C54.6167 92.712 54.5507 92.613 54.5177 92.514C54.4517 92.448 54.3692 92.3655 54.2702 92.2665C54.1712 92.1675 54.0722 92.0685 53.9733 91.9695C53.9073 91.8375 53.8578 91.689 53.8248 91.524C53.7918 91.359 53.7423 91.2105 53.6763 91.0785C53.4783 90.5506 53.2968 89.9731 53.1318 89.3461C52.9668 88.7852 52.6863 88.2737 52.2903 87.8117C51.8284 87.3497 51.3004 86.9867 50.7064 86.7228C50.0795 86.4918 49.5185 86.2278 49.0235 85.9308C48.9245 85.8318 48.809 85.7493 48.677 85.6833C48.545 85.6173 48.446 85.5513 48.38 85.4853C48.248 85.3533 48.1326 85.2048 48.0336 85.0398C47.9676 84.9078 47.8851 84.7594 47.7861 84.5944C47.7531 84.5614 47.7036 84.4789 47.6376 84.3469C47.5716 84.2809 47.5221 84.1984 47.4891 84.0994C47.4561 84.0004 47.4561 83.8684 47.4891 83.7034C47.4891 83.5714 47.4726 83.4559 47.4396 83.3569C47.4066 82.796 47.4561 82.2515 47.5881 81.7235C47.7201 81.1955 47.8686 80.6511 48.0336 80.0901C48.2315 79.2981 48.4295 78.4732 48.6275 77.6152C48.8915 76.7573 49.3205 75.9983 49.9145 75.3383C50.2774 74.9754 50.6734 74.6454 51.1024 74.3484C51.5644 74.0844 51.9934 73.7874 52.3893 73.4574C52.8183 73.1604 53.1978 72.847 53.5278 72.517C53.8908 72.154 54.2702 71.8075 54.6662 71.4775C54.9962 71.2135 55.2932 70.9496 55.5572 70.6856C55.8872 70.4216 56.2006 70.1411 56.4976 69.8441C56.9266 69.4151 57.2731 68.9367 57.5371 68.4087C57.8341 67.8477 58.1805 67.3362 58.5765 66.8743C59.1375 66.1153 59.9294 65.5213 60.9524 65.0924C61.6784 64.8284 62.4043 64.5974 63.1303 64.3994C63.8892 64.2344 64.6317 64.0199 65.3577 63.7559C66.0836 63.4919 66.8096 63.195 67.5356 62.865C68.2945 62.568 69.0535 62.337 69.8124 62.172C69.9774 62.139 70.1589 62.1225 70.3569 62.1225C70.5549 62.1225 70.7529 62.1225 70.9509 62.1225C71.2149 62.1225 71.4954 62.172 71.7923 62.271C72.1223 62.337 72.4358 62.4195 72.7328 62.5185C72.9968 62.6505 73.2608 62.8155 73.5248 63.0135C73.8217 63.1785 74.1352 63.261 74.4652 63.261C74.6302 63.228 74.7787 63.2115 74.9107 63.2115C75.0757 63.2445 75.2407 63.2445 75.4057 63.2115C75.5377 63.2115 75.6036 63.2115 75.6036 63.2115C75.6366 63.1785 75.6201 63.129 75.5542 63.063C75.5212 62.964 75.4882 62.898 75.4552 62.865C75.4552 62.733 75.4222 62.568 75.3562 62.37C75.3562 62.172 75.3067 62.0235 75.2077 61.9245C75.1747 61.8915 75.0922 61.842 74.9602 61.776C74.8612 61.743 74.7787 61.7265 74.7127 61.7265C74.1517 61.4295 73.6403 61.2151 73.1783 61.0831C72.0563 60.7531 71.0169 60.2416 70.0599 59.5486C69.433 59.1857 68.74 58.6247 67.981 57.8657C67.2881 57.1068 66.5621 56.3808 65.8031 55.6878C65.0772 54.9619 64.3512 54.4669 63.6253 54.2029C63.0313 53.9389 62.4208 53.7244 61.7939 53.5594C61.1999 53.4275 60.5894 53.213 59.9624 52.916C59.8965 52.85 59.781 52.8005 59.616 52.7675C59.484 52.7015 59.385 52.6355 59.319 52.5695C59.22 52.4705 59.121 52.3715 59.022 52.2725C58.956 52.1405 58.9065 52.025 58.8735 51.926C58.8075 51.86 58.7085 51.761 58.5765 51.629C58.4775 51.5301 58.4115 51.4311 58.3785 51.3321C58.3455 51.2331 58.329 51.1176 58.329 50.9856C58.362 50.8206 58.362 50.6886 58.329 50.5896C58.329 50.4576 58.3125 50.3091 58.2795 50.1441C58.2795 50.0121 58.263 49.8966 58.23 49.7976C58.263 49.6986 58.3125 49.5831 58.3785 49.4512C58.4775 49.3522 58.56 49.2367 58.626 49.1047C58.659 49.0057 58.692 48.9067 58.725 48.8077C58.791 48.6757 58.8735 48.5602 58.9725 48.4612C59.2365 48.0652 59.583 47.7187 60.0119 47.4218C60.4739 47.0918 60.8699 46.7618 61.1999 46.4318C61.5629 46.0688 61.9093 45.6893 62.2393 45.2934C62.6353 44.8974 63.0478 44.5839 63.4768 44.3529C63.9387 44.0889 64.4337 43.8909 64.9617 43.7589C65.5227 43.66 66.0836 43.561 66.6446 43.462C67.0736 43.363 67.5356 43.264 68.0305 43.165C68.5585 43.033 69.0535 42.967 69.5155 42.967C70.2744 42.934 71.0169 43.0165 71.7428 43.2145C72.5348 43.4125 73.3268 43.4785 74.1187 43.4125C75.1417 43.3135 76.1646 43.1485 77.1876 42.9175C78.2765 42.6865 79.2995 42.8185 80.2564 43.3135C80.8504 43.5775 81.3454 43.9734 81.7413 44.5014C82.1703 45.0624 82.5663 45.5904 82.9293 46.0853C83.3253 46.6793 83.7542 47.2733 84.2162 47.8672C84.6782 48.4612 85.1897 48.9727 85.7506 49.4017C86.6416 50.0286 87.615 50.7381 88.671 51.5301C89.7599 52.289 90.6674 53.0645 91.3933 53.8564C91.9213 54.3844 92.3668 54.9619 92.7298 55.5888C93.1258 56.2488 93.5877 56.8758 94.1157 57.4697C94.5447 57.8987 95.0067 58.2947 95.5016 58.6577C96.0296 59.0537 96.5081 59.4991 96.9371 59.9941C96.9701 60.0931 97.0361 60.1921 97.1351 60.2911C97.234 60.3901 97.3 60.4891 97.333 60.5881C97.663 61.2481 97.795 61.941 97.729 62.667C97.696 63.3599 97.6135 64.0364 97.4815 64.6964C97.3165 65.5873 97.1351 66.5278 96.9371 67.5177C96.7721 68.4747 96.6896 69.4151 96.6896 70.3391C96.7226 70.5701 96.7226 70.8011 96.6896 71.0321C96.6896 71.296 96.6896 71.527 96.6896 71.725C96.7226 72.022 96.7556 72.319 96.7886 72.616C96.8546 72.88 96.9041 73.1604 96.9371 73.4574C96.9701 73.6224 97.0031 73.8534 97.0361 74.1504C97.1021 74.4144 97.1021 74.6124 97.0361 74.7444C97.0031 74.9094 96.9041 75.0744 96.7391 75.2393C96.5741 75.4043 96.4421 75.5363 96.3431 75.6353C96.3101 75.6683 96.2606 75.7178 96.1946 75.7838C96.1946 75.8498 96.1781 75.8993 96.1451 75.9323C96.0461 75.9653 95.9636 75.9488 95.8976 75.8828C95.8646 75.8498 95.8151 75.8333 95.7491 75.8333C95.5841 75.7343 95.3861 75.6683 95.1552 75.6353C94.9572 75.5693 94.7757 75.4868 94.6107 75.3878C94.5447 75.3218 94.4952 75.2393 94.4622 75.1403C94.4292 75.0414 94.3797 74.9589 94.3137 74.8929C93.9837 74.2989 93.7692 73.7544 93.6702 73.2594C93.4722 72.4015 93.4062 71.5105 93.4722 70.5866C93.5382 69.6626 93.6537 68.7552 93.8187 67.8642C93.9837 67.1053 94.1652 66.3298 94.3632 65.5378C94.5942 64.7789 94.6767 64.0034 94.6107 63.2115C94.6107 63.0795 94.5777 62.9475 94.5117 62.8155C94.4787 62.6505 94.4457 62.4855 94.4127 62.3205C94.2477 61.4955 93.8847 60.7366 93.3237 60.0436C92.7628 59.3507 92.1358 58.7567 91.4428 58.2617C90.8159 57.8327 90.1559 57.4367 89.4629 57.0738C88.77 56.7108 88.1265 56.2653 87.5325 55.7373C86.7406 55.0774 86.0806 54.2524 85.5526 53.2625C85.0577 52.3055 84.4802 51.3981 83.8202 50.5401C83.4243 49.9461 82.7808 49.2697 81.8898 48.5107C80.9989 47.7517 80.0089 47.0918 78.92 46.5308C77.831 45.9698 76.7916 45.6893 75.8016 45.6893C74.9767 45.6564 74.1682 45.7718 73.3763 46.0358C72.6173 46.2668 71.8418 46.3823 71.0499 46.3823C70.4559 46.3823 69.8454 46.3658 69.2185 46.3328C68.6575 46.2998 68.08 46.3163 67.4861 46.3823C67.3871 46.4153 67.2551 46.4483 67.0901 46.4813C66.9581 46.4813 66.8426 46.4978 66.7436 46.5308C66.4796 46.5968 66.1991 46.7453 65.9021 46.9763C65.6382 47.2403 65.4237 47.4878 65.2587 47.7187C65.1927 47.8507 65.0937 48.0157 64.9617 48.2137C64.8297 48.4117 64.7637 48.5767 64.7637 48.7087C64.7307 48.8077 64.7142 48.9232 64.7142 49.0552C64.7472 49.1542 64.7802 49.2532 64.8132 49.3522C64.8132 49.4842 64.7967 49.6326 64.7637 49.7976C64.7637 49.9296 64.7967 50.0616 64.8627 50.1936C64.9287 50.3256 64.9947 50.4576 65.0607 50.5896C65.1927 50.7216 65.2917 50.8536 65.3577 50.9856C65.8856 51.7775 66.5621 52.388 67.3871 52.817C68.278 53.246 69.037 53.8069 69.664 54.4999C70.0599 54.8959 70.4064 55.3084 70.7034 55.7373C71.0334 56.1993 71.3799 56.6448 71.7428 57.0738C71.8748 57.2058 71.9903 57.3543 72.0893 57.5192C72.2543 57.6842 72.4028 57.8327 72.5348 57.9647C72.9638 58.2617 73.4258 58.4597 73.9207 58.5587C74.4157 58.6577 74.9272 58.6412 75.4552 58.5092C76.0161 58.4102 76.5276 58.3937 76.9896 58.4597C77.4846 58.5587 77.963 58.7402 78.425 59.0042C78.755 59.2022 79.052 59.4661 79.316 59.7961C79.6129 60.0931 79.8439 60.3901 80.0089 60.6871C80.1079 60.7861 80.1904 60.9016 80.2564 61.0336C80.3554 61.1326 80.4214 61.2316 80.4544 61.3305C80.4544 61.4625 80.4544 61.5945 80.4544 61.7265C80.4544 61.8585 80.4544 61.9905 80.4544 62.1225C80.4874 62.9475 80.3224 63.6734 79.9594 64.3004C79.7614 64.6304 79.481 64.9109 79.118 65.1419C78.788 65.4058 78.458 65.6368 78.128 65.8348C76.4451 66.7258 74.7292 67.0888 72.9803 66.9238C72.4523 66.8578 71.9243 66.7588 71.3964 66.6268C70.9014 66.4618 70.3899 66.3793 69.8619 66.3793C69.103 66.3463 68.3275 66.4288 67.5356 66.6268C66.7766 66.7918 66.0506 67.0228 65.3577 67.3197C64.9617 67.4517 64.5822 67.6002 64.2192 67.7652C63.9222 67.9302 63.6253 68.1612 63.3283 68.4582C63.2293 68.5572 63.0973 68.6562 62.9323 68.7552C62.8333 68.8542 62.7673 68.9532 62.7343 69.0522C62.6683 69.1182 62.6188 69.2336 62.5858 69.3986C62.6188 69.5636 62.6188 69.6956 62.5858 69.7946C62.5528 69.8936 62.5033 70.0091 62.4373 70.1411C62.4373 70.2731 62.4373 70.4051 62.4373 70.5371C62.4373 70.8011 62.4538 71.0486 62.4868 71.2795C62.5528 71.5435 62.5528 71.8075 62.4868 72.0715C62.4868 72.2035 62.4538 72.3355 62.3878 72.4675C62.3548 72.5665 62.3218 72.6655 62.2888 72.7645C62.2888 72.8965 62.2558 73.0285 62.1898 73.1604C62.1568 73.3254 62.1238 73.4574 62.0908 73.5564C62.0248 73.6224 61.9258 73.6884 61.7939 73.7544C61.6949 73.8534 61.5959 73.9524 61.4969 74.0514C61.3979 74.0844 61.2824 74.1669 61.1504 74.2989C61.0844 74.4309 61.0019 74.5134 60.9029 74.5464C60.7709 74.5464 60.6059 74.5464 60.4079 74.5464C60.2099 74.5464 60.0449 74.5464 59.913 74.5464C59.583 74.5464 59.2365 74.4969 58.8735 74.3979C58.5435 74.3319 58.197 74.3154 57.8341 74.3484C57.7351 74.3814 57.6031 74.4144 57.4381 74.4474C57.3391 74.4804 57.2236 74.5299 57.0916 74.5959C56.9926 74.6289 56.8606 74.6619 56.6956 74.6949C56.5636 74.6949 56.4481 74.7114 56.3491 74.7444C56.2501 74.8434 56.1676 74.9589 56.1016 75.0908C56.0356 75.2228 55.9862 75.3383 55.9532 75.4373C55.6562 75.8663 55.3427 76.2788 55.0127 76.6748C54.7817 76.9718 54.5012 77.2522 54.1712 77.5162C53.9073 77.7802 53.6598 78.0607 53.4288 78.3577C53.0988 78.6877 52.8018 79.0506 52.5378 79.4466C52.3398 79.8426 52.1418 80.2386 51.9439 80.6346C51.8119 80.8326 51.7129 81.0305 51.6469 81.2285C51.6139 81.4595 51.5644 81.674 51.4984 81.872C51.4984 81.938 51.4654 82.037 51.3994 82.169C51.3664 82.268 51.3499 82.3505 51.3499 82.4165C51.3829 82.5155 51.4489 82.6145 51.5479 82.7135C51.6799 82.8455 51.7624 82.9609 51.7954 83.0599C51.8614 83.1259 51.9274 83.2249 51.9934 83.3569C52.0594 83.4889 52.1253 83.5879 52.1913 83.6539C52.2903 83.7529 52.4058 83.8354 52.5378 83.9014C52.7358 83.9674 52.9008 84.0334 53.0328 84.0994C53.3298 84.2644 53.6268 84.4294 53.9238 84.5944C54.2537 84.7924 54.5507 84.9903 54.8147 85.1883C55.6067 85.7823 56.2996 86.5413 56.8936 87.4652C56.9596 87.6632 57.0421 87.9107 57.1411 88.2077C57.2731 88.4717 57.4216 88.6862 57.5866 88.8511C57.6856 88.9501 57.8341 89.0326 58.032 89.0986C58.296 89.1646 58.5105 89.2141 58.6755 89.2471C58.7085 89.2801 58.7415 89.3131 58.7745 89.3461C58.8735 89.3791 58.956 89.3956 59.022 89.3956C59.088 89.3956 59.1375 89.3791 59.1705 89.3461C59.2365 89.2801 59.3025 89.2471 59.3685 89.2471C59.5335 89.1481 59.6985 89.0491 59.8635 88.9501C60.0944 88.8511 60.2759 88.7357 60.4079 88.6037C60.6389 88.3727 60.8534 88.1252 61.0514 87.8612C61.2494 87.5972 61.4309 87.3497 61.5959 87.1187C61.9588 86.6898 62.3053 86.2443 62.6353 85.7823C62.9983 85.2873 63.2788 84.7759 63.4768 84.2479C63.5098 84.1489 63.5593 84.0334 63.6253 83.9014C63.6913 83.7694 63.7408 83.6539 63.7738 83.5549C63.9057 82.763 63.8068 82.004 63.4768 81.278C63.1468 80.5521 62.8993 79.8426 62.7343 79.1496C62.6023 78.6877 62.5198 78.1762 62.4868 77.6152C62.4868 77.0872 62.5528 76.5923 62.6848 76.1303C62.7508 75.9983 62.8168 75.8663 62.8828 75.7343C62.9818 75.6353 63.0643 75.5528 63.1303 75.4868C63.1963 75.3548 63.2458 75.2393 63.2788 75.1403C63.3448 75.0084 63.4273 74.8929 63.5263 74.7939C63.6253 74.6949 63.7408 74.6124 63.8727 74.5464C64.0707 74.4804 64.2357 74.4144 64.3677 74.3484C64.4007 74.3154 64.4502 74.2659 64.5162 74.1999C64.6482 74.1339 64.7637 74.0844 64.8627 74.0514C64.9617 74.0184 65.0772 74.0349 65.2092 74.1009C65.3742 74.1339 65.5227 74.1504 65.6547 74.1504C65.7537 74.1834 65.8691 74.1999 66.0011 74.1999C66.1661 74.1669 66.3146 74.1834 66.4466 74.2494C66.5456 74.2824 66.6446 74.3484 66.7436 74.4474C66.8756 74.5134 66.9911 74.5959 67.0901 74.6949C67.3871 74.8599 67.6676 75.0743 67.9315 75.3383C68.2615 75.6023 68.4925 75.8993 68.6245 76.2293C68.7565 76.4273 68.8555 76.6583 68.9215 76.9223C69.0205 77.1532 69.103 77.3677 69.169 77.5657C69.268 77.7967 69.334 78.0607 69.367 78.3577C69.4 78.6547 69.4825 78.9022 69.6145 79.1001C69.6475 79.1991 69.7299 79.2816 69.8619 79.3476C69.9939 79.4136 70.1094 79.4961 70.2084 79.5951C70.2744 79.5951 70.3404 79.6281 70.4064 79.6941C70.5054 79.7931 70.5879 79.8756 70.6539 79.9416C70.7199 79.9416 70.8024 79.9251 70.9014 79.8921C71.0334 79.8261 71.1324 79.7931 71.1984 79.7931C71.4294 79.7601 71.6439 79.7106 71.8418 79.6446C72.0728 79.6116 72.3038 79.5456 72.5348 79.4466C73.1618 79.2156 73.7722 78.9352 74.3662 78.6052C75.0262 78.2752 75.6861 78.0112 76.3461 77.8132C77.3031 77.5162 78.2765 77.4337 79.2665 77.5657C79.7614 77.5987 80.2564 77.6647 80.7514 77.7637C81.2794 77.8957 81.7908 77.9782 82.2858 78.0112C83.0778 78.0112 83.8697 77.9452 84.6617 77.8132C85.4866 77.7142 86.2786 77.5822 87.0376 77.4172C87.5985 77.3182 88.1595 77.1862 88.7205 77.0213C89.3145 76.8233 89.9084 76.6913 90.5024 76.6253C90.6344 76.6253 90.8324 76.5923 91.0964 76.5263C91.3603 76.4603 91.5418 76.4438 91.6408 76.4768C91.7398 76.5098 91.8223 76.5923 91.8883 76.7243C91.9873 76.8233 92.0533 76.8893 92.0863 76.9223C92.1193 76.9553 92.1853 77.0213 92.2843 77.1202C92.4493 77.2192 92.5318 77.3017 92.5318 77.3677C92.5318 77.4337 92.4988 77.5327 92.4328 77.6647C92.3998 77.7637 92.3668 77.8297 92.3338 77.8627C92.2678 77.9947 92.2183 78.1432 92.1853 78.3082C92.1853 78.4402 92.1523 78.5392 92.0863 78.6052C91.9873 78.7042 91.8718 78.7867 91.7398 78.8527C91.6408 78.9517 91.5088 79.0836 91.3438 79.2486ZM125.166 113.071C124.77 113.335 124.375 113.599 123.979 113.863C123.616 114.094 123.22 114.292 122.791 114.457C121.966 114.82 121.108 115.084 120.217 115.249C119.359 115.447 118.501 115.612 117.643 115.744C117.016 115.843 116.372 115.926 115.712 115.992C115.085 116.091 114.442 116.173 113.782 116.239C112.363 116.272 110.796 116.322 109.08 116.388C107.397 116.421 105.994 116.602 104.873 116.932C104.048 117.295 103.305 117.807 102.645 118.466C102.018 119.159 101.375 119.836 100.715 120.496C100.286 120.925 99.8073 121.304 99.2793 121.634C98.8173 121.964 98.3553 122.294 97.8934 122.624C97.2334 123.152 96.6064 123.713 96.0125 124.307C95.4515 124.868 94.8245 125.363 94.1316 125.792C93.6366 126.089 93.1251 126.37 92.5971 126.634C92.1022 126.865 91.5577 127.046 90.9637 127.178C90.8647 127.211 90.7492 127.228 90.6172 127.228C90.4852 127.294 90.3697 127.343 90.2708 127.376C90.1718 127.343 90.0563 127.294 89.9243 127.228C89.7593 127.195 89.6273 127.162 89.5283 127.129C89.4293 127.096 89.2973 127.063 89.1323 127.03C89.0003 127.03 88.9013 126.997 88.8353 126.931C88.7363 126.898 88.6373 126.799 88.5383 126.634C88.4393 126.535 88.3734 126.436 88.3404 126.337C88.2744 126.271 88.1919 126.188 88.0929 126.089C87.9939 125.99 87.8949 125.891 87.7959 125.792C87.7299 125.66 87.6804 125.512 87.6474 125.347C87.6144 125.182 87.5649 125.033 87.4989 124.901C87.3009 124.373 87.1194 123.796 86.9544 123.169C86.7894 122.608 86.5089 122.096 86.113 121.634C85.651 121.172 85.123 120.809 84.529 120.545C83.9021 120.314 83.3411 120.05 82.8461 119.753C82.7471 119.654 82.6316 119.572 82.4997 119.506C82.3677 119.44 82.2687 119.374 82.2027 119.308C82.0707 119.176 81.9552 119.027 81.8562 118.862C81.7902 118.73 81.7077 118.582 81.6087 118.417C81.5757 118.384 81.5262 118.301 81.4602 118.17C81.3942 118.104 81.3447 118.021 81.3117 117.922C81.2787 117.823 81.2787 117.691 81.3117 117.526C81.3117 117.394 81.2952 117.279 81.2622 117.18C81.2292 116.619 81.2787 116.074 81.4107 115.546C81.5427 115.018 81.6912 114.474 81.8562 113.913C82.0542 113.121 82.2522 112.296 82.4502 111.438C82.7141 110.58 83.1431 109.821 83.7371 109.161C84.1001 108.798 84.496 108.468 84.925 108.171C85.387 107.907 85.816 107.61 86.212 107.28C86.6409 106.983 87.0204 106.67 87.3504 106.34C87.7134 105.977 88.0929 105.63 88.4888 105.3C88.8188 105.036 89.1158 104.772 89.3798 104.508C89.7098 104.244 90.0233 103.964 90.3203 103.667C90.7492 103.238 91.0957 102.759 91.3597 102.231C91.6567 101.67 92.0032 101.159 92.3991 100.697C92.9601 99.9379 93.7521 99.344 94.775 98.915C95.501 98.651 96.227 98.42 96.9529 98.222C97.7119 98.057 98.4543 97.8425 99.1803 97.5786C99.9063 97.3146 100.632 97.0176 101.358 96.6876C102.117 96.3906 102.876 96.1596 103.635 95.9946C103.8 95.9616 103.982 95.9451 104.18 95.9451C104.378 95.9451 104.576 95.9451 104.774 95.9451C105.038 95.9451 105.318 95.9946 105.615 96.0936C105.945 96.1596 106.258 96.2421 106.555 96.3411C106.819 96.4731 107.083 96.6381 107.347 96.8361C107.644 97.0011 107.958 97.0836 108.288 97.0836C108.453 97.0506 108.601 97.0341 108.733 97.0341C108.898 97.0671 109.063 97.0671 109.228 97.0341C109.36 97.0341 109.426 97.0341 109.426 97.0341C109.459 97.0011 109.443 96.9516 109.377 96.8856C109.344 96.7866 109.311 96.7206 109.278 96.6876C109.278 96.5556 109.245 96.3906 109.179 96.1926C109.179 95.9946 109.129 95.8461 109.03 95.7471C108.997 95.7142 108.915 95.6647 108.783 95.5987C108.684 95.5657 108.601 95.5492 108.535 95.5492C107.974 95.2522 107.463 95.0377 107.001 94.9057C105.879 94.5757 104.84 94.0642 103.883 93.3713C103.256 93.0083 102.563 92.4473 101.804 91.6884C101.111 90.9294 100.385 90.2034 99.6258 89.5105C98.8998 88.7845 98.1739 88.2895 97.4479 88.0255C96.8539 87.7616 96.2435 87.5471 95.6165 87.3821C95.0225 87.2501 94.412 87.0356 93.7851 86.7386C93.7191 86.6726 93.6036 86.6231 93.4386 86.5901C93.3066 86.5241 93.2076 86.4581 93.1416 86.3921C93.0426 86.2931 92.9436 86.1941 92.8446 86.0951C92.7786 85.9631 92.7291 85.8477 92.6961 85.7487C92.6301 85.6827 92.5311 85.5837 92.3991 85.4517C92.3002 85.3527 92.2342 85.2537 92.2012 85.1547C92.1682 85.0557 92.1517 84.9402 92.1517 84.8082C92.1847 84.6432 92.1847 84.5112 92.1517 84.4122C92.1517 84.2802 92.1352 84.1317 92.1022 83.9667C92.1022 83.8348 92.0857 83.7193 92.0527 83.6203C92.0857 83.5213 92.1352 83.4058 92.2012 83.2738C92.3002 83.1748 92.3826 83.0593 92.4486 82.9273C92.4816 82.8283 92.5146 82.7293 92.5476 82.6303C92.6136 82.4983 92.6961 82.3828 92.7951 82.2838C93.0591 81.8879 93.4056 81.5414 93.8346 81.2444C94.2965 80.9144 94.6925 80.5844 95.0225 80.2544C95.3855 79.8915 95.732 79.512 96.062 79.116C96.4579 78.72 96.8704 78.4065 97.2994 78.1755C97.7614 77.9116 98.2563 77.7136 98.7843 77.5816C99.3453 77.4826 99.9063 77.3836 100.467 77.2846C100.896 77.1856 101.358 77.0866 101.853 76.9876C102.381 76.8556 102.876 76.7896 103.338 76.7896C104.097 76.7566 104.84 76.8391 105.565 77.0371C106.357 77.2351 107.149 77.3011 107.941 77.2351C108.964 77.1361 109.987 76.9711 111.01 76.7401C112.099 76.5091 113.122 76.6411 114.079 77.1361C114.673 77.4001 115.168 77.7961 115.564 78.324C115.993 78.885 116.389 79.413 116.752 79.908C117.148 80.5019 117.577 81.0959 118.039 81.6899C118.501 82.2838 119.012 82.7953 119.573 83.2243C120.464 83.8513 121.438 84.5607 122.494 85.3527C123.583 86.1116 124.49 86.8871 125.216 87.6791C125.744 88.207 126.189 88.7845 126.552 89.4115C126.948 90.0714 127.41 90.6984 127.938 91.2924C128.367 91.7214 128.829 92.1173 129.324 92.4803C129.852 92.8763 130.331 93.3218 130.76 93.8167C130.793 93.9157 130.859 94.0147 130.958 94.1137C131.057 94.2127 131.123 94.3117 131.156 94.4107C131.486 95.0707 131.618 95.7636 131.552 96.4896C131.519 97.1826 131.436 97.859 131.304 98.519C131.139 99.41 130.958 100.35 130.76 101.34C130.595 102.297 130.512 103.238 130.512 104.162C130.545 104.393 130.545 104.624 130.512 104.855C130.512 105.119 130.512 105.35 130.512 105.548C130.545 105.845 130.578 106.142 130.611 106.439C130.677 106.703 130.727 106.983 130.76 107.28C130.793 107.445 130.826 107.676 130.859 107.973C130.925 108.237 130.925 108.435 130.859 108.567C130.826 108.732 130.727 108.897 130.562 109.062C130.397 109.227 130.265 109.359 130.166 109.458C130.133 109.491 130.083 109.54 130.017 109.606C130.017 109.672 130.001 109.722 129.968 109.755C129.869 109.788 129.786 109.771 129.72 109.705C129.687 109.672 129.638 109.656 129.572 109.656C129.407 109.557 129.209 109.491 128.978 109.458C128.78 109.392 128.598 109.309 128.433 109.21C128.367 109.144 128.318 109.062 128.285 108.963C128.252 108.864 128.202 108.781 128.136 108.715C127.806 108.122 127.592 107.577 127.493 107.082C127.295 106.224 127.229 105.333 127.295 104.409C127.361 103.485 127.476 102.578 127.641 101.687C127.806 100.928 127.988 100.152 128.186 99.3605C128.417 98.6015 128.499 97.826 128.433 97.0341C128.433 96.9021 128.4 96.7701 128.334 96.6381C128.301 96.4731 128.268 96.3081 128.235 96.1431C128.07 95.3182 127.707 94.5592 127.146 93.8662C126.585 93.1733 125.958 92.5793 125.265 92.0843C124.639 91.6554 123.979 91.2594 123.286 90.8964C122.593 90.5334 121.949 90.0879 121.355 89.56C120.563 88.9 119.903 88.075 119.375 87.0851C118.88 86.1281 118.303 85.2207 117.643 84.3627C117.247 83.7688 116.603 83.0923 115.712 82.3333C114.822 81.5744 113.832 80.9144 112.743 80.3534C111.654 79.7925 110.614 79.512 109.624 79.512C108.799 79.479 107.991 79.5945 107.199 79.8585C106.44 80.0894 105.664 80.2049 104.873 80.2049C104.279 80.2049 103.668 80.1884 103.041 80.1554C102.48 80.1224 101.903 80.1389 101.309 80.2049C101.21 80.2379 101.078 80.2709 100.913 80.3039C100.781 80.3039 100.665 80.3204 100.566 80.3534C100.302 80.4194 100.022 80.5679 99.7248 80.7989C99.4608 81.0629 99.2463 81.3104 99.0813 81.5414C99.0153 81.6734 98.9163 81.8384 98.7843 82.0363C98.6523 82.2343 98.5863 82.3993 98.5863 82.5313C98.5533 82.6303 98.5368 82.7458 98.5368 82.8778C98.5698 82.9768 98.6028 83.0758 98.6358 83.1748C98.6358 83.3068 98.6193 83.4553 98.5863 83.6203C98.5863 83.7523 98.6193 83.8843 98.6853 84.0162C98.7513 84.1482 98.8173 84.2802 98.8833 84.4122C99.0153 84.5442 99.1143 84.6762 99.1803 84.8082C99.7083 85.6002 100.385 86.2106 101.21 86.6396C102.101 87.0686 102.86 87.6296 103.487 88.3225C103.883 88.7185 104.229 89.131 104.526 89.56C104.856 90.0219 105.202 90.4674 105.565 90.8964C105.697 91.0284 105.813 91.1769 105.912 91.3419C106.077 91.5069 106.225 91.6554 106.357 91.7873C106.786 92.0843 107.248 92.2823 107.743 92.3813C108.238 92.4803 108.75 92.4638 109.278 92.3318C109.839 92.2328 110.35 92.2163 110.812 92.2823C111.307 92.3813 111.786 92.5628 112.248 92.8268C112.578 93.0248 112.875 93.2888 113.139 93.6188C113.436 93.9157 113.667 94.2127 113.832 94.5097C113.931 94.6087 114.013 94.7242 114.079 94.8562C114.178 94.9552 114.244 95.0542 114.277 95.1532C114.277 95.2852 114.277 95.4172 114.277 95.5492C114.277 95.6812 114.277 95.8131 114.277 95.9451C114.31 96.7701 114.145 97.4961 113.782 98.123C113.584 98.453 113.304 98.7335 112.941 98.9645C112.611 99.2285 112.281 99.4595 111.951 99.6574C110.268 100.548 108.552 100.911 106.803 100.746C106.275 100.68 105.747 100.581 105.219 100.449C104.724 100.284 104.213 100.202 103.685 100.202C102.926 100.169 102.15 100.251 101.358 100.449C100.599 100.614 99.8733 100.845 99.1803 101.142C98.7843 101.274 98.4048 101.423 98.0419 101.588C97.7449 101.753 97.4479 101.984 97.1509 102.281C97.0519 102.38 96.9199 102.479 96.7549 102.578C96.6559 102.677 96.5899 102.776 96.5569 102.875C96.4909 102.941 96.4414 103.056 96.4084 103.221C96.4414 103.386 96.4414 103.518 96.4084 103.617C96.3754 103.716 96.3259 103.832 96.2599 103.964C96.2599 104.096 96.2599 104.228 96.2599 104.36C96.2599 104.624 96.2764 104.871 96.3094 105.102C96.3754 105.366 96.3754 105.63 96.3094 105.894C96.3094 106.026 96.2764 106.158 96.2105 106.29C96.1775 106.389 96.1445 106.488 96.1115 106.587C96.1115 106.719 96.0785 106.851 96.0125 106.983C95.9795 107.148 95.9465 107.28 95.9135 107.379C95.8475 107.445 95.7485 107.511 95.6165 107.577C95.5175 107.676 95.4185 107.775 95.3195 107.874C95.2205 107.907 95.105 107.99 94.973 108.122C94.907 108.254 94.8245 108.336 94.7255 108.369C94.5935 108.369 94.4285 108.369 94.2306 108.369C94.0326 108.369 93.8676 108.369 93.7356 108.369C93.4056 108.369 93.0591 108.32 92.6961 108.221C92.3661 108.155 92.0197 108.138 91.6567 108.171C91.5577 108.204 91.4257 108.237 91.2607 108.27C91.1617 108.303 91.0462 108.353 90.9142 108.419C90.8152 108.451 90.6832 108.484 90.5182 108.517C90.3862 108.517 90.2708 108.534 90.1718 108.567C90.0728 108.666 89.9903 108.781 89.9243 108.913C89.8583 109.045 89.8088 109.161 89.7758 109.26C89.4788 109.689 89.1653 110.101 88.8353 110.497C88.6043 110.794 88.3239 111.075 87.9939 111.339C87.7299 111.603 87.4824 111.883 87.2514 112.18C86.9214 112.51 86.6244 112.873 86.3605 113.269C86.1625 113.665 85.9645 114.061 85.7665 114.457C85.6345 114.655 85.5355 114.853 85.4695 115.051C85.4365 115.282 85.387 115.497 85.321 115.695C85.321 115.761 85.288 115.86 85.222 115.992C85.189 116.091 85.1725 116.173 85.1725 116.239C85.2055 116.338 85.2715 116.437 85.3705 116.536C85.5025 116.668 85.585 116.784 85.618 116.883C85.684 116.949 85.75 117.048 85.816 117.18C85.882 117.312 85.948 117.411 86.014 117.477C86.113 117.576 86.2285 117.658 86.3605 117.724C86.5584 117.79 86.7234 117.856 86.8554 117.922C87.1524 118.087 87.4494 118.252 87.7464 118.417C88.0764 118.615 88.3734 118.813 88.6373 119.011C89.4293 119.605 90.1223 120.364 90.7162 121.288C90.7822 121.486 90.8647 121.733 90.9637 122.03C91.0957 122.294 91.2442 122.509 91.4092 122.674C91.5082 122.773 91.6567 122.855 91.8547 122.921C92.1187 122.987 92.3331 123.037 92.4981 123.07C92.5311 123.103 92.5641 123.136 92.5971 123.169C92.6961 123.202 92.7786 123.218 92.8446 123.218C92.9106 123.218 92.9601 123.202 92.9931 123.169C93.0591 123.103 93.1251 123.07 93.1911 123.07C93.3561 122.971 93.5211 122.872 93.6861 122.773C93.9171 122.674 94.0986 122.558 94.2306 122.426C94.4615 122.195 94.676 121.948 94.874 121.684C95.072 121.42 95.2535 121.172 95.4185 120.941C95.7815 120.512 96.128 120.067 96.4579 119.605C96.8209 119.11 97.1014 118.598 97.2994 118.071C97.3324 117.972 97.3819 117.856 97.4479 117.724C97.5139 117.592 97.5634 117.477 97.5964 117.378C97.7284 116.586 97.6294 115.827 97.2994 115.101C96.9694 114.375 96.7219 113.665 96.5569 112.972C96.4249 112.51 96.3424 111.999 96.3094 111.438C96.3094 110.91 96.3754 110.415 96.5074 109.953C96.5734 109.821 96.6394 109.689 96.7054 109.557C96.8044 109.458 96.8869 109.375 96.9529 109.309C97.0189 109.177 97.0684 109.062 97.1014 108.963C97.1674 108.831 97.2499 108.715 97.3489 108.616C97.4479 108.517 97.5634 108.435 97.6954 108.369C97.8934 108.303 98.0584 108.237 98.1904 108.171C98.2233 108.138 98.2728 108.089 98.3388 108.023C98.4708 107.957 98.5863 107.907 98.6853 107.874C98.7843 107.841 98.8998 107.858 99.0318 107.924C99.1968 107.957 99.3453 107.973 99.4773 107.973C99.5763 108.006 99.6918 108.023 99.8238 108.023C99.9888 107.99 100.137 108.006 100.269 108.072C100.368 108.105 100.467 108.171 100.566 108.27C100.698 108.336 100.814 108.419 100.913 108.517C101.21 108.682 101.49 108.897 101.754 109.161C102.084 109.425 102.315 109.722 102.447 110.052C102.579 110.25 102.678 110.481 102.744 110.745C102.843 110.976 102.926 111.19 102.992 111.388C103.091 111.619 103.157 111.883 103.19 112.18C103.223 112.477 103.305 112.725 103.437 112.923C103.47 113.022 103.553 113.104 103.685 113.17C103.817 113.236 103.932 113.319 104.031 113.418C104.097 113.418 104.163 113.451 104.229 113.517C104.328 113.616 104.411 113.698 104.477 113.764C104.543 113.764 104.625 113.748 104.724 113.715C104.856 113.649 104.955 113.616 105.021 113.616C105.252 113.583 105.466 113.533 105.664 113.467C105.895 113.434 106.126 113.368 106.357 113.269C106.984 113.038 107.595 112.758 108.189 112.428C108.849 112.098 109.509 111.834 110.169 111.636C111.126 111.339 112.099 111.256 113.089 111.388C113.584 111.421 114.079 111.487 114.574 111.586C115.102 111.718 115.613 111.801 116.108 111.834C116.9 111.834 117.692 111.768 118.484 111.636C119.309 111.537 120.101 111.405 120.86 111.24C121.421 111.141 121.982 111.009 122.543 110.844C123.137 110.646 123.731 110.514 124.325 110.448C124.457 110.448 124.655 110.415 124.919 110.349C125.183 110.283 125.364 110.266 125.463 110.299C125.562 110.332 125.645 110.415 125.711 110.547C125.81 110.646 125.876 110.712 125.909 110.745C125.942 110.778 126.008 110.844 126.107 110.943C126.272 111.042 126.354 111.124 126.354 111.19C126.354 111.256 126.321 111.355 126.255 111.487C126.222 111.586 126.189 111.652 126.156 111.685C126.09 111.817 126.041 111.966 126.008 112.131C126.008 112.263 125.975 112.362 125.909 112.428C125.81 112.527 125.694 112.609 125.562 112.675C125.463 112.774 125.331 112.906 125.166 113.071ZM158.989 146.894C158.593 147.158 158.197 147.422 157.801 147.686C157.438 147.917 157.042 148.115 156.613 148.28C155.788 148.643 154.93 148.907 154.039 149.072C153.181 149.27 152.323 149.435 151.465 149.567C150.839 149.666 150.195 149.748 149.535 149.814C148.908 149.913 148.265 149.996 147.605 150.062C146.186 150.095 144.618 150.144 142.902 150.21C141.22 150.243 139.817 150.425 138.695 150.755C137.87 151.118 137.128 151.629 136.468 152.289C135.841 152.982 135.197 153.659 134.537 154.319C134.108 154.747 133.63 155.127 133.102 155.457C132.64 155.787 132.178 156.117 131.716 156.447C131.056 156.975 130.429 157.536 129.835 158.13C129.274 158.691 128.647 159.186 127.954 159.615C127.459 159.912 126.948 160.192 126.42 160.456C125.925 160.687 125.38 160.869 124.786 161.001C124.687 161.034 124.572 161.05 124.44 161.05C124.308 161.116 124.192 161.166 124.093 161.199C123.994 161.166 123.879 161.116 123.747 161.05C123.582 161.017 123.45 160.984 123.351 160.951C123.252 160.918 123.12 160.885 122.955 160.852C122.823 160.852 122.724 160.819 122.658 160.753C122.559 160.72 122.46 160.621 122.361 160.456C122.262 160.357 122.196 160.258 122.163 160.159C122.097 160.093 122.014 160.011 121.916 159.912C121.817 159.813 121.718 159.714 121.619 159.615C121.553 159.483 121.503 159.334 121.47 159.169C121.437 159.004 121.388 158.856 121.322 158.724C121.124 158.196 120.942 157.618 120.777 156.991C120.612 156.43 120.332 155.919 119.936 155.457C119.474 154.995 118.946 154.632 118.352 154.368C117.725 154.137 117.164 153.873 116.669 153.576C116.57 153.477 116.454 153.395 116.322 153.329C116.19 153.263 116.091 153.197 116.025 153.131C115.893 152.999 115.778 152.85 115.679 152.685C115.613 152.553 115.53 152.405 115.431 152.24C115.398 152.207 115.349 152.124 115.283 151.992C115.217 151.926 115.167 151.844 115.134 151.745C115.101 151.646 115.101 151.514 115.134 151.349C115.134 151.217 115.118 151.101 115.085 151.002C115.052 150.441 115.101 149.897 115.233 149.369C115.365 148.841 115.514 148.296 115.679 147.735C115.877 146.943 116.075 146.118 116.273 145.26C116.537 144.403 116.966 143.644 117.56 142.984C117.923 142.621 118.319 142.291 118.748 141.994C119.21 141.73 119.639 141.433 120.035 141.103C120.464 140.806 120.843 140.492 121.173 140.162C121.536 139.799 121.915 139.453 122.311 139.123C122.641 138.859 122.938 138.595 123.202 138.331C123.532 138.067 123.846 137.786 124.143 137.489C124.572 137.06 124.918 136.582 125.182 136.054C125.479 135.493 125.826 134.982 126.222 134.52C126.783 133.761 127.575 133.167 128.598 132.738C129.324 132.474 130.05 132.243 130.776 132.045C131.535 131.88 132.277 131.665 133.003 131.401C133.729 131.137 134.455 130.84 135.181 130.51C135.94 130.213 136.699 129.982 137.458 129.817C137.623 129.784 137.804 129.768 138.002 129.768C138.2 129.768 138.398 129.768 138.596 129.768C138.86 129.768 139.141 129.817 139.438 129.916C139.768 129.982 140.081 130.065 140.378 130.164C140.642 130.296 140.906 130.461 141.17 130.659C141.467 130.824 141.78 130.906 142.11 130.906C142.275 130.873 142.424 130.857 142.556 130.857C142.721 130.89 142.886 130.89 143.051 130.857C143.183 130.857 143.249 130.857 143.249 130.857C143.282 130.824 143.265 130.774 143.199 130.708C143.166 130.609 143.133 130.543 143.1 130.51C143.1 130.378 143.067 130.213 143.001 130.015C143.001 129.817 142.952 129.669 142.853 129.57C142.82 129.537 142.737 129.487 142.605 129.421C142.506 129.388 142.424 129.372 142.358 129.372C141.797 129.075 141.286 128.86 140.824 128.728C139.702 128.398 138.662 127.887 137.705 127.194C137.078 126.831 136.385 126.27 135.626 125.511C134.933 124.752 134.207 124.026 133.448 123.333C132.722 122.607 131.996 122.112 131.271 121.848C130.677 121.584 130.066 121.37 129.439 121.205C128.845 121.073 128.235 120.858 127.608 120.561C127.542 120.495 127.426 120.446 127.261 120.413C127.129 120.347 127.03 120.281 126.964 120.215C126.865 120.116 126.766 120.017 126.667 119.918C126.601 119.786 126.552 119.67 126.519 119.571C126.453 119.505 126.354 119.406 126.222 119.274C126.123 119.175 126.057 119.076 126.024 118.977C125.991 118.878 125.974 118.763 125.974 118.631C126.007 118.466 126.007 118.334 125.974 118.235C125.974 118.103 125.958 117.954 125.925 117.789C125.925 117.657 125.908 117.542 125.875 117.443C125.908 117.344 125.958 117.228 126.024 117.096C126.123 116.997 126.205 116.882 126.271 116.75C126.304 116.651 126.337 116.552 126.37 116.453C126.436 116.321 126.519 116.205 126.618 116.106C126.882 115.71 127.228 115.364 127.657 115.067C128.119 114.737 128.515 114.407 128.845 114.077C129.208 113.714 129.555 113.335 129.885 112.939C130.281 112.543 130.693 112.229 131.122 111.998C131.584 111.734 132.079 111.536 132.607 111.404C133.168 111.305 133.729 111.206 134.29 111.107C134.719 111.008 135.181 110.909 135.676 110.81C136.204 110.678 136.699 110.612 137.161 110.612C137.92 110.579 138.662 110.662 139.388 110.86C140.18 111.058 140.972 111.124 141.764 111.058C142.787 110.959 143.81 110.794 144.833 110.563C145.922 110.332 146.945 110.464 147.902 110.959C148.496 111.223 148.991 111.619 149.387 112.147C149.816 112.708 150.212 113.236 150.575 113.731C150.971 114.325 151.399 114.919 151.861 115.512C152.323 116.106 152.835 116.618 153.396 117.047C154.287 117.674 155.26 118.383 156.316 119.175C157.405 119.934 158.313 120.71 159.039 121.502C159.567 122.03 160.012 122.607 160.375 123.234C160.771 123.894 161.233 124.521 161.761 125.115C162.19 125.544 162.652 125.94 163.147 126.303C163.675 126.699 164.153 127.144 164.582 127.639C164.615 127.738 164.681 127.837 164.78 127.936C164.879 128.035 164.945 128.134 164.978 128.233C165.308 128.893 165.44 129.586 165.374 130.312C165.341 131.005 165.259 131.682 165.127 132.342C164.962 133.233 164.78 134.173 164.582 135.163C164.417 136.12 164.335 137.06 164.335 137.984C164.368 138.215 164.368 138.446 164.335 138.677C164.335 138.941 164.335 139.172 164.335 139.37C164.368 139.667 164.401 139.964 164.434 140.261C164.5 140.525 164.549 140.806 164.582 141.103C164.615 141.268 164.648 141.499 164.681 141.796C164.747 142.06 164.747 142.258 164.681 142.39C164.648 142.555 164.549 142.72 164.384 142.885C164.219 143.05 164.087 143.182 163.988 143.281C163.955 143.314 163.906 143.363 163.84 143.429C163.84 143.495 163.823 143.545 163.79 143.578C163.691 143.611 163.609 143.594 163.543 143.528C163.51 143.495 163.46 143.479 163.394 143.479C163.229 143.38 163.031 143.314 162.8 143.281C162.602 143.215 162.421 143.132 162.256 143.033C162.19 142.967 162.14 142.885 162.107 142.786C162.074 142.687 162.025 142.604 161.959 142.538C161.629 141.944 161.414 141.4 161.315 140.905C161.118 140.047 161.052 139.156 161.117 138.232C161.183 137.308 161.299 136.4 161.464 135.509C161.629 134.751 161.81 133.975 162.008 133.183C162.239 132.424 162.322 131.649 162.256 130.857C162.256 130.725 162.223 130.593 162.157 130.461C162.124 130.296 162.091 130.131 162.058 129.966C161.893 129.141 161.53 128.382 160.969 127.689C160.408 126.996 159.781 126.402 159.088 125.907C158.461 125.478 157.801 125.082 157.108 124.719C156.415 124.356 155.772 123.911 155.178 123.383C154.386 122.723 153.726 121.898 153.198 120.908C152.703 119.951 152.125 119.043 151.465 118.185C151.07 117.591 150.426 116.915 149.535 116.156C148.644 115.397 147.654 114.737 146.565 114.176C145.476 113.615 144.437 113.335 143.447 113.335C142.622 113.302 141.813 113.417 141.022 113.681C140.263 113.912 139.487 114.028 138.695 114.028C138.101 114.028 137.491 114.011 136.864 113.978C136.303 113.945 135.725 113.962 135.131 114.028C135.032 114.061 134.9 114.094 134.735 114.127C134.603 114.127 134.488 114.143 134.389 114.176C134.125 114.242 133.844 114.391 133.547 114.622C133.283 114.886 133.069 115.133 132.904 115.364C132.838 115.496 132.739 115.661 132.607 115.859C132.475 116.057 132.409 116.222 132.409 116.354C132.376 116.453 132.359 116.568 132.359 116.7C132.392 116.799 132.425 116.898 132.458 116.997C132.458 117.129 132.442 117.278 132.409 117.443C132.409 117.575 132.442 117.707 132.508 117.839C132.574 117.971 132.64 118.103 132.706 118.235C132.838 118.367 132.937 118.499 133.003 118.631C133.531 119.423 134.207 120.033 135.032 120.462C135.923 120.891 136.682 121.452 137.309 122.145C137.705 122.541 138.052 122.954 138.349 123.383C138.679 123.845 139.025 124.29 139.388 124.719C139.52 124.851 139.636 125 139.735 125.165C139.9 125.329 140.048 125.478 140.18 125.61C140.609 125.907 141.071 126.105 141.566 126.204C142.061 126.303 142.572 126.286 143.1 126.154C143.661 126.055 144.173 126.039 144.635 126.105C145.13 126.204 145.608 126.385 146.07 126.649C146.4 126.847 146.697 127.111 146.961 127.441C147.258 127.738 147.489 128.035 147.654 128.332C147.753 128.431 147.836 128.547 147.902 128.679C148.001 128.778 148.067 128.877 148.1 128.976C148.1 129.108 148.1 129.24 148.1 129.372C148.1 129.504 148.1 129.636 148.1 129.768C148.133 130.593 147.968 131.319 147.605 131.946C147.407 132.276 147.126 132.556 146.763 132.787C146.433 133.051 146.103 133.282 145.773 133.48C144.09 134.371 142.374 134.734 140.626 134.569C140.098 134.503 139.57 134.404 139.042 134.272C138.547 134.107 138.035 134.025 137.507 134.025C136.748 133.992 135.973 134.074 135.181 134.272C134.422 134.437 133.696 134.668 133.003 134.965C132.607 135.097 132.227 135.245 131.864 135.41C131.568 135.575 131.271 135.806 130.974 136.103C130.875 136.202 130.743 136.301 130.578 136.4C130.479 136.499 130.413 136.598 130.38 136.697C130.314 136.763 130.264 136.879 130.231 137.044C130.264 137.209 130.264 137.341 130.231 137.44C130.198 137.539 130.149 137.654 130.083 137.786C130.083 137.918 130.083 138.05 130.083 138.182C130.083 138.446 130.099 138.694 130.132 138.925C130.198 139.189 130.198 139.453 130.132 139.717C130.132 139.849 130.099 139.981 130.033 140.113C130 140.212 129.967 140.311 129.934 140.41C129.934 140.542 129.901 140.674 129.835 140.806C129.802 140.971 129.769 141.103 129.736 141.202C129.67 141.268 129.571 141.334 129.439 141.4C129.34 141.499 129.241 141.598 129.142 141.697C129.043 141.73 128.928 141.812 128.796 141.944C128.73 142.076 128.647 142.159 128.548 142.192C128.416 142.192 128.251 142.192 128.053 142.192C127.855 142.192 127.69 142.192 127.558 142.192C127.228 142.192 126.882 142.142 126.519 142.043C126.189 141.977 125.842 141.961 125.479 141.994C125.38 142.027 125.248 142.06 125.083 142.093C124.984 142.126 124.869 142.175 124.737 142.241C124.638 142.274 124.506 142.307 124.341 142.34C124.209 142.34 124.093 142.357 123.994 142.39C123.895 142.489 123.813 142.604 123.747 142.736C123.681 142.868 123.631 142.984 123.598 143.083C123.301 143.512 122.988 143.924 122.658 144.32C122.427 144.617 122.146 144.898 121.817 145.161C121.553 145.425 121.305 145.706 121.074 146.003C120.744 146.333 120.447 146.696 120.183 147.092C119.985 147.488 119.787 147.884 119.589 148.28C119.457 148.478 119.358 148.676 119.292 148.874C119.259 149.105 119.21 149.319 119.144 149.517C119.144 149.583 119.111 149.682 119.045 149.814C119.012 149.913 118.995 149.996 118.995 150.062C119.028 150.161 119.094 150.26 119.193 150.359C119.325 150.491 119.408 150.606 119.441 150.705C119.507 150.771 119.573 150.87 119.639 151.002C119.705 151.134 119.771 151.233 119.837 151.299C119.936 151.398 120.051 151.481 120.183 151.547C120.381 151.613 120.546 151.679 120.678 151.745C120.975 151.91 121.272 152.075 121.569 152.24C121.899 152.438 122.196 152.636 122.46 152.834C123.252 153.428 123.945 154.187 124.539 155.11C124.605 155.308 124.687 155.556 124.786 155.853C124.918 156.117 125.067 156.331 125.232 156.496C125.331 156.595 125.479 156.678 125.677 156.744C125.941 156.81 126.156 156.859 126.321 156.892C126.354 156.925 126.387 156.958 126.42 156.991C126.519 157.024 126.601 157.041 126.667 157.041C126.733 157.041 126.783 157.024 126.816 156.991C126.882 156.925 126.948 156.892 127.014 156.892C127.179 156.793 127.344 156.694 127.509 156.595C127.74 156.496 127.921 156.381 128.053 156.249C128.284 156.018 128.499 155.77 128.697 155.506C128.895 155.242 129.076 154.995 129.241 154.764C129.604 154.335 129.951 153.89 130.281 153.428C130.644 152.933 130.924 152.421 131.122 151.893C131.155 151.794 131.205 151.679 131.271 151.547C131.337 151.415 131.386 151.299 131.419 151.2C131.551 150.408 131.452 149.649 131.122 148.923C130.792 148.197 130.545 147.488 130.38 146.795C130.248 146.333 130.165 145.821 130.132 145.26C130.132 144.733 130.198 144.238 130.33 143.776C130.396 143.644 130.462 143.512 130.528 143.38C130.627 143.281 130.71 143.198 130.776 143.132C130.842 143 130.891 142.885 130.924 142.786C130.99 142.654 131.073 142.538 131.172 142.439C131.271 142.34 131.386 142.258 131.518 142.192C131.716 142.126 131.881 142.06 132.013 141.994C132.046 141.961 132.095 141.911 132.161 141.845C132.293 141.779 132.409 141.73 132.508 141.697C132.607 141.664 132.722 141.68 132.854 141.746C133.019 141.779 133.168 141.796 133.3 141.796C133.399 141.829 133.514 141.845 133.646 141.845C133.811 141.812 133.96 141.829 134.092 141.895C134.191 141.928 134.29 141.994 134.389 142.093C134.521 142.159 134.636 142.241 134.735 142.34C135.032 142.505 135.313 142.72 135.577 142.984C135.907 143.248 136.138 143.545 136.27 143.875C136.402 144.073 136.501 144.304 136.567 144.568C136.666 144.799 136.748 145.013 136.814 145.211C136.913 145.442 136.979 145.706 137.012 146.003C137.045 146.3 137.128 146.547 137.26 146.745C137.293 146.844 137.375 146.927 137.507 146.993C137.639 147.059 137.755 147.141 137.854 147.24C137.92 147.24 137.986 147.273 138.052 147.339C138.151 147.438 138.233 147.521 138.299 147.587C138.365 147.587 138.448 147.57 138.547 147.537C138.679 147.471 138.778 147.438 138.844 147.438C139.075 147.405 139.289 147.356 139.487 147.29C139.718 147.257 139.949 147.191 140.18 147.092C140.807 146.861 141.418 146.58 142.011 146.25C142.671 145.92 143.331 145.656 143.991 145.458C144.948 145.161 145.922 145.079 146.912 145.211C147.407 145.244 147.902 145.31 148.397 145.409C148.925 145.541 149.436 145.623 149.931 145.656C150.723 145.656 151.515 145.59 152.307 145.458C153.132 145.359 153.924 145.227 154.683 145.062C155.244 144.963 155.805 144.832 156.366 144.667C156.96 144.469 157.554 144.337 158.148 144.271C158.28 144.271 158.478 144.238 158.742 144.172C159.006 144.106 159.187 144.089 159.286 144.122C159.385 144.155 159.468 144.238 159.534 144.37C159.633 144.469 159.699 144.535 159.732 144.568C159.765 144.601 159.831 144.667 159.93 144.766C160.095 144.865 160.177 144.947 160.177 145.013C160.177 145.079 160.144 145.178 160.078 145.31C160.045 145.409 160.012 145.475 159.979 145.508C159.913 145.64 159.864 145.788 159.831 145.953C159.831 146.085 159.798 146.184 159.732 146.25C159.633 146.349 159.517 146.432 159.385 146.498C159.286 146.597 159.154 146.729 158.989 146.894Z" fill="black"/>
</svg>
