<svg width="286" height="54" viewBox="0 0 286 54" fill="none" xmlns="http://www.w3.org/2000/svg">
<path d="M45.73 18.24C45.6367 18.7067 45.5433 19.1733 45.45 19.64C45.3567 20.06 45.2167 20.48 45.03 20.9C44.7033 21.74 44.2833 22.5333 43.77 23.28C43.3033 24.0267 42.8133 24.75 42.3 25.45C41.9267 25.9633 41.53 26.4767 41.11 26.99C40.7367 27.5033 40.34 28.0167 39.92 28.53C38.94 29.5567 37.8667 30.7 36.7 31.96C35.5333 33.1733 34.67 34.2933 34.11 35.32C33.7833 36.16 33.62 37.0467 33.62 37.98C33.6667 38.9133 33.69 39.8467 33.69 40.78C33.69 41.3867 33.62 41.9933 33.48 42.6C33.3867 43.16 33.2933 43.72 33.2 44.28C33.1067 45.12 33.06 45.96 33.06 46.8C33.06 47.5933 32.9667 48.3867 32.78 49.18C32.64 49.74 32.4767 50.3 32.29 50.86C32.1033 51.3733 31.8467 51.8867 31.52 52.4C31.4733 52.4933 31.4033 52.5867 31.31 52.68C31.2633 52.82 31.2167 52.9367 31.17 53.03C31.0767 53.0767 30.96 53.1233 30.82 53.17C30.68 53.2633 30.5633 53.3333 30.47 53.38C30.3767 53.4267 30.26 53.4967 30.12 53.59C30.0267 53.6833 29.9333 53.73 29.84 53.73C29.7467 53.7767 29.6067 53.7767 29.42 53.73C29.28 53.73 29.1633 53.7067 29.07 53.66C28.9767 53.66 28.86 53.66 28.72 53.66C28.58 53.66 28.44 53.66 28.3 53.66C28.16 53.6133 28.02 53.5433 27.88 53.45C27.74 53.3567 27.6 53.2867 27.46 53.24C26.9467 53.0067 26.41 52.7267 25.85 52.4C25.3367 52.12 24.7767 51.9567 24.17 51.91C23.5167 51.91 22.8867 52.0267 22.28 52.26C21.6733 52.54 21.09 52.75 20.53 52.89C20.39 52.89 20.25 52.9133 20.11 52.96C19.97 53.0067 19.8533 53.03 19.76 53.03C19.5733 53.03 19.3867 53.0067 19.2 52.96C19.06 52.9133 18.8967 52.8667 18.71 52.82C18.6633 52.82 18.57 52.7967 18.43 52.75C18.3367 52.75 18.2433 52.7267 18.15 52.68C18.0567 52.6333 17.9633 52.54 17.87 52.4C17.7767 52.3067 17.6833 52.2367 17.59 52.19C17.17 51.8167 16.82 51.3967 16.54 50.93C16.26 50.4633 15.98 49.9733 15.7 49.46C15.28 48.76 14.8367 48.0367 14.37 47.29C13.95 46.4967 13.7167 45.6567 13.67 44.77C13.67 44.2567 13.7167 43.7433 13.81 43.23C13.95 42.7167 14.0433 42.2033 14.09 41.69C14.1833 41.1767 14.23 40.6867 14.23 40.22C14.23 39.7067 14.2533 39.1933 14.3 38.68C14.3467 38.26 14.37 37.8633 14.37 37.49C14.4167 37.07 14.44 36.65 14.44 36.23C14.44 35.6233 14.3467 35.04 14.16 34.48C13.9733 33.8733 13.8567 33.2667 13.81 32.66C13.67 31.7267 13.81 30.7467 14.23 29.72C14.5567 29.02 14.9067 28.3433 15.28 27.69C15.7 27.0367 16.0733 26.36 16.4 25.66C16.7267 24.96 17.03 24.2367 17.31 23.49C17.6367 22.7433 18.01 22.0433 18.43 21.39C18.5233 21.25 18.64 21.11 18.78 20.97C18.92 20.83 19.06 20.69 19.2 20.55C19.3867 20.3633 19.62 20.2 19.9 20.06C20.18 19.8733 20.46 19.71 20.74 19.57C21.02 19.4767 21.3233 19.4067 21.65 19.36C21.9767 19.2667 22.2567 19.1033 22.49 18.87C22.5833 18.73 22.6767 18.6133 22.77 18.52C22.91 18.4267 23.0267 18.31 23.12 18.17C23.2133 18.0767 23.26 18.03 23.26 18.03C23.26 17.9833 23.2133 17.96 23.12 17.96C23.0267 17.9133 22.9567 17.89 22.91 17.89C22.8167 17.7967 22.6767 17.7033 22.49 17.61C22.35 17.47 22.21 17.4 22.07 17.4C22.0233 17.4 21.93 17.4233 21.79 17.47C21.6967 17.5167 21.6267 17.5633 21.58 17.61C20.9733 17.7967 20.46 18.0067 20.04 18.24C19.0133 18.8 17.9167 19.1733 16.75 19.36C16.05 19.5467 15.1633 19.64 14.09 19.64C13.0633 19.5933 12.0367 19.5933 11.01 19.64C9.98333 19.64 9.12 19.8033 8.42 20.13C7.81333 20.3633 7.23 20.6433 6.67 20.97C6.15667 21.2967 5.57333 21.5767 4.92 21.81C4.82667 21.81 4.71 21.8567 4.57 21.95C4.43 21.9967 4.31333 22.02 4.22 22.02C4.08 22.02 3.94 22.02 3.8 22.02C3.66 21.9733 3.54333 21.9267 3.45 21.88C3.35667 21.88 3.21667 21.88 3.03 21.88C2.89 21.88 2.77333 21.8567 2.68 21.81C2.58667 21.7633 2.49333 21.6933 2.4 21.6C2.30667 21.46 2.21333 21.3667 2.12 21.32C2.02667 21.2267 1.91 21.1333 1.77 21.04C1.67667 20.9467 1.58333 20.8767 1.49 20.83C1.44333 20.7367 1.39667 20.62 1.35 20.48C1.35 20.34 1.32667 20.2 1.28 20.06C1.23333 19.9667 1.18667 19.8733 1.14 19.78C1.09333 19.64 1.07 19.5 1.07 19.36C0.976667 18.8933 0.976667 18.4033 1.07 17.89C1.16333 17.33 1.21 16.8167 1.21 16.35C1.21 15.8367 1.18667 15.3233 1.14 14.81C1.14 14.25 1.21 13.7367 1.35 13.27C1.49 12.7567 1.7 12.2667 1.98 11.8C2.30667 11.3333 2.63333 10.8667 2.96 10.4C3.19333 10.0267 3.45 9.63 3.73 9.21C4.01 8.74333 4.31333 8.34666 4.64 8.02C5.15333 7.46 5.73667 6.99333 6.39 6.62C7.09 6.2 7.69667 5.68667 8.21 5.08C8.86333 4.28666 9.47 3.44666 10.03 2.56C10.6367 1.62667 11.4533 0.996665 12.48 0.669997C13.0867 0.436664 13.7167 0.366663 14.37 0.459996C15.07 0.553331 15.7233 0.646664 16.33 0.739996C17.03 0.879997 17.7533 0.996664 18.5 1.09C19.2467 1.18333 19.97 1.18333 20.67 1.09C21.7433 0.903332 22.9333 0.716666 24.24 0.529999C25.5467 0.296666 26.7367 0.203332 27.81 0.249998C28.5567 0.249998 29.28 0.343332 29.98 0.529999C30.7267 0.716666 31.4967 0.833332 32.29 0.879999C32.8967 0.879999 33.5033 0.833331 34.11 0.739996C34.7633 0.646664 35.4167 0.623331 36.07 0.669997C36.1633 0.716663 36.28 0.739996 36.42 0.739996C36.56 0.739996 36.6767 0.763331 36.77 0.809999C37.47 1.04333 38.0533 1.44 38.52 2C38.9867 2.51333 39.4067 3.05 39.78 3.61C40.2933 4.35666 40.83 5.15 41.39 5.99C41.95 6.78333 42.5567 7.50666 43.21 8.16C43.3967 8.3 43.56 8.46333 43.7 8.65C43.8867 8.83667 44.05 9 44.19 9.14C44.4233 9.32666 44.6567 9.51333 44.89 9.7C45.1233 9.84 45.3567 10.0033 45.59 10.19C45.73 10.2833 45.9167 10.4233 46.15 10.61C46.3833 10.75 46.5233 10.89 46.57 11.03C46.6633 11.17 46.71 11.3567 46.71 11.59C46.71 11.8233 46.71 12.01 46.71 12.15C46.71 12.1967 46.71 12.2667 46.71 12.36C46.7567 12.4067 46.78 12.4533 46.78 12.5C46.7333 12.5933 46.6633 12.64 46.57 12.64C46.5233 12.64 46.4767 12.6633 46.43 12.71C46.2433 12.7567 46.0567 12.85 45.87 12.99C45.6833 13.0833 45.4967 13.1533 45.31 13.2C45.2167 13.2 45.1233 13.1767 45.03 13.13C44.9367 13.0833 44.8433 13.06 44.75 13.06C44.0967 12.8733 43.56 12.64 43.14 12.36C42.3933 11.8933 41.7167 11.31 41.11 10.61C40.5033 9.91 39.9433 9.18667 39.43 8.44C39.01 7.78666 38.59 7.11 38.17 6.41C37.7967 5.71 37.3067 5.10333 36.7 4.59C36.6067 4.49666 36.49 4.42667 36.35 4.38C36.21 4.28666 36.07 4.19333 35.93 4.1C35.23 3.63333 34.4367 3.35333 33.55 3.26C32.6633 3.16666 31.8 3.19 30.96 3.33C30.2133 3.47 29.4667 3.65666 28.72 3.89C27.9733 4.12333 27.2033 4.26333 26.41 4.31C25.3833 4.40333 24.3333 4.28666 23.26 3.96C22.2333 3.63333 21.1833 3.4 20.11 3.26C19.41 3.12 18.4767 3.09666 17.31 3.19C16.1433 3.28333 14.9767 3.51666 13.81 3.89C12.6433 4.26333 11.71 4.8 11.01 5.5C10.4033 6.06 9.91333 6.71333 9.54 7.46C9.16667 8.16 8.7 8.79 8.14 9.35C7.72 9.77 7.27667 10.19 6.81 10.61C6.39 10.9833 5.99333 11.4033 5.62 11.87C5.57333 11.9633 5.50333 12.08 5.41 12.22C5.31667 12.3133 5.24667 12.4067 5.2 12.5C5.06 12.7333 4.96667 13.0367 4.92 13.41C4.92 13.7833 4.94333 14.11 4.99 14.39C5.03667 14.53 5.08333 14.7167 5.13 14.95C5.17667 15.1833 5.24667 15.3467 5.34 15.44C5.38667 15.5333 5.45667 15.6267 5.55 15.72C5.64333 15.7667 5.73667 15.8133 5.83 15.86C5.92333 15.9533 6.01667 16.07 6.11 16.21C6.20333 16.3033 6.32 16.3733 6.46 16.42C6.6 16.4667 6.74 16.5133 6.88 16.56C7.06667 16.56 7.23 16.5833 7.37 16.63C8.30333 16.8167 9.21333 16.77 10.1 16.49C11.0333 16.1633 11.9667 16.0233 12.9 16.07C13.46 16.07 13.9967 16.1167 14.51 16.21C15.07 16.3033 15.63 16.3733 16.19 16.42C16.3767 16.42 16.5633 16.4433 16.75 16.49C16.9833 16.49 17.1933 16.49 17.38 16.49C17.8933 16.3967 18.36 16.21 18.78 15.93C19.2 15.65 19.55 15.2767 19.83 14.81C20.1567 14.3433 20.5067 13.97 20.88 13.69C21.3 13.41 21.7667 13.2 22.28 13.06C22.6533 12.9667 23.05 12.9433 23.47 12.99C23.89 12.99 24.2633 13.0367 24.59 13.13C24.73 13.13 24.87 13.1533 25.01 13.2C25.15 13.2 25.2667 13.2233 25.36 13.27C25.4533 13.3633 25.5467 13.4567 25.64 13.55C25.7333 13.6433 25.8267 13.7367 25.92 13.83C26.5267 14.39 26.9233 15.02 27.11 15.72C27.2033 16.0933 27.2033 16.49 27.11 16.91C27.0633 17.33 26.9933 17.7267 26.9 18.1C26.34 19.92 25.3833 21.39 24.03 22.51C23.61 22.8367 23.1667 23.14 22.7 23.42C22.2333 23.6533 21.8133 23.9567 21.44 24.33C20.88 24.8433 20.39 25.45 19.97 26.15C19.55 26.8033 19.2 27.48 18.92 28.18C18.7333 28.5533 18.57 28.9267 18.43 29.3C18.3367 29.6267 18.29 30 18.29 30.42C18.29 30.56 18.2667 30.7233 18.22 30.91C18.22 31.05 18.2433 31.1667 18.29 31.26C18.29 31.3533 18.3367 31.47 18.43 31.61C18.57 31.7033 18.6633 31.7967 18.71 31.89C18.7567 31.9833 18.8033 32.1 18.85 32.24C18.9433 32.3333 19.0367 32.4267 19.13 32.52C19.3167 32.7067 19.5033 32.87 19.69 33.01C19.9233 33.15 20.11 33.3367 20.25 33.57C20.3433 33.6633 20.4133 33.78 20.46 33.92C20.5067 34.0133 20.5533 34.1067 20.6 34.2C20.6933 34.2933 20.7633 34.41 20.81 34.55C20.9033 34.69 20.9733 34.8067 21.02 34.9C21.02 34.9933 20.9967 35.11 20.95 35.25C20.95 35.39 20.95 35.53 20.95 35.67C20.9033 35.7633 20.88 35.9033 20.88 36.09C20.9267 36.23 20.9267 36.3467 20.88 36.44C20.7867 36.5333 20.67 36.65 20.53 36.79C20.39 36.93 20.2733 37.0467 20.18 37.14C19.9467 37.3733 19.6667 37.5833 19.34 37.77C19.06 37.9567 18.8033 38.19 18.57 38.47C18.5233 38.5633 18.4533 38.68 18.36 38.82C18.3133 38.9133 18.2667 39.03 18.22 39.17C18.1733 39.2633 18.1033 39.38 18.01 39.52C17.9167 39.6133 17.8467 39.7067 17.8 39.8C17.8 39.94 17.8233 40.08 17.87 40.22C17.9167 40.36 17.9633 40.4767 18.01 40.57C18.1033 41.0833 18.1733 41.5967 18.22 42.11C18.2667 42.4833 18.2667 42.88 18.22 43.3C18.22 43.6733 18.2433 44.0467 18.29 44.42C18.29 44.8867 18.3367 45.3533 18.43 45.82C18.57 46.24 18.71 46.66 18.85 47.08C18.8967 47.3133 18.9667 47.5233 19.06 47.71C19.2 47.8967 19.3167 48.0833 19.41 48.27C19.4567 48.3167 19.5033 48.41 19.55 48.55C19.5967 48.6433 19.6433 48.7133 19.69 48.76C19.7833 48.8067 19.9 48.83 20.04 48.83C20.2267 48.83 20.3667 48.8533 20.46 48.9C20.5533 48.9 20.67 48.9233 20.81 48.97C20.95 49.0167 21.0667 49.04 21.16 49.04C21.3 49.04 21.44 49.0167 21.58 48.97C21.7667 48.8767 21.93 48.8067 22.07 48.76C22.3967 48.6667 22.7233 48.5733 23.05 48.48C23.4233 48.3867 23.7733 48.3167 24.1 48.27C25.08 48.13 26.1067 48.1767 27.18 48.41C27.3667 48.5033 27.6 48.62 27.88 48.76C28.16 48.8533 28.4167 48.9 28.65 48.9C28.79 48.9 28.9533 48.8533 29.14 48.76C29.3733 48.62 29.56 48.5033 29.7 48.41C29.7467 48.41 29.7933 48.41 29.84 48.41C29.9333 48.3633 30.0033 48.3167 30.05 48.27C30.0967 48.2233 30.12 48.1767 30.12 48.13C30.12 48.0367 30.1433 47.9667 30.19 47.92C30.2367 47.7333 30.2833 47.5467 30.33 47.36C30.4233 47.1267 30.47 46.9167 30.47 46.73C30.47 46.4033 30.4467 46.0767 30.4 45.75C30.3533 45.4233 30.3067 45.12 30.26 44.84C30.2133 44.28 30.1433 43.72 30.05 43.16C29.9567 42.5533 29.7933 41.9933 29.56 41.48C29.5133 41.3867 29.4667 41.27 29.42 41.13C29.3733 40.99 29.3267 40.8733 29.28 40.78C28.8133 40.1267 28.2067 39.66 27.46 39.38C26.7133 39.1 26.0367 38.7733 25.43 38.4C25.01 38.1667 24.59 37.8633 24.17 37.49C23.7967 37.1167 23.4933 36.72 23.26 36.3C23.2133 36.16 23.1667 36.02 23.12 35.88C23.12 35.74 23.12 35.6233 23.12 35.53C23.0733 35.39 23.0267 35.2733 22.98 35.18C22.9333 35.04 22.91 34.9 22.91 34.76C22.91 34.62 22.9333 34.48 22.98 34.34C23.0733 34.1533 23.1433 33.99 23.19 33.85C23.19 33.8033 23.19 33.7333 23.19 33.64C23.2367 33.5 23.2833 33.3833 23.33 33.29C23.3767 33.1967 23.47 33.1267 23.61 33.08C23.75 32.9867 23.8667 32.8933 23.96 32.8C24.0533 32.7533 24.1467 32.6833 24.24 32.59C24.3333 32.45 24.45 32.3567 24.59 32.31C24.6833 32.2633 24.8 32.24 24.94 32.24C25.08 32.1933 25.22 32.17 25.36 32.17C25.6867 32.0767 26.0367 32.03 26.41 32.03C26.83 31.9833 27.2033 32.03 27.53 32.17C27.7633 32.2167 27.9967 32.31 28.23 32.45C28.4633 32.5433 28.6733 32.6367 28.86 32.73C29.0933 32.8233 29.3267 32.9633 29.56 33.15C29.7933 33.3367 30.0267 33.4533 30.26 33.5C30.3533 33.5467 30.47 33.5467 30.61 33.5C30.75 33.4533 30.89 33.43 31.03 33.43C31.0767 33.3833 31.1467 33.36 31.24 33.36C31.38 33.36 31.4967 33.36 31.59 33.36C31.6367 33.3133 31.6833 33.2433 31.73 33.15C31.7767 33.01 31.8233 32.9167 31.87 32.87C32.01 32.6833 32.1267 32.4967 32.22 32.31C32.36 32.1233 32.4767 31.9133 32.57 31.68C32.85 31.0733 33.0833 30.4433 33.27 29.79C33.5033 29.09 33.7833 28.4367 34.11 27.83C34.5767 26.9433 35.2067 26.1967 36 25.59C36.3733 25.2633 36.77 24.96 37.19 24.68C37.6567 24.4 38.0767 24.0967 38.45 23.77C39.01 23.21 39.5233 22.6033 39.99 21.95C40.5033 21.2967 40.97 20.6433 41.39 19.99C41.7167 19.5233 42.02 19.0333 42.3 18.52C42.58 17.96 42.9067 17.4467 43.28 16.98C43.3733 16.8867 43.49 16.7233 43.63 16.49C43.77 16.2567 43.8867 16.1167 43.98 16.07C44.0733 16.0233 44.19 16.0233 44.33 16.07C44.47 16.07 44.5633 16.07 44.61 16.07C44.6567 16.07 44.75 16.07 44.89 16.07C45.0767 16.0233 45.1933 16.0233 45.24 16.07C45.2867 16.1167 45.3333 16.21 45.38 16.35C45.4267 16.4433 45.45 16.5133 45.45 16.56C45.4967 16.7 45.5667 16.84 45.66 16.98C45.7533 17.0733 45.8 17.1667 45.8 17.26C45.8 17.4 45.7767 17.54 45.73 17.68C45.73 17.82 45.73 18.0067 45.73 18.24ZM93.5624 18.24C93.4691 18.7067 93.3758 19.1733 93.2824 19.64C93.1891 20.06 93.0491 20.48 92.8624 20.9C92.5358 21.74 92.1158 22.5333 91.6024 23.28C91.1358 24.0267 90.6458 24.75 90.1324 25.45C89.7591 25.9633 89.3624 26.4767 88.9424 26.99C88.5691 27.5033 88.1724 28.0167 87.7524 28.53C86.7724 29.5567 85.6991 30.7 84.5324 31.96C83.3658 33.1733 82.5024 34.2933 81.9424 35.32C81.6158 36.16 81.4524 37.0467 81.4524 37.98C81.4991 38.9133 81.5224 39.8467 81.5224 40.78C81.5224 41.3867 81.4524 41.9933 81.3124 42.6C81.2191 43.16 81.1258 43.72 81.0324 44.28C80.9391 45.12 80.8924 45.96 80.8924 46.8C80.8924 47.5933 80.7991 48.3867 80.6124 49.18C80.4724 49.74 80.3091 50.3 80.1224 50.86C79.9358 51.3733 79.6791 51.8867 79.3524 52.4C79.3058 52.4933 79.2358 52.5867 79.1424 52.68C79.0958 52.82 79.0491 52.9367 79.0024 53.03C78.9091 53.0767 78.7924 53.1233 78.6524 53.17C78.5124 53.2633 78.3958 53.3333 78.3024 53.38C78.2091 53.4267 78.0924 53.4967 77.9524 53.59C77.8591 53.6833 77.7658 53.73 77.6724 53.73C77.5791 53.7767 77.4391 53.7767 77.2524 53.73C77.1124 53.73 76.9958 53.7067 76.9024 53.66C76.8091 53.66 76.6924 53.66 76.5524 53.66C76.4124 53.66 76.2724 53.66 76.1324 53.66C75.9924 53.6133 75.8524 53.5433 75.7124 53.45C75.5724 53.3567 75.4324 53.2867 75.2924 53.24C74.7791 53.0067 74.2424 52.7267 73.6824 52.4C73.1691 52.12 72.6091 51.9567 72.0024 51.91C71.3491 51.91 70.7191 52.0267 70.1124 52.26C69.5058 52.54 68.9224 52.75 68.3624 52.89C68.2224 52.89 68.0824 52.9133 67.9424 52.96C67.8024 53.0067 67.6858 53.03 67.5924 53.03C67.4058 53.03 67.2191 53.0067 67.0324 52.96C66.8924 52.9133 66.7291 52.8667 66.5424 52.82C66.4958 52.82 66.4024 52.7967 66.2624 52.75C66.1691 52.75 66.0758 52.7267 65.9824 52.68C65.8891 52.6333 65.7958 52.54 65.7024 52.4C65.6091 52.3067 65.5158 52.2367 65.4224 52.19C65.0024 51.8167 64.6524 51.3967 64.3724 50.93C64.0924 50.4633 63.8124 49.9733 63.5324 49.46C63.1124 48.76 62.6691 48.0367 62.2024 47.29C61.7824 46.4967 61.5491 45.6567 61.5024 44.77C61.5024 44.2567 61.5491 43.7433 61.6424 43.23C61.7824 42.7167 61.8758 42.2033 61.9224 41.69C62.0158 41.1767 62.0624 40.6867 62.0624 40.22C62.0624 39.7067 62.0858 39.1933 62.1324 38.68C62.1791 38.26 62.2024 37.8633 62.2024 37.49C62.2491 37.07 62.2724 36.65 62.2724 36.23C62.2724 35.6233 62.1791 35.04 61.9924 34.48C61.8058 33.8733 61.6891 33.2667 61.6424 32.66C61.5024 31.7267 61.6424 30.7467 62.0624 29.72C62.3891 29.02 62.7391 28.3433 63.1124 27.69C63.5324 27.0367 63.9058 26.36 64.2324 25.66C64.5591 24.96 64.8624 24.2367 65.1424 23.49C65.4691 22.7433 65.8424 22.0433 66.2624 21.39C66.3558 21.25 66.4724 21.11 66.6124 20.97C66.7524 20.83 66.8924 20.69 67.0324 20.55C67.2191 20.3633 67.4524 20.2 67.7324 20.06C68.0124 19.8733 68.2924 19.71 68.5724 19.57C68.8524 19.4767 69.1558 19.4067 69.4824 19.36C69.8091 19.2667 70.0891 19.1033 70.3224 18.87C70.4158 18.73 70.5091 18.6133 70.6024 18.52C70.7424 18.4267 70.8591 18.31 70.9524 18.17C71.0458 18.0767 71.0924 18.03 71.0924 18.03C71.0924 17.9833 71.0458 17.96 70.9524 17.96C70.8591 17.9133 70.7891 17.89 70.7424 17.89C70.6491 17.7967 70.5091 17.7033 70.3224 17.61C70.1824 17.47 70.0424 17.4 69.9024 17.4C69.8558 17.4 69.7624 17.4233 69.6224 17.47C69.5291 17.5167 69.4591 17.5633 69.4124 17.61C68.8058 17.7967 68.2924 18.0067 67.8724 18.24C66.8458 18.8 65.7491 19.1733 64.5824 19.36C63.8824 19.5467 62.9958 19.64 61.9224 19.64C60.8958 19.5933 59.8691 19.5933 58.8424 19.64C57.8158 19.64 56.9524 19.8033 56.2524 20.13C55.6458 20.3633 55.0624 20.6433 54.5024 20.97C53.9891 21.2967 53.4058 21.5767 52.7524 21.81C52.6591 21.81 52.5424 21.8567 52.4024 21.95C52.2624 21.9967 52.1458 22.02 52.0524 22.02C51.9124 22.02 51.7724 22.02 51.6324 22.02C51.4924 21.9733 51.3758 21.9267 51.2824 21.88C51.1891 21.88 51.0491 21.88 50.8624 21.88C50.7224 21.88 50.6058 21.8567 50.5124 21.81C50.4191 21.7633 50.3258 21.6933 50.2324 21.6C50.1391 21.46 50.0458 21.3667 49.9524 21.32C49.8591 21.2267 49.7424 21.1333 49.6024 21.04C49.5091 20.9467 49.4158 20.8767 49.3224 20.83C49.2758 20.7367 49.2291 20.62 49.1824 20.48C49.1824 20.34 49.1591 20.2 49.1124 20.06C49.0658 19.9667 49.0191 19.8733 48.9724 19.78C48.9258 19.64 48.9024 19.5 48.9024 19.36C48.8091 18.8933 48.8091 18.4033 48.9024 17.89C48.9958 17.33 49.0424 16.8167 49.0424 16.35C49.0424 15.8367 49.0191 15.3233 48.9724 14.81C48.9724 14.25 49.0424 13.7367 49.1824 13.27C49.3224 12.7567 49.5324 12.2667 49.8124 11.8C50.1391 11.3333 50.4658 10.8667 50.7924 10.4C51.0258 10.0267 51.2824 9.63 51.5624 9.21C51.8424 8.74333 52.1458 8.34666 52.4724 8.02C52.9858 7.46 53.5691 6.99333 54.2224 6.62C54.9224 6.2 55.5291 5.68667 56.0424 5.08C56.6958 4.28666 57.3024 3.44666 57.8624 2.56C58.4691 1.62667 59.2858 0.996665 60.3124 0.669997C60.9191 0.436664 61.5491 0.366663 62.2024 0.459996C62.9024 0.553331 63.5558 0.646664 64.1624 0.739996C64.8624 0.879997 65.5858 0.996664 66.3324 1.09C67.0791 1.18333 67.8024 1.18333 68.5024 1.09C69.5758 0.903332 70.7658 0.716666 72.0724 0.529999C73.3791 0.296666 74.5691 0.203332 75.6424 0.249998C76.3891 0.249998 77.1124 0.343332 77.8124 0.529999C78.5591 0.716666 79.3291 0.833332 80.1224 0.879999C80.7291 0.879999 81.3358 0.833331 81.9424 0.739996C82.5958 0.646664 83.2491 0.623331 83.9024 0.669997C83.9958 0.716663 84.1124 0.739996 84.2524 0.739996C84.3924 0.739996 84.5091 0.763331 84.6024 0.809999C85.3024 1.04333 85.8858 1.44 86.3524 2C86.8191 2.51333 87.2391 3.05 87.6124 3.61C88.1258 4.35666 88.6624 5.15 89.2224 5.99C89.7824 6.78333 90.3891 7.50666 91.0424 8.16C91.2291 8.3 91.3924 8.46333 91.5324 8.65C91.7191 8.83667 91.8824 9 92.0224 9.14C92.2558 9.32666 92.4891 9.51333 92.7224 9.7C92.9558 9.84 93.1891 10.0033 93.4224 10.19C93.5624 10.2833 93.7491 10.4233 93.9824 10.61C94.2158 10.75 94.3558 10.89 94.4024 11.03C94.4958 11.17 94.5424 11.3567 94.5424 11.59C94.5424 11.8233 94.5424 12.01 94.5424 12.15C94.5424 12.1967 94.5424 12.2667 94.5424 12.36C94.5891 12.4067 94.6124 12.4533 94.6124 12.5C94.5658 12.5933 94.4958 12.64 94.4024 12.64C94.3558 12.64 94.3091 12.6633 94.2624 12.71C94.0758 12.7567 93.8891 12.85 93.7024 12.99C93.5158 13.0833 93.3291 13.1533 93.1424 13.2C93.0491 13.2 92.9558 13.1767 92.8624 13.13C92.7691 13.0833 92.6758 13.06 92.5824 13.06C91.9291 12.8733 91.3924 12.64 90.9724 12.36C90.2258 11.8933 89.5491 11.31 88.9424 10.61C88.3358 9.91 87.7758 9.18667 87.2624 8.44C86.8424 7.78666 86.4224 7.11 86.0024 6.41C85.6291 5.71 85.1391 5.10333 84.5324 4.59C84.4391 4.49666 84.3224 4.42667 84.1824 4.38C84.0424 4.28666 83.9024 4.19333 83.7624 4.1C83.0624 3.63333 82.2691 3.35333 81.3824 3.26C80.4958 3.16666 79.6324 3.19 78.7924 3.33C78.0458 3.47 77.2991 3.65666 76.5524 3.89C75.8058 4.12333 75.0358 4.26333 74.2424 4.31C73.2158 4.40333 72.1658 4.28666 71.0924 3.96C70.0658 3.63333 69.0158 3.4 67.9424 3.26C67.2424 3.12 66.3091 3.09666 65.1424 3.19C63.9758 3.28333 62.8091 3.51666 61.6424 3.89C60.4758 4.26333 59.5424 4.8 58.8424 5.5C58.2358 6.06 57.7458 6.71333 57.3724 7.46C56.9991 8.16 56.5324 8.79 55.9724 9.35C55.5524 9.77 55.1091 10.19 54.6424 10.61C54.2224 10.9833 53.8258 11.4033 53.4524 11.87C53.4058 11.9633 53.3358 12.08 53.2424 12.22C53.1491 12.3133 53.0791 12.4067 53.0324 12.5C52.8924 12.7333 52.7991 13.0367 52.7524 13.41C52.7524 13.7833 52.7758 14.11 52.8224 14.39C52.8691 14.53 52.9158 14.7167 52.9624 14.95C53.0091 15.1833 53.0791 15.3467 53.1724 15.44C53.2191 15.5333 53.2891 15.6267 53.3824 15.72C53.4758 15.7667 53.5691 15.8133 53.6624 15.86C53.7558 15.9533 53.8491 16.07 53.9424 16.21C54.0358 16.3033 54.1524 16.3733 54.2924 16.42C54.4324 16.4667 54.5724 16.5133 54.7124 16.56C54.8991 16.56 55.0624 16.5833 55.2024 16.63C56.1358 16.8167 57.0458 16.77 57.9324 16.49C58.8658 16.1633 59.7991 16.0233 60.7324 16.07C61.2924 16.07 61.8291 16.1167 62.3424 16.21C62.9024 16.3033 63.4624 16.3733 64.0224 16.42C64.2091 16.42 64.3958 16.4433 64.5824 16.49C64.8158 16.49 65.0258 16.49 65.2124 16.49C65.7258 16.3967 66.1924 16.21 66.6124 15.93C67.0324 15.65 67.3824 15.2767 67.6624 14.81C67.9891 14.3433 68.3391 13.97 68.7124 13.69C69.1324 13.41 69.5991 13.2 70.1124 13.06C70.4858 12.9667 70.8824 12.9433 71.3024 12.99C71.7224 12.99 72.0958 13.0367 72.4224 13.13C72.5624 13.13 72.7024 13.1533 72.8424 13.2C72.9824 13.2 73.0991 13.2233 73.1924 13.27C73.2858 13.3633 73.3791 13.4567 73.4724 13.55C73.5658 13.6433 73.6591 13.7367 73.7524 13.83C74.3591 14.39 74.7558 15.02 74.9424 15.72C75.0358 16.0933 75.0358 16.49 74.9424 16.91C74.8958 17.33 74.8258 17.7267 74.7324 18.1C74.1724 19.92 73.2158 21.39 71.8624 22.51C71.4424 22.8367 70.9991 23.14 70.5324 23.42C70.0658 23.6533 69.6458 23.9567 69.2724 24.33C68.7124 24.8433 68.2224 25.45 67.8024 26.15C67.3824 26.8033 67.0324 27.48 66.7524 28.18C66.5658 28.5533 66.4024 28.9267 66.2624 29.3C66.1691 29.6267 66.1224 30 66.1224 30.42C66.1224 30.56 66.0991 30.7233 66.0524 30.91C66.0524 31.05 66.0758 31.1667 66.1224 31.26C66.1224 31.3533 66.1691 31.47 66.2624 31.61C66.4024 31.7033 66.4958 31.7967 66.5424 31.89C66.5891 31.9833 66.6358 32.1 66.6824 32.24C66.7758 32.3333 66.8691 32.4267 66.9624 32.52C67.1491 32.7067 67.3358 32.87 67.5224 33.01C67.7558 33.15 67.9424 33.3367 68.0824 33.57C68.1758 33.6633 68.2458 33.78 68.2924 33.92C68.3391 34.0133 68.3858 34.1067 68.4324 34.2C68.5258 34.2933 68.5958 34.41 68.6424 34.55C68.7358 34.69 68.8058 34.8067 68.8524 34.9C68.8524 34.9933 68.8291 35.11 68.7824 35.25C68.7824 35.39 68.7824 35.53 68.7824 35.67C68.7358 35.7633 68.7124 35.9033 68.7124 36.09C68.7591 36.23 68.7591 36.3467 68.7124 36.44C68.6191 36.5333 68.5024 36.65 68.3624 36.79C68.2224 36.93 68.1058 37.0467 68.0124 37.14C67.7791 37.3733 67.4991 37.5833 67.1724 37.77C66.8924 37.9567 66.6358 38.19 66.4024 38.47C66.3558 38.5633 66.2858 38.68 66.1924 38.82C66.1458 38.9133 66.0991 39.03 66.0524 39.17C66.0058 39.2633 65.9358 39.38 65.8424 39.52C65.7491 39.6133 65.6791 39.7067 65.6324 39.8C65.6324 39.94 65.6558 40.08 65.7024 40.22C65.7491 40.36 65.7958 40.4767 65.8424 40.57C65.9358 41.0833 66.0058 41.5967 66.0524 42.11C66.0991 42.4833 66.0991 42.88 66.0524 43.3C66.0524 43.6733 66.0758 44.0467 66.1224 44.42C66.1224 44.8867 66.1691 45.3533 66.2624 45.82C66.4024 46.24 66.5424 46.66 66.6824 47.08C66.7291 47.3133 66.7991 47.5233 66.8924 47.71C67.0324 47.8967 67.1491 48.0833 67.2424 48.27C67.2891 48.3167 67.3358 48.41 67.3824 48.55C67.4291 48.6433 67.4758 48.7133 67.5224 48.76C67.6158 48.8067 67.7324 48.83 67.8724 48.83C68.0591 48.83 68.1991 48.8533 68.2924 48.9C68.3858 48.9 68.5024 48.9233 68.6424 48.97C68.7824 49.0167 68.8991 49.04 68.9924 49.04C69.1324 49.04 69.2724 49.0167 69.4124 48.97C69.5991 48.8767 69.7624 48.8067 69.9024 48.76C70.2291 48.6667 70.5558 48.5733 70.8824 48.48C71.2558 48.3867 71.6058 48.3167 71.9324 48.27C72.9124 48.13 73.9391 48.1767 75.0124 48.41C75.1991 48.5033 75.4324 48.62 75.7124 48.76C75.9924 48.8533 76.2491 48.9 76.4824 48.9C76.6224 48.9 76.7858 48.8533 76.9724 48.76C77.2058 48.62 77.3924 48.5033 77.5324 48.41C77.5791 48.41 77.6258 48.41 77.6724 48.41C77.7658 48.3633 77.8358 48.3167 77.8824 48.27C77.9291 48.2233 77.9524 48.1767 77.9524 48.13C77.9524 48.0367 77.9758 47.9667 78.0224 47.92C78.0691 47.7333 78.1158 47.5467 78.1624 47.36C78.2558 47.1267 78.3024 46.9167 78.3024 46.73C78.3024 46.4033 78.2791 46.0767 78.2324 45.75C78.1858 45.4233 78.1391 45.12 78.0924 44.84C78.0458 44.28 77.9758 43.72 77.8824 43.16C77.7891 42.5533 77.6258 41.9933 77.3924 41.48C77.3458 41.3867 77.2991 41.27 77.2524 41.13C77.2058 40.99 77.1591 40.8733 77.1124 40.78C76.6458 40.1267 76.0391 39.66 75.2924 39.38C74.5458 39.1 73.8691 38.7733 73.2624 38.4C72.8424 38.1667 72.4224 37.8633 72.0024 37.49C71.6291 37.1167 71.3258 36.72 71.0924 36.3C71.0458 36.16 70.9991 36.02 70.9524 35.88C70.9524 35.74 70.9524 35.6233 70.9524 35.53C70.9058 35.39 70.8591 35.2733 70.8124 35.18C70.7658 35.04 70.7424 34.9 70.7424 34.76C70.7424 34.62 70.7658 34.48 70.8124 34.34C70.9058 34.1533 70.9758 33.99 71.0224 33.85C71.0224 33.8033 71.0224 33.7333 71.0224 33.64C71.0691 33.5 71.1158 33.3833 71.1624 33.29C71.2091 33.1967 71.3024 33.1267 71.4424 33.08C71.5824 32.9867 71.6991 32.8933 71.7924 32.8C71.8858 32.7533 71.9791 32.6833 72.0724 32.59C72.1658 32.45 72.2824 32.3567 72.4224 32.31C72.5158 32.2633 72.6324 32.24 72.7724 32.24C72.9124 32.1933 73.0524 32.17 73.1924 32.17C73.5191 32.0767 73.8691 32.03 74.2424 32.03C74.6624 31.9833 75.0358 32.03 75.3624 32.17C75.5958 32.2167 75.8291 32.31 76.0624 32.45C76.2958 32.5433 76.5058 32.6367 76.6924 32.73C76.9258 32.8233 77.1591 32.9633 77.3924 33.15C77.6258 33.3367 77.8591 33.4533 78.0924 33.5C78.1858 33.5467 78.3024 33.5467 78.4424 33.5C78.5824 33.4533 78.7224 33.43 78.8624 33.43C78.9091 33.3833 78.9791 33.36 79.0724 33.36C79.2124 33.36 79.3291 33.36 79.4224 33.36C79.4691 33.3133 79.5158 33.2433 79.5624 33.15C79.6091 33.01 79.6558 32.9167 79.7024 32.87C79.8424 32.6833 79.9591 32.4967 80.0524 32.31C80.1924 32.1233 80.3091 31.9133 80.4024 31.68C80.6824 31.0733 80.9158 30.4433 81.1024 29.79C81.3358 29.09 81.6158 28.4367 81.9424 27.83C82.4091 26.9433 83.0391 26.1967 83.8324 25.59C84.2058 25.2633 84.6024 24.96 85.0224 24.68C85.4891 24.4 85.9091 24.0967 86.2824 23.77C86.8424 23.21 87.3558 22.6033 87.8224 21.95C88.3358 21.2967 88.8024 20.6433 89.2224 19.99C89.5491 19.5233 89.8524 19.0333 90.1324 18.52C90.4124 17.96 90.7391 17.4467 91.1124 16.98C91.2058 16.8867 91.3224 16.7233 91.4624 16.49C91.6024 16.2567 91.7191 16.1167 91.8124 16.07C91.9058 16.0233 92.0224 16.0233 92.1624 16.07C92.3024 16.07 92.3958 16.07 92.4424 16.07C92.4891 16.07 92.5824 16.07 92.7224 16.07C92.9091 16.0233 93.0258 16.0233 93.0724 16.07C93.1191 16.1167 93.1658 16.21 93.2124 16.35C93.2591 16.4433 93.2824 16.5133 93.2824 16.56C93.3291 16.7 93.3991 16.84 93.4924 16.98C93.5858 17.0733 93.6324 17.1667 93.6324 17.26C93.6324 17.4 93.6091 17.54 93.5624 17.68C93.5624 17.82 93.5624 18.0067 93.5624 18.24ZM141.395 18.24C141.302 18.7067 141.208 19.1733 141.115 19.64C141.022 20.06 140.882 20.48 140.695 20.9C140.368 21.74 139.948 22.5333 139.435 23.28C138.968 24.0267 138.478 24.75 137.965 25.45C137.592 25.9633 137.195 26.4767 136.775 26.99C136.402 27.5033 136.005 28.0167 135.585 28.53C134.605 29.5567 133.532 30.7 132.365 31.96C131.198 33.1733 130.335 34.2933 129.775 35.32C129.448 36.16 129.285 37.0467 129.285 37.98C129.332 38.9133 129.355 39.8467 129.355 40.78C129.355 41.3867 129.285 41.9933 129.145 42.6C129.052 43.16 128.958 43.72 128.865 44.28C128.772 45.12 128.725 45.96 128.725 46.8C128.725 47.5933 128.632 48.3867 128.445 49.18C128.305 49.74 128.142 50.3 127.955 50.86C127.768 51.3733 127.512 51.8867 127.185 52.4C127.138 52.4933 127.068 52.5867 126.975 52.68C126.928 52.82 126.882 52.9367 126.835 53.03C126.742 53.0767 126.625 53.1233 126.485 53.17C126.345 53.2633 126.228 53.3333 126.135 53.38C126.042 53.4267 125.925 53.4967 125.785 53.59C125.692 53.6833 125.598 53.73 125.505 53.73C125.412 53.7767 125.272 53.7767 125.085 53.73C124.945 53.73 124.828 53.7067 124.735 53.66C124.642 53.66 124.525 53.66 124.385 53.66C124.245 53.66 124.105 53.66 123.965 53.66C123.825 53.6133 123.685 53.5433 123.545 53.45C123.405 53.3567 123.265 53.2867 123.125 53.24C122.612 53.0067 122.075 52.7267 121.515 52.4C121.002 52.12 120.442 51.9567 119.835 51.91C119.182 51.91 118.552 52.0267 117.945 52.26C117.338 52.54 116.755 52.75 116.195 52.89C116.055 52.89 115.915 52.9133 115.775 52.96C115.635 53.0067 115.518 53.03 115.425 53.03C115.238 53.03 115.052 53.0067 114.865 52.96C114.725 52.9133 114.562 52.8667 114.375 52.82C114.328 52.82 114.235 52.7967 114.095 52.75C114.002 52.75 113.908 52.7267 113.815 52.68C113.722 52.6333 113.628 52.54 113.535 52.4C113.442 52.3067 113.348 52.2367 113.255 52.19C112.835 51.8167 112.485 51.3967 112.205 50.93C111.925 50.4633 111.645 49.9733 111.365 49.46C110.945 48.76 110.502 48.0367 110.035 47.29C109.615 46.4967 109.382 45.6567 109.335 44.77C109.335 44.2567 109.382 43.7433 109.475 43.23C109.615 42.7167 109.708 42.2033 109.755 41.69C109.848 41.1767 109.895 40.6867 109.895 40.22C109.895 39.7067 109.918 39.1933 109.965 38.68C110.012 38.26 110.035 37.8633 110.035 37.49C110.082 37.07 110.105 36.65 110.105 36.23C110.105 35.6233 110.012 35.04 109.825 34.48C109.638 33.8733 109.522 33.2667 109.475 32.66C109.335 31.7267 109.475 30.7467 109.895 29.72C110.222 29.02 110.572 28.3433 110.945 27.69C111.365 27.0367 111.738 26.36 112.065 25.66C112.392 24.96 112.695 24.2367 112.975 23.49C113.302 22.7433 113.675 22.0433 114.095 21.39C114.188 21.25 114.305 21.11 114.445 20.97C114.585 20.83 114.725 20.69 114.865 20.55C115.052 20.3633 115.285 20.2 115.565 20.06C115.845 19.8733 116.125 19.71 116.405 19.57C116.685 19.4767 116.988 19.4067 117.315 19.36C117.642 19.2667 117.922 19.1033 118.155 18.87C118.248 18.73 118.342 18.6133 118.435 18.52C118.575 18.4267 118.692 18.31 118.785 18.17C118.878 18.0767 118.925 18.03 118.925 18.03C118.925 17.9833 118.878 17.96 118.785 17.96C118.692 17.9133 118.622 17.89 118.575 17.89C118.482 17.7967 118.342 17.7033 118.155 17.61C118.015 17.47 117.875 17.4 117.735 17.4C117.688 17.4 117.595 17.4233 117.455 17.47C117.362 17.5167 117.292 17.5633 117.245 17.61C116.638 17.7967 116.125 18.0067 115.705 18.24C114.678 18.8 113.582 19.1733 112.415 19.36C111.715 19.5467 110.828 19.64 109.755 19.64C108.728 19.5933 107.702 19.5933 106.675 19.64C105.648 19.64 104.785 19.8033 104.085 20.13C103.478 20.3633 102.895 20.6433 102.335 20.97C101.822 21.2967 101.238 21.5767 100.585 21.81C100.492 21.81 100.375 21.8567 100.235 21.95C100.095 21.9967 99.9782 22.02 99.8848 22.02C99.7448 22.02 99.6048 22.02 99.4648 22.02C99.3248 21.9733 99.2082 21.9267 99.1148 21.88C99.0215 21.88 98.8815 21.88 98.6948 21.88C98.5548 21.88 98.4382 21.8567 98.3448 21.81C98.2515 21.7633 98.1582 21.6933 98.0648 21.6C97.9715 21.46 97.8782 21.3667 97.7848 21.32C97.6915 21.2267 97.5748 21.1333 97.4348 21.04C97.3415 20.9467 97.2482 20.8767 97.1548 20.83C97.1082 20.7367 97.0615 20.62 97.0148 20.48C97.0148 20.34 96.9915 20.2 96.9448 20.06C96.8982 19.9667 96.8515 19.8733 96.8048 19.78C96.7582 19.64 96.7348 19.5 96.7348 19.36C96.6415 18.8933 96.6415 18.4033 96.7348 17.89C96.8282 17.33 96.8748 16.8167 96.8748 16.35C96.8748 15.8367 96.8515 15.3233 96.8048 14.81C96.8048 14.25 96.8748 13.7367 97.0148 13.27C97.1548 12.7567 97.3648 12.2667 97.6448 11.8C97.9715 11.3333 98.2982 10.8667 98.6248 10.4C98.8582 10.0267 99.1148 9.63 99.3948 9.21C99.6748 8.74333 99.9782 8.34666 100.305 8.02C100.818 7.46 101.402 6.99333 102.055 6.62C102.755 6.2 103.362 5.68667 103.875 5.08C104.528 4.28666 105.135 3.44666 105.695 2.56C106.302 1.62667 107.118 0.996665 108.145 0.669997C108.752 0.436664 109.382 0.366663 110.035 0.459996C110.735 0.553331 111.388 0.646664 111.995 0.739996C112.695 0.879997 113.418 0.996664 114.165 1.09C114.912 1.18333 115.635 1.18333 116.335 1.09C117.408 0.903332 118.598 0.716666 119.905 0.529999C121.212 0.296666 122.402 0.203332 123.475 0.249998C124.222 0.249998 124.945 0.343332 125.645 0.529999C126.392 0.716666 127.162 0.833332 127.955 0.879999C128.562 0.879999 129.168 0.833331 129.775 0.739996C130.428 0.646664 131.082 0.623331 131.735 0.669997C131.828 0.716663 131.945 0.739996 132.085 0.739996C132.225 0.739996 132.342 0.763331 132.435 0.809999C133.135 1.04333 133.718 1.44 134.185 2C134.652 2.51333 135.072 3.05 135.445 3.61C135.958 4.35666 136.495 5.15 137.055 5.99C137.615 6.78333 138.222 7.50666 138.875 8.16C139.062 8.3 139.225 8.46333 139.365 8.65C139.552 8.83667 139.715 9 139.855 9.14C140.088 9.32666 140.322 9.51333 140.555 9.7C140.788 9.84 141.022 10.0033 141.255 10.19C141.395 10.2833 141.582 10.4233 141.815 10.61C142.048 10.75 142.188 10.89 142.235 11.03C142.328 11.17 142.375 11.3567 142.375 11.59C142.375 11.8233 142.375 12.01 142.375 12.15C142.375 12.1967 142.375 12.2667 142.375 12.36C142.422 12.4067 142.445 12.4533 142.445 12.5C142.398 12.5933 142.328 12.64 142.235 12.64C142.188 12.64 142.142 12.6633 142.095 12.71C141.908 12.7567 141.722 12.85 141.535 12.99C141.348 13.0833 141.162 13.1533 140.975 13.2C140.882 13.2 140.788 13.1767 140.695 13.13C140.602 13.0833 140.508 13.06 140.415 13.06C139.762 12.8733 139.225 12.64 138.805 12.36C138.058 11.8933 137.382 11.31 136.775 10.61C136.168 9.91 135.608 9.18667 135.095 8.44C134.675 7.78666 134.255 7.11 133.835 6.41C133.462 5.71 132.972 5.10333 132.365 4.59C132.272 4.49666 132.155 4.42667 132.015 4.38C131.875 4.28666 131.735 4.19333 131.595 4.1C130.895 3.63333 130.102 3.35333 129.215 3.26C128.328 3.16666 127.465 3.19 126.625 3.33C125.878 3.47 125.132 3.65666 124.385 3.89C123.638 4.12333 122.868 4.26333 122.075 4.31C121.048 4.40333 119.998 4.28666 118.925 3.96C117.898 3.63333 116.848 3.4 115.775 3.26C115.075 3.12 114.142 3.09666 112.975 3.19C111.808 3.28333 110.642 3.51666 109.475 3.89C108.308 4.26333 107.375 4.8 106.675 5.5C106.068 6.06 105.578 6.71333 105.205 7.46C104.832 8.16 104.365 8.79 103.805 9.35C103.385 9.77 102.942 10.19 102.475 10.61C102.055 10.9833 101.658 11.4033 101.285 11.87C101.238 11.9633 101.168 12.08 101.075 12.22C100.982 12.3133 100.912 12.4067 100.865 12.5C100.725 12.7333 100.632 13.0367 100.585 13.41C100.585 13.7833 100.608 14.11 100.655 14.39C100.702 14.53 100.748 14.7167 100.795 14.95C100.842 15.1833 100.912 15.3467 101.005 15.44C101.052 15.5333 101.122 15.6267 101.215 15.72C101.308 15.7667 101.402 15.8133 101.495 15.86C101.588 15.9533 101.682 16.07 101.775 16.21C101.868 16.3033 101.985 16.3733 102.125 16.42C102.265 16.4667 102.405 16.5133 102.545 16.56C102.732 16.56 102.895 16.5833 103.035 16.63C103.968 16.8167 104.878 16.77 105.765 16.49C106.698 16.1633 107.632 16.0233 108.565 16.07C109.125 16.07 109.662 16.1167 110.175 16.21C110.735 16.3033 111.295 16.3733 111.855 16.42C112.042 16.42 112.228 16.4433 112.415 16.49C112.648 16.49 112.858 16.49 113.045 16.49C113.558 16.3967 114.025 16.21 114.445 15.93C114.865 15.65 115.215 15.2767 115.495 14.81C115.822 14.3433 116.172 13.97 116.545 13.69C116.965 13.41 117.432 13.2 117.945 13.06C118.318 12.9667 118.715 12.9433 119.135 12.99C119.555 12.99 119.928 13.0367 120.255 13.13C120.395 13.13 120.535 13.1533 120.675 13.2C120.815 13.2 120.932 13.2233 121.025 13.27C121.118 13.3633 121.212 13.4567 121.305 13.55C121.398 13.6433 121.492 13.7367 121.585 13.83C122.192 14.39 122.588 15.02 122.775 15.72C122.868 16.0933 122.868 16.49 122.775 16.91C122.728 17.33 122.658 17.7267 122.565 18.1C122.005 19.92 121.048 21.39 119.695 22.51C119.275 22.8367 118.832 23.14 118.365 23.42C117.898 23.6533 117.478 23.9567 117.105 24.33C116.545 24.8433 116.055 25.45 115.635 26.15C115.215 26.8033 114.865 27.48 114.585 28.18C114.398 28.5533 114.235 28.9267 114.095 29.3C114.002 29.6267 113.955 30 113.955 30.42C113.955 30.56 113.932 30.7233 113.885 30.91C113.885 31.05 113.908 31.1667 113.955 31.26C113.955 31.3533 114.002 31.47 114.095 31.61C114.235 31.7033 114.328 31.7967 114.375 31.89C114.422 31.9833 114.468 32.1 114.515 32.24C114.608 32.3333 114.702 32.4267 114.795 32.52C114.982 32.7067 115.168 32.87 115.355 33.01C115.588 33.15 115.775 33.3367 115.915 33.57C116.008 33.6633 116.078 33.78 116.125 33.92C116.172 34.0133 116.218 34.1067 116.265 34.2C116.358 34.2933 116.428 34.41 116.475 34.55C116.568 34.69 116.638 34.8067 116.685 34.9C116.685 34.9933 116.662 35.11 116.615 35.25C116.615 35.39 116.615 35.53 116.615 35.67C116.568 35.7633 116.545 35.9033 116.545 36.09C116.592 36.23 116.592 36.3467 116.545 36.44C116.452 36.5333 116.335 36.65 116.195 36.79C116.055 36.93 115.938 37.0467 115.845 37.14C115.612 37.3733 115.332 37.5833 115.005 37.77C114.725 37.9567 114.468 38.19 114.235 38.47C114.188 38.5633 114.118 38.68 114.025 38.82C113.978 38.9133 113.932 39.03 113.885 39.17C113.838 39.2633 113.768 39.38 113.675 39.52C113.582 39.6133 113.512 39.7067 113.465 39.8C113.465 39.94 113.488 40.08 113.535 40.22C113.582 40.36 113.628 40.4767 113.675 40.57C113.768 41.0833 113.838 41.5967 113.885 42.11C113.932 42.4833 113.932 42.88 113.885 43.3C113.885 43.6733 113.908 44.0467 113.955 44.42C113.955 44.8867 114.002 45.3533 114.095 45.82C114.235 46.24 114.375 46.66 114.515 47.08C114.562 47.3133 114.632 47.5233 114.725 47.71C114.865 47.8967 114.982 48.0833 115.075 48.27C115.122 48.3167 115.168 48.41 115.215 48.55C115.262 48.6433 115.308 48.7133 115.355 48.76C115.448 48.8067 115.565 48.83 115.705 48.83C115.892 48.83 116.032 48.8533 116.125 48.9C116.218 48.9 116.335 48.9233 116.475 48.97C116.615 49.0167 116.732 49.04 116.825 49.04C116.965 49.04 117.105 49.0167 117.245 48.97C117.432 48.8767 117.595 48.8067 117.735 48.76C118.062 48.6667 118.388 48.5733 118.715 48.48C119.088 48.3867 119.438 48.3167 119.765 48.27C120.745 48.13 121.772 48.1767 122.845 48.41C123.032 48.5033 123.265 48.62 123.545 48.76C123.825 48.8533 124.082 48.9 124.315 48.9C124.455 48.9 124.618 48.8533 124.805 48.76C125.038 48.62 125.225 48.5033 125.365 48.41C125.412 48.41 125.458 48.41 125.505 48.41C125.598 48.3633 125.668 48.3167 125.715 48.27C125.762 48.2233 125.785 48.1767 125.785 48.13C125.785 48.0367 125.808 47.9667 125.855 47.92C125.902 47.7333 125.948 47.5467 125.995 47.36C126.088 47.1267 126.135 46.9167 126.135 46.73C126.135 46.4033 126.112 46.0767 126.065 45.75C126.018 45.4233 125.972 45.12 125.925 44.84C125.878 44.28 125.808 43.72 125.715 43.16C125.622 42.5533 125.458 41.9933 125.225 41.48C125.178 41.3867 125.132 41.27 125.085 41.13C125.038 40.99 124.992 40.8733 124.945 40.78C124.478 40.1267 123.872 39.66 123.125 39.38C122.378 39.1 121.702 38.7733 121.095 38.4C120.675 38.1667 120.255 37.8633 119.835 37.49C119.462 37.1167 119.158 36.72 118.925 36.3C118.878 36.16 118.832 36.02 118.785 35.88C118.785 35.74 118.785 35.6233 118.785 35.53C118.738 35.39 118.692 35.2733 118.645 35.18C118.598 35.04 118.575 34.9 118.575 34.76C118.575 34.62 118.598 34.48 118.645 34.34C118.738 34.1533 118.808 33.99 118.855 33.85C118.855 33.8033 118.855 33.7333 118.855 33.64C118.902 33.5 118.948 33.3833 118.995 33.29C119.042 33.1967 119.135 33.1267 119.275 33.08C119.415 32.9867 119.532 32.8933 119.625 32.8C119.718 32.7533 119.812 32.6833 119.905 32.59C119.998 32.45 120.115 32.3567 120.255 32.31C120.348 32.2633 120.465 32.24 120.605 32.24C120.745 32.1933 120.885 32.17 121.025 32.17C121.352 32.0767 121.702 32.03 122.075 32.03C122.495 31.9833 122.868 32.03 123.195 32.17C123.428 32.2167 123.662 32.31 123.895 32.45C124.128 32.5433 124.338 32.6367 124.525 32.73C124.758 32.8233 124.992 32.9633 125.225 33.15C125.458 33.3367 125.692 33.4533 125.925 33.5C126.018 33.5467 126.135 33.5467 126.275 33.5C126.415 33.4533 126.555 33.43 126.695 33.43C126.742 33.3833 126.812 33.36 126.905 33.36C127.045 33.36 127.162 33.36 127.255 33.36C127.302 33.3133 127.348 33.2433 127.395 33.15C127.442 33.01 127.488 32.9167 127.535 32.87C127.675 32.6833 127.792 32.4967 127.885 32.31C128.025 32.1233 128.142 31.9133 128.235 31.68C128.515 31.0733 128.748 30.4433 128.935 29.79C129.168 29.09 129.448 28.4367 129.775 27.83C130.242 26.9433 130.872 26.1967 131.665 25.59C132.038 25.2633 132.435 24.96 132.855 24.68C133.322 24.4 133.742 24.0967 134.115 23.77C134.675 23.21 135.188 22.6033 135.655 21.95C136.168 21.2967 136.635 20.6433 137.055 19.99C137.382 19.5233 137.685 19.0333 137.965 18.52C138.245 17.96 138.572 17.4467 138.945 16.98C139.038 16.8867 139.155 16.7233 139.295 16.49C139.435 16.2567 139.552 16.1167 139.645 16.07C139.738 16.0233 139.855 16.0233 139.995 16.07C140.135 16.07 140.228 16.07 140.275 16.07C140.322 16.07 140.415 16.07 140.555 16.07C140.742 16.0233 140.858 16.0233 140.905 16.07C140.952 16.1167 140.998 16.21 141.045 16.35C141.092 16.4433 141.115 16.5133 141.115 16.56C141.162 16.7 141.232 16.84 141.325 16.98C141.418 17.0733 141.465 17.1667 141.465 17.26C141.465 17.4 141.442 17.54 141.395 17.68C141.395 17.82 141.395 18.0067 141.395 18.24ZM189.227 18.24C189.134 18.7067 189.041 19.1733 188.947 19.64C188.854 20.06 188.714 20.48 188.527 20.9C188.201 21.74 187.781 22.5333 187.267 23.28C186.801 24.0267 186.311 24.75 185.797 25.45C185.424 25.9633 185.027 26.4767 184.607 26.99C184.234 27.5033 183.837 28.0167 183.417 28.53C182.437 29.5567 181.364 30.7 180.197 31.96C179.031 33.1733 178.167 34.2933 177.607 35.32C177.281 36.16 177.117 37.0467 177.117 37.98C177.164 38.9133 177.187 39.8467 177.187 40.78C177.187 41.3867 177.117 41.9933 176.977 42.6C176.884 43.16 176.791 43.72 176.697 44.28C176.604 45.12 176.557 45.96 176.557 46.8C176.557 47.5933 176.464 48.3867 176.277 49.18C176.137 49.74 175.974 50.3 175.787 50.86C175.601 51.3733 175.344 51.8867 175.017 52.4C174.971 52.4933 174.901 52.5867 174.807 52.68C174.761 52.82 174.714 52.9367 174.667 53.03C174.574 53.0767 174.457 53.1233 174.317 53.17C174.177 53.2633 174.061 53.3333 173.967 53.38C173.874 53.4267 173.757 53.4967 173.617 53.59C173.524 53.6833 173.431 53.73 173.337 53.73C173.244 53.7767 173.104 53.7767 172.917 53.73C172.777 53.73 172.661 53.7067 172.567 53.66C172.474 53.66 172.357 53.66 172.217 53.66C172.077 53.66 171.937 53.66 171.797 53.66C171.657 53.6133 171.517 53.5433 171.377 53.45C171.237 53.3567 171.097 53.2867 170.957 53.24C170.444 53.0067 169.907 52.7267 169.347 52.4C168.834 52.12 168.274 51.9567 167.667 51.91C167.014 51.91 166.384 52.0267 165.777 52.26C165.171 52.54 164.587 52.75 164.027 52.89C163.887 52.89 163.747 52.9133 163.607 52.96C163.467 53.0067 163.351 53.03 163.257 53.03C163.071 53.03 162.884 53.0067 162.697 52.96C162.557 52.9133 162.394 52.8667 162.207 52.82C162.161 52.82 162.067 52.7967 161.927 52.75C161.834 52.75 161.741 52.7267 161.647 52.68C161.554 52.6333 161.461 52.54 161.367 52.4C161.274 52.3067 161.181 52.2367 161.087 52.19C160.667 51.8167 160.317 51.3967 160.037 50.93C159.757 50.4633 159.477 49.9733 159.197 49.46C158.777 48.76 158.334 48.0367 157.867 47.29C157.447 46.4967 157.214 45.6567 157.167 44.77C157.167 44.2567 157.214 43.7433 157.307 43.23C157.447 42.7167 157.541 42.2033 157.587 41.69C157.681 41.1767 157.727 40.6867 157.727 40.22C157.727 39.7067 157.751 39.1933 157.797 38.68C157.844 38.26 157.867 37.8633 157.867 37.49C157.914 37.07 157.937 36.65 157.937 36.23C157.937 35.6233 157.844 35.04 157.657 34.48C157.471 33.8733 157.354 33.2667 157.307 32.66C157.167 31.7267 157.307 30.7467 157.727 29.72C158.054 29.02 158.404 28.3433 158.777 27.69C159.197 27.0367 159.571 26.36 159.897 25.66C160.224 24.96 160.527 24.2367 160.807 23.49C161.134 22.7433 161.507 22.0433 161.927 21.39C162.021 21.25 162.137 21.11 162.277 20.97C162.417 20.83 162.557 20.69 162.697 20.55C162.884 20.3633 163.117 20.2 163.397 20.06C163.677 19.8733 163.957 19.71 164.237 19.57C164.517 19.4767 164.821 19.4067 165.147 19.36C165.474 19.2667 165.754 19.1033 165.987 18.87C166.081 18.73 166.174 18.6133 166.267 18.52C166.407 18.4267 166.524 18.31 166.617 18.17C166.711 18.0767 166.757 18.03 166.757 18.03C166.757 17.9833 166.711 17.96 166.617 17.96C166.524 17.9133 166.454 17.89 166.407 17.89C166.314 17.7967 166.174 17.7033 165.987 17.61C165.847 17.47 165.707 17.4 165.567 17.4C165.521 17.4 165.427 17.4233 165.287 17.47C165.194 17.5167 165.124 17.5633 165.077 17.61C164.471 17.7967 163.957 18.0067 163.537 18.24C162.511 18.8 161.414 19.1733 160.247 19.36C159.547 19.5467 158.661 19.64 157.587 19.64C156.561 19.5933 155.534 19.5933 154.507 19.64C153.481 19.64 152.617 19.8033 151.917 20.13C151.311 20.3633 150.727 20.6433 150.167 20.97C149.654 21.2967 149.071 21.5767 148.417 21.81C148.324 21.81 148.207 21.8567 148.067 21.95C147.927 21.9967 147.811 22.02 147.717 22.02C147.577 22.02 147.437 22.02 147.297 22.02C147.157 21.9733 147.041 21.9267 146.947 21.88C146.854 21.88 146.714 21.88 146.527 21.88C146.387 21.88 146.271 21.8567 146.177 21.81C146.084 21.7633 145.991 21.6933 145.897 21.6C145.804 21.46 145.711 21.3667 145.617 21.32C145.524 21.2267 145.407 21.1333 145.267 21.04C145.174 20.9467 145.081 20.8767 144.987 20.83C144.941 20.7367 144.894 20.62 144.847 20.48C144.847 20.34 144.824 20.2 144.777 20.06C144.731 19.9667 144.684 19.8733 144.637 19.78C144.591 19.64 144.567 19.5 144.567 19.36C144.474 18.8933 144.474 18.4033 144.567 17.89C144.661 17.33 144.707 16.8167 144.707 16.35C144.707 15.8367 144.684 15.3233 144.637 14.81C144.637 14.25 144.707 13.7367 144.847 13.27C144.987 12.7567 145.197 12.2667 145.477 11.8C145.804 11.3333 146.131 10.8667 146.457 10.4C146.691 10.0267 146.947 9.63 147.227 9.21C147.507 8.74333 147.811 8.34666 148.137 8.02C148.651 7.46 149.234 6.99333 149.887 6.62C150.587 6.2 151.194 5.68667 151.707 5.08C152.361 4.28666 152.967 3.44666 153.527 2.56C154.134 1.62667 154.951 0.996665 155.977 0.669997C156.584 0.436664 157.214 0.366663 157.867 0.459996C158.567 0.553331 159.221 0.646664 159.827 0.739996C160.527 0.879997 161.251 0.996664 161.997 1.09C162.744 1.18333 163.467 1.18333 164.167 1.09C165.241 0.903332 166.431 0.716666 167.737 0.529999C169.044 0.296666 170.234 0.203332 171.307 0.249998C172.054 0.249998 172.777 0.343332 173.477 0.529999C174.224 0.716666 174.994 0.833332 175.787 0.879999C176.394 0.879999 177.001 0.833331 177.607 0.739996C178.261 0.646664 178.914 0.623331 179.567 0.669997C179.661 0.716663 179.777 0.739996 179.917 0.739996C180.057 0.739996 180.174 0.763331 180.267 0.809999C180.967 1.04333 181.551 1.44 182.017 2C182.484 2.51333 182.904 3.05 183.277 3.61C183.791 4.35666 184.327 5.15 184.887 5.99C185.447 6.78333 186.054 7.50666 186.707 8.16C186.894 8.3 187.057 8.46333 187.197 8.65C187.384 8.83667 187.547 9 187.687 9.14C187.921 9.32666 188.154 9.51333 188.387 9.7C188.621 9.84 188.854 10.0033 189.087 10.19C189.227 10.2833 189.414 10.4233 189.647 10.61C189.881 10.75 190.021 10.89 190.067 11.03C190.161 11.17 190.207 11.3567 190.207 11.59C190.207 11.8233 190.207 12.01 190.207 12.15C190.207 12.1967 190.207 12.2667 190.207 12.36C190.254 12.4067 190.277 12.4533 190.277 12.5C190.231 12.5933 190.161 12.64 190.067 12.64C190.021 12.64 189.974 12.6633 189.927 12.71C189.741 12.7567 189.554 12.85 189.367 12.99C189.181 13.0833 188.994 13.1533 188.807 13.2C188.714 13.2 188.621 13.1767 188.527 13.13C188.434 13.0833 188.341 13.06 188.247 13.06C187.594 12.8733 187.057 12.64 186.637 12.36C185.891 11.8933 185.214 11.31 184.607 10.61C184.001 9.91 183.441 9.18667 182.927 8.44C182.507 7.78666 182.087 7.11 181.667 6.41C181.294 5.71 180.804 5.10333 180.197 4.59C180.104 4.49666 179.987 4.42667 179.847 4.38C179.707 4.28666 179.567 4.19333 179.427 4.1C178.727 3.63333 177.934 3.35333 177.047 3.26C176.161 3.16666 175.297 3.19 174.457 3.33C173.711 3.47 172.964 3.65666 172.217 3.89C171.471 4.12333 170.701 4.26333 169.907 4.31C168.881 4.40333 167.831 4.28666 166.757 3.96C165.731 3.63333 164.681 3.4 163.607 3.26C162.907 3.12 161.974 3.09666 160.807 3.19C159.641 3.28333 158.474 3.51666 157.307 3.89C156.141 4.26333 155.207 4.8 154.507 5.5C153.901 6.06 153.411 6.71333 153.037 7.46C152.664 8.16 152.197 8.79 151.637 9.35C151.217 9.77 150.774 10.19 150.307 10.61C149.887 10.9833 149.491 11.4033 149.117 11.87C149.071 11.9633 149.001 12.08 148.907 12.22C148.814 12.3133 148.744 12.4067 148.697 12.5C148.557 12.7333 148.464 13.0367 148.417 13.41C148.417 13.7833 148.441 14.11 148.487 14.39C148.534 14.53 148.581 14.7167 148.627 14.95C148.674 15.1833 148.744 15.3467 148.837 15.44C148.884 15.5333 148.954 15.6267 149.047 15.72C149.141 15.7667 149.234 15.8133 149.327 15.86C149.421 15.9533 149.514 16.07 149.607 16.21C149.701 16.3033 149.817 16.3733 149.957 16.42C150.097 16.4667 150.237 16.5133 150.377 16.56C150.564 16.56 150.727 16.5833 150.867 16.63C151.801 16.8167 152.711 16.77 153.597 16.49C154.531 16.1633 155.464 16.0233 156.397 16.07C156.957 16.07 157.494 16.1167 158.007 16.21C158.567 16.3033 159.127 16.3733 159.687 16.42C159.874 16.42 160.061 16.4433 160.247 16.49C160.481 16.49 160.691 16.49 160.877 16.49C161.391 16.3967 161.857 16.21 162.277 15.93C162.697 15.65 163.047 15.2767 163.327 14.81C163.654 14.3433 164.004 13.97 164.377 13.69C164.797 13.41 165.264 13.2 165.777 13.06C166.151 12.9667 166.547 12.9433 166.967 12.99C167.387 12.99 167.761 13.0367 168.087 13.13C168.227 13.13 168.367 13.1533 168.507 13.2C168.647 13.2 168.764 13.2233 168.857 13.27C168.951 13.3633 169.044 13.4567 169.137 13.55C169.231 13.6433 169.324 13.7367 169.417 13.83C170.024 14.39 170.421 15.02 170.607 15.72C170.701 16.0933 170.701 16.49 170.607 16.91C170.561 17.33 170.491 17.7267 170.397 18.1C169.837 19.92 168.881 21.39 167.527 22.51C167.107 22.8367 166.664 23.14 166.197 23.42C165.731 23.6533 165.311 23.9567 164.937 24.33C164.377 24.8433 163.887 25.45 163.467 26.15C163.047 26.8033 162.697 27.48 162.417 28.18C162.231 28.5533 162.067 28.9267 161.927 29.3C161.834 29.6267 161.787 30 161.787 30.42C161.787 30.56 161.764 30.7233 161.717 30.91C161.717 31.05 161.741 31.1667 161.787 31.26C161.787 31.3533 161.834 31.47 161.927 31.61C162.067 31.7033 162.161 31.7967 162.207 31.89C162.254 31.9833 162.301 32.1 162.347 32.24C162.441 32.3333 162.534 32.4267 162.627 32.52C162.814 32.7067 163.001 32.87 163.187 33.01C163.421 33.15 163.607 33.3367 163.747 33.57C163.841 33.6633 163.911 33.78 163.957 33.92C164.004 34.0133 164.051 34.1067 164.097 34.2C164.191 34.2933 164.261 34.41 164.307 34.55C164.401 34.69 164.471 34.8067 164.517 34.9C164.517 34.9933 164.494 35.11 164.447 35.25C164.447 35.39 164.447 35.53 164.447 35.67C164.401 35.7633 164.377 35.9033 164.377 36.09C164.424 36.23 164.424 36.3467 164.377 36.44C164.284 36.5333 164.167 36.65 164.027 36.79C163.887 36.93 163.771 37.0467 163.677 37.14C163.444 37.3733 163.164 37.5833 162.837 37.77C162.557 37.9567 162.301 38.19 162.067 38.47C162.021 38.5633 161.951 38.68 161.857 38.82C161.811 38.9133 161.764 39.03 161.717 39.17C161.671 39.2633 161.601 39.38 161.507 39.52C161.414 39.6133 161.344 39.7067 161.297 39.8C161.297 39.94 161.321 40.08 161.367 40.22C161.414 40.36 161.461 40.4767 161.507 40.57C161.601 41.0833 161.671 41.5967 161.717 42.11C161.764 42.4833 161.764 42.88 161.717 43.3C161.717 43.6733 161.741 44.0467 161.787 44.42C161.787 44.8867 161.834 45.3533 161.927 45.82C162.067 46.24 162.207 46.66 162.347 47.08C162.394 47.3133 162.464 47.5233 162.557 47.71C162.697 47.8967 162.814 48.0833 162.907 48.27C162.954 48.3167 163.001 48.41 163.047 48.55C163.094 48.6433 163.141 48.7133 163.187 48.76C163.281 48.8067 163.397 48.83 163.537 48.83C163.724 48.83 163.864 48.8533 163.957 48.9C164.051 48.9 164.167 48.9233 164.307 48.97C164.447 49.0167 164.564 49.04 164.657 49.04C164.797 49.04 164.937 49.0167 165.077 48.97C165.264 48.8767 165.427 48.8067 165.567 48.76C165.894 48.6667 166.221 48.5733 166.547 48.48C166.921 48.3867 167.271 48.3167 167.597 48.27C168.577 48.13 169.604 48.1767 170.677 48.41C170.864 48.5033 171.097 48.62 171.377 48.76C171.657 48.8533 171.914 48.9 172.147 48.9C172.287 48.9 172.451 48.8533 172.637 48.76C172.871 48.62 173.057 48.5033 173.197 48.41C173.244 48.41 173.291 48.41 173.337 48.41C173.431 48.3633 173.501 48.3167 173.547 48.27C173.594 48.2233 173.617 48.1767 173.617 48.13C173.617 48.0367 173.641 47.9667 173.687 47.92C173.734 47.7333 173.781 47.5467 173.827 47.36C173.921 47.1267 173.967 46.9167 173.967 46.73C173.967 46.4033 173.944 46.0767 173.897 45.75C173.851 45.4233 173.804 45.12 173.757 44.84C173.711 44.28 173.641 43.72 173.547 43.16C173.454 42.5533 173.291 41.9933 173.057 41.48C173.011 41.3867 172.964 41.27 172.917 41.13C172.871 40.99 172.824 40.8733 172.777 40.78C172.311 40.1267 171.704 39.66 170.957 39.38C170.211 39.1 169.534 38.7733 168.927 38.4C168.507 38.1667 168.087 37.8633 167.667 37.49C167.294 37.1167 166.991 36.72 166.757 36.3C166.711 36.16 166.664 36.02 166.617 35.88C166.617 35.74 166.617 35.6233 166.617 35.53C166.571 35.39 166.524 35.2733 166.477 35.18C166.431 35.04 166.407 34.9 166.407 34.76C166.407 34.62 166.431 34.48 166.477 34.34C166.571 34.1533 166.641 33.99 166.687 33.85C166.687 33.8033 166.687 33.7333 166.687 33.64C166.734 33.5 166.781 33.3833 166.827 33.29C166.874 33.1967 166.967 33.1267 167.107 33.08C167.247 32.9867 167.364 32.8933 167.457 32.8C167.551 32.7533 167.644 32.6833 167.737 32.59C167.831 32.45 167.947 32.3567 168.087 32.31C168.181 32.2633 168.297 32.24 168.437 32.24C168.577 32.1933 168.717 32.17 168.857 32.17C169.184 32.0767 169.534 32.03 169.907 32.03C170.327 31.9833 170.701 32.03 171.027 32.17C171.261 32.2167 171.494 32.31 171.727 32.45C171.961 32.5433 172.171 32.6367 172.357 32.73C172.591 32.8233 172.824 32.9633 173.057 33.15C173.291 33.3367 173.524 33.4533 173.757 33.5C173.851 33.5467 173.967 33.5467 174.107 33.5C174.247 33.4533 174.387 33.43 174.527 33.43C174.574 33.3833 174.644 33.36 174.737 33.36C174.877 33.36 174.994 33.36 175.087 33.36C175.134 33.3133 175.181 33.2433 175.227 33.15C175.274 33.01 175.321 32.9167 175.367 32.87C175.507 32.6833 175.624 32.4967 175.717 32.31C175.857 32.1233 175.974 31.9133 176.067 31.68C176.347 31.0733 176.581 30.4433 176.767 29.79C177.001 29.09 177.281 28.4367 177.607 27.83C178.074 26.9433 178.704 26.1967 179.497 25.59C179.871 25.2633 180.267 24.96 180.687 24.68C181.154 24.4 181.574 24.0967 181.947 23.77C182.507 23.21 183.021 22.6033 183.487 21.95C184.001 21.2967 184.467 20.6433 184.887 19.99C185.214 19.5233 185.517 19.0333 185.797 18.52C186.077 17.96 186.404 17.4467 186.777 16.98C186.871 16.8867 186.987 16.7233 187.127 16.49C187.267 16.2567 187.384 16.1167 187.477 16.07C187.571 16.0233 187.687 16.0233 187.827 16.07C187.967 16.07 188.061 16.07 188.107 16.07C188.154 16.07 188.247 16.07 188.387 16.07C188.574 16.0233 188.691 16.0233 188.737 16.07C188.784 16.1167 188.831 16.21 188.877 16.35C188.924 16.4433 188.947 16.5133 188.947 16.56C188.994 16.7 189.064 16.84 189.157 16.98C189.251 17.0733 189.297 17.1667 189.297 17.26C189.297 17.4 189.274 17.54 189.227 17.68C189.227 17.82 189.227 18.0067 189.227 18.24ZM237.06 18.24C236.966 18.7067 236.873 19.1733 236.78 19.64C236.686 20.06 236.546 20.48 236.36 20.9C236.033 21.74 235.613 22.5333 235.1 23.28C234.633 24.0267 234.143 24.75 233.63 25.45C233.256 25.9633 232.86 26.4767 232.44 26.99C232.066 27.5033 231.67 28.0167 231.25 28.53C230.27 29.5567 229.196 30.7 228.03 31.96C226.863 33.1733 226 34.2933 225.44 35.32C225.113 36.16 224.95 37.0467 224.95 37.98C224.996 38.9133 225.02 39.8467 225.02 40.78C225.02 41.3867 224.95 41.9933 224.81 42.6C224.716 43.16 224.623 43.72 224.53 44.28C224.436 45.12 224.39 45.96 224.39 46.8C224.39 47.5933 224.296 48.3867 224.11 49.18C223.97 49.74 223.806 50.3 223.62 50.86C223.433 51.3733 223.176 51.8867 222.85 52.4C222.803 52.4933 222.733 52.5867 222.64 52.68C222.593 52.82 222.546 52.9367 222.5 53.03C222.406 53.0767 222.29 53.1233 222.15 53.17C222.01 53.2633 221.893 53.3333 221.8 53.38C221.706 53.4267 221.59 53.4967 221.45 53.59C221.356 53.6833 221.263 53.73 221.17 53.73C221.076 53.7767 220.936 53.7767 220.75 53.73C220.61 53.73 220.493 53.7067 220.4 53.66C220.306 53.66 220.19 53.66 220.05 53.66C219.91 53.66 219.77 53.66 219.63 53.66C219.49 53.6133 219.35 53.5433 219.21 53.45C219.07 53.3567 218.93 53.2867 218.79 53.24C218.276 53.0067 217.74 52.7267 217.18 52.4C216.666 52.12 216.106 51.9567 215.5 51.91C214.846 51.91 214.216 52.0267 213.61 52.26C213.003 52.54 212.42 52.75 211.86 52.89C211.72 52.89 211.58 52.9133 211.44 52.96C211.3 53.0067 211.183 53.03 211.09 53.03C210.903 53.03 210.716 53.0067 210.53 52.96C210.39 52.9133 210.226 52.8667 210.04 52.82C209.993 52.82 209.9 52.7967 209.76 52.75C209.666 52.75 209.573 52.7267 209.48 52.68C209.386 52.6333 209.293 52.54 209.2 52.4C209.106 52.3067 209.013 52.2367 208.92 52.19C208.5 51.8167 208.15 51.3967 207.87 50.93C207.59 50.4633 207.31 49.9733 207.03 49.46C206.61 48.76 206.166 48.0367 205.7 47.29C205.28 46.4967 205.046 45.6567 205 44.77C205 44.2567 205.046 43.7433 205.14 43.23C205.28 42.7167 205.373 42.2033 205.42 41.69C205.513 41.1767 205.56 40.6867 205.56 40.22C205.56 39.7067 205.583 39.1933 205.63 38.68C205.676 38.26 205.7 37.8633 205.7 37.49C205.746 37.07 205.77 36.65 205.77 36.23C205.77 35.6233 205.676 35.04 205.49 34.48C205.303 33.8733 205.186 33.2667 205.14 32.66C205 31.7267 205.14 30.7467 205.56 29.72C205.886 29.02 206.236 28.3433 206.61 27.69C207.03 27.0367 207.403 26.36 207.73 25.66C208.056 24.96 208.36 24.2367 208.64 23.49C208.966 22.7433 209.34 22.0433 209.76 21.39C209.853 21.25 209.97 21.11 210.11 20.97C210.25 20.83 210.39 20.69 210.53 20.55C210.716 20.3633 210.95 20.2 211.23 20.06C211.51 19.8733 211.79 19.71 212.07 19.57C212.35 19.4767 212.653 19.4067 212.98 19.36C213.306 19.2667 213.586 19.1033 213.82 18.87C213.913 18.73 214.006 18.6133 214.1 18.52C214.24 18.4267 214.356 18.31 214.45 18.17C214.543 18.0767 214.59 18.03 214.59 18.03C214.59 17.9833 214.543 17.96 214.45 17.96C214.356 17.9133 214.286 17.89 214.24 17.89C214.146 17.7967 214.006 17.7033 213.82 17.61C213.68 17.47 213.54 17.4 213.4 17.4C213.353 17.4 213.26 17.4233 213.12 17.47C213.026 17.5167 212.956 17.5633 212.91 17.61C212.303 17.7967 211.79 18.0067 211.37 18.24C210.343 18.8 209.246 19.1733 208.08 19.36C207.38 19.5467 206.493 19.64 205.42 19.64C204.393 19.5933 203.366 19.5933 202.34 19.64C201.313 19.64 200.45 19.8033 199.75 20.13C199.143 20.3633 198.56 20.6433 198 20.97C197.486 21.2967 196.903 21.5767 196.25 21.81C196.156 21.81 196.04 21.8567 195.9 21.95C195.76 21.9967 195.643 22.02 195.55 22.02C195.41 22.02 195.27 22.02 195.13 22.02C194.99 21.9733 194.873 21.9267 194.78 21.88C194.686 21.88 194.546 21.88 194.36 21.88C194.22 21.88 194.103 21.8567 194.01 21.81C193.916 21.7633 193.823 21.6933 193.73 21.6C193.636 21.46 193.543 21.3667 193.45 21.32C193.356 21.2267 193.24 21.1333 193.1 21.04C193.006 20.9467 192.913 20.8767 192.82 20.83C192.773 20.7367 192.726 20.62 192.68 20.48C192.68 20.34 192.656 20.2 192.61 20.06C192.563 19.9667 192.516 19.8733 192.47 19.78C192.423 19.64 192.4 19.5 192.4 19.36C192.306 18.8933 192.306 18.4033 192.4 17.89C192.493 17.33 192.54 16.8167 192.54 16.35C192.54 15.8367 192.516 15.3233 192.47 14.81C192.47 14.25 192.54 13.7367 192.68 13.27C192.82 12.7567 193.03 12.2667 193.31 11.8C193.636 11.3333 193.963 10.8667 194.29 10.4C194.523 10.0267 194.78 9.63 195.06 9.21C195.34 8.74333 195.643 8.34666 195.97 8.02C196.483 7.46 197.066 6.99333 197.72 6.62C198.42 6.2 199.026 5.68667 199.54 5.08C200.193 4.28666 200.8 3.44666 201.36 2.56C201.966 1.62667 202.783 0.996665 203.81 0.669997C204.416 0.436664 205.046 0.366663 205.7 0.459996C206.4 0.553331 207.053 0.646664 207.66 0.739996C208.36 0.879997 209.083 0.996664 209.83 1.09C210.576 1.18333 211.3 1.18333 212 1.09C213.073 0.903332 214.263 0.716666 215.57 0.529999C216.876 0.296666 218.066 0.203332 219.14 0.249998C219.886 0.249998 220.61 0.343332 221.31 0.529999C222.056 0.716666 222.826 0.833332 223.62 0.879999C224.226 0.879999 224.833 0.833331 225.44 0.739996C226.093 0.646664 226.746 0.623331 227.4 0.669997C227.493 0.716663 227.61 0.739996 227.75 0.739996C227.89 0.739996 228.006 0.763331 228.1 0.809999C228.8 1.04333 229.383 1.44 229.85 2C230.316 2.51333 230.736 3.05 231.11 3.61C231.623 4.35666 232.16 5.15 232.72 5.99C233.28 6.78333 233.886 7.50666 234.54 8.16C234.726 8.3 234.89 8.46333 235.03 8.65C235.216 8.83667 235.38 9 235.52 9.14C235.753 9.32666 235.986 9.51333 236.22 9.7C236.453 9.84 236.686 10.0033 236.92 10.19C237.06 10.2833 237.246 10.4233 237.48 10.61C237.713 10.75 237.853 10.89 237.9 11.03C237.993 11.17 238.04 11.3567 238.04 11.59C238.04 11.8233 238.04 12.01 238.04 12.15C238.04 12.1967 238.04 12.2667 238.04 12.36C238.086 12.4067 238.11 12.4533 238.11 12.5C238.063 12.5933 237.993 12.64 237.9 12.64C237.853 12.64 237.806 12.6633 237.76 12.71C237.573 12.7567 237.386 12.85 237.2 12.99C237.013 13.0833 236.826 13.1533 236.64 13.2C236.546 13.2 236.453 13.1767 236.36 13.13C236.266 13.0833 236.173 13.06 236.08 13.06C235.426 12.8733 234.89 12.64 234.47 12.36C233.723 11.8933 233.046 11.31 232.44 10.61C231.833 9.91 231.273 9.18667 230.76 8.44C230.34 7.78666 229.92 7.11 229.5 6.41C229.126 5.71 228.636 5.10333 228.03 4.59C227.936 4.49666 227.82 4.42667 227.68 4.38C227.54 4.28666 227.4 4.19333 227.26 4.1C226.56 3.63333 225.766 3.35333 224.88 3.26C223.993 3.16666 223.13 3.19 222.29 3.33C221.543 3.47 220.796 3.65666 220.05 3.89C219.303 4.12333 218.533 4.26333 217.74 4.31C216.713 4.40333 215.663 4.28666 214.59 3.96C213.563 3.63333 212.513 3.4 211.44 3.26C210.74 3.12 209.806 3.09666 208.64 3.19C207.473 3.28333 206.306 3.51666 205.14 3.89C203.973 4.26333 203.04 4.8 202.34 5.5C201.733 6.06 201.243 6.71333 200.87 7.46C200.496 8.16 200.03 8.79 199.47 9.35C199.05 9.77 198.606 10.19 198.14 10.61C197.72 10.9833 197.323 11.4033 196.95 11.87C196.903 11.9633 196.833 12.08 196.74 12.22C196.646 12.3133 196.576 12.4067 196.53 12.5C196.39 12.7333 196.296 13.0367 196.25 13.41C196.25 13.7833 196.273 14.11 196.32 14.39C196.366 14.53 196.413 14.7167 196.46 14.95C196.506 15.1833 196.576 15.3467 196.67 15.44C196.716 15.5333 196.786 15.6267 196.88 15.72C196.973 15.7667 197.066 15.8133 197.16 15.86C197.253 15.9533 197.346 16.07 197.44 16.21C197.533 16.3033 197.65 16.3733 197.79 16.42C197.93 16.4667 198.07 16.5133 198.21 16.56C198.396 16.56 198.56 16.5833 198.7 16.63C199.633 16.8167 200.543 16.77 201.43 16.49C202.363 16.1633 203.296 16.0233 204.23 16.07C204.79 16.07 205.326 16.1167 205.84 16.21C206.4 16.3033 206.96 16.3733 207.52 16.42C207.706 16.42 207.893 16.4433 208.08 16.49C208.313 16.49 208.523 16.49 208.71 16.49C209.223 16.3967 209.69 16.21 210.11 15.93C210.53 15.65 210.88 15.2767 211.16 14.81C211.486 14.3433 211.836 13.97 212.21 13.69C212.63 13.41 213.096 13.2 213.61 13.06C213.983 12.9667 214.38 12.9433 214.8 12.99C215.22 12.99 215.593 13.0367 215.92 13.13C216.06 13.13 216.2 13.1533 216.34 13.2C216.48 13.2 216.596 13.2233 216.69 13.27C216.783 13.3633 216.876 13.4567 216.97 13.55C217.063 13.6433 217.156 13.7367 217.25 13.83C217.856 14.39 218.253 15.02 218.44 15.72C218.533 16.0933 218.533 16.49 218.44 16.91C218.393 17.33 218.323 17.7267 218.23 18.1C217.67 19.92 216.713 21.39 215.36 22.51C214.94 22.8367 214.496 23.14 214.03 23.42C213.563 23.6533 213.143 23.9567 212.77 24.33C212.21 24.8433 211.72 25.45 211.3 26.15C210.88 26.8033 210.53 27.48 210.25 28.18C210.063 28.5533 209.9 28.9267 209.76 29.3C209.666 29.6267 209.62 30 209.62 30.42C209.62 30.56 209.596 30.7233 209.55 30.91C209.55 31.05 209.573 31.1667 209.62 31.26C209.62 31.3533 209.666 31.47 209.76 31.61C209.9 31.7033 209.993 31.7967 210.04 31.89C210.086 31.9833 210.133 32.1 210.18 32.24C210.273 32.3333 210.366 32.4267 210.46 32.52C210.646 32.7067 210.833 32.87 211.02 33.01C211.253 33.15 211.44 33.3367 211.58 33.57C211.673 33.6633 211.743 33.78 211.79 33.92C211.836 34.0133 211.883 34.1067 211.93 34.2C212.023 34.2933 212.093 34.41 212.14 34.55C212.233 34.69 212.303 34.8067 212.35 34.9C212.35 34.9933 212.326 35.11 212.28 35.25C212.28 35.39 212.28 35.53 212.28 35.67C212.233 35.7633 212.21 35.9033 212.21 36.09C212.256 36.23 212.256 36.3467 212.21 36.44C212.116 36.5333 212 36.65 211.86 36.79C211.72 36.93 211.603 37.0467 211.51 37.14C211.276 37.3733 210.996 37.5833 210.67 37.77C210.39 37.9567 210.133 38.19 209.9 38.47C209.853 38.5633 209.783 38.68 209.69 38.82C209.643 38.9133 209.596 39.03 209.55 39.17C209.503 39.2633 209.433 39.38 209.34 39.52C209.246 39.6133 209.176 39.7067 209.13 39.8C209.13 39.94 209.153 40.08 209.2 40.22C209.246 40.36 209.293 40.4767 209.34 40.57C209.433 41.0833 209.503 41.5967 209.55 42.11C209.596 42.4833 209.596 42.88 209.55 43.3C209.55 43.6733 209.573 44.0467 209.62 44.42C209.62 44.8867 209.666 45.3533 209.76 45.82C209.9 46.24 210.04 46.66 210.18 47.08C210.226 47.3133 210.296 47.5233 210.39 47.71C210.53 47.8967 210.646 48.0833 210.74 48.27C210.786 48.3167 210.833 48.41 210.88 48.55C210.926 48.6433 210.973 48.7133 211.02 48.76C211.113 48.8067 211.23 48.83 211.37 48.83C211.556 48.83 211.696 48.8533 211.79 48.9C211.883 48.9 212 48.9233 212.14 48.97C212.28 49.0167 212.396 49.04 212.49 49.04C212.63 49.04 212.77 49.0167 212.91 48.97C213.096 48.8767 213.26 48.8067 213.4 48.76C213.726 48.6667 214.053 48.5733 214.38 48.48C214.753 48.3867 215.103 48.3167 215.43 48.27C216.41 48.13 217.436 48.1767 218.51 48.41C218.696 48.5033 218.93 48.62 219.21 48.76C219.49 48.8533 219.746 48.9 219.98 48.9C220.12 48.9 220.283 48.8533 220.47 48.76C220.703 48.62 220.89 48.5033 221.03 48.41C221.076 48.41 221.123 48.41 221.17 48.41C221.263 48.3633 221.333 48.3167 221.38 48.27C221.426 48.2233 221.45 48.1767 221.45 48.13C221.45 48.0367 221.473 47.9667 221.52 47.92C221.566 47.7333 221.613 47.5467 221.66 47.36C221.753 47.1267 221.8 46.9167 221.8 46.73C221.8 46.4033 221.776 46.0767 221.73 45.75C221.683 45.4233 221.636 45.12 221.59 44.84C221.543 44.28 221.473 43.72 221.38 43.16C221.286 42.5533 221.123 41.9933 220.89 41.48C220.843 41.3867 220.796 41.27 220.75 41.13C220.703 40.99 220.656 40.8733 220.61 40.78C220.143 40.1267 219.536 39.66 218.79 39.38C218.043 39.1 217.366 38.7733 216.76 38.4C216.34 38.1667 215.92 37.8633 215.5 37.49C215.126 37.1167 214.823 36.72 214.59 36.3C214.543 36.16 214.496 36.02 214.45 35.88C214.45 35.74 214.45 35.6233 214.45 35.53C214.403 35.39 214.356 35.2733 214.31 35.18C214.263 35.04 214.24 34.9 214.24 34.76C214.24 34.62 214.263 34.48 214.31 34.34C214.403 34.1533 214.473 33.99 214.52 33.85C214.52 33.8033 214.52 33.7333 214.52 33.64C214.566 33.5 214.613 33.3833 214.66 33.29C214.706 33.1967 214.8 33.1267 214.94 33.08C215.08 32.9867 215.196 32.8933 215.29 32.8C215.383 32.7533 215.476 32.6833 215.57 32.59C215.663 32.45 215.78 32.3567 215.92 32.31C216.013 32.2633 216.13 32.24 216.27 32.24C216.41 32.1933 216.55 32.17 216.69 32.17C217.016 32.0767 217.366 32.03 217.74 32.03C218.16 31.9833 218.533 32.03 218.86 32.17C219.093 32.2167 219.326 32.31 219.56 32.45C219.793 32.5433 220.003 32.6367 220.19 32.73C220.423 32.8233 220.656 32.9633 220.89 33.15C221.123 33.3367 221.356 33.4533 221.59 33.5C221.683 33.5467 221.8 33.5467 221.94 33.5C222.08 33.4533 222.22 33.43 222.36 33.43C222.406 33.3833 222.476 33.36 222.57 33.36C222.71 33.36 222.826 33.36 222.92 33.36C222.966 33.3133 223.013 33.2433 223.06 33.15C223.106 33.01 223.153 32.9167 223.2 32.87C223.34 32.6833 223.456 32.4967 223.55 32.31C223.69 32.1233 223.806 31.9133 223.9 31.68C224.18 31.0733 224.413 30.4433 224.6 29.79C224.833 29.09 225.113 28.4367 225.44 27.83C225.906 26.9433 226.536 26.1967 227.33 25.59C227.703 25.2633 228.1 24.96 228.52 24.68C228.986 24.4 229.406 24.0967 229.78 23.77C230.34 23.21 230.853 22.6033 231.32 21.95C231.833 21.2967 232.3 20.6433 232.72 19.99C233.046 19.5233 233.35 19.0333 233.63 18.52C233.91 17.96 234.236 17.4467 234.61 16.98C234.703 16.8867 234.82 16.7233 234.96 16.49C235.1 16.2567 235.216 16.1167 235.31 16.07C235.403 16.0233 235.52 16.0233 235.66 16.07C235.8 16.07 235.893 16.07 235.94 16.07C235.986 16.07 236.08 16.07 236.22 16.07C236.406 16.0233 236.523 16.0233 236.57 16.07C236.616 16.1167 236.663 16.21 236.71 16.35C236.756 16.4433 236.78 16.5133 236.78 16.56C236.826 16.7 236.896 16.84 236.99 16.98C237.083 17.0733 237.13 17.1667 237.13 17.26C237.13 17.4 237.106 17.54 237.06 17.68C237.06 17.82 237.06 18.0067 237.06 18.24ZM284.892 18.24C284.799 18.7067 284.705 19.1733 284.612 19.64C284.519 20.06 284.379 20.48 284.192 20.9C283.865 21.74 283.445 22.5333 282.932 23.28C282.465 24.0267 281.975 24.75 281.462 25.45C281.089 25.9633 280.692 26.4767 280.272 26.99C279.899 27.5033 279.502 28.0167 279.082 28.53C278.102 29.5567 277.029 30.7 275.862 31.96C274.695 33.1733 273.832 34.2933 273.272 35.32C272.945 36.16 272.782 37.0467 272.782 37.98C272.829 38.9133 272.852 39.8467 272.852 40.78C272.852 41.3867 272.782 41.9933 272.642 42.6C272.549 43.16 272.455 43.72 272.362 44.28C272.269 45.12 272.222 45.96 272.222 46.8C272.222 47.5933 272.129 48.3867 271.942 49.18C271.802 49.74 271.639 50.3 271.452 50.86C271.265 51.3733 271.009 51.8867 270.682 52.4C270.635 52.4933 270.565 52.5867 270.472 52.68C270.425 52.82 270.379 52.9367 270.332 53.03C270.239 53.0767 270.122 53.1233 269.982 53.17C269.842 53.2633 269.725 53.3333 269.632 53.38C269.539 53.4267 269.422 53.4967 269.282 53.59C269.189 53.6833 269.095 53.73 269.002 53.73C268.909 53.7767 268.769 53.7767 268.582 53.73C268.442 53.73 268.325 53.7067 268.232 53.66C268.139 53.66 268.022 53.66 267.882 53.66C267.742 53.66 267.602 53.66 267.462 53.66C267.322 53.6133 267.182 53.5433 267.042 53.45C266.902 53.3567 266.762 53.2867 266.622 53.24C266.109 53.0067 265.572 52.7267 265.012 52.4C264.499 52.12 263.939 51.9567 263.332 51.91C262.679 51.91 262.049 52.0267 261.442 52.26C260.835 52.54 260.252 52.75 259.692 52.89C259.552 52.89 259.412 52.9133 259.272 52.96C259.132 53.0067 259.015 53.03 258.922 53.03C258.735 53.03 258.549 53.0067 258.362 52.96C258.222 52.9133 258.059 52.8667 257.872 52.82C257.825 52.82 257.732 52.7967 257.592 52.75C257.499 52.75 257.405 52.7267 257.312 52.68C257.219 52.6333 257.125 52.54 257.032 52.4C256.939 52.3067 256.845 52.2367 256.752 52.19C256.332 51.8167 255.982 51.3967 255.702 50.93C255.422 50.4633 255.142 49.9733 254.862 49.46C254.442 48.76 253.999 48.0367 253.532 47.29C253.112 46.4967 252.879 45.6567 252.832 44.77C252.832 44.2567 252.879 43.7433 252.972 43.23C253.112 42.7167 253.205 42.2033 253.252 41.69C253.345 41.1767 253.392 40.6867 253.392 40.22C253.392 39.7067 253.415 39.1933 253.462 38.68C253.509 38.26 253.532 37.8633 253.532 37.49C253.579 37.07 253.602 36.65 253.602 36.23C253.602 35.6233 253.509 35.04 253.322 34.48C253.135 33.8733 253.019 33.2667 252.972 32.66C252.832 31.7267 252.972 30.7467 253.392 29.72C253.719 29.02 254.069 28.3433 254.442 27.69C254.862 27.0367 255.235 26.36 255.562 25.66C255.889 24.96 256.192 24.2367 256.472 23.49C256.799 22.7433 257.172 22.0433 257.592 21.39C257.685 21.25 257.802 21.11 257.942 20.97C258.082 20.83 258.222 20.69 258.362 20.55C258.549 20.3633 258.782 20.2 259.062 20.06C259.342 19.8733 259.622 19.71 259.902 19.57C260.182 19.4767 260.485 19.4067 260.812 19.36C261.139 19.2667 261.419 19.1033 261.652 18.87C261.745 18.73 261.839 18.6133 261.932 18.52C262.072 18.4267 262.189 18.31 262.282 18.17C262.375 18.0767 262.422 18.03 262.422 18.03C262.422 17.9833 262.375 17.96 262.282 17.96C262.189 17.9133 262.119 17.89 262.072 17.89C261.979 17.7967 261.839 17.7033 261.652 17.61C261.512 17.47 261.372 17.4 261.232 17.4C261.185 17.4 261.092 17.4233 260.952 17.47C260.859 17.5167 260.789 17.5633 260.742 17.61C260.135 17.7967 259.622 18.0067 259.202 18.24C258.175 18.8 257.079 19.1733 255.912 19.36C255.212 19.5467 254.325 19.64 253.252 19.64C252.225 19.5933 251.199 19.5933 250.172 19.64C249.145 19.64 248.282 19.8033 247.582 20.13C246.975 20.3633 246.392 20.6433 245.832 20.97C245.319 21.2967 244.735 21.5767 244.082 21.81C243.989 21.81 243.872 21.8567 243.732 21.95C243.592 21.9967 243.475 22.02 243.382 22.02C243.242 22.02 243.102 22.02 242.962 22.02C242.822 21.9733 242.705 21.9267 242.612 21.88C242.519 21.88 242.379 21.88 242.192 21.88C242.052 21.88 241.935 21.8567 241.842 21.81C241.749 21.7633 241.655 21.6933 241.562 21.6C241.469 21.46 241.375 21.3667 241.282 21.32C241.189 21.2267 241.072 21.1333 240.932 21.04C240.839 20.9467 240.745 20.8767 240.652 20.83C240.605 20.7367 240.559 20.62 240.512 20.48C240.512 20.34 240.489 20.2 240.442 20.06C240.395 19.9667 240.349 19.8733 240.302 19.78C240.255 19.64 240.232 19.5 240.232 19.36C240.139 18.8933 240.139 18.4033 240.232 17.89C240.325 17.33 240.372 16.8167 240.372 16.35C240.372 15.8367 240.349 15.3233 240.302 14.81C240.302 14.25 240.372 13.7367 240.512 13.27C240.652 12.7567 240.862 12.2667 241.142 11.8C241.469 11.3333 241.795 10.8667 242.122 10.4C242.355 10.0267 242.612 9.63 242.892 9.21C243.172 8.74333 243.475 8.34666 243.802 8.02C244.315 7.46 244.899 6.99333 245.552 6.62C246.252 6.2 246.859 5.68667 247.372 5.08C248.025 4.28666 248.632 3.44666 249.192 2.56C249.799 1.62667 250.615 0.996665 251.642 0.669997C252.249 0.436664 252.879 0.366663 253.532 0.459996C254.232 0.553331 254.885 0.646664 255.492 0.739996C256.192 0.879997 256.915 0.996664 257.662 1.09C258.409 1.18333 259.132 1.18333 259.832 1.09C260.905 0.903332 262.095 0.716666 263.402 0.529999C264.709 0.296666 265.899 0.203332 266.972 0.249998C267.719 0.249998 268.442 0.343332 269.142 0.529999C269.889 0.716666 270.659 0.833332 271.452 0.879999C272.059 0.879999 272.665 0.833331 273.272 0.739996C273.925 0.646664 274.579 0.623331 275.232 0.669997C275.325 0.716663 275.442 0.739996 275.582 0.739996C275.722 0.739996 275.839 0.763331 275.932 0.809999C276.632 1.04333 277.215 1.44 277.682 2C278.149 2.51333 278.569 3.05 278.942 3.61C279.455 4.35666 279.992 5.15 280.552 5.99C281.112 6.78333 281.719 7.50666 282.372 8.16C282.559 8.3 282.722 8.46333 282.862 8.65C283.049 8.83667 283.212 9 283.352 9.14C283.585 9.32666 283.819 9.51333 284.052 9.7C284.285 9.84 284.519 10.0033 284.752 10.19C284.892 10.2833 285.079 10.4233 285.312 10.61C285.545 10.75 285.685 10.89 285.732 11.03C285.825 11.17 285.872 11.3567 285.872 11.59C285.872 11.8233 285.872 12.01 285.872 12.15C285.872 12.1967 285.872 12.2667 285.872 12.36C285.919 12.4067 285.942 12.4533 285.942 12.5C285.895 12.5933 285.825 12.64 285.732 12.64C285.685 12.64 285.639 12.6633 285.592 12.71C285.405 12.7567 285.219 12.85 285.032 12.99C284.845 13.0833 284.659 13.1533 284.472 13.2C284.379 13.2 284.285 13.1767 284.192 13.13C284.099 13.0833 284.005 13.06 283.912 13.06C283.259 12.8733 282.722 12.64 282.302 12.36C281.555 11.8933 280.879 11.31 280.272 10.61C279.665 9.91 279.105 9.18667 278.592 8.44C278.172 7.78666 277.752 7.11 277.332 6.41C276.959 5.71 276.469 5.10333 275.862 4.59C275.769 4.49666 275.652 4.42667 275.512 4.38C275.372 4.28666 275.232 4.19333 275.092 4.1C274.392 3.63333 273.599 3.35333 272.712 3.26C271.825 3.16666 270.962 3.19 270.122 3.33C269.375 3.47 268.629 3.65666 267.882 3.89C267.135 4.12333 266.365 4.26333 265.572 4.31C264.545 4.40333 263.495 4.28666 262.422 3.96C261.395 3.63333 260.345 3.4 259.272 3.26C258.572 3.12 257.639 3.09666 256.472 3.19C255.305 3.28333 254.139 3.51666 252.972 3.89C251.805 4.26333 250.872 4.8 250.172 5.5C249.565 6.06 249.075 6.71333 248.702 7.46C248.329 8.16 247.862 8.79 247.302 9.35C246.882 9.77 246.439 10.19 245.972 10.61C245.552 10.9833 245.155 11.4033 244.782 11.87C244.735 11.9633 244.665 12.08 244.572 12.22C244.479 12.3133 244.409 12.4067 244.362 12.5C244.222 12.7333 244.129 13.0367 244.082 13.41C244.082 13.7833 244.105 14.11 244.152 14.39C244.199 14.53 244.245 14.7167 244.292 14.95C244.339 15.1833 244.409 15.3467 244.502 15.44C244.549 15.5333 244.619 15.6267 244.712 15.72C244.805 15.7667 244.899 15.8133 244.992 15.86C245.085 15.9533 245.179 16.07 245.272 16.21C245.365 16.3033 245.482 16.3733 245.622 16.42C245.762 16.4667 245.902 16.5133 246.042 16.56C246.229 16.56 246.392 16.5833 246.532 16.63C247.465 16.8167 248.375 16.77 249.262 16.49C250.195 16.1633 251.129 16.0233 252.062 16.07C252.622 16.07 253.159 16.1167 253.672 16.21C254.232 16.3033 254.792 16.3733 255.352 16.42C255.539 16.42 255.725 16.4433 255.912 16.49C256.145 16.49 256.355 16.49 256.542 16.49C257.055 16.3967 257.522 16.21 257.942 15.93C258.362 15.65 258.712 15.2767 258.992 14.81C259.319 14.3433 259.669 13.97 260.042 13.69C260.462 13.41 260.929 13.2 261.442 13.06C261.815 12.9667 262.212 12.9433 262.632 12.99C263.052 12.99 263.425 13.0367 263.752 13.13C263.892 13.13 264.032 13.1533 264.172 13.2C264.312 13.2 264.429 13.2233 264.522 13.27C264.615 13.3633 264.709 13.4567 264.802 13.55C264.895 13.6433 264.989 13.7367 265.082 13.83C265.689 14.39 266.085 15.02 266.272 15.72C266.365 16.0933 266.365 16.49 266.272 16.91C266.225 17.33 266.155 17.7267 266.062 18.1C265.502 19.92 264.545 21.39 263.192 22.51C262.772 22.8367 262.329 23.14 261.862 23.42C261.395 23.6533 260.975 23.9567 260.602 24.33C260.042 24.8433 259.552 25.45 259.132 26.15C258.712 26.8033 258.362 27.48 258.082 28.18C257.895 28.5533 257.732 28.9267 257.592 29.3C257.499 29.6267 257.452 30 257.452 30.42C257.452 30.56 257.429 30.7233 257.382 30.91C257.382 31.05 257.405 31.1667 257.452 31.26C257.452 31.3533 257.499 31.47 257.592 31.61C257.732 31.7033 257.825 31.7967 257.872 31.89C257.919 31.9833 257.965 32.1 258.012 32.24C258.105 32.3333 258.199 32.4267 258.292 32.52C258.479 32.7067 258.665 32.87 258.852 33.01C259.085 33.15 259.272 33.3367 259.412 33.57C259.505 33.6633 259.575 33.78 259.622 33.92C259.669 34.0133 259.715 34.1067 259.762 34.2C259.855 34.2933 259.925 34.41 259.972 34.55C260.065 34.69 260.135 34.8067 260.182 34.9C260.182 34.9933 260.159 35.11 260.112 35.25C260.112 35.39 260.112 35.53 260.112 35.67C260.065 35.7633 260.042 35.9033 260.042 36.09C260.089 36.23 260.089 36.3467 260.042 36.44C259.949 36.5333 259.832 36.65 259.692 36.79C259.552 36.93 259.435 37.0467 259.342 37.14C259.109 37.3733 258.829 37.5833 258.502 37.77C258.222 37.9567 257.965 38.19 257.732 38.47C257.685 38.5633 257.615 38.68 257.522 38.82C257.475 38.9133 257.429 39.03 257.382 39.17C257.335 39.2633 257.265 39.38 257.172 39.52C257.079 39.6133 257.009 39.7067 256.962 39.8C256.962 39.94 256.985 40.08 257.032 40.22C257.079 40.36 257.125 40.4767 257.172 40.57C257.265 41.0833 257.335 41.5967 257.382 42.11C257.429 42.4833 257.429 42.88 257.382 43.3C257.382 43.6733 257.405 44.0467 257.452 44.42C257.452 44.8867 257.499 45.3533 257.592 45.82C257.732 46.24 257.872 46.66 258.012 47.08C258.059 47.3133 258.129 47.5233 258.222 47.71C258.362 47.8967 258.479 48.0833 258.572 48.27C258.619 48.3167 258.665 48.41 258.712 48.55C258.759 48.6433 258.805 48.7133 258.852 48.76C258.945 48.8067 259.062 48.83 259.202 48.83C259.389 48.83 259.529 48.8533 259.622 48.9C259.715 48.9 259.832 48.9233 259.972 48.97C260.112 49.0167 260.229 49.04 260.322 49.04C260.462 49.04 260.602 49.0167 260.742 48.97C260.929 48.8767 261.092 48.8067 261.232 48.76C261.559 48.6667 261.885 48.5733 262.212 48.48C262.585 48.3867 262.935 48.3167 263.262 48.27C264.242 48.13 265.269 48.1767 266.342 48.41C266.529 48.5033 266.762 48.62 267.042 48.76C267.322 48.8533 267.579 48.9 267.812 48.9C267.952 48.9 268.115 48.8533 268.302 48.76C268.535 48.62 268.722 48.5033 268.862 48.41C268.909 48.41 268.955 48.41 269.002 48.41C269.095 48.3633 269.165 48.3167 269.212 48.27C269.259 48.2233 269.282 48.1767 269.282 48.13C269.282 48.0367 269.305 47.9667 269.352 47.92C269.399 47.7333 269.445 47.5467 269.492 47.36C269.585 47.1267 269.632 46.9167 269.632 46.73C269.632 46.4033 269.609 46.0767 269.562 45.75C269.515 45.4233 269.469 45.12 269.422 44.84C269.375 44.28 269.305 43.72 269.212 43.16C269.119 42.5533 268.955 41.9933 268.722 41.48C268.675 41.3867 268.629 41.27 268.582 41.13C268.535 40.99 268.489 40.8733 268.442 40.78C267.975 40.1267 267.369 39.66 266.622 39.38C265.875 39.1 265.199 38.7733 264.592 38.4C264.172 38.1667 263.752 37.8633 263.332 37.49C262.959 37.1167 262.655 36.72 262.422 36.3C262.375 36.16 262.329 36.02 262.282 35.88C262.282 35.74 262.282 35.6233 262.282 35.53C262.235 35.39 262.189 35.2733 262.142 35.18C262.095 35.04 262.072 34.9 262.072 34.76C262.072 34.62 262.095 34.48 262.142 34.34C262.235 34.1533 262.305 33.99 262.352 33.85C262.352 33.8033 262.352 33.7333 262.352 33.64C262.399 33.5 262.445 33.3833 262.492 33.29C262.539 33.1967 262.632 33.1267 262.772 33.08C262.912 32.9867 263.029 32.8933 263.122 32.8C263.215 32.7533 263.309 32.6833 263.402 32.59C263.495 32.45 263.612 32.3567 263.752 32.31C263.845 32.2633 263.962 32.24 264.102 32.24C264.242 32.1933 264.382 32.17 264.522 32.17C264.849 32.0767 265.199 32.03 265.572 32.03C265.992 31.9833 266.365 32.03 266.692 32.17C266.925 32.2167 267.159 32.31 267.392 32.45C267.625 32.5433 267.835 32.6367 268.022 32.73C268.255 32.8233 268.489 32.9633 268.722 33.15C268.955 33.3367 269.189 33.4533 269.422 33.5C269.515 33.5467 269.632 33.5467 269.772 33.5C269.912 33.4533 270.052 33.43 270.192 33.43C270.239 33.3833 270.309 33.36 270.402 33.36C270.542 33.36 270.659 33.36 270.752 33.36C270.799 33.3133 270.845 33.2433 270.892 33.15C270.939 33.01 270.985 32.9167 271.032 32.87C271.172 32.6833 271.289 32.4967 271.382 32.31C271.522 32.1233 271.639 31.9133 271.732 31.68C272.012 31.0733 272.245 30.4433 272.432 29.79C272.665 29.09 272.945 28.4367 273.272 27.83C273.739 26.9433 274.369 26.1967 275.162 25.59C275.535 25.2633 275.932 24.96 276.352 24.68C276.819 24.4 277.239 24.0967 277.612 23.77C278.172 23.21 278.685 22.6033 279.152 21.95C279.665 21.2967 280.132 20.6433 280.552 19.99C280.879 19.5233 281.182 19.0333 281.462 18.52C281.742 17.96 282.069 17.4467 282.442 16.98C282.535 16.8867 282.652 16.7233 282.792 16.49C282.932 16.2567 283.049 16.1167 283.142 16.07C283.235 16.0233 283.352 16.0233 283.492 16.07C283.632 16.07 283.725 16.07 283.772 16.07C283.819 16.07 283.912 16.07 284.052 16.07C284.239 16.0233 284.355 16.0233 284.402 16.07C284.449 16.1167 284.495 16.21 284.542 16.35C284.589 16.4433 284.612 16.5133 284.612 16.56C284.659 16.7 284.729 16.84 284.822 16.98C284.915 17.0733 284.962 17.1667 284.962 17.26C284.962 17.4 284.939 17.54 284.892 17.68C284.892 17.82 284.892 18.0067 284.892 18.24Z" fill="black"/>
</svg>
