<svg width="791" height="775" viewBox="0 0 791 775" fill="none" xmlns="http://www.w3.org/2000/svg">
<path d="M347.1 24.4C348.233 24.0667 349.433 23.8667 350.7 23.8C351.967 23.7333 353.167 23.9333 354.3 24.4C354.433 24.5333 354.633 24.6333 354.9 24.7C355.167 24.7667 355.367 24.8667 355.5 25C355.567 25.0667 355.633 25.2 355.7 25.4C355.767 25.5333 355.833 25.6667 355.9 25.8C355.967 25.9333 356.067 26.1 356.2 26.3C356.333 26.5 356.4 26.6667 356.4 26.8C356.4 26.9333 356.333 27.1 356.2 27.3C356.133 27.4333 356.1 27.5333 356.1 27.6C355.967 27.7333 355.867 27.9333 355.8 28.2C355.733 28.4667 355.633 28.6667 355.5 28.8C355.433 28.8667 355.333 28.9333 355.2 29C355.133 29 355.067 29.0333 355 29.1C354.8 29.2333 354.567 29.3667 354.3 29.5C354.033 29.6333 353.8 29.7333 353.6 29.8C353.4 29.8667 353.2 29.9333 353 30C352.8 30 352.633 30 352.5 30C351.767 30.0667 351.033 30.1 350.3 30.1C349.633 30.1 348.967 30.0333 348.3 29.9C347.967 29.7667 347.633 29.6667 347.3 29.6C347.033 29.5333 346.767 29.3667 346.5 29.1C346.367 28.9667 346.133 28.8 345.8 28.6C345.467 28.4 345.267 28.2 345.2 28C345.133 27.9333 345.1 27.8667 345.1 27.8C345.167 27.6667 345.2 27.5667 345.2 27.5C345.2 27.3 345.167 27.0333 345.1 26.7C345.1 26.3667 345.167 26.1 345.3 25.9C345.3 25.8333 345.333 25.7667 345.4 25.7C345.533 25.6333 345.633 25.5667 345.7 25.5C345.9 25.3667 346.1 25.2 346.3 25C346.5 24.8 346.767 24.6 347.1 24.4ZM365.7 27C365.833 27.2667 365.967 27.5667 366.1 27.9C366.3 28.1667 366.433 28.4667 366.5 28.8C366.567 29 366.6 29.2333 366.6 29.5C366.6 29.7 366.6 29.9 366.6 30.1C366.6 30.2333 366.6 30.4 366.6 30.6C366.667 30.7333 366.667 30.8667 366.6 31C366.6 31.0667 366.5 31.1667 366.3 31.3C366.167 31.4333 366.067 31.5333 366 31.6C365.933 31.7333 365.8 31.9333 365.6 32.2C365.467 32.4 365.333 32.5 365.2 32.5C365.133 32.5 365 32.4667 364.8 32.4C364.6 32.3333 364.467 32.3 364.4 32.3C364.267 32.2333 364.067 32.2 363.8 32.2C363.6 32.1333 363.433 32.0667 363.3 32C363.033 31.8667 362.767 31.6333 362.5 31.3C362.233 30.9667 362.033 30.7 361.9 30.5C361.7 30.3 361.5 30 361.3 29.6C361.1 29.2 361 28.8333 361 28.5C360.933 28.3667 360.9 28.2 360.9 28C360.967 27.8 361 27.6333 361 27.5C361 27.3667 361 27.2 361 27C361 26.7333 361.033 26.5333 361.1 26.4C361.167 26.2667 361.3 26.1333 361.5 26C361.7 25.8667 361.867 25.7333 362 25.6C362.067 25.6 362.167 25.5333 362.3 25.4C362.433 25.2 362.533 25.1 362.6 25.1C362.667 25.1 362.8 25.1333 363 25.2C363.2 25.2667 363.333 25.3 363.4 25.3C363.6 25.3667 363.8 25.4333 364 25.5C364.267 25.5 364.5 25.5667 364.7 25.7C364.833 25.7667 364.967 25.9333 365.1 26.2C365.3 26.4667 365.5 26.7333 365.7 27ZM319.1 41.5C319.567 40.5667 320 39.6 320.4 38.6C320.867 37.6 321.467 36.7 322.2 35.9C323.067 34.8333 324.1 33.9667 325.3 33.3C326.567 32.5667 327.733 31.8 328.8 31C329.467 30.4 330.133 29.7667 330.8 29.1C331.467 28.4333 332.2 27.8667 333 27.4C333.667 26.9333 334.333 26.5667 335 26.3C335.667 25.9667 336.4 25.7333 337.2 25.6C337.533 25.6 337.833 25.6 338.1 25.6C338.433 25.5333 338.733 25.6 339 25.8C339.133 25.8667 339.333 26 339.6 26.2C339.933 26.3333 340.1 26.4667 340.1 26.6C340.167 26.6667 340.133 26.8667 340 27.2C339.867 27.5333 339.767 27.7333 339.7 27.8C339.633 28.1333 339.467 28.4 339.2 28.6C339 28.8 338.767 29.0333 338.5 29.3C338.1 29.7 337.667 30.1 337.2 30.5C336.733 30.8333 336.333 31.2333 336 31.7C335.333 32.4333 334.7 33.2333 334.1 34.1C333.5 34.9 332.867 35.6333 332.2 36.3C331.133 37.2333 329.933 38.0333 328.6 38.7C327.333 39.3 326.233 40.1667 325.3 41.3C324.7 41.9667 324.2 42.6667 323.8 43.4C323.4 44.1333 322.9 44.8 322.3 45.4C322.167 45.5333 322 45.7 321.8 45.9C321.667 46.1 321.533 46.2333 321.4 46.3C321.2 46.4333 320.967 46.5333 320.7 46.6C320.433 46.6 320.167 46.6333 319.9 46.7C319.833 46.7 319.733 46.7333 319.6 46.8C319.533 46.8 319.467 46.8 319.4 46.8C319.267 46.7333 319.167 46.6667 319.1 46.6C319.1 46.5333 319.067 46.4333 319 46.3C318.867 46.1667 318.667 46 318.4 45.8C318.2 45.6 318.067 45.4 318 45.2C318 45.1333 318 45 318 44.8C318.067 44.6 318.133 44.4667 318.2 44.4C318.333 43.4667 318.633 42.5 319.1 41.5ZM366.9 39.8C366.967 40.0667 367.067 40.4 367.2 40.8C367.333 41.1333 367.4 41.4333 367.4 41.7C367.333 41.9 367.2 42.1 367 42.3C366.867 42.5 366.767 42.6667 366.7 42.8C366.633 42.8667 366.533 43 366.4 43.2C366.333 43.4 366.267 43.5 366.2 43.5C366.133 43.5667 366 43.5333 365.8 43.4C365.6 43.2667 365.5 43.2 365.5 43.2C365.3 43.0667 365.067 42.9667 364.8 42.9C364.533 42.8333 364.333 42.7333 364.2 42.6C364.133 42.5333 364.067 42.4667 364 42.4C364 42.2667 363.967 42.1667 363.9 42.1C363.767 41.8333 363.6 41.6 363.4 41.4C363.267 41.1333 363.167 40.8667 363.1 40.6C363.033 40.3333 363 40.0667 363 39.8C363.067 39.4667 363.067 39.2 363 39C363 38.8667 363 38.7667 363 38.7C363 38.6333 363 38.5333 363 38.4C363 38.2667 363.067 38.1333 363.2 38C363.333 37.8 363.433 37.6333 363.5 37.5C363.567 37.4333 363.633 37.3 363.7 37.1C363.833 36.9 363.933 36.8 364 36.8C364.067 36.8 364.2 36.8667 364.4 37C364.6 37.0667 364.7 37.1333 364.7 37.2C364.9 37.2667 365.1 37.3333 365.3 37.4C365.5 37.4667 365.667 37.5667 365.8 37.7C366 37.9 366.2 38.2 366.4 38.6C366.6 39 366.767 39.4 366.9 39.8ZM365.8 49.7C365.8 49.9667 365.8 50.2333 365.8 50.5C365.8 50.7 365.833 50.9 365.9 51.1C365.9 51.1667 365.9 51.2667 365.9 51.4C365.967 51.4667 365.967 51.5667 365.9 51.7C365.833 51.7 365.7 51.7333 365.5 51.8C365.3 51.8667 365.167 51.9 365.1 51.9C365.033 51.9667 364.867 52.0667 364.6 52.2C364.4 52.2667 364.233 52.3 364.1 52.3C364.033 52.2333 363.967 52.1667 363.9 52.1C363.9 52.0333 363.867 51.9333 363.8 51.8C363.667 51.6667 363.467 51.5 363.2 51.3C362.933 51.0333 362.8 50.8 362.8 50.6C362.733 50.4 362.733 50.1333 362.8 49.8C362.867 49.4667 362.933 49.2 363 49C363 48.9333 363 48.8667 363 48.8C363 48.6667 363.033 48.5667 363.1 48.5C363.1 48.4333 363.2 48.4 363.4 48.4C363.667 48.3333 363.833 48.2667 363.9 48.2C363.967 48.2 364.1 48.1667 364.3 48.1C364.5 48.0333 364.633 48 364.7 48C364.767 48.0667 364.833 48.1667 364.9 48.3C364.967 48.3667 365 48.4333 365 48.5C365.133 48.6333 365.267 48.8 365.4 49C365.533 49.2 365.667 49.4333 365.8 49.7ZM353.1 93.5C353.1 93.7 353.1 93.9333 353.1 94.2C353.167 94.4667 353.2 94.7 353.2 94.9C353.2 94.9667 353.2 95.0333 353.2 95.1C353.267 95.2333 353.267 95.3667 353.2 95.5C353.2 95.6333 353.067 95.8 352.8 96C352.6 96.2 352.433 96.3667 352.3 96.5C352.233 96.5667 352.133 96.6667 352 96.8C351.867 97 351.767 97.1 351.7 97.1C351.567 97.1667 351.367 97.1667 351.1 97.1C350.9 97.0333 350.733 96.9667 350.6 96.9C350.467 96.9 350.3 96.8667 350.1 96.8C349.9 96.8 349.733 96.8 349.6 96.8C349.2 96.6667 348.8 96.4667 348.4 96.2C348.067 96 347.7 95.8333 347.3 95.7C347.033 95.5667 346.733 95.4333 346.4 95.3C346.133 95.2333 345.833 95.1333 345.5 95C344.233 94.6 342.967 94.2333 341.7 93.9C340.433 93.5667 339.267 92.9667 338.2 92.1C338.067 92.0333 337.9 91.9333 337.7 91.8C337.567 91.6667 337.467 91.5333 337.4 91.4C337.267 91.3333 337.167 91.2 337.1 91C337.033 90.8 336.967 90.6333 336.9 90.5C336.767 90.3667 336.633 90.2333 336.5 90.1C336.433 89.9 336.367 89.7 336.3 89.5C336.1 88.8333 336 88.1333 336 87.4C336.067 86.6 336.133 85.8333 336.2 85.1C336.267 84.0333 336.3 82.9333 336.3 81.8C336.367 80.6667 336.533 79.5667 336.8 78.5C336.933 77.8333 337.133 77.1333 337.4 76.4C337.667 75.6667 337.8 74.9333 337.8 74.2C337.8 73.4667 337.667 72.7667 337.4 72.1C337.133 71.4333 336.9 70.7667 336.7 70.1C336.567 69.3 336.533 68.5 336.6 67.7C336.6 67.0333 336.7 66.3667 336.9 65.7C337.167 64.9667 337.333 64.2667 337.4 63.6C337.533 62.9333 337.6 62.3 337.6 61.7C337.6 61.1 337.6 60.4667 337.6 59.8C337.6 59.5333 337.6 59.2667 337.6 59C337.6 58.6667 337.6 58.3333 337.6 58C337.6 57.8667 337.6 57.7333 337.6 57.6C337.6 57.4 337.6 57.2667 337.6 57.2C337.533 57 337.4 56.8 337.2 56.6C337 56.4 336.833 56.2333 336.7 56.1C336.633 55.9667 336.567 55.8667 336.5 55.8C336.5 55.7333 336.467 55.6667 336.4 55.6C336.333 55.6 336.2 55.6333 336 55.7C335.8 55.7 335.667 55.7333 335.6 55.8C335.4 55.8 335.167 55.8333 334.9 55.9C334.633 55.9 334.4 55.9333 334.2 56C334 56.1333 333.767 56.3 333.5 56.5C333.3 56.7 333.1 56.8667 332.9 57C332.233 57.4667 331.633 58.1 331.1 58.9C330.633 59.4333 330.233 60.0333 329.9 60.7C329.633 61.3667 329.267 61.9667 328.8 62.5C328.733 62.6333 328.6 62.7667 328.4 62.9C328.2 62.9667 328.033 63.0667 327.9 63.2C327.833 63.2667 327.733 63.3667 327.6 63.5C327.467 63.6333 327.367 63.7333 327.3 63.8C327.1 63.8 326.867 63.8 326.6 63.8C326.4 63.8 326.233 63.8333 326.1 63.9C325.967 63.9 325.8 63.9333 325.6 64C325.467 64 325.333 64 325.2 64C325.067 63.9333 324.9 63.8667 324.7 63.8C324.5 63.6667 324.3 63.5667 324.1 63.5C322.967 63.0333 322.1 62.3 321.5 61.3C320.9 60.2333 320.433 59.1333 320.1 58C320.033 57.7333 320 57.4667 320 57.2C320.067 56.8667 320.133 56.5667 320.2 56.3C320.2 56.1667 320.167 56.0667 320.1 56C320.1 55.8667 320.133 55.7667 320.2 55.7C320.267 55.5667 320.4 55.4333 320.6 55.3C320.8 55.1667 320.933 55.0667 321 55C321.067 54.9333 321.167 54.8333 321.3 54.7C321.433 54.5667 321.533 54.4667 321.6 54.4C321.733 54.4 321.933 54.4333 322.2 54.5C322.467 54.5667 322.667 54.6333 322.8 54.7C323.533 54.8333 324.3 54.9 325.1 54.9C325.233 54.9 325.367 54.9333 325.5 55C325.7 55 325.867 54.9667 326 54.9C326.133 54.9 326.267 54.8333 326.4 54.7C326.6 54.5 326.733 54.3667 326.8 54.3C327.267 53.9667 327.667 53.6 328 53.2C328.4 52.8 328.833 52.4333 329.3 52.1C330.633 51.1 332.3 50.3667 334.3 49.9C336.3 49.4333 338.067 49.6667 339.6 50.6C340.933 51.4 341.8 52.4667 342.2 53.8C342.267 54 342.267 54.2333 342.2 54.5C342.2 54.7 342.233 54.9 342.3 55.1C342.367 55.9667 342.367 56.8333 342.3 57.7C342.233 58.5667 342.233 59.4333 342.3 60.3C342.3 61.0333 342.333 61.7667 342.4 62.5C342.533 63.2333 342.567 63.9667 342.5 64.7C342.5 65.4333 342.433 66.1667 342.3 66.9C342.167 67.6333 342.067 68.3667 342 69.1C342 69.7667 342 70.4667 342 71.2C342.067 71.9333 342.133 72.6333 342.2 73.3C342.267 74.5667 342.367 75.8333 342.5 77.1C342.633 78.3 342.833 79.5 343.1 80.7C343.233 81.3667 343.333 82.0667 343.4 82.8C343.467 83.4667 343.633 84.1333 343.9 84.8C343.967 85.0667 344.067 85.4 344.2 85.8C344.4 86.2 344.6 86.5 344.8 86.7C344.933 86.8333 345.067 86.9667 345.2 87.1C345.333 87.1667 345.467 87.2667 345.6 87.4C346.333 87.9333 347.133 88.4 348 88.8C348.867 89.2 349.667 89.6667 350.4 90.2C350.667 90.4 350.967 90.6333 351.3 90.9C351.633 91.1 351.9 91.3333 352.1 91.6C352.3 91.8 352.467 92.0667 352.6 92.4C352.8 92.7333 352.967 93.1 353.1 93.5ZM366.3 59.8C366.367 60.1333 366.433 60.6 366.5 61.2C366.5 61.2667 366.5 61.3667 366.5 61.5C366.567 61.5667 366.6 61.6333 366.6 61.7C366.533 61.8333 366.433 61.9667 366.3 62.1C366.167 62.1667 366.067 62.2667 366 62.4C365.933 62.4667 365.8 62.6333 365.6 62.9C365.467 63.1 365.333 63.2 365.2 63.2C365.133 63.2667 365 63.2667 364.8 63.2C364.6 63.0667 364.433 63 364.3 63C364.167 62.9333 363.967 62.9 363.7 62.9C363.5 62.8333 363.333 62.7667 363.2 62.7C363.133 62.6333 363.067 62.5667 363 62.5C363 62.3667 362.967 62.2667 362.9 62.2C362.833 62 362.7 61.8 362.5 61.6C362.367 61.3333 362.267 61.1 362.2 60.9C362.133 60.7 362.133 60.4667 362.2 60.2C362.333 59.8667 362.4 59.6 362.4 59.4C362.4 59.3333 362.4 59.2667 362.4 59.2C362.4 59.0667 362.433 58.9333 362.5 58.8C362.567 58.7333 362.7 58.6333 362.9 58.5C363.167 58.3667 363.367 58.2667 363.5 58.2C363.567 58.1333 363.667 58.0333 363.8 57.9C363.933 57.7667 364.067 57.7 364.2 57.7C364.267 57.6333 364.367 57.6667 364.5 57.8C364.7 57.9333 364.833 58.0333 364.9 58.1C365.033 58.1667 365.167 58.2333 365.3 58.3C365.5 58.3667 365.667 58.4667 365.8 58.6C365.933 58.7333 366.1 59.1333 366.3 59.8ZM365.6 72.2C365.733 72.2 365.9 72.2 366.1 72.2C366.233 72.2667 366.3 72.3 366.3 72.3C366.3 72.3 366.167 72.3333 365.9 72.4C365.7 72.4 365.567 72.4 365.5 72.4C365.367 72.2667 365.4 72.2 365.6 72.2ZM365.4 81C365.067 80.8 364.733 80.6 364.4 80.4C364.267 80.4 364.133 80.4 364 80.4C363.933 80.3333 363.867 80.2667 363.8 80.2C363.733 80.0667 363.733 79.8333 363.8 79.5C363.867 79.1667 363.9 78.9333 363.9 78.8C363.9 78.7333 363.867 78.6667 363.8 78.6C363.8 78.4667 363.833 78.3667 363.9 78.3C363.9 78.3 363.967 78.2667 364.1 78.2C364.3 78.1333 364.533 78.0667 364.8 78C365.133 77.8667 365.367 77.8333 365.5 77.9C365.633 77.9 365.767 78.0333 365.9 78.3C366.033 78.5 366.133 78.6667 366.2 78.8C366.267 78.8667 366.367 78.9667 366.5 79.1C366.633 79.2333 366.7 79.3333 366.7 79.4C366.7 79.5333 366.667 79.6333 366.6 79.7C366.533 79.7667 366.467 79.8333 366.4 79.9C366.267 80.1 366.133 80.3 366 80.5C365.867 80.7 365.667 80.8667 365.4 81ZM365.2 86.3C365.333 86.5667 365.5 86.8333 365.7 87.1C365.9 87.3667 366.033 87.6333 366.1 87.9C366.167 88.1667 366.2 88.5333 366.2 89C366.2 89.4667 366.167 89.8333 366.1 90.1C365.967 90.9 365.7 91.5667 365.3 92.1C365.167 92.3 365 92.4667 364.8 92.6C364.6 92.7333 364.433 92.8667 364.3 93C364.233 93.1333 364.133 93.2667 364 93.4C363.867 93.4667 363.767 93.5333 363.7 93.6C363.567 93.6667 363.4 93.7333 363.2 93.8C363 93.8 362.8 93.8333 362.6 93.9C361.267 94.3 360 94.2333 358.8 93.7C358.6 93.5667 358.367 93.4667 358.1 93.4C357.9 93.3333 357.7 93.2333 357.5 93.1C357.367 92.9667 357.2 92.7667 357 92.5C356.867 92.2333 356.733 92 356.6 91.8C356.533 91.7333 356.467 91.6667 356.4 91.6C356.333 91.5333 356.3 91.4667 356.3 91.4C356.3 91.2667 356.3 91.1667 356.3 91.1C356.367 90.9667 356.433 90.8667 356.5 90.8C356.5 90.6 356.533 90.3667 356.6 90.1C356.667 89.8333 356.733 89.6 356.8 89.4C356.933 89.2667 357.1 89.1667 357.3 89.1C357.5 88.9667 357.633 88.8667 357.7 88.8C358.167 88.4667 358.633 88.2 359.1 88C359.633 87.7333 360.133 87.4667 360.6 87.2C360.933 87 361.233 86.8 361.5 86.6C361.767 86.3333 362.067 86.1333 362.4 86C362.6 85.9333 362.8 85.9 363 85.9C363.2 85.8333 363.4 85.7667 363.6 85.7C363.667 85.7 363.8 85.7 364 85.7C364.2 85.6333 364.333 85.6 364.4 85.6C364.6 85.6 364.867 85.8333 365.2 86.3ZM441.564 91.5C441.364 91.7667 441.164 92.0667 440.964 92.4C440.831 92.6667 440.664 92.8667 440.464 93C440.331 93.1333 440.131 93.2667 439.864 93.4C439.664 93.4667 439.464 93.5667 439.264 93.7C438.531 94.1 437.731 94.4 436.864 94.6C436.064 94.8667 435.297 95.1667 434.564 95.5C433.897 95.8333 433.264 96.1667 432.664 96.5C432.064 96.9 431.397 97.1667 430.664 97.3C429.931 97.4333 429.197 97.4333 428.464 97.3C427.731 97.1667 426.997 97.0667 426.264 97C425.064 96.8667 423.964 96.8667 422.964 97C421.697 97.1333 420.431 97.4 419.164 97.8C417.897 98.2 416.597 98.4667 415.264 98.6C414.531 98.7333 413.797 98.7333 413.064 98.6C412.531 98.5333 411.964 98.4333 411.364 98.3C410.831 98.1667 410.264 98.0667 409.664 98C409.531 98 409.397 97.9667 409.264 97.9C409.131 97.9 408.997 97.9 408.864 97.9C408.731 97.9 408.597 97.9333 408.464 98C408.331 98.1333 408.231 98.2 408.164 98.2C407.297 98.6 406.531 98.9333 405.864 99.2C405.731 99.2 405.564 99.2333 405.364 99.3C405.164 99.4333 404.997 99.5 404.864 99.5C404.131 99.6333 403.397 99.6 402.664 99.4C402.331 99.2667 401.997 99.1 401.664 98.9C401.331 98.7 400.997 98.5333 400.664 98.4C400.464 98.3333 400.264 98.2667 400.064 98.2C399.864 98.1333 399.664 98.1 399.464 98.1C399.331 98.0333 399.164 97.9667 398.964 97.9C398.831 97.9 398.697 97.9 398.564 97.9C398.364 97.9 398.097 97.9667 397.764 98.1C397.497 98.2333 397.264 98.3333 397.064 98.4C396.331 98.6667 395.564 98.9333 394.764 99.2C394.031 99.5333 393.264 99.7333 392.464 99.8C391.864 99.8667 391.231 99.8333 390.564 99.7C389.964 99.6333 389.364 99.5667 388.764 99.5C387.897 99.3667 386.997 99.1667 386.064 98.9C385.197 98.6333 384.364 98.3 383.564 97.9C382.697 97.4333 381.897 96.8667 381.164 96.2C380.497 95.5333 379.864 94.8667 379.264 94.2C378.864 93.8 378.464 93.4 378.064 93C377.664 92.5333 377.331 92.0667 377.064 91.6C376.331 90.4667 375.864 89.3 375.664 88.1C375.464 86.8333 375.397 85.5667 375.464 84.3C375.464 83.3667 375.531 82.4333 375.664 81.5C375.797 80.5 375.997 79.5667 376.264 78.7C376.531 77.9 376.864 77.1 377.264 76.3C377.731 75.5 378.164 74.7333 378.564 74C379.097 73.2 379.631 72.3333 380.164 71.4C380.764 70.4667 381.497 69.7333 382.364 69.2C383.031 68.8667 383.731 68.6667 384.464 68.6C385.197 68.4667 385.864 68.2667 386.464 68C387.131 67.7333 387.731 67.4 388.264 67C388.864 66.5333 389.464 66.1 390.064 65.7C390.664 65.3 391.297 64.9667 391.964 64.7C392.631 64.3667 393.231 63.9667 393.764 63.5C394.364 63.1 394.897 62.6333 395.364 62.1C395.831 61.5 396.331 60.9667 396.864 60.5C397.131 60.3 397.397 60.1 397.664 59.9C397.997 59.7 398.297 59.5 398.564 59.3C399.164 58.9667 399.764 58.6333 400.364 58.3C401.031 57.9 401.631 57.4667 402.164 57C403.031 56.1333 403.731 55.1667 404.264 54.1C404.864 52.9667 405.364 51.8333 405.764 50.7C406.097 49.7667 406.364 48.9667 406.564 48.3C406.564 48.1667 406.597 48 406.664 47.8C406.797 47.5333 406.864 47.3333 406.864 47.2C406.864 47.0667 406.764 46.9 406.564 46.7C406.431 46.4333 406.331 46.2 406.264 46C406.264 45.9333 406.231 45.8667 406.164 45.8C406.164 45.6667 406.131 45.6 406.064 45.6C405.997 45.5333 405.931 45.5667 405.864 45.7C405.797 45.7667 405.697 45.8333 405.564 45.9C405.364 46.0333 405.131 46.1667 404.864 46.3C404.597 46.4333 404.364 46.6 404.164 46.8C403.831 47.1333 403.497 47.5333 403.164 48C402.897 48.4667 402.631 48.9 402.364 49.3C401.897 50.0333 401.331 50.8 400.664 51.6C400.064 52.3333 399.331 52.9 398.464 53.3C397.464 54.0333 396.131 54.4667 394.464 54.6C392.864 54.7333 391.231 54.7333 389.564 54.6C387.964 54.4 386.664 54.2667 385.664 54.2C385.064 54.2 384.431 54.2 383.764 54.2C383.097 54.2 382.464 54.1333 381.864 54C381.664 54 381.464 54 381.264 54C381.064 53.9333 380.864 53.8667 380.664 53.8C380.531 53.7333 380.364 53.6333 380.164 53.5C380.031 53.3667 379.897 53.2667 379.764 53.2C379.631 53.0667 379.464 52.9667 379.264 52.9C379.131 52.7667 378.997 52.6333 378.864 52.5C378.797 52.3667 378.697 52.2333 378.564 52.1C378.497 51.9 378.431 51.7333 378.364 51.6C377.697 50.5333 377.164 49.2667 376.764 47.8C376.497 46.8667 376.264 45.9 376.064 44.9C375.931 43.9 375.931 42.9333 376.064 42C376.197 40.4667 376.631 39.0333 377.364 37.7C378.164 36.3 378.897 34.9333 379.564 33.6C380.031 32.6 380.497 31.6333 380.964 30.7C381.497 29.7 382.097 28.7667 382.764 27.9C384.764 25.5667 387.231 24.1 390.164 23.5C391.431 23.1667 392.697 23.0333 393.964 23.1C395.231 23.1667 396.497 23.1 397.764 22.9C397.964 22.8333 398.164 22.8 398.364 22.8C398.631 22.7333 398.864 22.6667 399.064 22.6C399.797 22.4 400.497 22.1 401.164 21.7C401.831 21.3 402.497 21 403.164 20.8C403.897 20.6667 404.631 20.6333 405.364 20.7C406.164 20.7667 406.931 20.7667 407.664 20.7C407.931 20.7 408.231 20.6667 408.564 20.6C408.897 20.5333 409.231 20.4667 409.564 20.4C410.297 20.3333 411.031 20.2 411.764 20C412.497 19.7333 413.264 19.6667 414.064 19.8C415.197 20 416.231 20.4667 417.164 21.2C418.097 21.9333 419.064 22.5333 420.064 23C420.731 23.2667 421.364 23.5 421.964 23.7C422.631 23.9 423.331 24.0333 424.064 24.1C424.731 24.1667 425.431 24.2333 426.164 24.3C426.897 24.3 427.597 24.4667 428.264 24.8C428.397 24.9333 428.531 25.0667 428.664 25.2C428.797 25.3333 428.931 25.4667 429.064 25.6C429.797 26.2 430.397 26.9 430.864 27.7C431.397 28.5 431.997 29.2333 432.664 29.9C433.197 30.4333 433.764 30.9333 434.364 31.4C434.964 31.8667 435.564 32.3 436.164 32.7C436.764 33.1 437.364 33.5 437.964 33.9C438.631 34.3 439.164 34.8 439.564 35.4C439.764 35.6 439.931 35.9 440.064 36.3C440.264 36.7 440.397 37.0333 440.464 37.3C440.731 38.2333 440.864 39.2 440.864 40.2C440.864 41.2 440.864 42.1667 440.864 43.1C440.931 44.4333 440.964 45.8 440.964 47.2C441.031 48.6 440.931 49.9667 440.664 51.3C440.331 52.7667 439.797 54.1667 439.064 55.5C438.331 56.8333 437.564 58.1667 436.764 59.5C436.364 60.1667 435.931 60.8333 435.464 61.5C434.997 62.1667 434.464 62.7333 433.864 63.2C433.397 63.6 432.897 63.9667 432.364 64.3C431.897 64.5667 431.431 64.8333 430.964 65.1C430.831 65.1667 430.697 65.2667 430.564 65.4C430.431 65.4667 430.331 65.5333 430.264 65.6C430.131 65.7333 430.031 65.9333 429.964 66.2C429.897 66.4667 429.831 66.6667 429.764 66.8C429.764 66.8667 429.697 67 429.564 67.2C429.497 67.4 429.464 67.5333 429.464 67.6C429.464 67.6667 429.531 67.7667 429.664 67.9C429.864 68.0333 429.997 68.1333 430.064 68.2C430.131 68.3333 430.231 68.5 430.364 68.7C430.564 68.9 430.731 69.0333 430.864 69.1C430.997 69.1667 431.164 69.2 431.364 69.2C431.631 69.1333 431.831 69.1 431.964 69.1C432.431 69.1 432.964 69.1 433.564 69.1C434.164 69.1 434.697 69.1333 435.164 69.2C436.164 69.5333 437.097 70.2333 437.964 71.3C438.831 72.3 439.564 73.4333 440.164 74.7C440.764 75.9667 441.164 77.1 441.364 78.1C441.564 79.1667 441.631 80.1333 441.564 81C441.497 81.0667 441.464 81.2 441.464 81.4C441.531 81.6 441.531 81.7333 441.464 81.8C441.397 81.9333 441.231 82.0667 440.964 82.2C440.697 82.3333 440.464 82.4667 440.264 82.6C440.131 82.6667 440.064 82.7 440.064 82.7C439.997 82.7 439.931 82.6667 439.864 82.6C439.797 82.4667 439.731 82.3667 439.664 82.3C439.531 82.1667 439.364 82.0333 439.164 81.9C438.964 81.7 438.797 81.5333 438.664 81.4C438.464 81.0667 438.297 80.7333 438.164 80.4C438.031 80 437.864 79.6333 437.664 79.3C437.531 79.0333 437.331 78.7333 437.064 78.4C436.864 78 436.631 77.7 436.364 77.5C435.831 77.1 435.231 76.8333 434.564 76.7C434.431 76.7 434.264 76.7333 434.064 76.8C433.864 76.8 433.664 76.8 433.464 76.8C432.997 76.8667 432.497 76.9667 431.964 77.1C431.431 77.2333 430.897 77.3 430.364 77.3C429.764 77.3667 429.064 77.3333 428.264 77.2C427.931 77.1333 427.564 77.0333 427.164 76.9C426.831 76.7667 426.497 76.7 426.164 76.7C425.497 76.6333 424.797 76.6667 424.064 76.8C423.331 76.9333 422.631 77.1667 421.964 77.5C421.364 77.7667 420.697 77.8667 419.964 77.8C419.764 77.8 419.564 77.7667 419.364 77.7C419.231 77.5667 419.097 77.5 418.964 77.5C418.097 77.2333 417.331 76.7667 416.664 76.1C416.064 75.4333 415.664 74.6667 415.464 73.8C415.397 73.6 415.364 73.4 415.364 73.2C415.431 72.9333 415.464 72.7 415.464 72.5C415.464 72.0333 415.531 71.5667 415.664 71.1C415.797 70.5667 415.997 70.1 416.264 69.7C416.464 69.5 416.731 69.2667 417.064 69C417.464 68.7333 417.797 68.5333 418.064 68.4C418.664 68.0667 419.331 67.8 420.064 67.6C420.797 67.4 421.464 67.1 422.064 66.7C422.264 66.5667 422.431 66.4333 422.564 66.3C422.764 66.1667 422.964 66.0333 423.164 65.9C423.831 65.3 424.431 64.6667 424.964 64C425.497 63.2667 426.064 62.6 426.664 62C427.464 61.2 428.297 60.5 429.164 59.9C430.097 59.2333 430.931 58.4667 431.664 57.6C432.597 56.5333 433.297 55.3 433.764 53.9C434.231 52.5 434.631 51.1333 434.964 49.8C435.231 48.8667 435.464 47.9 435.664 46.9C435.931 45.8333 435.997 44.8333 435.864 43.9C435.864 43.7 435.864 43.5 435.864 43.3C435.864 43.0333 435.831 42.8 435.764 42.6C435.697 42.4667 435.597 42.3333 435.464 42.2C435.331 42 435.231 41.8667 435.164 41.8C434.631 41.0667 433.997 40.4333 433.264 39.9C432.531 39.3667 431.897 38.7 431.364 37.9C430.831 37.0333 430.431 36.0667 430.164 35C429.964 33.8667 429.531 32.8333 428.864 31.9C428.131 30.9 427.164 30.2333 425.964 29.9C424.764 29.5667 423.531 29.3333 422.264 29.2C420.997 29 419.864 28.7333 418.864 28.4C418.331 28.2 417.797 28 417.264 27.8C416.797 27.6 416.297 27.4333 415.764 27.3C415.631 27.3 415.464 27.2667 415.264 27.2C415.064 27.1333 414.897 27.1 414.764 27.1C414.031 27.1 413.331 27.3 412.664 27.7C411.997 28.1 411.331 28.3667 410.664 28.5C410.464 28.5667 410.264 28.6333 410.064 28.7C409.864 28.7 409.664 28.7 409.464 28.7C409.331 28.7 409.164 28.7333 408.964 28.8C408.831 28.8667 408.697 28.8667 408.564 28.8C408.497 28.8 408.364 28.7667 408.164 28.7C408.031 28.6333 407.931 28.5667 407.864 28.5C407.664 28.4333 407.431 28.3667 407.164 28.3C406.964 28.1667 406.764 28.0667 406.564 28C406.297 27.8 406.064 27.5333 405.864 27.2C405.664 26.8 405.431 26.5 405.164 26.3C405.031 26.2333 404.831 26.2 404.564 26.2C404.364 26.2 404.197 26.2 404.064 26.2C403.997 26.2 403.864 26.2 403.664 26.2C403.464 26.1333 403.331 26.1 403.264 26.1C403.197 26.1667 403.131 26.2333 403.064 26.3C403.064 26.3667 403.031 26.4667 402.964 26.6C402.764 26.8 402.564 27 402.364 27.2C402.231 27.4 402.064 27.6 401.864 27.8C400.797 28.9333 399.597 29.6667 398.264 30C396.731 30.3333 395.164 30.3333 393.564 30C392.031 29.6667 390.531 29.6333 389.064 29.9C387.664 30.1667 386.397 30.8667 385.264 32C384.864 32.4 384.497 32.8333 384.164 33.3C383.831 33.7667 383.497 34.2333 383.164 34.7C382.431 35.9 381.764 37.2 381.164 38.6C380.631 40 380.364 41.4333 380.364 42.9C380.364 43.1667 380.331 43.4667 380.264 43.8C380.264 44.0667 380.297 44.3333 380.364 44.6C380.364 44.8 380.397 45.0333 380.464 45.3C380.597 45.5 380.697 45.7 380.764 45.9C380.764 45.9667 380.764 46.1 380.764 46.3C380.831 46.4333 380.897 46.5667 380.964 46.7C381.031 46.7667 381.097 46.8333 381.164 46.9C381.231 46.9 381.297 46.9333 381.364 47C381.564 47.1333 381.764 47.3333 381.964 47.6C382.231 47.8 382.464 47.9333 382.664 48C382.797 48.0667 382.964 48.1 383.164 48.1C383.431 48.1 383.631 48.1 383.764 48.1C384.631 48.2333 385.497 48.3 386.364 48.3C387.297 48.2333 388.197 48.2333 389.064 48.3C389.864 48.3667 390.664 48.4333 391.464 48.5C392.264 48.5667 393.064 48.5333 393.864 48.4C395.264 48.1333 396.497 47.4667 397.564 46.4C398.164 45.8667 398.664 45.2667 399.064 44.6C399.464 43.9333 399.897 43.3 400.364 42.7C401.031 41.8333 401.797 41.0333 402.664 40.3C403.597 39.5667 404.597 39.0667 405.664 38.8C406.997 38.4 408.431 38.4333 409.964 38.9C411.497 39.3 412.464 40.2333 412.864 41.7C413.064 42.2333 413.131 42.8 413.064 43.4C412.997 43.9333 412.931 44.4667 412.864 45C412.731 45.9333 412.531 46.9 412.264 47.9C411.997 48.8333 411.731 49.7667 411.464 50.7C410.997 52.1 410.464 53.4667 409.864 54.8C409.264 56.1333 408.597 57.4667 407.864 58.8C407.531 59.4 407.164 60.0333 406.764 60.7C406.431 61.3 406.031 61.8667 405.564 62.4C404.831 63.2 403.997 63.9 403.064 64.5C402.197 65.0333 401.331 65.6333 400.464 66.3C399.864 66.7 399.297 67.1333 398.764 67.6C398.231 68.0667 397.664 68.5 397.064 68.9C396.464 69.3 395.831 69.6333 395.164 69.9C394.497 70.1 393.831 70.3333 393.164 70.6C392.297 71 391.464 71.4333 390.664 71.9C389.864 72.3667 389.064 72.8 388.264 73.2C387.797 73.4 387.331 73.6333 386.864 73.9C386.397 74.1 385.964 74.3333 385.564 74.6C384.697 75.2667 384.064 76.0667 383.664 77C383.331 77.9333 383.031 78.9 382.764 79.9C382.364 81.3 381.997 82.8667 381.664 84.6C381.331 86.2667 381.531 87.8 382.264 89.2C382.331 89.3333 382.431 89.5 382.564 89.7C382.697 89.8333 382.831 89.9667 382.964 90.1C383.097 90.3 383.197 90.5 383.264 90.7C383.397 90.8333 383.531 90.9667 383.664 91.1C384.731 92.0333 386.064 92.6 387.664 92.8C389.264 93 390.731 92.8667 392.064 92.4C392.864 92.0667 393.597 91.6 394.264 91C394.997 90.4 395.764 89.9 396.564 89.5C396.697 89.4333 396.831 89.3333 396.964 89.2C397.164 89.0667 397.331 88.9667 397.464 88.9C397.664 88.8333 397.864 88.8 398.064 88.8C398.331 88.8 398.597 88.8 398.864 88.8C399.731 88.6667 400.564 88.7333 401.364 89C402.231 89.2667 403.097 89.4667 403.964 89.6C405.031 89.8 406.097 89.9 407.164 89.9C408.297 89.9 409.397 90.1 410.464 90.5C411.531 90.9 412.564 91.3333 413.564 91.8C414.564 92.2667 415.631 92.5 416.764 92.5C417.631 92.4333 418.431 92.2333 419.164 91.9C419.964 91.5 420.731 91.1333 421.464 90.8C421.731 90.6667 421.964 90.5333 422.164 90.4C422.431 90.2 422.697 90.0667 422.964 90C423.697 89.8 424.464 89.7667 425.264 89.9C425.597 89.9667 425.931 90.1 426.264 90.3C426.597 90.4333 426.931 90.5667 427.264 90.7C427.464 90.7 427.664 90.7333 427.864 90.8C428.131 90.8 428.364 90.8 428.564 90.8C428.697 90.8667 428.831 90.9333 428.964 91C429.097 91 429.231 90.9667 429.364 90.9C429.697 90.9 430.031 90.8333 430.364 90.7C430.764 90.5 431.097 90.3333 431.364 90.2C431.697 90 432.031 89.8333 432.364 89.7C432.697 89.5 433.031 89.3 433.364 89.1C435.297 88.1667 437.231 87.6333 439.164 87.5C439.564 87.5 439.864 87.5667 440.064 87.7C440.331 87.8333 440.597 88 440.864 88.2C440.997 88.2 441.131 88.2667 441.264 88.4C441.464 88.4667 441.597 88.5333 441.664 88.6C441.664 88.6667 441.664 88.8 441.664 89C441.664 89.2 441.664 89.3333 441.664 89.4C441.731 89.7333 441.764 90.0667 441.764 90.4C441.764 90.7333 441.697 91.1 441.564 91.5Z" fill="black"/>
<path d="M414.9 733C414.433 734 413.9 734.967 413.3 735.9C412.7 736.767 411.967 737.567 411.1 738.3C410.033 739.233 408.833 740.067 407.5 740.8C406.233 741.533 405.067 742.467 404 743.6C403.4 744.267 402.833 745 402.3 745.8C401.833 746.533 401.3 747.267 400.7 748C400.367 748.467 400 748.933 399.6 749.4C399.2 749.867 398.733 750.233 398.2 750.5C397.4 750.9 396.533 751.067 395.6 751C394.667 751 393.767 751.033 392.9 751.1C391.833 751.167 390.767 751.333 389.7 751.6C388.633 751.867 387.6 752.167 386.6 752.5C385.467 752.9 384.4 753.4 383.4 754C382.733 754.4 382.1 754.8 381.5 755.2C380.9 755.667 380.233 756 379.5 756.2C377.367 756.933 375.3 756.767 373.3 755.7C372.7 755.367 372.1 754.933 371.5 754.4C370.967 753.933 370.4 753.467 369.8 753C368.067 751.533 366.133 750.267 364 749.2C361.933 748.2 359.767 747.433 357.5 746.9C356.433 746.633 355.333 746.4 354.2 746.2C353.067 745.933 352.067 745.4 351.2 744.6C350.467 744 349.867 743.233 349.4 742.3C349 741.367 348.633 740.467 348.3 739.6C347.967 738.4 347.667 737.2 347.4 736C347.133 734.8 346.867 733.6 346.6 732.4C346.533 732.067 346.5 731.733 346.5 731.4C346.567 731.067 346.6 730.767 346.6 730.5C346.6 730.433 346.567 730.333 346.5 730.2C346.5 730.067 346.533 730 346.6 730C346.667 729.933 346.8 729.933 347 730C347.2 730.067 347.333 730.1 347.4 730.1C347.533 730.1 347.667 730.1 347.8 730.1C348 730.1 348.133 730.133 348.2 730.2C348.4 730.267 348.567 730.467 348.7 730.8C348.9 731.133 349.067 731.367 349.2 731.5C349.8 732.367 350.333 733.267 350.8 734.2C351.333 735.067 351.867 735.967 352.4 736.9C352.6 737.3 352.833 737.733 353.1 738.2C353.433 738.6 353.767 738.967 354.1 739.3C355.1 740.233 356.4 740.833 358 741.1C358.733 741.167 359.467 741.2 360.2 741.2C361 741.133 361.733 741.233 362.4 741.5C363.467 741.9 364.333 742.533 365 743.4C365.667 744.267 366.467 744.933 367.4 745.4C368.067 745.8 368.767 746.067 369.5 746.2C370.233 746.333 370.933 746.5 371.6 746.7C372.333 746.967 373 747.3 373.6 747.7C374.267 748.1 374.933 748.4 375.6 748.6C375.867 748.667 376.2 748.767 376.6 748.9C377.067 748.967 377.433 749 377.7 749C377.833 749 377.967 748.967 378.1 748.9C378.3 748.833 378.467 748.8 378.6 748.8C379.467 748.533 380.267 748.133 381 747.6C381.8 747.067 382.633 746.633 383.5 746.3C383.833 746.233 384.133 746.167 384.4 746.1C384.733 746.033 385.033 745.967 385.3 745.9C385.833 745.767 386.4 745.733 387 745.8C387.6 745.8 388.167 745.833 388.7 745.9C389.567 745.967 390.433 746.033 391.3 746.1C392.233 746.1 393.133 746 394 745.8C396.2 745.2 397.933 743.967 399.2 742.1C399.8 741.233 400.3 740.3 400.7 739.3C401.1 738.233 401.7 737.367 402.5 736.7C403.367 735.967 404.333 735.467 405.4 735.2C406.533 734.867 407.467 734.267 408.2 733.4C408.333 733.333 408.433 733.2 408.5 733C408.633 732.8 408.733 732.633 408.8 732.5C409.467 731.433 409.9 730.167 410.1 728.7C410.3 727.767 410.4 726.833 410.4 725.9C410.4 724.967 410.267 724.067 410 723.2C409.533 721.667 408.767 720.033 407.7 718.3C406.633 716.5 405.467 714.967 404.2 713.7C403.467 712.9 402.633 712.2 401.7 711.6C400.767 710.933 399.9 710.2 399.1 709.4C398.3 708.667 397.567 707.833 396.9 706.9C396.233 705.967 395.467 705.1 394.6 704.3C393.733 703.5 392.733 702.8 391.6 702.2C390.467 701.6 389.533 700.8 388.8 699.8C388.733 699.667 388.6 699.533 388.4 699.4C388.267 699.2 388.167 699 388.1 698.8C388.033 698.733 388 698.633 388 698.5C388 698.3 387.967 698.133 387.9 698C387.9 697.8 387.833 697.567 387.7 697.3C387.633 697.033 387.6 696.8 387.6 696.6C387.6 696.133 387.7 695.633 387.9 695.1C388.167 694.5 388.4 694 388.6 693.6C389.067 692.8 389.533 692.033 390 691.3C390.533 690.5 391.1 689.733 391.7 689C391.9 688.733 392.133 688.467 392.4 688.2C392.733 687.867 393 687.533 393.2 687.2C393.333 686.933 393.5 686.667 393.7 686.4C393.9 686.133 394.067 685.867 394.2 685.6C394.2 685.4 394.2 685.2 394.2 685C394.267 684.8 394.3 684.6 394.3 684.4C394.3 684.267 394.3 684.133 394.3 684C394.367 683.8 394.4 683.633 394.4 683.5C394.333 683.367 394.2 683.233 394 683.1C393.867 682.9 393.767 682.767 393.7 682.7C393.633 682.567 393.533 682.4 393.4 682.2C393.267 682 393.133 681.867 393 681.8C392.867 681.733 392.7 681.733 392.5 681.8C392.3 681.8 392.1 681.767 391.9 681.7C391.367 681.7 390.833 681.7 390.3 681.7C389.767 681.7 389.2 681.667 388.6 681.6C387.333 681.533 386.033 681.367 384.7 681.1C383.433 680.767 382.133 680.6 380.8 680.6C379.8 680.533 378.833 680.6 377.9 680.8C376.967 681 376.133 681.433 375.4 682.1C374.733 682.633 374.167 683.267 373.7 684C373.3 684.667 372.867 685.333 372.4 686C372.2 686.333 372 686.667 371.8 687C371.6 687.267 371.333 687.467 371 687.6C370.8 687.733 370.5 687.9 370.1 688.1C369.967 688.167 369.867 688.233 369.8 688.3C369.733 688.367 369.667 688.4 369.6 688.4C369.467 688.4 369.267 688.3 369 688.1C368.8 687.833 368.667 687.633 368.6 687.5C368.533 687.433 368.433 687.367 368.3 687.3C368.167 687.167 368.067 687.067 368 687C367.933 686.867 367.9 686.667 367.9 686.4C367.9 686.067 367.9 685.8 367.9 685.6C367.833 684.8 367.967 684 368.3 683.2C368.7 682.333 369.133 681.567 369.6 680.9C370 680.3 370.467 679.767 371 679.3C371.6 678.767 372.2 678.333 372.8 678C373.467 677.667 374.167 677.433 374.9 677.3C375.633 677.1 376.333 676.9 377 676.7C377.733 676.5 378.433 676.3 379.1 676.1C379.833 675.9 380.567 675.733 381.3 675.6C382.633 675.333 383.967 675.233 385.3 675.3C386.7 675.3 388.1 675.3 389.5 675.3C390.9 675.233 392.367 675.233 393.9 675.3C395.5 675.3 396.833 675.933 397.9 677.2C398.233 677.6 398.5 678.067 398.7 678.6C398.9 679.133 399.1 679.667 399.3 680.2C399.7 681.2 400.033 682.267 400.3 683.4C400.567 684.467 400.633 685.567 400.5 686.7C400.5 686.833 400.5 687 400.5 687.2C400.5 687.4 400.467 687.6 400.4 687.8C400.133 688.6 399.667 689.3 399 689.9C398.4 690.433 397.7 690.9 396.9 691.3C396.767 691.367 396.567 691.467 396.3 691.6C396.1 691.667 395.9 691.767 395.7 691.9C395.633 692.033 395.533 692.2 395.4 692.4C395.333 692.6 395.233 692.767 395.1 692.9C395.033 692.967 394.933 693.1 394.8 693.3C394.667 693.433 394.6 693.533 394.6 693.6C394.6 693.667 394.633 693.767 394.7 693.9C394.767 693.967 394.833 694.033 394.9 694.1C395.033 694.3 395.133 694.533 395.2 694.8C395.267 695.067 395.4 695.267 395.6 695.4C395.733 695.6 395.933 695.8 396.2 696C396.467 696.133 396.7 696.3 396.9 696.5C397.633 697.1 398.267 697.733 398.8 698.4C399.467 699.2 400.033 700.1 400.5 701.1C400.967 702.033 401.633 702.867 402.5 703.6C403.033 704.067 403.6 704.5 404.2 704.9C404.867 705.233 405.467 705.667 406 706.2C406.533 706.6 407.033 707.167 407.5 707.9C407.967 708.5 408.367 709.167 408.7 709.9C409.033 710.633 409.367 711.367 409.7 712.1C410.3 713.233 410.867 714.4 411.4 715.6C411.933 716.733 412.467 717.9 413 719.1C413.6 720.1 414.167 721.5 414.7 723.3C415.233 725.033 415.533 726.8 415.6 728.6C415.733 730.4 415.5 731.867 414.9 733ZM346.4 719.2C346.533 718.467 346.667 717.767 346.8 717.1C347 716.433 347.233 715.8 347.5 715.2C348.1 713.867 348.833 712.633 349.7 711.5C350.567 710.367 351.3 709.133 351.9 707.8C352.367 706.8 352.767 705.767 353.1 704.7C353.5 703.633 354 702.6 354.6 701.6C355 701 355.4 700.433 355.8 699.9C356.267 699.3 356.633 698.667 356.9 698C357.1 697.533 357.233 697.033 357.3 696.5C357.433 695.967 357.6 695.433 357.8 694.9C357.867 694.767 357.9 694.6 357.9 694.4C357.967 694.2 358.067 694.033 358.2 693.9C358.267 693.767 358.333 693.667 358.4 693.6C358.533 693.467 358.633 693.367 358.7 693.3C358.9 693.167 359.067 693 359.2 692.8C359.4 692.533 359.567 692.367 359.7 692.3C359.833 692.233 360 692.2 360.2 692.2C360.467 692.133 360.667 692.067 360.8 692C362.133 691.6 363.467 691.633 364.8 692.1C365 692.167 365.233 692.233 365.5 692.3C365.767 692.367 365.967 692.467 366.1 692.6C366.233 692.733 366.367 692.933 366.5 693.2C366.633 693.467 366.733 693.7 366.8 693.9C366.867 693.967 366.933 694.067 367 694.2C367.067 694.267 367.1 694.333 367.1 694.4C367.1 694.6 367 694.867 366.8 695.2C366.667 695.467 366.567 695.7 366.5 695.9C366.3 696.3 366.033 696.667 365.7 697C365.433 697.333 365.167 697.667 364.9 698C364.3 698.867 363.8 699.733 363.4 700.6C363.067 701.467 362.7 702.333 362.3 703.2C361.9 704.067 361.267 704.767 360.4 705.3C360.067 705.5 359.7 705.633 359.3 705.7C358.9 705.767 358.533 705.9 358.2 706.1C358 706.167 357.8 706.267 357.6 706.4C357.467 706.533 357.3 706.667 357.1 706.8C356.967 706.867 356.833 706.933 356.7 707C356.567 707.067 356.467 707.133 356.4 707.2C356.267 707.333 356.133 707.533 356 707.8C355.933 708 355.867 708.2 355.8 708.4C355.4 709.067 355.1 709.8 354.9 710.6C354.767 711.4 354.567 712.2 354.3 713C354.033 714.067 353.633 715.067 353.1 716C352.567 716.933 352 717.867 351.4 718.8C351.133 719.2 350.833 719.633 350.5 720.1C350.167 720.5 349.833 720.833 349.5 721.1C349.3 721.3 349.067 721.467 348.8 721.6C348.533 721.667 348.3 721.767 348.1 721.9C348.033 721.9 347.967 721.933 347.9 722C347.833 722.067 347.733 722.1 347.6 722.1C347.533 722.1 347.433 722 347.3 721.8C347.233 721.6 347.167 721.467 347.1 721.4C346.967 721.267 346.833 721.133 346.7 721C346.567 720.8 346.467 720.633 346.4 720.5C346.333 720.367 346.3 720.2 346.3 720C346.367 719.733 346.4 719.467 346.4 719.2ZM370.6 724.2C370.467 723.6 370.367 722.933 370.3 722.2C370.233 721.467 370.3 720.8 370.5 720.2C370.5 720.067 370.567 719.933 370.7 719.8C370.833 719.6 370.933 719.433 371 719.3C371.067 719.167 371.133 719 371.2 718.8C371.333 718.6 371.433 718.433 371.5 718.3C371.633 718.233 371.767 718.167 371.9 718.1C372.1 717.967 372.267 717.867 372.4 717.8C373.467 717.067 374.633 716.667 375.9 716.6C377.233 716.467 378.5 716.367 379.7 716.3C380.367 716.233 381 716.167 381.6 716.1C382.2 716.033 382.8 716.033 383.4 716.1C383.6 716.1 383.8 716.1 384 716.1C384.2 716.033 384.367 716.033 384.5 716.1C384.767 716.167 385.033 716.3 385.3 716.5C385.567 716.633 385.8 716.767 386 716.9C386.133 716.967 386.233 717.033 386.3 717.1C386.367 717.1 386.433 717.133 386.5 717.2C386.567 717.267 386.6 717.367 386.6 717.5C386.667 717.567 386.733 717.633 386.8 717.7C386.867 717.967 386.967 718.233 387.1 718.5C387.3 718.7 387.433 718.933 387.5 719.2C387.633 719.733 387.667 720.3 387.6 720.9C387.6 721.5 387.533 722.067 387.4 722.6C387.267 723.8 386.967 725.067 386.5 726.4C386.033 727.667 385.367 728.8 384.5 729.8C383.9 730.533 383.167 731.2 382.3 731.8C381.5 732.333 380.733 732.933 380 733.6C379.533 734 379.067 734.4 378.6 734.8C378.133 735.2 377.6 735.567 377 735.9C376.867 735.967 376.7 736.067 376.5 736.2C376.367 736.333 376.2 736.4 376 736.4C375.867 736.467 375.7 736.5 375.5 736.5C375.367 736.433 375.267 736.4 375.2 736.4C374.933 736.4 374.667 736.433 374.4 736.5C374.133 736.5 373.9 736.467 373.7 736.4C373.633 736.333 373.533 736.267 373.4 736.2C373.267 736.067 373.133 735.967 373 735.9C372.8 735.767 372.6 735.667 372.4 735.6C372.2 735.467 372 735.3 371.8 735.1C371.4 734.767 371.067 734.367 370.8 733.9C370.533 733.367 370.3 732.867 370.1 732.4C370.033 732.267 369.967 732.133 369.9 732C369.833 731.8 369.8 731.6 369.8 731.4C369.667 730.667 369.7 729.967 369.9 729.3C370.167 728.567 370.367 727.833 370.5 727.1C370.633 726.233 370.667 725.267 370.6 724.2ZM381.5 723C381.3 722.867 381.067 722.667 380.8 722.4C380.6 722.067 380.4 721.867 380.2 721.8C380.067 721.8 379.967 721.833 379.9 721.9C379.833 721.9 379.733 721.9 379.6 721.9C379.4 721.967 379.133 722 378.8 722C378.467 722 378.2 722.033 378 722.1C377.867 722.233 377.733 722.433 377.6 722.7C377.467 722.9 377.333 723.067 377.2 723.2C377.2 723.267 377.133 723.367 377 723.5C376.867 723.633 376.8 723.733 376.8 723.8C376.8 723.933 376.867 724.1 377 724.3C377.133 724.433 377.233 724.533 377.3 724.6C377.367 724.667 377.433 724.833 377.5 725.1C377.633 725.367 377.767 725.533 377.9 725.6C377.967 725.6 378.1 725.6 378.3 725.6C378.5 725.6 378.667 725.6 378.8 725.6C378.933 725.6 379.1 725.633 379.3 725.7C379.567 725.7 379.8 725.7 380 725.7C380.2 725.633 380.4 725.5 380.6 725.3C380.8 725.1 380.967 724.933 381.1 724.8C381.167 724.8 381.3 724.733 381.5 724.6C381.7 724.467 381.8 724.367 381.8 724.3C381.933 724.1 381.833 723.667 381.5 723Z" fill="black"/>
<path d="M785.9 417.3C785.633 418.1 785.367 418.9 785.1 419.7C784.9 420.433 784.633 421.167 784.3 421.9C784.233 422.1 784.167 422.333 784.1 422.6C784.033 422.8 783.933 423 783.8 423.2C783.667 423.333 783.533 423.467 783.4 423.6C783.267 423.667 783.133 423.767 783 423.9C782.267 424.5 781.467 424.967 780.6 425.3C779.8 425.633 779 426.033 778.2 426.5C777.6 426.9 777 427.333 776.4 427.8C775.867 428.2 775.267 428.567 774.6 428.9C774 429.233 773.367 429.567 772.7 429.9C772.1 430.233 771.467 430.567 770.8 430.9C770.2 431.233 769.6 431.6 769 432C768.4 432.467 767.767 432.767 767.1 432.9C765.9 433.1 764.833 432.933 763.9 432.4C762.967 431.933 762 431.433 761 430.9C759.733 430.3 758.4 429.9 757 429.7C756.267 429.567 755.533 429.5 754.8 429.5C754.067 429.5 753.333 429.467 752.6 429.4C751.6 429.333 750.233 429.233 748.5 429.1C746.833 428.967 745.133 428.8 743.4 428.6C741.733 428.4 740.4 428.1 739.4 427.7C738.333 427.433 737.3 427.067 736.3 426.6C735.3 426.133 734.3 425.667 733.3 425.2C732.3 424.733 731.267 424.333 730.2 424C729.2 423.667 728.267 423.133 727.4 422.4C726.467 421.533 725.7 420.5 725.1 419.3C724.5 418.033 723.933 416.833 723.4 415.7C722.933 414.9 722.467 414.067 722 413.2C721.533 412.333 721.2 411.433 721 410.5C720.933 410.167 720.9 409.767 720.9 409.3C720.833 408.833 720.833 408.467 720.9 408.2C720.967 408 721.033 407.833 721.1 407.7C721.233 407.5 721.333 407.333 721.4 407.2C721.467 407.067 721.533 406.9 721.6 406.7C721.667 406.5 721.733 406.333 721.8 406.2C722.2 405.667 722.733 405.233 723.4 404.9C724.133 404.567 724.833 404.333 725.5 404.2C726.5 403.933 727.567 403.833 728.7 403.9C729.833 403.9 730.933 403.867 732 403.8C733.133 403.667 734.233 403.5 735.3 403.3C736.433 403.1 737.567 402.967 738.7 402.9C740.033 402.833 741.367 402.9 742.7 403.1C744.033 403.233 745.333 403.367 746.6 403.5C747.267 403.633 747.9 403.767 748.5 403.9C749.1 403.967 749.7 404.067 750.3 404.2C750.7 404.333 751.1 404.5 751.5 404.7C751.9 404.833 752.333 404.9 752.8 404.9C753 404.967 753.2 405.033 753.4 405.1C753.667 405.1 753.9 405.1 754.1 405.1C754.233 405.1 754.333 405.133 754.4 405.2C754.533 405.267 754.633 405.267 754.7 405.2C754.7 405.2 754.633 405.133 754.5 405C754.3 404.667 754.167 404.433 754.1 404.3C753.833 403.833 753.4 403.467 752.8 403.2C752.267 402.933 751.767 402.633 751.3 402.3C750.833 402.033 750.333 401.767 749.8 401.5C749.267 401.167 748.733 400.9 748.2 400.7C746.733 400.167 745.2 399.767 743.6 399.5C742 399.233 740.667 398.467 739.6 397.2C739.533 397.067 739.4 396.933 739.2 396.8C739.067 396.6 738.967 396.433 738.9 396.3C738.833 396.167 738.767 396.033 738.7 395.9C738.7 395.767 738.7 395.633 738.7 395.5C738.633 395.3 738.567 395.1 738.5 394.9C738.433 394.633 738.4 394.4 738.4 394.2C738.4 394 738.433 393.767 738.5 393.5C738.567 393.233 738.633 392.967 738.7 392.7C738.833 392.1 739.033 391.533 739.3 391C739.633 390.4 739.933 389.833 740.2 389.3C740.533 388.633 740.867 387.967 741.2 387.3C741.533 386.633 741.833 385.933 742.1 385.2C742.233 384.867 742.333 384.533 742.4 384.2C742.533 383.867 742.633 383.533 742.7 383.2C742.7 383.067 742.733 382.933 742.8 382.8C742.867 382.667 742.867 382.533 742.8 382.4C742.8 382.2 742.767 382 742.7 381.8C742.633 381.6 742.567 381.4 742.5 381.2C742.433 381.133 742.367 381 742.3 380.8C742.3 380.6 742.267 380.467 742.2 380.4C742.133 380.267 741.967 380.167 741.7 380.1C741.5 380.033 741.333 379.967 741.2 379.9C740.733 379.633 740.267 379.433 739.8 379.3C739.333 379.167 738.833 379.067 738.3 379C737.3 378.8 736.3 378.633 735.3 378.5C734.3 378.3 733.267 378.2 732.2 378.2C731.467 378.2 730.733 378.2 730 378.2C729.333 378.2 728.667 378.133 728 378C727.8 377.933 727.6 377.9 727.4 377.9C727.2 377.9 727.033 377.867 726.9 377.8C726.633 377.667 726.367 377.5 726.1 377.3C725.9 377.1 725.7 376.933 725.5 376.8C725.433 376.733 725.367 376.7 725.3 376.7C725.233 376.633 725.167 376.567 725.1 376.5C725.033 376.433 724.967 376.367 724.9 376.3C724.9 376.167 724.9 376.033 724.9 375.9C724.833 375.7 724.733 375.5 724.6 375.3C724.467 375.033 724.4 374.767 724.4 374.5C724.4 374.3 724.433 374.1 724.5 373.9C724.567 373.633 724.6 373.367 724.6 373.1C724.8 372.233 725.067 371.367 725.4 370.5C725.733 369.633 726 368.767 726.2 367.9C726.467 366.7 726.633 365.533 726.7 364.4C726.833 363.2 726.967 362.033 727.1 360.9C727.167 360.233 727.233 359.567 727.3 358.9C727.433 358.167 727.667 357.5 728 356.9C728.4 355.967 729.067 355.2 730 354.6C731 353.933 732 353.533 733 353.4C733.933 353.333 734.867 353.4 735.8 353.6C736.8 353.733 737.767 353.867 738.7 354C739.3 354.067 739.9 354.133 740.5 354.2C741.1 354.267 741.667 354.333 742.2 354.4C742.867 354.467 743.5 354.567 744.1 354.7C744.767 354.767 745.4 354.8 746 354.8C746.733 354.8 747.433 354.767 748.1 354.7C748.833 354.567 749.567 354.467 750.3 354.4C751.433 354.4 752.533 354.433 753.6 354.5C754.733 354.567 755.867 354.533 757 354.4C757.8 354.333 758.567 354.233 759.3 354.1C760.033 353.967 760.8 353.867 761.6 353.8C762.933 353.733 764.267 353.833 765.6 354.1C766.933 354.3 768.3 354.367 769.7 354.3C770.5 354.3 771.3 354.267 772.1 354.2C772.967 354.067 773.8 354.033 774.6 354.1C775.533 354.167 776.467 354.367 777.4 354.7C778.333 354.967 779.233 355.233 780.1 355.5C780.967 355.7 781.833 356 782.7 356.4C783.633 356.733 784.4 357.233 785 357.9C785.733 358.7 786.2 359.6 786.4 360.6C786.6 361.533 786.733 362.5 786.8 363.5C786.8 364.5 786.667 365.533 786.4 366.6C786.133 367.667 785.867 368.7 785.6 369.7C785.2 370.967 784.767 372.267 784.3 373.6C783.833 374.933 783.3 376.2 782.7 377.4C782.3 378.067 781.9 378.733 781.5 379.4C781.1 380.067 780.733 380.733 780.4 381.4C780.333 381.6 780.233 381.8 780.1 382C779.967 382.2 779.867 382.4 779.8 382.6C779.8 382.8 779.8 383 779.8 383.2C779.867 383.4 779.9 383.567 779.9 383.7C779.9 383.9 779.867 384.1 779.8 384.3C779.8 384.5 779.833 384.667 779.9 384.8C779.9 384.933 779.967 385.1 780.1 385.3C780.233 385.433 780.333 385.567 780.4 385.7C780.467 385.9 780.533 386.1 780.6 386.3C780.733 386.433 780.833 386.567 780.9 386.7C781.433 387.233 782.033 387.667 782.7 388C783.367 388.333 784 388.733 784.6 389.2C785.667 390.067 786.5 391.233 787.1 392.7C787.567 393.7 787.967 394.767 788.3 395.9C788.633 396.967 788.9 398.033 789.1 399.1C789.167 399.9 789.2 400.7 789.2 401.5C789.2 402.3 789.267 403.133 789.4 404C789.533 404.933 789.7 405.933 789.9 407C790.1 408 790.133 408.967 790 409.9C789.867 410.5 789.667 411.067 789.4 411.6C789.133 412.133 788.833 412.633 788.5 413.1C788.1 413.767 787.667 414.433 787.2 415.1C786.8 415.767 786.367 416.5 785.9 417.3ZM784.1 401.9C784.167 401.3 784.267 400.633 784.4 399.9C784.533 399.167 784.567 398.5 784.5 397.9C784.233 396.9 783.733 396.067 783 395.4C782.267 394.667 781.5 394.033 780.7 393.5C779.767 392.967 778.867 392.433 778 391.9C777.133 391.3 776.233 390.733 775.3 390.2C774.5 389.8 773.7 389.367 772.9 388.9C772.1 388.367 771.433 387.733 770.9 387C770.767 386.8 770.667 386.633 770.6 386.5C770.533 386.3 770.467 386.1 770.4 385.9C770.333 385.767 770.233 385.633 770.1 385.5C770.033 385.3 769.967 385.1 769.9 384.9C769.833 384.767 769.8 384.6 769.8 384.4C769.8 384.2 769.8 384 769.8 383.8C769.8 383.667 769.767 383.5 769.7 383.3C769.7 383.1 769.733 382.933 769.8 382.8C769.8 382.667 769.833 382.533 769.9 382.4C769.967 382.267 770.033 382.133 770.1 382C770.167 381.8 770.233 381.6 770.3 381.4C770.433 381.133 770.533 380.933 770.6 380.8C770.733 380.667 770.867 380.533 771 380.4C771.2 380.267 771.367 380.133 771.5 380C771.967 379.6 772.467 379.2 773 378.8C773.6 378.4 774.133 377.967 774.6 377.5C775.333 376.767 775.967 376 776.5 375.2C777.033 374.333 777.6 373.5 778.2 372.7C778.867 371.7 779.5 370.7 780.1 369.7C780.767 368.7 781.2 367.6 781.4 366.4C781.533 365.8 781.667 365.167 781.8 364.5C781.933 363.833 781.967 363.2 781.9 362.6C781.9 362.4 781.867 362.233 781.8 362.1C781.733 361.9 781.667 361.7 781.6 361.5C781.533 361.367 781.467 361.2 781.4 361C781.4 360.733 781.367 360.533 781.3 360.4C781.167 360.267 780.933 360.167 780.6 360.1C780.333 360.033 780.1 359.967 779.9 359.9C779.167 359.633 778.367 359.533 777.5 359.6C776.633 359.6 775.767 359.567 774.9 359.5C774.167 359.5 773.4 359.467 772.6 359.4C771.8 359.267 771 359.233 770.2 359.3C769.533 359.3 768.833 359.367 768.1 359.5C767.367 359.633 766.633 359.667 765.9 359.6C764.9 359.6 763.7 359.467 762.3 359.2C760.967 358.933 759.6 358.733 758.2 358.6C756.8 358.467 755.6 358.567 754.6 358.9C753.867 359.1 753.2 359.4 752.6 359.8C751.667 360.4 750.833 361.1 750.1 361.9C749.367 362.7 748.4 363.133 747.2 363.2C747 363.2 746.767 363.167 746.5 363.1C746.3 363.033 746.1 363 745.9 363C744.9 362.8 743.833 362.4 742.7 361.8C741.633 361.2 740.533 360.633 739.4 360.1C738.267 359.5 737.2 359.2 736.2 359.2C736 359.133 735.733 359.1 735.4 359.1C735.133 359.033 734.867 359.033 734.6 359.1C734.4 359.1 734.2 359.167 734 359.3C733.8 359.367 733.6 359.433 733.4 359.5C733.267 359.567 733.1 359.633 732.9 359.7C732.767 359.7 732.667 359.733 732.6 359.8C732.467 359.933 732.367 360.133 732.3 360.4C732.233 360.667 732.133 360.867 732 361C732 361.133 731.933 361.267 731.8 361.4C731.733 361.533 731.7 361.667 731.7 361.8C731.633 362.067 731.633 362.4 731.7 362.8C731.833 363.133 731.933 363.433 732 363.7C732.067 364.1 732.067 364.533 732 365C732 365.4 732 365.8 732 366.2C731.933 366.8 731.833 367.4 731.7 368C731.567 368.533 731.467 369.067 731.4 369.6C731.4 369.8 731.367 370 731.3 370.2C731.233 370.4 731.233 370.567 731.3 370.7C731.3 370.833 731.333 370.967 731.4 371.1C731.533 371.233 731.6 371.367 731.6 371.5C731.733 371.633 731.833 371.833 731.9 372.1C731.967 372.367 732.067 372.567 732.2 372.7C732.333 372.767 732.5 372.833 732.7 372.9C732.9 372.967 733.067 373.033 733.2 373.1C733.933 373.5 734.667 373.767 735.4 373.9C736.133 374.033 736.9 374.133 737.7 374.2C738.567 374.267 739.433 374.3 740.3 374.3C741.233 374.3 742.133 374.233 743 374.1C743.933 373.967 744.833 373.767 745.7 373.5C746.633 373.233 747.6 373.1 748.6 373.1C748.733 373.1 748.9 373.1 749.1 373.1C749.3 373.1 749.5 373.1 749.7 373.1C749.9 373.167 750.1 373.267 750.3 373.4C750.567 373.533 750.8 373.633 751 373.7C751.133 373.767 751.267 373.833 751.4 373.9C751.6 373.9 751.767 373.967 751.9 374.1C752.033 374.167 752.133 374.267 752.2 374.4C752.333 374.533 752.467 374.667 752.6 374.8C752.733 374.933 752.867 375.1 753 375.3C753.2 375.433 753.367 375.6 753.5 375.8C753.633 376.067 753.767 376.367 753.9 376.7C754.1 376.967 754.233 377.233 754.3 377.5C754.367 377.7 754.4 377.933 754.4 378.2C754.467 378.4 754.5 378.6 754.5 378.8C754.567 379.333 754.533 379.867 754.4 380.4C754.333 380.6 754.267 380.833 754.2 381.1C754.2 381.3 754.133 381.467 754 381.6C753.933 381.733 753.833 381.867 753.7 382C753.567 382.133 753.433 382.267 753.3 382.4C752.633 383.133 751.9 383.733 751.1 384.2C750.367 384.6 749.6 385.067 748.8 385.6C747.333 386.667 746.233 387.967 745.5 389.5C745.1 390.367 744.833 391.267 744.7 392.2C744.7 392.267 744.667 392.4 744.6 392.6C744.533 392.733 744.533 392.867 744.6 393C744.6 393.067 744.667 393.2 744.8 393.4C744.933 393.533 745.033 393.633 745.1 393.7C745.167 393.833 745.233 394 745.3 394.2C745.433 394.4 745.567 394.567 745.7 394.7C745.9 394.767 746.133 394.833 746.4 394.9C746.667 394.9 746.9 394.933 747.1 395C747.833 395.133 748.567 395.2 749.3 395.2C750.033 395.2 750.767 395.233 751.5 395.3C752.367 395.433 753.167 395.7 753.9 396.1C754.633 396.433 755.367 396.8 756.1 397.2C756.767 397.533 757.467 397.867 758.2 398.2C759 398.533 759.667 399 760.2 399.6C760.933 400.333 761.4 401.267 761.6 402.4C761.8 403.533 761.8 404.6 761.6 405.6C761.4 406.867 760.967 408.133 760.3 409.4C759.633 410.6 758.833 411.6 757.9 412.4C757.767 412.533 757.633 412.667 757.5 412.8C757.367 412.933 757.233 413.067 757.1 413.2C756.9 413.267 756.667 413.333 756.4 413.4C756.2 413.467 756 413.533 755.8 413.6C755.733 413.6 755.6 413.633 755.4 413.7C755.267 413.767 755.167 413.8 755.1 413.8C754.967 413.8 754.8 413.767 754.6 413.7C754.467 413.633 754.367 413.6 754.3 413.6C754.1 413.533 753.867 413.467 753.6 413.4C753.4 413.333 753.2 413.267 753 413.2C752.333 412.867 751.767 412.4 751.3 411.8C750.833 411.133 750.267 410.633 749.6 410.3C749 409.967 748.3 409.8 747.5 409.8C746.767 409.8 746.033 409.767 745.3 409.7C744.5 409.7 743.667 409.667 742.8 409.6C741.933 409.467 741.067 409.4 740.2 409.4C738.933 409.333 737.667 409.3 736.4 409.3C735.133 409.233 733.867 409.233 732.6 409.3C732.4 409.3 732.2 409.3 732 409.3C731.8 409.3 731.6 409.3 731.4 409.3C731.2 409.367 731 409.467 730.8 409.6C730.6 409.733 730.4 409.833 730.2 409.9C730.067 409.9 729.9 409.933 729.7 410C729.567 410.067 729.467 410.133 729.4 410.2C729.333 410.267 729.267 410.4 729.2 410.6C729.2 410.8 729.2 410.967 729.2 411.1C729.133 411.233 729.067 411.433 729 411.7C728.933 411.9 728.867 412.067 728.8 412.2C728.8 412.533 728.833 412.933 728.9 413.4C729.033 413.8 729.133 414.133 729.2 414.4C729.4 415.133 729.667 415.867 730 416.6C730.333 417.267 730.767 417.867 731.3 418.4C731.7 418.867 732.2 419.267 732.8 419.6C733.4 419.867 733.967 420.133 734.5 420.4C735.3 420.8 736.067 421.2 736.8 421.6C737.6 422 738.4 422.3 739.2 422.5C740.267 422.833 741.333 423.1 742.4 423.3C743.533 423.433 744.633 423.6 745.7 423.8C746.567 423.933 747.433 424.1 748.3 424.3C749.167 424.433 750.033 424.567 750.9 424.7C752.367 424.833 753.833 425 755.3 425.2C756.833 425.333 758.333 425.5 759.8 425.7C760.733 425.833 761.7 426 762.7 426.2C763.767 426.333 764.767 426.3 765.7 426.1C766.833 425.9 767.933 425.467 769 424.8C770.067 424.133 771.067 423.5 772 422.9C772.533 422.567 773.067 422.233 773.6 421.9C774.133 421.567 774.667 421.233 775.2 420.9C775.8 420.567 776.433 420.267 777.1 420C777.767 419.667 778.367 419.3 778.9 418.9C779.767 418.233 780.5 417.467 781.1 416.6C781.7 415.667 782.3 414.8 782.9 414C783.233 413.533 783.533 413.1 783.8 412.7C784.133 412.233 784.433 411.767 784.7 411.3C784.767 411.167 784.833 411.033 784.9 410.9C785.033 410.7 785.133 410.5 785.2 410.3C785.2 410.233 785.2 410.133 785.2 410C785.2 409.8 785.2 409.633 785.2 409.5C785.2 409.3 785.2 409.1 785.2 408.9C785.2 408.633 785.2 408.4 785.2 408.2C785.133 407.8 785 407.433 784.8 407.1C784.667 406.767 784.533 406.433 784.4 406.1C784.333 405.767 784.233 405.433 784.1 405.1C783.967 404.7 783.9 404.333 783.9 404C783.833 403.667 783.833 403.333 783.9 403C783.967 402.667 784.033 402.3 784.1 401.9Z" fill="black"/>
<path d="M62.8 374.6C62.0667 373.133 61.3333 371.633 60.6 370.1C59.8667 368.567 58.9667 367.167 57.9 365.9C57.3667 365.233 56.7333 364.633 56 364.1C55.2667 363.567 54.4667 363.2 53.6 363C52.2 362.667 50.7667 362.667 49.3 363C47.9 363.267 46.5 363.233 45.1 362.9C43.7 362.5 42.4333 361.8 41.3 360.8C40.1667 359.8 38.9333 359.067 37.6 358.6C36.6667 358.267 35.7 358.1 34.7 358.1C33.7 358.1 32.7 358.133 31.7 358.2C30.5667 358.333 29.3667 358.533 28.1 358.8C26.8333 359 25.6667 359.333 24.6 359.8C23.8667 360.133 23.1667 360.533 22.5 361C21.9 361.4 21.3333 361.833 20.8 362.3C20.2 362.767 19.6 363.3 19 363.9C18.4667 364.433 17.9333 365 17.4 365.6C17.1333 365.867 16.8667 366.133 16.6 366.4C16.4 366.667 16.1667 366.933 15.9 367.2C15.6333 367.333 15.3667 367.533 15.1 367.8C14.9 368 14.6667 368.167 14.4 368.3C13.4667 368.833 12.4667 369.267 11.4 369.6C10.4 369.933 9.5 370.433 8.7 371.1C6.9 372.567 5.83333 374.367 5.5 376.5C5.3 377.567 5.26667 378.667 5.4 379.8C5.53333 380.867 5.53333 381.933 5.4 383C5.26667 384.067 5.03333 385.133 4.7 386.2C4.36667 387.267 4.3 388.367 4.5 389.5C4.56667 389.7 4.63333 389.9 4.7 390.1C4.76667 390.233 4.83333 390.367 4.9 390.5C5.63333 392.033 6.86667 393.5 8.6 394.9C10.4 396.3 12.0333 397.633 13.5 398.9C14.3667 399.633 15.2 400.4 16 401.2C16.8 401.933 17.7333 402.467 18.8 402.8C19.8 403.2 20.8667 403.4 22 403.4C23.2 403.4 24.3 403.6 25.3 404C25.4333 404.067 25.5667 404.167 25.7 404.3C25.9 404.367 26.0667 404.467 26.2 404.6C26.3333 404.667 26.5 404.767 26.7 404.9C26.9 404.967 27.0667 405.067 27.2 405.2C27.2667 405.267 27.3333 405.4 27.4 405.6C27.5333 405.8 27.6333 405.967 27.7 406.1C27.7667 406.233 27.8333 406.4 27.9 406.6C28.0333 406.733 28.1333 406.867 28.2 407C28.2667 407.2 28.3 407.4 28.3 407.6C28.3 407.8 28.3333 407.967 28.4 408.1C28.5333 409.3 28.4 410.467 28 411.6C27.6 412.667 27.1 413.7 26.5 414.7C26.2333 415.167 25.9333 415.633 25.6 416.1C25.3333 416.5 25 416.867 24.6 417.2C24.4 417.4 24.1667 417.6 23.9 417.8C23.6333 417.933 23.3667 418.1 23.1 418.3C22.6333 418.633 22.1 418.933 21.5 419.2C20.9667 419.4 20.4667 419.7 20 420.1C19.8667 420.167 19.7 420.267 19.5 420.4C19.3 420.467 19.1667 420.567 19.1 420.7C18.9667 420.833 18.8667 421.067 18.8 421.4C18.7333 421.667 18.6667 421.9 18.6 422.1C18.6 422.167 18.5667 422.267 18.5 422.4C18.4333 422.467 18.4 422.533 18.4 422.6C18.4667 422.733 18.5333 422.833 18.6 422.9C18.7333 422.9 18.8333 422.933 18.9 423C19.1 423.133 19.3 423.3 19.5 423.5C19.7 423.7 19.9 423.833 20.1 423.9C20.2333 423.967 20.4333 424 20.7 424C20.9667 424 21.2 424 21.4 424C22.6667 424.067 23.8667 423.833 25 423.3C26.1333 422.7 27.3333 422.4 28.6 422.4C29.4 422.4 30.1333 422.5 30.8 422.7C31.2 422.833 31.5667 423.033 31.9 423.3C32.3 423.567 32.7 423.767 33.1 423.9C33.3 424.033 33.5 424.133 33.7 424.2C33.9 424.267 34.1 424.367 34.3 424.5C34.4333 424.5 34.5333 424.533 34.6 424.6C34.6667 424.667 34.7333 424.7 34.8 424.7C34.9333 424.7 35.0667 424.667 35.2 424.6C35.4 424.467 35.5333 424.367 35.6 424.3C35.8 424.233 36.0333 424.167 36.3 424.1C36.5667 424.033 36.7667 423.933 36.9 423.8C37.1 423.667 37.2667 423.467 37.4 423.2C37.6 422.933 37.7667 422.7 37.9 422.5C38.1667 422.167 38.4 421.833 38.6 421.5C38.8667 421.1 39.1667 420.733 39.5 420.4C40.1 419.6 40.7333 418.9 41.4 418.3C42.1333 417.633 42.8667 416.967 43.6 416.3C44.9333 414.967 46 413.467 46.8 411.8C47.6667 410.067 48.7333 408.467 50 407C50.1333 406.933 50.2667 406.8 50.4 406.6C50.5333 406.4 50.6667 406.267 50.8 406.2C50.9333 406.133 51.1 406.067 51.3 406C51.5 405.933 51.7 405.867 51.9 405.8C51.9667 405.8 52.0667 405.767 52.2 405.7C52.4 405.567 52.5667 405.5 52.7 405.5C52.7667 405.5 52.9 405.633 53.1 405.9C53.3667 406.167 53.5333 406.367 53.6 406.5C53.6667 406.567 53.7667 406.667 53.9 406.8C54.0333 406.867 54.1333 406.933 54.2 407C54.2667 407.133 54.2667 407.333 54.2 407.6C54.2 407.8 54.2 408 54.2 408.2C54.2 408.867 54.1 409.5 53.9 410.1C53.7667 410.7 53.6 411.3 53.4 411.9C52.9333 413.033 52.5 414.167 52.1 415.3C51.7 416.433 51.2667 417.533 50.8 418.6C50.4667 419.467 50.0667 420.333 49.6 421.2C49.1333 422.067 48.5 422.767 47.7 423.3C47.1 423.767 46.4333 424.1 45.7 424.3C45.0333 424.5 44.3667 424.7 43.7 424.9C43.0333 425.167 42.3667 425.467 41.7 425.8C41.1 426.133 40.5333 426.533 40 427C39.4 427.667 38.8667 428.4 38.4 429.2C38 430 37.5 430.733 36.9 431.4C36.7667 431.533 36.6333 431.667 36.5 431.8C36.4333 431.933 36.3333 432.067 36.2 432.2C36 432.267 35.8 432.333 35.6 432.4C35.4 432.467 35.2 432.533 35 432.6C34.9333 432.667 34.8 432.733 34.6 432.8C34.4667 432.867 34.3333 432.9 34.2 432.9C34.0667 432.967 33.9 432.967 33.7 432.9C33.5 432.833 33.3333 432.8 33.2 432.8C33 432.8 32.8 432.767 32.6 432.7C32.4 432.7 32.2333 432.667 32.1 432.6C31.4333 432.4 30.8 432.067 30.2 431.6C29.6 431.133 29 430.7 28.4 430.3C27.8 429.967 27.1667 429.633 26.5 429.3C25.8333 429.033 25.1667 428.867 24.5 428.8C23.3 428.6 22.0667 428.567 20.8 428.7C19.6 428.833 18.4 428.8 17.2 428.6C17 428.6 16.7667 428.567 16.5 428.5C16.3 428.5 16.1 428.467 15.9 428.4C15.7667 428.333 15.6 428.233 15.4 428.1C15.2667 428.033 15.1 427.933 14.9 427.8C14.8333 427.733 14.7 427.667 14.5 427.6C14.3667 427.533 14.2667 427.433 14.2 427.3C13.8667 426.967 13.6 426.533 13.4 426C13.2667 425.467 13.2 424.933 13.2 424.4C13.1333 423 13.4667 421.667 14.2 420.4C14.9333 419.067 15.6667 417.8 16.4 416.6C16.7333 416.133 17.0333 415.667 17.3 415.2C17.6333 414.733 18 414.3 18.4 413.9C18.8 413.567 19.2333 413.233 19.7 412.9C20.1667 412.567 20.6333 412.233 21.1 411.9C21.1667 411.833 21.3 411.733 21.5 411.6C21.7667 411.467 21.9333 411.333 22 411.2C22.0667 411.067 22.0667 410.867 22 410.6C21.9333 410.333 21.9 410.133 21.9 410C21.9 409.8 21.9 409.7 21.9 409.7C21.8333 409.633 21.6667 409.567 21.4 409.5C21.1333 409.367 20.9333 409.267 20.8 409.2C20.2667 409 19.7 408.833 19.1 408.7C18.5667 408.5 18.0333 408.233 17.5 407.9C16.6333 407.367 15.8333 406.767 15.1 406.1C14.3667 405.433 13.5667 404.8 12.7 404.2C11.5667 403.4 10.3333 402.7 9 402.1C7.73333 401.433 6.6 400.567 5.6 399.5C5 398.767 4.46667 398 4 397.2C3.53333 396.333 3.1 395.467 2.7 394.6C2.03333 393.867 1.53333 392.567 1.2 390.7C0.933333 388.833 0.8 386.833 0.8 384.7C0.866667 382.5 1 380.467 1.2 378.6C1.46667 376.733 1.8 375.433 2.2 374.7C2.53333 373.167 2.96667 371.533 3.5 369.8C4.03333 368 4.93333 366.467 6.2 365.2C6.93333 364.4 7.76667 363.733 8.7 363.2C9.7 362.6 10.6667 362.033 11.6 361.5C12.6667 360.9 13.6667 360.3 14.6 359.7C15.6 359.1 16.6 358.5 17.6 357.9C18.6 357.367 19.6 356.833 20.6 356.3C21.6667 355.7 22.7333 355.233 23.8 354.9C25.2667 354.367 26.9 354.033 28.7 353.9C30.5 353.767 32.1667 353.667 33.7 353.6C34.6333 353.6 35.6 353.633 36.6 353.7C37.6 353.7 38.5667 353.8 39.5 354C40.9667 354.333 42.3 354.9 43.5 355.7C44.7667 356.5 46.1333 357.1 47.6 357.5C48.6 357.833 49.9 357.933 51.5 357.8C53.1 357.6 54.7 357.533 56.3 357.6C57.9 357.6 59.2 358.067 60.2 359C60.9333 359.533 61.5333 360.2 62 361C62.5333 361.8 62.9667 362.633 63.3 363.5C63.9667 364.9 64.5333 366.367 65 367.9C65.5333 369.433 66.0667 370.933 66.6 372.4C66.8 373.067 67 373.7 67.2 374.3C67.4667 374.833 67.6333 375.433 67.7 376.1C67.7 376.233 67.7333 376.433 67.8 376.7C67.8667 376.967 67.8667 377.133 67.8 377.2C67.7333 377.267 67.6 377.333 67.4 377.4C67.2 377.467 67.0667 377.533 67 377.6C66.8667 377.6 66.7 377.667 66.5 377.8C66.3667 377.867 66.2333 377.9 66.1 377.9C66.0333 377.9 65.9 377.833 65.7 377.7C65.5 377.5 65.3333 377.367 65.2 377.3C65.0667 377.233 64.9 377.167 64.7 377.1C64.5667 376.967 64.4333 376.833 64.3 376.7C64.0333 376.433 63.8 376.133 63.6 375.8C63.4 375.4 63.1333 375 62.8 374.6ZM40.7 387.3C40.2333 387.967 39.7333 388.633 39.2 389.3C38.6667 389.9 38.0667 390.467 37.4 391C37.2667 391.067 37.1 391.167 36.9 391.3C36.7667 391.433 36.6333 391.533 36.5 391.6C36.3667 391.667 36.2 391.7 36 391.7C35.8667 391.7 35.7333 391.7 35.6 391.7C35.4667 391.767 35.2667 391.833 35 391.9C34.8 391.9 34.6333 391.9 34.5 391.9C34.3 391.9 34.1 391.833 33.9 391.7C33.7667 391.567 33.6 391.467 33.4 391.4C32.7333 391.067 32.1333 390.667 31.6 390.2C31.0667 389.667 30.5667 389.1 30.1 388.5C29.7667 388.167 29.4333 387.8 29.1 387.4C28.8333 386.933 28.6 386.467 28.4 386C27.9333 384.733 27.8667 383.467 28.2 382.2C28.6 380.933 29.0333 379.7 29.5 378.5C29.6333 377.967 29.8 377.433 30 376.9C30.2 376.3 30.4333 375.767 30.7 375.3C30.7667 375.1 30.9 374.9 31.1 374.7C31.3 374.5 31.4667 374.3 31.6 374.1C31.6667 374.033 31.7 373.967 31.7 373.9C31.7667 373.767 31.8333 373.7 31.9 373.7C32.0333 373.567 32.2 373.5 32.4 373.5C32.6 373.433 32.8 373.4 33 373.4C33.1333 373.333 33.3 373.267 33.5 373.2C33.7 373.067 33.8667 373 34 373C34.1333 373 34.3 373.067 34.5 373.2C34.7 373.267 34.8667 373.3 35 373.3C36 373.633 36.9 374.2 37.7 375C38.0333 375.4 38.3333 375.833 38.6 376.3C38.9333 376.767 39.2333 377.2 39.5 377.6C40.0333 378.6 40.5 379.6 40.9 380.6C41.3667 381.6 41.6 382.633 41.6 383.7C41.6 383.9 41.6 384.1 41.6 384.3C41.6667 384.5 41.6667 384.667 41.6 384.8C41.6 385.2 41.5 385.6 41.3 386C41.1 386.4 40.9 386.833 40.7 387.3ZM33.7 383.9C33.8333 384.033 33.9667 384.167 34.1 384.3C34.2333 384.433 34.3667 384.567 34.5 384.7C34.6333 384.833 34.7 384.9 34.7 384.9C34.7667 384.9 34.8333 384.867 34.9 384.8C34.9667 384.667 35.0333 384.567 35.1 384.5C35.1667 384.367 35.3333 384.2 35.6 384C35.8667 383.8 36.0333 383.633 36.1 383.5C36.1 383.433 36.0333 383.3 35.9 383.1C35.7667 382.833 35.6667 382.633 35.6 382.5C35.6 382.433 35.5667 382.3 35.5 382.1C35.4333 381.9 35.3667 381.8 35.3 381.8C35.2333 381.733 35.1 381.767 34.9 381.9C34.7 382.033 34.6 382.1 34.6 382.1C34.4667 382.167 34.2667 382.233 34 382.3C33.8 382.367 33.6667 382.433 33.6 382.5C33.4667 382.633 33.4 382.867 33.4 383.2C33.4667 383.467 33.5667 383.7 33.7 383.9ZM63 383.4C63.0667 383.267 63.1333 383.133 63.2 383C63.3333 382.867 63.4667 382.733 63.6 382.6C63.6667 382.467 63.7 382.367 63.7 382.3C63.7667 382.233 63.8333 382.167 63.9 382.1C63.9667 382.1 64.1 382.133 64.3 382.2C64.5 382.267 64.6333 382.333 64.7 382.4C64.9 382.467 65.1 382.533 65.3 382.6C65.5667 382.6 65.7667 382.633 65.9 382.7C66.0333 382.833 66.1667 383.067 66.3 383.4C66.4333 383.733 66.5333 384 66.6 384.2C66.6667 384.267 66.7 384.333 66.7 384.4C66.7667 384.467 66.8 384.567 66.8 384.7C66.8 384.833 66.7 385.033 66.5 385.3C66.3667 385.567 66.2667 385.767 66.2 385.9C66.0667 386.033 66 386.1 66 386.1C65.9333 386.167 65.8333 386.2 65.7 386.2C65.6333 386.133 65.5667 386.1 65.5 386.1C65.3 386.033 65.0333 386 64.7 386C64.4333 386 64.2333 385.933 64.1 385.8C64.0333 385.8 63.9333 385.733 63.8 385.6C63.7333 385.4 63.6667 385.267 63.6 385.2C63.4 384.933 63.2 384.7 63 384.5C62.8667 384.233 62.8667 383.867 63 383.4ZM66.6 391.6C66.7333 391.867 66.8667 392.167 67 392.5C67.1333 392.833 67.2 393.133 67.2 393.4C67.2 393.6 67.1333 393.8 67 394C66.9333 394.2 66.9 394.4 66.9 394.6C66.8333 394.733 66.7667 394.9 66.7 395.1C66.7 395.3 66.6667 395.5 66.6 395.7C66.5333 395.833 66.4333 396 66.3 396.2C66.1667 396.333 66.0333 396.467 65.9 396.6C65.5 397.2 65.0333 397.767 64.5 398.3C64.0333 398.767 63.5 399.233 62.9 399.7C62.1667 400.3 61.4667 400.767 60.8 401.1C60.6667 401.233 60.5 401.367 60.3 401.5C60.1667 401.567 60 401.633 59.8 401.7C59.6 401.767 59.3333 401.8 59 401.8C58.6667 401.733 58.3667 401.667 58.1 401.6C58.0333 401.6 57.9333 401.633 57.8 401.7C57.7333 401.7 57.6667 401.667 57.6 401.6C57.4667 401.533 57.3333 401.4 57.2 401.2C57.1333 400.933 57.0667 400.767 57 400.7C56.9333 400.633 56.8333 400.533 56.7 400.4C56.5667 400.2 56.5 400.067 56.5 400C56.5 399.867 56.5667 399.733 56.7 399.6C56.9 399.4 57 399.267 57 399.2C57.1333 399.067 57.2333 398.9 57.3 398.7C57.4333 398.5 57.5667 398.333 57.7 398.2C57.9 397.933 58.1333 397.7 58.4 397.5C58.7333 397.3 59.0333 397.067 59.3 396.8C59.8333 396.2 60.3 395.533 60.7 394.8C61.1 394.067 61.5333 393.367 62 392.7C62.1333 392.5 62.2667 392.267 62.4 392C62.5333 391.733 62.7 391.5 62.9 391.3C63.1 391.167 63.3 391.067 63.5 391C63.7667 390.867 64 390.767 64.2 390.7C64.2667 390.633 64.3333 390.567 64.4 390.5C64.4667 390.433 64.5667 390.4 64.7 390.4C64.7667 390.4 64.8333 390.433 64.9 390.5C65.0333 390.567 65.1333 390.633 65.2 390.7C65.4 390.767 65.6333 390.867 65.9 391C66.2333 391.133 66.4667 391.333 66.6 391.6Z" fill="black"/>
</svg>
