<svg width="1920" height="1194" viewBox="0 0 1920 1194" fill="none" xmlns="http://www.w3.org/2000/svg">
<path d="M63.9995 52.9994L283.996 52.997L1.49999 454.792L-231.436 454.792L-85 219L63.9995 52.9994Z" fill="black"/>
<path d="M451 53L667 52.501L550.5 424L276.001 421.5L451 53Z" fill="black"/>
<path d="M838.5 52.9999L1052.5 53.0011L1085 458L799.5 451.396L838.5 52.9999Z" fill="black"/>
<path d="M1220 52.5005L1437 52.5005L1615.5 428.001L1352.5 473L1220 52.5005Z" fill="black"/>
<rect y="415" width="1920" height="779" fill="black"/>
<path d="M1602.74 52.8525L1821.57 52.8481L2045 301.5L1880.07 449.348L1602.74 52.8525Z" fill="black"/>
<rect y="484" width="1920" height="661" fill="black"/>
</svg>
