<svg width="1920" height="1177" viewBox="0 0 1920 1177" fill="none" xmlns="http://www.w3.org/2000/svg">
<path d="M968 355L825 107L1111 107L968 355Z" fill="white"/>
<path d="M1190.28 562.78L1231.83 322.227L1419.38 478.488L1190.28 562.78Z" fill="white"/>
<path d="M1451.28 779.78L1492.83 539.227L1680.38 695.488L1451.28 779.78Z" fill="white"/>
<path d="M713.716 559.78L672.165 319.227L484.616 475.488L713.716 559.78Z" fill="white"/>
<path d="M452.716 776.78L411.165 536.227L223.616 692.488L452.716 776.78Z" fill="white"/>
<rect width="1808.9" height="1660.63" transform="matrix(-0.76384 0.645406 0.645406 0.76384 165.556 -1418.34)" fill="black"/>
<rect x="1878.94" y="-1278" width="1808.9" height="1660.63" transform="rotate(39.395 1878.94 -1278)" fill="black"/>
<path d="M1608.24 345C1595.5 345 1582.89 341.793 1571.12 335.561C1559.35 329.329 1548.66 320.196 1539.65 308.681C1530.65 297.167 1523.5 283.497 1518.63 268.453C1513.75 253.408 1511.24 237.284 1511.24 221C1511.24 204.716 1513.75 188.592 1518.63 173.547C1523.5 158.503 1530.65 144.833 1539.65 133.319C1548.66 121.804 1559.35 112.671 1571.12 106.439C1582.89 100.207 1595.5 97 1608.24 97L1608.24 221L1608.24 345Z" fill="white"/>
<ellipse cx="1559.74" cy="223" rx="48.5" ry="19" fill="black"/>
</svg>
