<svg width="1079" height="1745" viewBox="0 0 1079 1745" fill="none" xmlns="http://www.w3.org/2000/svg">
<path d="M858 646.5C855 649.5 851.5 652.5 847.5 655.5C844.5 658.5 841.5 661 838.5 663C835.5 664 832.5 665 829.5 666C827.5 666 825 666.5 822 667.5C815 669.5 807.5 671 799.5 672C791.5 673 783.5 674.5 775.5 676.5C764.5 678.5 753.5 681 742.5 684C732.5 686 722 687 711 687C696 689 680.5 688.5 664.5 685.5C649.5 682.5 634.5 679 619.5 675C611.5 674 603.5 673 595.5 672C587.5 670 579.5 668 571.5 666C568.5 666 565 666 561 666C557 665 554 663.5 552 661.5C549 659.5 546 657 543 654C541 650 539 647 537 645C537 644 536 643 534 642C533 641 532.5 639.5 532.5 637.5C532.5 636.5 533 635.5 534 634.5C535 632.5 535.5 631 535.5 630C537.5 627 539 623.5 540 619.5C542 615.5 544 612.5 546 610.5C547 609.5 549 608.5 552 607.5C555 606.5 557.5 605.5 559.5 604.5C569.5 599.5 579.5 596 589.5 594C599.5 592 609.5 591 619.5 591C640.5 590 661 590 681 591C702 591 723 591.5 744 592.5C755 593.5 766 594 777 594C788 594 799 594.5 810 595.5C815 595.5 820.5 596 826.5 597C833.5 598 839 599.5 843 601.5C845 602.5 847 604 849 606C851 608 853 610 855 612C856 613 858 614.5 861 616.5C865 618.5 867 620.5 867 622.5C867 623.5 866.5 624.5 865.5 625.5C865.5 626.5 865.5 627.5 865.5 628.5C864.5 631.5 863.5 634.5 862.5 637.5C861.5 639.5 860 642.5 858 646.5ZM354 613.5C356 615.5 358 617.5 360 619.5C362 621.5 363.5 623.5 364.5 625.5C366.5 628.5 367.5 630 367.5 630C367.5 631 366 632.5 363 634.5C360 636.5 358.5 637.5 358.5 637.5C356.5 639.5 354 642 351 645C349 648 347.5 649.5 346.5 649.5C343.5 650.5 339.5 650.5 334.5 649.5C330.5 647.5 327 646.5 324 646.5C323 645.5 321.5 645.5 319.5 646.5C318.5 646.5 317.5 646 316.5 645C315.5 644 314.5 642 313.5 639C313.5 636 313.5 634 313.5 633C312.5 631 311 628 309 624C308 620 308 617.5 309 616.5C309 615.5 310.5 614.5 313.5 613.5C317.5 612.5 320 612 321 612C323 611 325.5 610 328.5 609C331.5 607 334 606 336 606C340 606 346 608.5 354 613.5ZM391.5 1560C374.5 1568 355.5 1576.5 334.5 1585.5C314.5 1595.5 294 1599.5 273 1597.5C262 1596.5 251.5 1593.5 241.5 1588.5C231.5 1584.5 221.5 1580 211.5 1575C201.5 1571 191 1567.5 180 1564.5C170 1561.5 159.5 1559.5 148.5 1558.5C133.5 1557.5 118 1557.5 102 1558.5C87 1560.5 72 1561.5 57 1561.5C51 1561.5 45.5 1560.5 40.5 1558.5C36.5 1557.5 31.5 1555.5 25.5 1552.5C24.5 1552.5 22.5 1552 19.5 1551C17.5 1550 16 1549 15 1548C13 1546 11.5 1543.5 10.5 1540.5C9.5 1537.5 8.5 1535 7.5 1533C6.5 1530 5.5 1527 4.5 1524C2.5 1522 0.999999 1519.5 -1.06171e-06 1516.5C-1.06171e-06 1514.5 0.499999 1512 1.5 1509C1.5 1506 1.5 1503.5 1.5 1501.5C1.5 1484.5 4.5 1467.5 10.5 1450.5C17.5 1430.5 24 1410.5 30 1390.5C36 1370.5 39 1349.5 39 1327.5C40 1317.5 40 1307 39 1296C38 1285 37 1274.5 36 1264.5C36 1251.5 35.5 1239 34.5 1227C34.5 1215 34 1203 33 1191C32 1180 30.5 1169 28.5 1158C27.5 1146 28 1134.5 30 1123.5C30 1119.5 31 1114.5 33 1108.5C35 1102.5 37 1098 39 1095C41 1093 43 1091 45 1089C47 1087 49 1085.5 51 1084.5C53 1082.5 55 1080.5 57 1078.5C59 1076.5 61 1075 63 1074C72 1068 81.5 1063.5 91.5 1060.5C102.5 1057.5 112 1052.5 120 1045.5C138 1032.5 151 1016 159 996C164 980 166 963.5 165 946.5C164 928.5 164 911.5 165 895.5C165 884.5 165.5 873.5 166.5 862.5C167.5 850.5 168 839 168 828C169 813 168.5 798.5 166.5 784.5C165.5 769.5 164.5 754.5 163.5 739.5C163.5 731.5 164 723.5 165 715.5C166 706.5 167 698 168 690C169 684 170 678.5 171 673.5C172 668.5 173.5 663 175.5 657C176.5 655 177.5 651.5 178.5 646.5C180.5 641.5 182.5 638.5 184.5 637.5C186.5 636.5 189 636 192 636C195 635 197 634.5 198 634.5C200 634.5 203 634 207 633C211 632 214 631.5 216 631.5C217 631.5 218.5 632.5 220.5 634.5C222.5 636.5 224 638 225 639C229 642 232.5 645 235.5 648C239.5 651 242.5 654.5 244.5 658.5C245.5 662.5 246.5 666.5 247.5 670.5C249.5 674.5 251 678 252 681C254 692 255 703 255 714C255 725 255 735.5 255 745.5C256 756.5 257 767.5 258 778.5C259 789.5 259 800.5 258 811.5C257 823.5 255 835.5 252 847.5C249 859.5 246 871.5 243 883.5C237 903.5 231 923.5 225 943.5C220 963.5 214.5 983.5 208.5 1003.5C204.5 1019.5 200.5 1036 196.5 1053C192.5 1069 186.5 1084.5 178.5 1099.5C170.5 1113.5 160 1126 147 1137C135 1147 126 1159.5 120 1174.5C115 1185.5 111.5 1197 109.5 1209C107.5 1221 106 1232.5 105 1243.5C103 1253.5 101.5 1263.5 100.5 1273.5C99.5 1283.5 98.5 1293.5 97.5 1303.5C97.5 1314.5 97.5 1326 97.5 1338C97.5 1349 97 1360 96 1371C96 1376 95.5 1381 94.5 1386C93.5 1392 92.5 1398 91.5 1404C91.5 1409 91 1414.5 90 1420.5C90 1426.5 90.5 1432 91.5 1437C92.5 1439 93.5 1441 94.5 1443C96.5 1445 97.5 1447 97.5 1449C99.5 1451 101 1453.5 102 1456.5C103 1459.5 104.5 1462 106.5 1464C108.5 1466 111.5 1467.5 115.5 1468.5C119.5 1469.5 122.5 1470.5 124.5 1471.5C137.5 1475.5 150.5 1477 163.5 1476C176.5 1476 189.5 1477 202.5 1479C220.5 1482 238 1487 255 1494C273 1501 291 1504.5 309 1504.5C320 1503.5 331 1502.5 342 1501.5C353 1501.5 364 1502 375 1503C377 1504 380 1504.5 384 1504.5C389 1504.5 392.5 1505 394.5 1506C397.5 1508 400 1510.5 402 1513.5C404 1517.5 406 1521 408 1524C409 1525 410 1526 411 1527C413 1528 414 1529 414 1530C414 1531 413.5 1532 412.5 1533C411.5 1535 410.5 1536.5 409.5 1537.5C407.5 1540.5 405 1544 402 1548C400 1552 396.5 1556 391.5 1560ZM954 1125C951 1122 947.5 1118.5 943.5 1114.5C940.5 1110.5 938 1106.5 936 1102.5C925 1082.5 920.5 1061.5 922.5 1039.5C924.5 1017.5 925.5 996 925.5 975C925.5 963 924.5 952 922.5 942C920.5 932 917.5 922 913.5 912C909.5 901 907 890 906 879C905 863 908 847.5 915 832.5C922 817.5 928 802 933 786C934 783 934.5 779.5 934.5 775.5C935.5 771.5 936.5 767.5 937.5 763.5C939.5 749.5 938.5 735.5 934.5 721.5C930.5 706.5 928.5 692 928.5 678C928.5 675 928 671.5 927 667.5C927 662.5 927.5 659 928.5 657C929.5 654 932 651 936 648C940 644 943 641 945 639C946 638 947 637 948 636C949 634 950 633 951 633C952 632 953 632 954 633C956 634 957.5 634.5 958.5 634.5C962.5 635.5 966.5 636.5 970.5 637.5C975.5 637.5 979.5 638.5 982.5 640.5C984.5 641.5 986 643 987 645C989 647 990.5 649 991.5 651C1001.5 662 1008.5 673 1012.5 684C1019.5 702 1022.5 720.5 1021.5 739.5C1021.5 758.5 1018 777.5 1011 796.5C1005 811.5 998 827 990 843C982 858 978.5 874 979.5 891C979.5 902 980.5 913 982.5 924C985.5 935 987 946 987 957C987 968 985.5 979.5 982.5 991.5C980.5 1002.5 981 1013 984 1023C986 1034 990.5 1045 997.5 1056C1004.5 1066 1013.5 1074 1024.5 1080C1035.5 1086 1045 1093.5 1053 1102.5C1055 1104.5 1057 1107 1059 1110C1061 1112 1063 1114 1065 1116C1067 1118 1068 1119 1068 1119C1068 1120 1067 1122 1065 1125C1063 1127 1062 1128 1062 1128C1061 1130 1059.5 1132.5 1057.5 1135.5C1055.5 1138.5 1054 1140.5 1053 1141.5C1051 1142.5 1048.5 1143 1045.5 1143C1043.5 1143 1041.5 1143 1039.5 1143C1031.5 1144 1022.5 1145 1012.5 1146C1003.5 1146 994.5 1145 985.5 1143C980.5 1142 975.5 1140 970.5 1137C965.5 1133 960 1129 954 1125ZM483 900C493 883 503 868 513 855C517 851 522 846.5 528 841.5C534 835.5 539.5 831.5 544.5 829.5C547.5 828.5 550.5 828 553.5 828C556.5 827 559.5 826.5 562.5 826.5C564.5 825.5 567 824.5 570 823.5C574 822.5 577 822.5 579 823.5C580 823.5 581.5 824.5 583.5 826.5C585.5 828.5 587 830 588 831C590 833 592.5 835.5 595.5 838.5C599.5 840.5 602 842.5 603 844.5C605 848.5 606.5 854 607.5 861C609.5 867 610.5 872 610.5 876C612.5 886 613 896 612 906C612 915 612 924.5 612 934.5C612 956.5 611 981.5 609 1009.5C607 1036.5 598.5 1060 583.5 1080C580.5 1084 577 1088.5 573 1093.5C569 1098.5 565 1102 561 1104C558 1106 554.5 1108 550.5 1110C547.5 1111 544.5 1112.5 541.5 1114.5C539.5 1114.5 537.5 1115.5 535.5 1117.5C533.5 1118.5 531.5 1119 529.5 1119C526.5 1120 523 1120.5 519 1120.5C516 1119.5 513.5 1118.5 511.5 1117.5C509.5 1117.5 507 1117.5 504 1117.5C502 1117.5 500 1117.5 498 1117.5C496 1116.5 493.5 1115 490.5 1113C488.5 1110 486.5 1108 484.5 1107C483.5 1105 481.5 1103.5 478.5 1102.5C475.5 1100.5 473.5 1098.5 472.5 1096.5C471.5 1094.5 471 1092.5 471 1090.5C471 1087.5 471 1085.5 471 1084.5C470 1080.5 469 1077 468 1074C467 1070 466.5 1066.5 466.5 1063.5C466.5 1058.5 467 1053.5 468 1048.5C470 1042.5 471.5 1037 472.5 1032C473.5 1018 472.5 1004.5 469.5 991.5C467.5 977.5 466.5 963.5 466.5 949.5C466.5 947.5 466 945 465 942C465 939 465.5 936 466.5 933C467.5 928 469.5 923 472.5 918C475.5 912 479 906 483 900ZM1020 1218C1021 1215 1022 1212.5 1023 1210.5C1024 1207.5 1025 1205 1026 1203C1026 1201 1026 1199.5 1026 1198.5C1026 1196.5 1026.5 1195 1027.5 1194C1028.5 1194 1030.5 1194 1033.5 1194C1037.5 1194 1040 1194 1041 1194C1042 1194 1044 1194 1047 1194C1050 1194 1052 1194 1053 1194C1055 1195 1057 1197.5 1059 1201.5C1061 1204.5 1062.5 1206.5 1063.5 1207.5C1064.5 1209.5 1066 1212 1068 1215C1070 1217 1071.5 1219 1072.5 1221C1073.5 1224 1074 1227.5 1074 1231.5C1075 1235.5 1075.5 1239 1075.5 1242C1076.5 1244 1077 1246.5 1077 1249.5C1078 1251.5 1078.5 1253.5 1078.5 1255.5C1077.5 1257.5 1075 1260 1071 1263C1068 1266 1065.5 1268.5 1063.5 1270.5C1062.5 1271.5 1061.5 1272.5 1060.5 1273.5C1060.5 1274.5 1059.5 1275.5 1057.5 1276.5C1056.5 1276.5 1055 1276 1053 1275C1052 1274 1051 1273 1050 1272C1047 1271 1043 1270 1038 1269C1034 1267 1031 1265 1029 1263C1028 1262 1027 1260 1026 1257C1026 1254 1025.5 1252 1024.5 1251C1022.5 1246 1021 1241 1020 1236C1019 1231 1019 1225 1020 1218ZM961.5 1561.5C952.5 1564.5 943 1568 933 1572C923 1576 913.5 1580 904.5 1584C894.5 1589 884.5 1594 874.5 1599C864.5 1605 854 1609.5 843 1612.5C826 1617.5 808.5 1619 790.5 1617C772.5 1616 755 1613 738 1608C729 1606 719.5 1603 709.5 1599C700.5 1596 692.5 1591.5 685.5 1585.5C683.5 1583.5 681.5 1581 679.5 1578C677.5 1575 676 1572 675 1569C674 1568 672.5 1566.5 670.5 1564.5C669.5 1563.5 668.5 1562 667.5 1560C666.5 1558 666 1555.5 666 1552.5C666 1549.5 665.5 1546.5 664.5 1543.5C662.5 1533.5 662 1523.5 663 1513.5C664 1503.5 664.5 1493 664.5 1482C664.5 1479 664.5 1475.5 664.5 1471.5C665.5 1467.5 666 1464.5 666 1462.5C665 1460.5 663.5 1458.5 661.5 1456.5C660.5 1454.5 659.5 1452.5 658.5 1450.5C657.5 1448.5 656 1445.5 654 1441.5C653 1438.5 651.5 1436.5 649.5 1435.5C648.5 1434.5 646.5 1433.5 643.5 1432.5C641.5 1432.5 639.5 1432 637.5 1431C624.5 1427 611.5 1424.5 598.5 1423.5C569.5 1422.5 539 1423 507 1425C498 1425 488.5 1425.5 478.5 1426.5C469.5 1427.5 461 1429.5 453 1432.5C445 1434.5 437.5 1437 430.5 1440C423.5 1444 415.5 1446.5 406.5 1447.5C405.5 1447.5 403 1448 399 1449C395 1451 392.5 1451.5 391.5 1450.5C389.5 1450.5 387.5 1449 385.5 1446C384.5 1443 384 1441 384 1440C382 1438 380 1435.5 378 1432.5C376 1429.5 374.5 1427 373.5 1425C373.5 1424 373.5 1422.5 373.5 1420.5C374.5 1419.5 375 1418 375 1416C376 1413 376.5 1409 376.5 1404C376.5 1399 377.5 1395 379.5 1392C380.5 1389 382 1386.5 384 1384.5C386 1381.5 387.5 1379 388.5 1377C393.5 1370 399 1363.5 405 1357.5C411 1351.5 418 1346.5 426 1342.5C442 1335.5 458.5 1333.5 475.5 1336.5C492.5 1339.5 509 1341.5 525 1342.5C548 1343.5 573.5 1342.5 601.5 1339.5C629.5 1335.5 654.5 1335 676.5 1338C684.5 1339 693.5 1340.5 703.5 1342.5C713.5 1344.5 722 1347.5 729 1351.5C732 1354.5 734.5 1358 736.5 1362C739.5 1365 742.5 1368 745.5 1371C746.5 1372 747.5 1373 748.5 1374C749.5 1374 750.5 1375 751.5 1377C751.5 1378 751.5 1379.5 751.5 1381.5C751.5 1382.5 751.5 1383.5 751.5 1384.5C752.5 1388.5 753 1392.5 753 1396.5C754 1400.5 754.5 1404.5 754.5 1408.5C754.5 1410.5 754 1413 753 1416C752 1419 751 1421.5 750 1423.5C748 1430.5 745.5 1437 742.5 1443C740.5 1450 738.5 1456.5 736.5 1462.5C734.5 1466.5 733 1470.5 732 1474.5C732 1478.5 732 1483 732 1488C732 1490 731.5 1492 730.5 1494C730.5 1497 731 1499.5 732 1501.5C732 1503.5 733.5 1506 736.5 1509C739.5 1512 741.5 1515 742.5 1518C743.5 1519 744.5 1520.5 745.5 1522.5C746.5 1524.5 748 1526 750 1527C751 1528 752.5 1528.5 754.5 1528.5C757.5 1529.5 760 1530 762 1530C765 1531 768 1532 771 1533C775 1535 778.5 1536 781.5 1536C784.5 1537 788 1537 792 1536C796 1535 800 1534.5 804 1534.5C816 1532.5 827.5 1528.5 838.5 1522.5C849.5 1516.5 860 1510.5 870 1504.5C880 1500.5 890 1496.5 900 1492.5C911 1488.5 921.5 1486.5 931.5 1486.5C936.5 1485.5 942 1485 948 1485C955 1486 960.5 1487.5 964.5 1489.5C966.5 1490.5 968.5 1492 970.5 1494C973.5 1496 976 1497.5 978 1498.5C980 1499.5 982 1500.5 984 1501.5C987 1502.5 989 1504 990 1506C991 1508 991.5 1511 991.5 1515C992.5 1520 993.5 1523.5 994.5 1525.5C994.5 1527.5 994.5 1529 994.5 1530C995.5 1531 996 1532.5 996 1534.5C996 1535.5 995 1536.5 993 1537.5C992 1538.5 991 1539.5 990 1540.5C986 1544.5 982 1548 978 1551C974 1555 968.5 1558.5 961.5 1561.5ZM1066.5 1396.5C1065.5 1397.5 1065.5 1396 1066.5 1392C1068.5 1388 1070 1386 1071 1386C1071 1386 1070.5 1387 1069.5 1389C1068.5 1391 1067.5 1392.5 1066.5 1393.5C1066.5 1394.5 1066.5 1395.5 1066.5 1396.5ZM1035 1455C1035 1455 1034.5 1455.5 1033.5 1456.5C1033.5 1458.5 1033 1460.5 1032 1462.5C1032 1465.5 1032 1467 1032 1467C1032 1467 1032 1465.5 1032 1462.5C1033 1461.5 1034 1459 1035 1455Z" fill="black"/>
<path d="M275.6 1184C278.4 1184 281.267 1184.13 284.2 1184.4C287.267 1184.53 290.133 1185.13 292.8 1186.2C294.133 1186.6 295.4 1187.2 296.6 1188C297.933 1188.67 299.2 1189.47 300.4 1190.4C301.333 1191.07 302.133 1191.8 302.8 1192.6C303.6 1193.27 304.333 1194.07 305 1195C305 1195.27 305.133 1195.53 305.4 1195.8C305.667 1196.07 305.8 1196.33 305.8 1196.6C305.8 1196.73 305.733 1197 305.6 1197.4C305.467 1197.8 305.333 1198.07 305.2 1198.2C305.067 1198.47 304.933 1198.87 304.8 1199.4C304.667 1199.93 304.533 1200.27 304.4 1200.4C304.267 1200.53 304.067 1200.6 303.8 1200.6C303.667 1200.6 303.533 1200.67 303.4 1200.8C302.867 1200.93 302.333 1201.13 301.8 1201.4C301.267 1201.67 300.733 1201.8 300.2 1201.8C299.933 1201.8 299.6 1201.73 299.2 1201.6C298.8 1201.33 298.467 1201.2 298.2 1201.2C296.467 1200.67 294.8 1199.87 293.2 1198.8C291.733 1197.73 290.2 1196.8 288.6 1196C286.2 1195.07 283.667 1194.6 281 1194.6C278.467 1194.47 276 1194.33 273.6 1194.2C271.733 1194.07 269.867 1193.8 268 1193.4C267.733 1193.4 267.4 1193.4 267 1193.4C266.733 1193.27 266.533 1193.13 266.4 1193C266 1192.87 265.667 1192.53 265.4 1192C265.133 1191.47 264.867 1191.07 264.6 1190.8C264.467 1190.67 264.333 1190.53 264.2 1190.4C264.067 1190.27 264 1190.07 264 1189.8C263.867 1189.67 263.867 1189.53 264 1189.4C264.267 1189.27 264.4 1189.13 264.4 1189C264.667 1188.6 264.867 1188.2 265 1187.8C265.267 1187.27 265.533 1186.87 265.8 1186.6C266.067 1186.47 266.4 1186.33 266.8 1186.2C267.2 1186.07 267.533 1185.93 267.8 1185.8C269.933 1184.87 272.533 1184.27 275.6 1184ZM196.8 1257C196.667 1255.4 196.667 1253.87 196.8 1252.4C196.933 1250.8 197.067 1249.2 197.2 1247.6C197.2 1245.6 197.2 1243.6 197.2 1241.6C197.333 1239.47 197.6 1237.4 198 1235.4C198.4 1233.13 198.867 1230.87 199.4 1228.6C200.067 1226.33 200.667 1224.13 201.2 1222C202 1218.93 202.867 1215.4 203.8 1211.4C204.733 1207.27 206.4 1203.67 208.8 1200.6C210 1199.13 211.4 1197.8 213 1196.6C214.6 1195.27 216.133 1193.93 217.6 1192.6C218.667 1191.67 219.8 1190.6 221 1189.4C222.333 1188.2 223.733 1187.33 225.2 1186.8C225.6 1186.67 225.933 1186.6 226.2 1186.6C226.6 1186.6 227 1186.53 227.4 1186.4C227.667 1186.4 228 1186.33 228.4 1186.2C228.8 1186.07 229.2 1186 229.6 1186C230 1186.13 230.4 1186.27 230.8 1186.4C231.2 1186.53 231.6 1186.6 232 1186.6C232.267 1186.73 232.533 1186.8 232.8 1186.8C233.2 1186.8 233.467 1186.87 233.6 1187C233.867 1187.27 234.133 1187.53 234.4 1187.8C234.8 1188.07 235.067 1188.33 235.2 1188.6C235.467 1188.73 235.8 1189 236.2 1189.4C236.733 1189.8 237 1190.07 237 1190.2C237 1190.33 236.8 1190.67 236.4 1191.2C236 1191.6 235.733 1191.87 235.6 1192C235.467 1192.27 235.267 1192.6 235 1193C234.867 1193.27 234.667 1193.47 234.4 1193.6C233.733 1194.13 233 1194.53 232.2 1194.8C231.4 1195.07 230.667 1195.33 230 1195.6C225.333 1198 221.333 1200.87 218 1204.2C217.2 1205 216.4 1205.93 215.6 1207C214.8 1207.93 214.2 1208.93 213.8 1210C213.133 1212.13 212.933 1214.33 213.2 1216.6C213.6 1218.87 213.6 1221.13 213.2 1223.4C212.667 1225.53 211.867 1227.67 210.8 1229.8C209.867 1231.8 209.067 1233.93 208.4 1236.2C207.733 1239.13 207.333 1242.13 207.2 1245.2C207.2 1248.27 206.867 1251.33 206.2 1254.4C206.067 1255.07 205.867 1255.8 205.6 1256.6C205.467 1257.4 205.267 1258.07 205 1258.6C204.733 1258.87 204.467 1259.2 204.2 1259.6C203.933 1259.87 203.667 1260.13 203.4 1260.4C203.267 1260.53 203.067 1260.8 202.8 1261.2C202.667 1261.47 202.467 1261.6 202.2 1261.6C202.067 1261.73 201.733 1261.73 201.2 1261.6C200.667 1261.47 200.267 1261.4 200 1261.4C199.867 1261.4 199.6 1261.4 199.2 1261.4C198.8 1261.4 198.533 1261.33 198.4 1261.2C198.267 1261.07 198.133 1260.93 198 1260.8C198 1260.53 198 1260.33 198 1260.2C197.733 1259.67 197.467 1259.2 197.2 1258.8C197.067 1258.27 196.933 1257.67 196.8 1257ZM251.2 1190.8C250.933 1190.67 250.6 1190.53 250.2 1190.4C249.8 1190.27 249.4 1190.13 249 1190C248.733 1189.73 248.6 1189.6 248.6 1189.6C248.467 1189.6 248.467 1189.4 248.6 1189C248.867 1188.47 249 1188.13 249 1188C249.133 1187.87 249.2 1187.6 249.2 1187.2C249.333 1186.8 249.467 1186.53 249.6 1186.4C249.6 1186.4 249.733 1186.47 250 1186.6C250.4 1186.6 250.8 1186.6 251.2 1186.6C251.6 1186.6 251.933 1186.6 252.2 1186.6C252.467 1186.6 252.667 1186.6 252.8 1186.6C253.067 1186.6 253.267 1186.67 253.4 1186.8C253.533 1186.8 253.533 1186.93 253.4 1187.2C253.4 1187.47 253.4 1187.67 253.4 1187.8C253.4 1188.07 253.467 1188.53 253.6 1189.2C253.733 1189.87 253.733 1190.33 253.6 1190.6C253.333 1191 252.533 1191.07 251.2 1190.8ZM313.2 1205.6C313.867 1206.4 314.467 1207.13 315 1207.8C315.533 1208.47 316 1209.27 316.4 1210.2C316.667 1210.73 316.867 1211.33 317 1212C317.267 1212.53 317.533 1213.13 317.8 1213.8C317.8 1214.2 317.933 1214.73 318.2 1215.4C318.467 1216.07 318.6 1216.53 318.6 1216.8C318.467 1217.07 318.2 1217.4 317.8 1217.8C317.533 1218.07 317.333 1218.33 317.2 1218.6C317.067 1218.73 316.933 1218.93 316.8 1219.2C316.8 1219.33 316.733 1219.4 316.6 1219.4C316.333 1219.4 316.133 1219.4 316 1219.4C315.867 1219.27 315.733 1219.13 315.6 1219C315.2 1218.87 314.8 1218.73 314.4 1218.6C314.133 1218.47 313.867 1218.33 313.6 1218.2C312.533 1217.8 311.6 1217.07 310.8 1216C310.133 1214.8 309.533 1213.67 309 1212.6C309 1212.33 308.867 1212.07 308.6 1211.8C308.467 1211.4 308.333 1211 308.2 1210.6C308.2 1210.33 308.2 1210.07 308.2 1209.8C308.333 1209.53 308.4 1209.27 308.4 1209C308.533 1208.73 308.6 1208.33 308.6 1207.8C308.6 1207.27 308.667 1206.87 308.8 1206.6C308.933 1206.47 309.067 1206.4 309.2 1206.4C309.467 1206.4 309.667 1206.33 309.8 1206.2C310.333 1206.07 310.867 1205.93 311.4 1205.8C311.933 1205.67 312.533 1205.6 313.2 1205.6ZM270.2 1235.8C269.933 1238.87 269.8 1242.07 269.8 1245.4C269.8 1248.6 269.267 1251.67 268.2 1254.6C267.8 1255.53 267.333 1256.53 266.8 1257.6C266.267 1258.53 265.6 1259.4 264.8 1260.2C264.4 1260.6 263.8 1261.07 263 1261.6C262.333 1262 261.733 1262.33 261.2 1262.6C260.933 1262.73 260.533 1262.8 260 1262.8C259.467 1262.8 259 1262.8 258.6 1262.8C258.467 1262.8 258.2 1262.87 257.8 1263C257.533 1263 257.267 1263 257 1263C256.867 1262.87 256.667 1262.73 256.4 1262.6C256.133 1262.47 255.867 1262.33 255.6 1262.2C255.2 1261.93 254.733 1261.73 254.2 1261.6C253.8 1261.47 253.467 1261.27 253.2 1261C252.4 1260.33 251.667 1259.53 251 1258.6C250.333 1257.53 249.8 1256.6 249.4 1255.8C248.2 1253.67 247.067 1251.33 246 1248.8C244.933 1246.13 244.467 1243.53 244.6 1241C244.6 1238.87 245.067 1236.73 246 1234.6C246.933 1232.47 247.8 1230.4 248.6 1228.4C249.267 1227.07 249.867 1225.67 250.4 1224.2C250.933 1222.6 251.6 1221.13 252.4 1219.8C252.667 1219.27 252.933 1218.73 253.2 1218.2C253.6 1217.53 254 1217 254.4 1216.6C254.667 1216.33 254.933 1216.13 255.2 1216C255.6 1215.73 256 1215.47 256.4 1215.2C256.533 1215.07 256.733 1214.93 257 1214.8C257.267 1214.53 257.533 1214.33 257.8 1214.2C258.067 1214.2 258.333 1214.27 258.6 1214.4C259 1214.4 259.267 1214.4 259.4 1214.4C259.8 1214.4 260.267 1214.4 260.8 1214.4C261.333 1214.4 261.733 1214.47 262 1214.6C262.4 1214.87 262.8 1215.27 263.2 1215.8C263.733 1216.2 264.2 1216.53 264.6 1216.8C265.133 1217.33 265.533 1217.93 265.8 1218.6C266.2 1219.13 266.6 1219.73 267 1220.4C268.467 1222.53 269.4 1224.93 269.8 1227.6C270.2 1230.27 270.333 1233 270.2 1235.8ZM253.8 1231.6C253.267 1233.6 252.867 1235.6 252.6 1237.6C252.467 1239.6 252.667 1241.67 253.2 1243.8C253.333 1244.33 253.533 1244.87 253.8 1245.4C254.067 1245.93 254.333 1246.53 254.6 1247.2C254.867 1247.73 255.267 1248.2 255.8 1248.6C256.333 1249 256.8 1249.4 257.2 1249.8C257.333 1249.93 257.467 1250.07 257.6 1250.2C257.733 1250.33 257.867 1250.4 258 1250.4C258.133 1250.4 258.267 1250.33 258.4 1250.2C258.667 1250.07 258.867 1250 259 1250C259.267 1249.87 259.667 1249.73 260.2 1249.6C260.733 1249.33 261.067 1249.07 261.2 1248.8C261.333 1248.67 261.4 1248.53 261.4 1248.4C261.4 1248.13 261.4 1247.93 261.4 1247.8C261.533 1247.4 261.6 1247 261.6 1246.6C261.6 1246.07 261.667 1245.6 261.8 1245.2C261.933 1244.53 261.933 1243.8 261.8 1243C261.667 1242.2 261.533 1241.47 261.4 1240.8C261.267 1239.33 261.067 1237.87 260.8 1236.4C260.667 1234.93 260.533 1233.47 260.4 1232C260.267 1231.33 260.067 1230.73 259.8 1230.2C259.533 1229.53 259.267 1228.93 259 1228.4C258.867 1228.13 258.733 1227.93 258.6 1227.8C258.6 1227.53 258.533 1227.4 258.4 1227.4C258.267 1227.27 258 1227.33 257.6 1227.6C257.2 1227.73 257 1227.8 257 1227.8C256.733 1227.93 256.333 1228.07 255.8 1228.2C255.4 1228.33 255.133 1228.47 255 1228.6C254.733 1228.87 254.467 1229.33 254.2 1230C254.067 1230.53 253.933 1231.07 253.8 1231.6ZM317 1231.4C317 1231.4 316.933 1231.6 316.8 1232C316.667 1232.4 316.6 1232.6 316.6 1232.6C316.6 1232.6 316.6 1232.4 316.6 1232C316.6 1232 316.6 1231.73 316.6 1231.2C316.6 1230.53 316.6 1230.2 316.6 1230.2C316.867 1230.07 317 1230.47 317 1231.4ZM317.6 1248.4C317.6 1248.8 317.6 1249.27 317.6 1249.8C317.6 1250.2 317.6 1250.6 317.6 1251C317.6 1251.27 317.6 1251.53 317.6 1251.8C317.733 1251.93 317.8 1252.07 317.8 1252.2C317.667 1252.33 317.4 1252.47 317 1252.6C316.6 1252.6 316.333 1252.67 316.2 1252.8C315.933 1252.8 315.533 1252.93 315 1253.2C314.467 1253.47 314.133 1253.53 314 1253.4C313.867 1253.4 313.733 1253.33 313.6 1253.2C313.6 1252.93 313.6 1252.67 313.6 1252.4C313.333 1252 313 1251.53 312.6 1251C312.333 1250.47 312.2 1250 312.2 1249.6C312.067 1249.07 312.067 1248.53 312.2 1248C312.333 1247.33 312.467 1246.73 312.6 1246.2C312.6 1246.07 312.533 1245.93 312.4 1245.8C312.4 1245.53 312.467 1245.33 312.6 1245.2C312.733 1245.07 313.067 1245 313.6 1245C314.133 1245 314.533 1245 314.8 1245C314.933 1245 315.133 1245 315.4 1245C315.8 1244.87 316.067 1244.87 316.2 1245C316.333 1245.13 316.4 1245.33 316.4 1245.6C316.533 1245.73 316.667 1245.87 316.8 1246C316.933 1246.27 317.067 1246.6 317.2 1247C317.333 1247.27 317.467 1247.73 317.6 1248.4ZM316.4 1270C316.133 1270.53 315.867 1271.13 315.6 1271.8C315.467 1272.33 315.2 1272.87 314.8 1273.4C314.267 1274.2 313.533 1275 312.6 1275.8C311.8 1276.6 311 1277.33 310.2 1278C308.733 1279.33 307.267 1280.6 305.8 1281.8C304.333 1282.87 302.867 1283.93 301.4 1285C299.667 1286.47 297.867 1287.87 296 1289.2C294.267 1290.53 292.333 1291.53 290.2 1292.2C288.2 1293 285.8 1293.4 283 1293.4C280.2 1293.4 277.4 1293.33 274.6 1293.2C271.8 1293.2 269.4 1293.47 267.4 1294C265.267 1294.53 263.2 1295.33 261.2 1296.4C259.333 1297.47 257.333 1298.4 255.2 1299.2C254.133 1299.6 253 1299.87 251.8 1300C250.6 1300.27 249.467 1300.47 248.4 1300.6C246.667 1300.73 244.867 1300.8 243 1300.8C241.267 1300.8 239.6 1300.53 238 1300C236.133 1299.33 234.4 1298.33 232.8 1297C231.2 1295.67 229.667 1294.33 228.2 1293C227.667 1292.6 227 1292 226.2 1291.2C225.533 1290.4 225 1289.67 224.6 1289C224.467 1288.73 224.333 1288.4 224.2 1288C224.2 1287.47 224.133 1287.07 224 1286.8C224 1286.53 223.867 1286.2 223.6 1285.8C223.467 1285.4 223.467 1285.13 223.6 1285C223.6 1284.73 223.8 1284.4 224.2 1284C224.733 1283.6 225.133 1283.27 225.4 1283C225.533 1282.87 225.6 1282.73 225.6 1282.6C225.733 1282.47 225.867 1282.4 226 1282.4C226.133 1282.27 226.4 1282.33 226.8 1282.6C227.2 1282.73 227.467 1282.87 227.6 1283C228.267 1283.27 228.867 1283.53 229.4 1283.8C229.933 1284.07 230.533 1284.33 231.2 1284.6C232.933 1285.67 234.733 1286.67 236.6 1287.6C238.6 1288.4 240.6 1288.93 242.6 1289.2C245.667 1289.47 248.6 1289.07 251.4 1288C254.2 1286.8 257 1285.8 259.8 1285C262.867 1284.07 266.533 1283.53 270.8 1283.4C275.067 1283.27 278.667 1283 281.6 1282.6C285.067 1282.2 288.067 1281.27 290.6 1279.8C291.8 1279 293 1278.13 294.2 1277.2C295.4 1276.27 296.6 1275.47 297.8 1274.8C299.133 1274.13 300.467 1273.47 301.8 1272.8C303.133 1272.13 304.4 1271.33 305.6 1270.4C306.4 1269.73 307.133 1269 307.8 1268.2C308.6 1267.4 309.4 1266.67 310.2 1266C310.467 1265.73 310.733 1265.47 311 1265.2C311.267 1264.8 311.533 1264.53 311.8 1264.4C312.2 1264.27 312.667 1264.27 313.2 1264.4C313.733 1264.53 314.2 1264.6 314.6 1264.6C314.733 1264.6 314.867 1264.6 315 1264.6C315.267 1264.47 315.467 1264.47 315.6 1264.6C315.733 1264.73 315.8 1264.93 315.8 1265.2C315.8 1265.33 315.867 1265.53 316 1265.8C316.267 1266.47 316.467 1267.13 316.6 1267.8C316.867 1268.33 316.8 1269.07 316.4 1270ZM206.6 1274.8C206.6 1274.4 206.6 1274.07 206.6 1273.8C206.733 1273.4 206.8 1273 206.8 1272.6C206.8 1272.33 206.8 1272.13 206.8 1272C206.8 1271.73 206.867 1271.53 207 1271.4C207.133 1271.27 207.467 1271.27 208 1271.4C208.667 1271.4 209.067 1271.4 209.2 1271.4C209.467 1271.4 209.8 1271.4 210.2 1271.4C210.6 1271.27 210.867 1271.27 211 1271.4C211.133 1271.53 211.267 1271.8 211.4 1272.2C211.667 1272.47 211.867 1272.67 212 1272.8C213.2 1274.27 214 1275.73 214.4 1277.2C214.4 1277.33 214.533 1277.67 214.8 1278.2C215.067 1278.73 215.133 1279.07 215 1279.2C215 1279.33 214.733 1279.53 214.2 1279.8C213.667 1279.93 213.333 1280.07 213.2 1280.2C213.067 1280.33 212.867 1280.53 212.6 1280.8C212.333 1280.93 212.133 1281 212 1281C211.733 1281 211.467 1280.93 211.2 1280.8C210.933 1280.53 210.733 1280.33 210.6 1280.2C210.2 1280.07 209.733 1279.87 209.2 1279.6C208.8 1279.33 208.467 1279.07 208.2 1278.8C207.933 1278.4 207.667 1277.87 207.4 1277.2C207.133 1276.4 206.867 1275.6 206.6 1274.8Z" fill="white"/>
<path d="M906.6 1184C909.4 1184 912.267 1184.13 915.2 1184.4C918.267 1184.53 921.133 1185.13 923.8 1186.2C925.133 1186.6 926.4 1187.2 927.6 1188C928.933 1188.67 930.2 1189.47 931.4 1190.4C932.333 1191.07 933.133 1191.8 933.8 1192.6C934.6 1193.27 935.333 1194.07 936 1195C936 1195.27 936.133 1195.53 936.4 1195.8C936.667 1196.07 936.8 1196.33 936.8 1196.6C936.8 1196.73 936.733 1197 936.6 1197.4C936.467 1197.8 936.333 1198.07 936.2 1198.2C936.067 1198.47 935.933 1198.87 935.8 1199.4C935.667 1199.93 935.533 1200.27 935.4 1200.4C935.267 1200.53 935.067 1200.6 934.8 1200.6C934.667 1200.6 934.533 1200.67 934.4 1200.8C933.867 1200.93 933.333 1201.13 932.8 1201.4C932.267 1201.67 931.733 1201.8 931.2 1201.8C930.933 1201.8 930.6 1201.73 930.2 1201.6C929.8 1201.33 929.467 1201.2 929.2 1201.2C927.467 1200.67 925.8 1199.87 924.2 1198.8C922.733 1197.73 921.2 1196.8 919.6 1196C917.2 1195.07 914.667 1194.6 912 1194.6C909.467 1194.47 907 1194.33 904.6 1194.2C902.733 1194.07 900.867 1193.8 899 1193.4C898.733 1193.4 898.4 1193.4 898 1193.4C897.733 1193.27 897.533 1193.13 897.4 1193C897 1192.87 896.667 1192.53 896.4 1192C896.133 1191.47 895.867 1191.07 895.6 1190.8C895.467 1190.67 895.333 1190.53 895.2 1190.4C895.067 1190.27 895 1190.07 895 1189.8C894.867 1189.67 894.867 1189.53 895 1189.4C895.267 1189.27 895.4 1189.13 895.4 1189C895.667 1188.6 895.867 1188.2 896 1187.8C896.267 1187.27 896.533 1186.87 896.8 1186.6C897.067 1186.47 897.4 1186.33 897.8 1186.2C898.2 1186.07 898.533 1185.93 898.8 1185.8C900.933 1184.87 903.533 1184.27 906.6 1184ZM827.8 1257C827.667 1255.4 827.667 1253.87 827.8 1252.4C827.933 1250.8 828.067 1249.2 828.2 1247.6C828.2 1245.6 828.2 1243.6 828.2 1241.6C828.333 1239.47 828.6 1237.4 829 1235.4C829.4 1233.13 829.867 1230.87 830.4 1228.6C831.067 1226.33 831.667 1224.13 832.2 1222C833 1218.93 833.867 1215.4 834.8 1211.4C835.733 1207.27 837.4 1203.67 839.8 1200.6C841 1199.13 842.4 1197.8 844 1196.6C845.6 1195.27 847.133 1193.93 848.6 1192.6C849.667 1191.67 850.8 1190.6 852 1189.4C853.333 1188.2 854.733 1187.33 856.2 1186.8C856.6 1186.67 856.933 1186.6 857.2 1186.6C857.6 1186.6 858 1186.53 858.4 1186.4C858.667 1186.4 859 1186.33 859.4 1186.2C859.8 1186.07 860.2 1186 860.6 1186C861 1186.13 861.4 1186.27 861.8 1186.4C862.2 1186.53 862.6 1186.6 863 1186.6C863.267 1186.73 863.533 1186.8 863.8 1186.8C864.2 1186.8 864.467 1186.87 864.6 1187C864.867 1187.27 865.133 1187.53 865.4 1187.8C865.8 1188.07 866.067 1188.33 866.2 1188.6C866.467 1188.73 866.8 1189 867.2 1189.4C867.733 1189.8 868 1190.07 868 1190.2C868 1190.33 867.8 1190.67 867.4 1191.2C867 1191.6 866.733 1191.87 866.6 1192C866.467 1192.27 866.267 1192.6 866 1193C865.867 1193.27 865.667 1193.47 865.4 1193.6C864.733 1194.13 864 1194.53 863.2 1194.8C862.4 1195.07 861.667 1195.33 861 1195.6C856.333 1198 852.333 1200.87 849 1204.2C848.2 1205 847.4 1205.93 846.6 1207C845.8 1207.93 845.2 1208.93 844.8 1210C844.133 1212.13 843.933 1214.33 844.2 1216.6C844.6 1218.87 844.6 1221.13 844.2 1223.4C843.667 1225.53 842.867 1227.67 841.8 1229.8C840.867 1231.8 840.067 1233.93 839.4 1236.2C838.733 1239.13 838.333 1242.13 838.2 1245.2C838.2 1248.27 837.867 1251.33 837.2 1254.4C837.067 1255.07 836.867 1255.8 836.6 1256.6C836.467 1257.4 836.267 1258.07 836 1258.6C835.733 1258.87 835.467 1259.2 835.2 1259.6C834.933 1259.87 834.667 1260.13 834.4 1260.4C834.267 1260.53 834.067 1260.8 833.8 1261.2C833.667 1261.47 833.467 1261.6 833.2 1261.6C833.067 1261.73 832.733 1261.73 832.2 1261.6C831.667 1261.47 831.267 1261.4 831 1261.4C830.867 1261.4 830.6 1261.4 830.2 1261.4C829.8 1261.4 829.533 1261.33 829.4 1261.2C829.267 1261.07 829.133 1260.93 829 1260.8C829 1260.53 829 1260.33 829 1260.2C828.733 1259.67 828.467 1259.2 828.2 1258.8C828.067 1258.27 827.933 1257.67 827.8 1257ZM882.2 1190.8C881.933 1190.67 881.6 1190.53 881.2 1190.4C880.8 1190.27 880.4 1190.13 880 1190C879.733 1189.73 879.6 1189.6 879.6 1189.6C879.467 1189.6 879.467 1189.4 879.6 1189C879.867 1188.47 880 1188.13 880 1188C880.133 1187.87 880.2 1187.6 880.2 1187.2C880.333 1186.8 880.467 1186.53 880.6 1186.4C880.6 1186.4 880.733 1186.47 881 1186.6C881.4 1186.6 881.8 1186.6 882.2 1186.6C882.6 1186.6 882.933 1186.6 883.2 1186.6C883.467 1186.6 883.667 1186.6 883.8 1186.6C884.067 1186.6 884.267 1186.67 884.4 1186.8C884.533 1186.8 884.533 1186.93 884.4 1187.2C884.4 1187.47 884.4 1187.67 884.4 1187.8C884.4 1188.07 884.467 1188.53 884.6 1189.2C884.733 1189.87 884.733 1190.33 884.6 1190.6C884.333 1191 883.533 1191.07 882.2 1190.8ZM944.2 1205.6C944.867 1206.4 945.467 1207.13 946 1207.8C946.533 1208.47 947 1209.27 947.4 1210.2C947.667 1210.73 947.867 1211.33 948 1212C948.267 1212.53 948.533 1213.13 948.8 1213.8C948.8 1214.2 948.933 1214.73 949.2 1215.4C949.467 1216.07 949.6 1216.53 949.6 1216.8C949.467 1217.07 949.2 1217.4 948.8 1217.8C948.533 1218.07 948.333 1218.33 948.2 1218.6C948.067 1218.73 947.933 1218.93 947.8 1219.2C947.8 1219.33 947.733 1219.4 947.6 1219.4C947.333 1219.4 947.133 1219.4 947 1219.4C946.867 1219.27 946.733 1219.13 946.6 1219C946.2 1218.87 945.8 1218.73 945.4 1218.6C945.133 1218.47 944.867 1218.33 944.6 1218.2C943.533 1217.8 942.6 1217.07 941.8 1216C941.133 1214.8 940.533 1213.67 940 1212.6C940 1212.33 939.867 1212.07 939.6 1211.8C939.467 1211.4 939.333 1211 939.2 1210.6C939.2 1210.33 939.2 1210.07 939.2 1209.8C939.333 1209.53 939.4 1209.27 939.4 1209C939.533 1208.73 939.6 1208.33 939.6 1207.8C939.6 1207.27 939.667 1206.87 939.8 1206.6C939.933 1206.47 940.067 1206.4 940.2 1206.4C940.467 1206.4 940.667 1206.33 940.8 1206.2C941.333 1206.07 941.867 1205.93 942.4 1205.8C942.933 1205.67 943.533 1205.6 944.2 1205.6ZM901.2 1235.8C900.933 1238.87 900.8 1242.07 900.8 1245.4C900.8 1248.6 900.267 1251.67 899.2 1254.6C898.8 1255.53 898.333 1256.53 897.8 1257.6C897.267 1258.53 896.6 1259.4 895.8 1260.2C895.4 1260.6 894.8 1261.07 894 1261.6C893.333 1262 892.733 1262.33 892.2 1262.6C891.933 1262.73 891.533 1262.8 891 1262.8C890.467 1262.8 890 1262.8 889.6 1262.8C889.467 1262.8 889.2 1262.87 888.8 1263C888.533 1263 888.267 1263 888 1263C887.867 1262.87 887.667 1262.73 887.4 1262.6C887.133 1262.47 886.867 1262.33 886.6 1262.2C886.2 1261.93 885.733 1261.73 885.2 1261.6C884.8 1261.47 884.467 1261.27 884.2 1261C883.4 1260.33 882.667 1259.53 882 1258.6C881.333 1257.53 880.8 1256.6 880.4 1255.8C879.2 1253.67 878.067 1251.33 877 1248.8C875.933 1246.13 875.467 1243.53 875.6 1241C875.6 1238.87 876.067 1236.73 877 1234.6C877.933 1232.47 878.8 1230.4 879.6 1228.4C880.267 1227.07 880.867 1225.67 881.4 1224.2C881.933 1222.6 882.6 1221.13 883.4 1219.8C883.667 1219.27 883.933 1218.73 884.2 1218.2C884.6 1217.53 885 1217 885.4 1216.6C885.667 1216.33 885.933 1216.13 886.2 1216C886.6 1215.73 887 1215.47 887.4 1215.2C887.533 1215.07 887.733 1214.93 888 1214.8C888.267 1214.53 888.533 1214.33 888.8 1214.2C889.067 1214.2 889.333 1214.27 889.6 1214.4C890 1214.4 890.267 1214.4 890.4 1214.4C890.8 1214.4 891.267 1214.4 891.8 1214.4C892.333 1214.4 892.733 1214.47 893 1214.6C893.4 1214.87 893.8 1215.27 894.2 1215.8C894.733 1216.2 895.2 1216.53 895.6 1216.8C896.133 1217.33 896.533 1217.93 896.8 1218.6C897.2 1219.13 897.6 1219.73 898 1220.4C899.467 1222.53 900.4 1224.93 900.8 1227.6C901.2 1230.27 901.333 1233 901.2 1235.8ZM884.8 1231.6C884.267 1233.6 883.867 1235.6 883.6 1237.6C883.467 1239.6 883.667 1241.67 884.2 1243.8C884.333 1244.33 884.533 1244.87 884.8 1245.4C885.067 1245.93 885.333 1246.53 885.6 1247.2C885.867 1247.73 886.267 1248.2 886.8 1248.6C887.333 1249 887.8 1249.4 888.2 1249.8C888.333 1249.93 888.467 1250.07 888.6 1250.2C888.733 1250.33 888.867 1250.4 889 1250.4C889.133 1250.4 889.267 1250.33 889.4 1250.2C889.667 1250.07 889.867 1250 890 1250C890.267 1249.87 890.667 1249.73 891.2 1249.6C891.733 1249.33 892.067 1249.07 892.2 1248.8C892.333 1248.67 892.4 1248.53 892.4 1248.4C892.4 1248.13 892.4 1247.93 892.4 1247.8C892.533 1247.4 892.6 1247 892.6 1246.6C892.6 1246.07 892.667 1245.6 892.8 1245.2C892.933 1244.53 892.933 1243.8 892.8 1243C892.667 1242.2 892.533 1241.47 892.4 1240.8C892.267 1239.33 892.067 1237.87 891.8 1236.4C891.667 1234.93 891.533 1233.47 891.4 1232C891.267 1231.33 891.067 1230.73 890.8 1230.2C890.533 1229.53 890.267 1228.93 890 1228.4C889.867 1228.13 889.733 1227.93 889.6 1227.8C889.6 1227.53 889.533 1227.4 889.4 1227.4C889.267 1227.27 889 1227.33 888.6 1227.6C888.2 1227.73 888 1227.8 888 1227.8C887.733 1227.93 887.333 1228.07 886.8 1228.2C886.4 1228.33 886.133 1228.47 886 1228.6C885.733 1228.87 885.467 1229.33 885.2 1230C885.067 1230.53 884.933 1231.07 884.8 1231.6ZM948 1231.4C948 1231.4 947.933 1231.6 947.8 1232C947.667 1232.4 947.6 1232.6 947.6 1232.6C947.6 1232.6 947.6 1232.4 947.6 1232C947.6 1232 947.6 1231.73 947.6 1231.2C947.6 1230.53 947.6 1230.2 947.6 1230.2C947.867 1230.07 948 1230.47 948 1231.4ZM948.6 1248.4C948.6 1248.8 948.6 1249.27 948.6 1249.8C948.6 1250.2 948.6 1250.6 948.6 1251C948.6 1251.27 948.6 1251.53 948.6 1251.8C948.733 1251.93 948.8 1252.07 948.8 1252.2C948.667 1252.33 948.4 1252.47 948 1252.6C947.6 1252.6 947.333 1252.67 947.2 1252.8C946.933 1252.8 946.533 1252.93 946 1253.2C945.467 1253.47 945.133 1253.53 945 1253.4C944.867 1253.4 944.733 1253.33 944.6 1253.2C944.6 1252.93 944.6 1252.67 944.6 1252.4C944.333 1252 944 1251.53 943.6 1251C943.333 1250.47 943.2 1250 943.2 1249.6C943.067 1249.07 943.067 1248.53 943.2 1248C943.333 1247.33 943.467 1246.73 943.6 1246.2C943.6 1246.07 943.533 1245.93 943.4 1245.8C943.4 1245.53 943.467 1245.33 943.6 1245.2C943.733 1245.07 944.067 1245 944.6 1245C945.133 1245 945.533 1245 945.8 1245C945.933 1245 946.133 1245 946.4 1245C946.8 1244.87 947.067 1244.87 947.2 1245C947.333 1245.13 947.4 1245.33 947.4 1245.6C947.533 1245.73 947.667 1245.87 947.8 1246C947.933 1246.27 948.067 1246.6 948.2 1247C948.333 1247.27 948.467 1247.73 948.6 1248.4ZM947.4 1270C947.133 1270.53 946.867 1271.13 946.6 1271.8C946.467 1272.33 946.2 1272.87 945.8 1273.4C945.267 1274.2 944.533 1275 943.6 1275.8C942.8 1276.6 942 1277.33 941.2 1278C939.733 1279.33 938.267 1280.6 936.8 1281.8C935.333 1282.87 933.867 1283.93 932.4 1285C930.667 1286.47 928.867 1287.87 927 1289.2C925.267 1290.53 923.333 1291.53 921.2 1292.2C919.2 1293 916.8 1293.4 914 1293.4C911.2 1293.4 908.4 1293.33 905.6 1293.2C902.8 1293.2 900.4 1293.47 898.4 1294C896.267 1294.53 894.2 1295.33 892.2 1296.4C890.333 1297.47 888.333 1298.4 886.2 1299.2C885.133 1299.6 884 1299.87 882.8 1300C881.6 1300.27 880.467 1300.47 879.4 1300.6C877.667 1300.73 875.867 1300.8 874 1300.8C872.267 1300.8 870.6 1300.53 869 1300C867.133 1299.33 865.4 1298.33 863.8 1297C862.2 1295.67 860.667 1294.33 859.2 1293C858.667 1292.6 858 1292 857.2 1291.2C856.533 1290.4 856 1289.67 855.6 1289C855.467 1288.73 855.333 1288.4 855.2 1288C855.2 1287.47 855.133 1287.07 855 1286.8C855 1286.53 854.867 1286.2 854.6 1285.8C854.467 1285.4 854.467 1285.13 854.6 1285C854.6 1284.73 854.8 1284.4 855.2 1284C855.733 1283.6 856.133 1283.27 856.4 1283C856.533 1282.87 856.6 1282.73 856.6 1282.6C856.733 1282.47 856.867 1282.4 857 1282.4C857.133 1282.27 857.4 1282.33 857.8 1282.6C858.2 1282.73 858.467 1282.87 858.6 1283C859.267 1283.27 859.867 1283.53 860.4 1283.8C860.933 1284.07 861.533 1284.33 862.2 1284.6C863.933 1285.67 865.733 1286.67 867.6 1287.6C869.6 1288.4 871.6 1288.93 873.6 1289.2C876.667 1289.47 879.6 1289.07 882.4 1288C885.2 1286.8 888 1285.8 890.8 1285C893.867 1284.07 897.533 1283.53 901.8 1283.4C906.067 1283.27 909.667 1283 912.6 1282.6C916.067 1282.2 919.067 1281.27 921.6 1279.8C922.8 1279 924 1278.13 925.2 1277.2C926.4 1276.27 927.6 1275.47 928.8 1274.8C930.133 1274.13 931.467 1273.47 932.8 1272.8C934.133 1272.13 935.4 1271.33 936.6 1270.4C937.4 1269.73 938.133 1269 938.8 1268.2C939.6 1267.4 940.4 1266.67 941.2 1266C941.467 1265.73 941.733 1265.47 942 1265.2C942.267 1264.8 942.533 1264.53 942.8 1264.4C943.2 1264.27 943.667 1264.27 944.2 1264.4C944.733 1264.53 945.2 1264.6 945.6 1264.6C945.733 1264.6 945.867 1264.6 946 1264.6C946.267 1264.47 946.467 1264.47 946.6 1264.6C946.733 1264.73 946.8 1264.93 946.8 1265.2C946.8 1265.33 946.867 1265.53 947 1265.8C947.267 1266.47 947.467 1267.13 947.6 1267.8C947.867 1268.33 947.8 1269.07 947.4 1270ZM837.6 1274.8C837.6 1274.4 837.6 1274.07 837.6 1273.8C837.733 1273.4 837.8 1273 837.8 1272.6C837.8 1272.33 837.8 1272.13 837.8 1272C837.8 1271.73 837.867 1271.53 838 1271.4C838.133 1271.27 838.467 1271.27 839 1271.4C839.667 1271.4 840.067 1271.4 840.2 1271.4C840.467 1271.4 840.8 1271.4 841.2 1271.4C841.6 1271.27 841.867 1271.27 842 1271.4C842.133 1271.53 842.267 1271.8 842.4 1272.2C842.667 1272.47 842.867 1272.67 843 1272.8C844.2 1274.27 845 1275.73 845.4 1277.2C845.4 1277.33 845.533 1277.67 845.8 1278.2C846.067 1278.73 846.133 1279.07 846 1279.2C846 1279.33 845.733 1279.53 845.2 1279.8C844.667 1279.93 844.333 1280.07 844.2 1280.2C844.067 1280.33 843.867 1280.53 843.6 1280.8C843.333 1280.93 843.133 1281 843 1281C842.733 1281 842.467 1280.93 842.2 1280.8C841.933 1280.53 841.733 1280.33 841.6 1280.2C841.2 1280.07 840.733 1279.87 840.2 1279.6C839.8 1279.33 839.467 1279.07 839.2 1278.8C838.933 1278.4 838.667 1277.87 838.4 1277.2C838.133 1276.4 837.867 1275.6 837.6 1274.8Z" fill="white"/>
</svg>
