<svg width="1920" height="1488" viewBox="0 0 1920 1488" fill="none" xmlns="http://www.w3.org/2000/svg">
<path d="M256.233 86.2308C256.252 87.9095 256.169 89.6124 256.251 91.2868C256.286 91.991 256.551 93.3228 256.019 93.903C255.922 94.009 255.917 92.7871 255.917 92.7804C255.951 91.9797 256.09 91.2015 256.233 90.4148C256.42 89.3863 256.575 88.3483 256.836 87.3348C256.908 87.0522 257.283 86.3411 257.216 86.0174C257.169 85.7873 256.243 85.7113 256.103 85.7576C255.661 85.9035 255.275 86.2867 254.869 86.5091C254.483 86.7206 254.056 86.8762 253.719 87.1678C253.042 87.7518 252.937 88.6548 252.828 89.4871C252.77 89.9273 252.9 90.3823 252.661 90.7766C252.453 91.1201 252.454 91.8748 252.058 92.0568C251.871 92.1426 251.309 92.2816 251.223 92.4557C250.874 93.1644 250.824 94.5227 251.177 95.2482C251.385 95.6772 251.688 96.2079 252.188 96.315C252.408 96.3622 252.708 96.466 252.93 96.4264C253.733 96.2828 254.04 95.0697 254.22 94.441C254.826 92.3204 254.74 90.0732 254.73 87.8914C254.729 87.7119 254.773 87.522 254.711 87.3533C254.694 87.3056 254.618 87.4035 254.591 87.4461C254.14 88.142 253.94 89.0133 253.691 89.7932C253.364 90.8183 252.851 91.7776 252.615 92.8315C252.394 93.8125 252.764 94.9764 252.879 95.9486C253.006 97.0151 252.889 96.0456 252.972 96.8067C252.981 96.888 252.956 97.0308 253.037 97.0433C253.271 97.0793 253.597 96.1791 253.644 96.0785C253.984 95.3562 254.202 94.8279 255.027 94.7101C255.413 94.6548 255.664 94.596 255.941 94.2926C256.192 94.0161 256.358 93.57 256.678 93.3649C257.083 93.1058 256.789 95.3273 256.748 95.4986C256.621 96.0214 256.364 96.387 256.033 96.7928C255.916 96.9373 255.677 97.477 255.481 97.5071C255.223 97.5469 254.762 96.2496 254.693 96.1109C254.571 95.8665 254.09 95.2522 254.09 94.942C254.09 94.6682 254.538 95.262 254.73 95.4569C255.313 96.0478 255.949 96.6104 256.455 97.2706C256.863 97.8018 257.167 98.3903 257.379 99.024C257.489 99.3559 257.685 98.8964 257.768 98.7549C258.398 97.6795 259.274 96.3005 259.42 95.0394C259.455 94.7351 259.578 93.9728 259.266 93.736C259.02 93.5487 258.468 93.7818 258.241 93.8612C258.049 93.9287 255.977 94.9136 256.534 95.211C257.278 95.6076 257.994 96.0493 258.733 96.4542C259.233 96.7282 259.89 97.1135 260.463 96.7974C261.162 96.4118 261.224 94.6519 260.454 94.3065C259.704 93.9701 258.827 94.5648 258.45 95.1739C257.876 96.1009 258.298 97.1834 259.452 97.1592C260.201 97.1436 260.993 97.0063 261.734 96.8995C262.326 96.8142 262.914 96.6855 263.135 96.0553C263.335 95.485 263.463 94.3403 262.68 94.1813C261.993 94.0416 260.6 94.1614 260.213 94.8863C259.597 96.0379 261.072 96.7061 261.948 96.7139C262.632 96.7201 263.246 96.5327 263.896 96.3521C264.503 96.1834 265.268 96.1304 265.807 95.777C267.099 94.9292 265.179 93.5743 264.341 93.4577C263.776 93.379 262.356 93.8933 263.116 94.5338C264.46 95.6648 266.248 96.0662 267.922 95.3873C268.973 94.9612 269.156 93.4872 269.787 92.6506C269.887 92.517 269.931 92.4794 269.712 92.4743C269.114 92.4602 268.554 92.7178 268.08 93.068C267.384 93.5818 266.337 94.6365 267.616 95.0626C269.45 95.6741 270.944 94.7971 272.718 94.5338C273.635 94.3978 273.241 94.7281 272.579 94.8585C271.707 95.0305 270.8 94.9817 269.917 95.0348C269.569 95.0557 268.32 94.9831 268.061 95.3502C267.876 95.613 268.654 96.1593 268.775 96.2408C269.334 96.6145 269.92 96.6676 270.571 96.6676C272.089 96.6676 273.498 96.2055 275.024 96.2547C275.808 96.28 276.612 96.4241 277.394 96.2872C278.023 96.1771 277.051 94.307 276.935 93.9262C276.721 93.2237 276.578 92.6699 276.142 92.0615C275.792 91.5747 275.553 91.0443 274.968 90.823C274.076 90.4855 274.052 89.5244 273.818 88.6707C273.507 87.5396 273.331 86.4398 272.612 85.4747C272.472 85.2873 271.886 84.7698 272.445 84.7325C273.035 84.6932 273.723 84.8805 274.226 85.1778C275.044 85.6615 276.044 86.8941 275.59 87.9053C275.419 88.2849 275.269 88.321 275.269 88.7495C275.269 90.4484 276.722 91.6435 278.08 92.3537C278.178 92.4048 278.498 92.5339 278.498 92.6877C278.498 92.9969 277.936 92.4066 277.714 92.1913C277.057 91.5548 276.495 90.8312 275.882 90.155C275.448 89.6766 275.145 89.1471 274.639 88.7171C273.651 87.8786 272.527 87.162 271.475 86.407C270.33 85.5853 269.151 84.8069 267.95 84.0692C267.416 83.741 266.76 83.2597 266.132 83.1137C265.686 83.01 266.024 84.0443 266.141 84.4867C266.622 86.3027 267.299 88.1224 268.08 89.8303C268.631 91.0379 269.343 92.0986 270.418 92.901C271.474 93.6903 272.717 94.1275 273.943 94.5709C274.73 94.8559 275.367 95.1127 275.956 95.7213C276.003 95.7693 276.745 96.713 276.884 96.5748C277.105 96.3537 276.722 95.2953 276.652 95.0812C276.054 93.263 274.261 92.1378 272.718 91.2033C271.083 90.2125 269.488 89.1602 268.154 87.7801C267.619 87.2261 267.069 86.6956 266.484 86.1937C266.264 86.0047 265.544 85.5221 265.807 85.6463C266.823 86.1278 267.758 86.8059 268.757 87.3255C269.883 87.9114 271.139 88.2942 272.227 88.949C272.366 89.0327 273.365 89.9098 272.626 89.6633C271.564 89.3096 270.591 88.7129 269.61 88.1883C268.401 87.5414 267.159 86.9882 265.927 86.3885C265.372 86.1179 264.961 85.8067 264.536 85.368C264.321 85.1459 264.112 84.9323 263.812 84.8299C263.1 84.5869 262.32 84.6722 261.595 84.4496C260.294 84.0501 259.271 83.744 257.921 83.9579C257.277 84.0599 256.664 84.2454 256.038 84.4125C255.888 84.4524 255.889 84.5822 255.973 84.7C256.647 85.6434 257.914 86.4999 258.942 86.9822C260.601 87.7607 262.609 87.5667 264.397 87.5667C265.131 87.5667 265.967 87.465 266.623 87.8682C267.695 88.5268 268.55 89.5428 269.499 90.3591C269.91 90.7123 269.923 90.7207 269.406 90.925C268.794 91.167 268.136 91.4399 267.463 91.3518C266.642 91.2443 265.921 90.6822 265.38 90.0901C264.441 89.061 263.712 87.8957 262.713 86.908C262.418 86.6164 259.149 83.1724 258.877 85.3773C258.77 86.2431 259.126 86.6147 259.763 87.177C260.781 88.0764 261.847 89.0798 263.047 89.7329C263.758 90.1197 264.493 90.2109 265.269 90.3637C265.573 90.4237 265.763 90.4851 265.858 90.7998C266.276 92.1889 266.428 93.7409 266.493 95.1832C266.527 95.937 266.619 97.2432 265.575 97.3633C264.547 97.4816 263.72 96.5451 263.14 95.8373C262.244 94.7438 261.656 93.5038 261.131 92.2006C260.678 91.074 260.249 89.9416 259.763 88.8284C259.561 88.3672 259.393 87.8329 259.076 87.4322C258.997 87.3317 258.736 87.0168 258.659 87.2884C258.39 88.2297 258.585 89.4346 258.812 90.3591C259.007 91.1543 259.366 91.8906 259.907 92.5068C260.005 92.6189 260.577 93.3281 260.811 93.1191C261.225 92.7496 261.161 91.4424 261.178 90.9853C261.214 89.9929 261.17 88.9924 261.043 88.0073C260.992 87.6104 260.992 87.7673 260.992 88.0677C260.992 89.0695 260.971 90.0787 261.052 91.0781C261.107 91.7497 261.174 92.4849 261.961 92.6134C262.964 92.7772 264.102 92.3605 264.861 91.7136C265.223 91.4042 265.613 90.8413 265.324 90.3498C264.984 89.7705 264.47 90.6277 264.341 90.8693C263.675 92.1226 263.353 93.5342 262.838 94.8492C262.519 95.6634 261.988 96.3802 261.669 97.1778C261.527 97.5334 262.406 96.945 262.736 96.7511C263.378 96.3741 264.278 95.9277 264.675 95.2574C264.86 94.9455 264.471 95.0486 264.341 95.1276C263.731 95.4992 263.213 96.0786 262.708 96.5748C262.605 96.6763 262.099 97.3355 261.883 97.3355C261.786 97.3355 262.05 97.2369 262.133 97.1871C262.682 96.8586 262.293 97.0855 262.885 96.7047C263.587 96.2528 263.364 96.7339 263.061 97.2335C262.514 98.135 261.802 98.9127 261.131 99.7197C261.007 99.8696 260.658 100.338 260.788 100.193C261.254 99.6693 261.75 99.1873 262.263 98.7085C263.413 97.6347 264.401 96.1789 265.779 95.3873C265.88 95.3291 265.651 95.5862 265.566 95.6656C264.666 96.4995 263.753 97.3561 262.745 98.0591C261.323 99.0515 259.707 99.2957 258.042 98.8199C257.866 98.7697 259.228 98.683 259.35 98.6621C260.834 98.409 262.381 97.9644 263.784 97.419C264.815 97.0186 265.959 96.9442 267.041 96.7418C267.925 96.5763 269.125 96.6256 269.62 97.5118C269.855 97.9328 269.467 97.916 269.109 97.8921C268.099 97.8245 267.09 97.6134 266.113 97.3541C265.697 97.2436 265.278 97.0916 264.842 97.085C264.633 97.0819 264.554 97.2603 264.401 97.3773C264.27 97.4778 263.949 97.7468 263.784 97.5674C263.241 96.9743 263.199 95.5331 263.098 94.8075C262.742 92.2484 262.95 89.591 263.91 87.1724C264.234 86.3558 264.582 85.9698 264.582 85.0943C264.582 84.553 264.485 83.9396 264.745 83.443C264.93 83.088 264.056 82.5842 263.812 82.4225C262.807 81.7566 261.577 81.6685 260.412 81.8056C258.754 82.0007 257.618 83.1294 256.14 83.7863C255.798 83.9381 255.392 83.9764 255.022 83.9764C254.769 83.9764 254.216 83.8311 254.35 84.2176C254.736 85.3335 255.382 86.5099 255.556 87.6826C255.583 87.8679 255.603 88.1518 255.537 88.332C255.112 89.5004 254.239 90.9901 252.861 91.1523C252.537 91.1904 252.581 91.5349 252.383 91.7831C252.129 92.1002 251.642 92.3236 251.474 92.6598" stroke="#85909A" stroke-width="3" stroke-linecap="round"/>
<path d="M256.005 92.7164C256.693 92.7164 257.553 92.585 258.097 92.132C258.426 91.8575 258.637 91.6943 259.104 91.5587C261.754 90.7893 263.825 88.9062 265.782 87.0342C266.46 86.3852 267.415 86.167 268.042 85.4685C268.407 85.0625 268.711 84.8529 269.226 84.6526C269.58 84.5149 269.835 84.43 270.097 84.1564C270.406 83.8335 270.81 83.8513 271.222 83.8513C271.276 83.8513 270.502 83.6764 270.376 83.6308C269.707 83.3887 269.026 83.0663 268.399 82.7266C268.287 82.6661 268.219 82.5662 268.248 82.4363C268.274 82.3209 268.794 82.4225 268.866 82.4399C269.314 82.5496 269.508 83.0577 269.582 83.4691C269.708 84.1653 268.819 84.8614 268.45 85.3288C267.349 86.7244 266.325 88.1272 264.981 89.3056C262.708 91.2986 260.68 93.5304 258.438 95.5539C257.71 96.2112 256.736 96.6286 256.432 97.6121C256.402 97.7073 256.384 98.021 256.277 98.0899C255.747 98.431 254.903 98.3917 254.289 98.4685C254.051 98.4982 253.796 98.4363 253.62 98.6449C253.594 98.6757 253.43 98.9114 253.425 98.847C253.352 97.8446 253.299 96.8383 253.293 95.8332C253.286 94.73 253.372 93.5127 253.146 92.4224C253.053 91.9762 252.738 91.5137 252.561 91.0845C252.307 90.4645 252.269 89.7554 252.106 89.1035C252.053 88.8943 251.361 88.8348 251.374 89.0778C251.417 89.8914 251.212 90.6534 251.058 91.4631C251.012 91.7071 251.056 91.4783 251.058 91.4741C251.156 91.2506 251.413 91.055 251.565 90.8824C252.172 90.1956 252.524 89.3087 253.183 88.6735C253.402 88.462 253.681 88.3099 253.896 88.1001C254.199 87.8043 254.344 87.1197 254.403 86.7181C254.446 86.4221 254.336 86.0253 254.123 85.8066C253.737 85.4091 253.788 85.1059 253.826 84.5276C253.863 83.9437 253.987 85.7008 253.91 86.2808C253.784 87.2356 253.326 88.1662 253.293 89.1292C253.267 89.888 253.416 87.6157 253.462 86.8578C253.483 86.5148 253.406 86.0462 253.598 85.7258C253.81 85.3716 254.281 85.2279 254.447 84.8731C254.64 84.4592 254.415 82.3719 255.028 82.3297C255.481 82.2984 255.278 83.5338 255.278 83.7852" stroke="#85909A" stroke-width="3" stroke-linecap="round"/>
<path d="M182.686 39.5624C183.929 38.043 184.246 34.7268 184.451 39.0143C184.673 43.6372 184.278 57.5262 184.33 52.8983C184.504 37.1829 184.95 46.1581 185.426 39.0143" stroke="#85909A" stroke-width="3" stroke-linecap="round"/>
<path d="M263.833 129.441C262.869 130.142 260.748 129.776 259.589 129.776C258.946 129.776 258.698 129.967 258.137 130.241C257.708 130.452 257.063 130.311 256.703 130.614C256.362 130.901 255.555 130.903 255.214 130.614C254.266 129.808 253.025 130.44 252.012 130.074C251.71 129.965 250.618 128.997 250.635 128.715C250.703 127.555 250.765 126.417 250.765 125.253C250.765 124.191 250.993 123.267 251.156 122.218C251.397 120.672 251.281 118.969 251.64 117.453C251.827 116.662 252.907 115.669 253.316 114.958C254.019 113.737 255.072 112.438 255.419 111.049C255.655 110.105 256.189 108.876 256.629 107.996C257.712 105.831 259.359 103.567 261.506 102.375C262.113 102.037 262.65 101.42 263.368 101.332C264.536 101.188 265.813 101.797 267.016 101.797C268.832 101.797 270.563 101.127 272.415 101.127C273.963 101.127 275.797 100.991 277.273 101.537C278.545 102.007 279.656 102.922 280.94 103.436C283.326 104.39 283.508 108.218 283.23 110.416C283.04 111.921 282.021 113.961 281.052 115.07C280.054 116.212 278.892 117.191 277.85 118.29C276.719 119.484 275.785 120.846 274.648 122.032C273.638 123.087 272.485 123.775 271.205 124.415" stroke="#85909A" stroke-width="3" stroke-linecap="round"/>
<path d="M257.961 129.132C258.197 129.149 258.437 129.176 258.671 129.203C258.922 129.233 259.053 129.464 259.284 129.538C259.544 129.621 259.771 129.766 259.99 129.928C260.172 130.064 259.878 130.046 259.742 130.064C259.113 130.146 258.504 130.263 257.845 130.21C257.375 130.172 256.884 130.027 256.421 130.011C256.001 129.996 255.588 130.079 255.167 130.079C254.566 130.079 253.727 130.257 253.236 129.876C252.966 129.665 252.548 129.516 252.214 129.402C251.816 129.267 251.412 129.035 251.05 128.82C250.806 128.675 250.071 128.564 250.118 128.133C250.184 127.543 250.56 126.819 250.795 126.27C251.042 125.69 251.074 125.051 251.215 124.437C251.309 124.029 251.443 123.683 251.576 123.291C251.862 122.448 252.326 122.014 253.086 121.567C253.834 121.127 254.563 120.593 255.351 120.234C256.117 119.884 256.782 119.638 257.285 120.444C257.888 121.409 258.073 122.585 258.577 123.603C259.05 124.557 259.844 125.081 260.846 125.413C261.964 125.785 263.148 125.994 264.302 126.225C264.647 126.294 264.587 126.094 264.587 125.819" stroke="#85909A" stroke-width="4" stroke-linecap="round"/>
<path d="M286.158 60.785C286.555 60.1702 286.871 59.4783 287.149 58.8026C287.318 58.3917 288.163 56.4581 287.091 56.7536C285.922 57.0761 284.784 57.8563 283.882 58.6426C283.109 59.3167 281.877 60.5466 282.566 61.6917C283.142 62.6465 284.437 61.7083 284.878 61.1495C285.058 60.9205 285.437 60.126 285.287 60.3761C285.066 60.7436 284.918 61.1285 284.66 61.4784C283.987 62.3887 283.006 63.0228 282.442 64.0208C282.087 64.6489 282.301 65.2671 283.011 64.5898C283.595 64.0328 283.887 63.2664 284.34 62.6163C284.589 62.2589 284.279 62.4536 284.055 62.594C283.208 63.1255 282.401 63.7152 281.544 64.2342C281.264 64.4042 280.94 64.5622 280.713 64.8076C280.644 64.8818 280.614 64.9752 280.522 65.0253C280.41 65.0858 279.555 65.2668 279.806 65.252C280.784 65.1945 281.806 64.5525 282.695 64.1897C283.661 63.7962 284.465 63.1905 285.384 62.7229C285.767 62.5282 286.12 62.3678 286.46 62.1007C286.679 61.9292 286.909 61.8562 287.189 61.9229C287.496 61.9959 286.9 62.4348 286.882 62.4474C285.698 63.2954 284.09 63.691 282.691 63.9942C281.978 64.1485 281.227 64.2662 280.495 64.2875C279.854 64.3062 279.22 63.715 278.673 63.443C278.088 63.1524 277.489 62.9515 276.85 62.8207C276.7 62.7899 276.554 62.7852 276.402 62.7852C276.317 62.7852 276.101 62.8554 276.148 62.7852C276.189 62.7234 276.284 62.7229 276.344 62.6785C276.725 62.3936 276.991 61.9988 277.224 61.5895C277.668 60.808 277.857 59.9435 278.535 59.3271C279.159 58.7601 279.523 58.1189 279.917 57.3803C280.351 56.5689 280.862 56.014 281.553 55.4246C281.665 55.3288 282.358 54.5934 282.464 54.9312C282.634 55.4724 282.535 56.228 282.486 56.7669C282.394 57.7959 282.215 58.8139 281.882 59.7938C281.4 61.2136 280.658 62.7044 279.842 63.9675C279.145 65.0462 280.707 61.5392 281.313 60.4072C282.196 58.7579 283.335 57.1585 283.909 55.3623C283.946 55.2453 284.365 53.8031 284.06 53.7444C283.926 53.7186 283.689 53.726 283.575 53.7978C282.985 54.1707 282.494 55.1785 282.211 55.7979C281.956 56.3557 281.862 57.0174 281.518 57.5314C281.058 58.2167 280.798 57.2672 280.753 56.8825C280.593 55.4976 280.515 54.1183 280.224 52.7488C280.012 51.7482 279.446 50.6514 279.446 49.6197C279.446 49.5565 279.535 48.8658 279.615 49.0507C280.23 50.4658 280.346 52.2466 280.513 53.7622C280.646 54.9663 280.719 56.1424 280.677 57.3536C280.655 58.0151 280.744 58.8242 280.477 59.4516C280.311 59.8446 280.222 59.6292 280.175 59.2738C279.933 57.4521 280.074 55.5402 280.077 53.7089C280.08 52.236 279.902 50.5055 280.353 49.0774C280.498 48.6186 280.811 47.9969 281.162 47.6551C281.326 47.4952 281.35 48.084 281.362 48.3129C281.483 50.6278 281.517 52.9428 281.558 55.2601C281.576 56.3314 281.598 57.4022 281.598 58.4737C281.598 58.5396 281.562 58.8111 281.629 58.5226C281.79 57.8178 281.952 57.1087 282.175 56.4202C282.399 55.7312 282.886 54.1035 283.895 54.1756C284.27 54.2023 284.466 54.5494 284.656 54.8201C284.944 55.2321 285.225 55.5929 285.607 55.9268C286.268 56.5054 286.99 56.9713 287.527 57.6825C287.715 57.9319 287.834 58.2167 288.029 58.4604C288.242 58.7259 289.985 60.4276 289.411 60.785C288.84 61.1412 287.931 61.2859 287.282 61.3495C285.679 61.5067 284.164 60.7811 282.566 60.9184C281.681 60.9944 281.198 61.3553 280.584 61.9229C280.057 62.4096 279.373 62.5656 278.922 63.1496C278.384 63.846 278.09 64.7832 277.117 64.9453" stroke="#85909A" stroke-width="4" stroke-linecap="round"/>
<path d="M261.694 77.0923C264 77.0923 264.899 74.3698 266.272 72.818C267.031 71.9601 268.069 71.3102 269.045 70.7284C270.527 69.8449 271.473 68.6126 272.807 67.556C273.628 66.9051 274.614 66.2845 275.2 65.3903C275.448 65.013 275.591 65.3394 275.637 65.6943C275.834 67.2154 275.602 69.0336 275.143 70.4814C274.228 73.3707 271.635 75.8824 269.672 78.1371C269.602 78.2184 269.439 78.453 269.425 78.3461C269.372 77.9346 269.576 77.5289 269.691 77.1303C270.509 74.2916 271.85 72.069 273.472 69.6361C274.399 68.2444 275.206 66.7937 276.065 65.3618C276.482 64.6667 275.994 66.987 275.846 67.7839C275.405 70.1568 274.903 73.3165 273.519 75.3921C273.165 75.923 273.844 74.1555 274.07 73.5589C274.731 71.8163 275.511 70.1269 276.093 68.3538C276.177 68.0975 276.816 65.8462 276.739 66.0932C275.937 68.6599 274.962 71.1544 274.023 73.6729C273.247 75.7512 272.677 78.3268 271.344 80.1508C271.233 80.3025 270.916 80.6368 270.869 80.4547C270.729 79.9075 271.197 79.3692 271.439 78.859C273.075 75.4127 274.984 72.092 276.72 68.6958C277.687 66.8038 278.541 64.4976 280.101 62.9778C280.196 62.8858 280.442 62.6192 280.424 62.7498C280.355 63.2618 280.096 63.73 279.912 64.2125C278.73 67.3 277.274 70.2262 275.58 73.065C273.976 75.7539 272.15 78.1327 270.128 80.5117C269.108 81.7128 266.417 85.6082 267.326 84.3205C268.922 82.0597 269.927 79.2232 271.116 76.7504C272.796 73.2584 274.658 69.8527 276.274 66.3307C276.712 65.3742 277.185 64.3029 277.537 63.2912C277.599 63.1142 277.698 62.937 277.689 62.7498C277.686 62.6777 277.56 62.8244 277.518 62.8828C275.867 65.1469 274.688 67.8922 273.348 70.339C271.489 73.7341 269.562 77.087 267.621 80.4357C267.286 81.0131 266.338 82.7709 266.595 82.1549C267.532 79.9061 268.694 77.7284 269.786 75.5536C270.746 73.6423 271.645 71.2749 273.301 69.8166C273.443 69.6913 272.207 71.193 272.199 71.2033C271.074 72.5725 270.016 74.0062 268.855 75.3446C268.259 76.0323 267.768 76.5737 268.551 75.2116C269.609 73.3732 270.608 71.502 271.667 69.6646C271.842 69.3601 272.826 68.1707 271.8 69.0187C270.403 70.1736 269.174 71.4026 268.21 72.951C267.685 73.7926 266.209 76.3658 266.804 75.5726C267.809 74.2327 268.445 72.635 269.473 71.2983C269.694 71.0108 270.482 70.258 270.252 70.5384C268.928 72.1514 267.577 73.7155 266.11 75.2021C264.935 76.3936 263.734 77.7103 262.378 78.707C261.569 79.301 262.047 78.6469 262.264 78.2321C263.062 76.7026 265.594 72.3794 262.71 71.6972C261.945 71.5163 257.192 71.0754 257.305 72.5901C257.538 75.6877 260.343 78.665 262.302 80.8726C262.909 81.5573 262.976 81.3844 262.549 80.6827C261.316 78.6611 259.894 76.7154 258.54 74.7747C257.936 73.9078 257.276 72.9412 256.508 72.1911C256.203 71.8943 255.38 71.0681 255.444 71.4883C255.478 71.7124 255.731 71.8402 255.89 72.0012C256.434 72.5498 257.004 73.072 257.552 73.6159C259.676 75.7219 261.292 77.3479 263.327 79.5619C264.46 80.7946 267.644 84.6785 266.5 83.4562C264.753 81.5902 262.433 80.214 260.354 78.7545C258.702 77.5945 257.031 76.3669 255.13 75.639C254.367 75.3465 256.516 76.5084 257.21 76.9403C258.992 78.0483 260.723 79.389 262.663 80.2172C264.526 81.0128 263.242 78.3143 262.995 77.6337C261.174 72.62 258.108 67.909 253.525 65.0199C252.707 64.5043 254.564 66.6536 255.149 67.423C257.253 70.1868 259.48 72.8251 261.912 75.3066C262.5 75.9066 264.275 77.6241 263.878 76.8833C263.229 75.669 261.949 74.8606 260.763 74.2523C260.165 73.9455 258.562 72.9754 257.818 73.0745C257.64 73.0983 258.001 73.3881 258.122 73.5209C258.945 74.42 258.463 73.852 259.538 75.0786C261.634 77.472 263.619 80.0654 266.129 82.0504C267.191 82.8896 267.849 83.0963 267.098 81.7085C265.826 79.3585 264.563 76.9941 263.194 74.6987C261.218 71.384 258.864 68.4221 256.546 65.3523C255.63 64.1406 253.867 61.667 253.867 61.667C253.867 61.667 255.673 64.1907 256.736 65.3144C258.579 67.2631 261.519 69.3937 264.296 69.8356C265.465 70.0216 263.698 68.9402 263.669 68.9237C262.423 68.2027 261.157 67.5297 259.927 66.7771C259.747 66.6672 256.069 64.4104 257.353 64.317C260.513 64.0872 263.536 66.1616 266.557 66.7866C267.825 67.0491 269.118 67.1997 270.394 67.423C270.612 67.4612 272.389 67.7335 272.389 67.309C272.389 65.9534 268.972 65.8917 268.096 65.8083C267.7 65.7706 267.251 65.2046 266.956 65.0104C265.725 64.2016 264.321 63.5153 262.909 63.0917C261.648 62.7134 260.336 62.7372 259.034 62.7308C258.311 62.7273 257.396 62.5949 256.679 62.7688C255.674 63.0123 258.743 62.89 259.775 62.9398C262.609 63.0764 265.439 63.1431 268.276 62.9873C271.03 62.836 274 62.7062 276.768 62.9113C277.703 62.9806 274.397 63.3775 274.279 63.3957C270.882 63.9205 266.653 64.808 263.897 67.0431C262.495 68.1807 261.182 71.3107 262.511 72.913C264.337 75.1155 267.508 72.5729 269.083 71.3173C269.558 70.939 270.046 70.4625 270.432 69.9875C270.771 69.5704 269.556 70.6117 269.102 70.8994C268.592 71.2227 267.376 72.1563 266.69 71.8302C265.728 71.3734 266.255 69.4534 266.509 68.7528C266.777 68.0173 267.246 67.4685 267.678 66.8341C267.862 66.5636 267.067 67.0859 266.804 67.2805C266.629 67.4101 265.366 68.1489 265.408 68.4203C265.46 68.7617 266.723 68.3561 266.842 68.2968C267.541 67.9472 268.03 67.3431 268.618 66.8531C268.794 66.7067 268.011 67.9206 267.991 67.9454C267.606 68.4227 267.156 69.0118 266.585 69.2847C265.865 69.6292 267.139 67.0694 267.165 67.0051" stroke="#85909A" stroke-width="4" stroke-linecap="round"/>
<path d="M271.978 75.7483C272.414 76.8057 272.881 77.8509 273.298 78.9163C273.302 78.927 273.668 80.2912 273.811 80.1557C274.493 79.5091 275.65 77.7843 275.336 76.753C274.74 74.7926 274.409 72.5122 274.75 70.4683" stroke="#85909A" stroke-width="4" stroke-linecap="round"/>
<path d="M341.213 1336.55C339.688 1341.3 337.534 1346.2 337.534 1351.27" stroke="#B7C2CC" stroke-width="2" stroke-linecap="round"/>
<path d="M359.08 1306.33C358.937 1307.05 358.554 1307.53 358.554 1308.32C358.554 1309.09 358.531 1309.81 358.233 1310.54C357.846 1311.48 358.389 1312.68 358 1313.56C357.641 1314.37 356.698 1315.29 356.19 1316.06C355.589 1316.96 355.028 1317.83 354.89 1318.93C354.797 1319.68 354.012 1320.16 353.708 1320.93C353.364 1321.81 352.418 1321.97 352 1322.74C351.789 1323.13 351.649 1323.56 351.46 1323.94" stroke="#BCC7D1" stroke-width="2" stroke-linecap="round"/>
<path d="M361.971 1304.49C360.464 1305.12 357.543 1306 356.774 1307.59C356.319 1308.53 356.438 1310.11 356.249 1311.15C355.67 1314.34 356.264 1317.94 355.285 1321.02C354.666 1322.96 352.746 1323.35 351.461 1324.73C349.383 1326.96 348.323 1329.1 345.3 1329.59C343.208 1329.93 340.64 1329.11 338.731 1329.98C337.569 1330.51 337.134 1330.09 337.52 1331.44C337.696 1332.06 338.146 1332.36 338.439 1332.95C338.989 1334.05 338.848 1335.33 338.848 1336.52C338.848 1339.37 339.445 1342.83 338.834 1345.59C338.46 1347.27 336.749 1349.41 335.943 1350.9C334.73 1353.15 333.653 1355.58 332.177 1357.67C331.114 1359.18 330.703 1362.31 330.703 1364.14C330.703 1365.15 329.444 1366.52 328.98 1367.44C328.256 1368.87 327.543 1370.56 326.382 1371.67C325.505 1372.52 325.351 1373.57 324.572 1374.49C324.157 1374.98 324.54 1375.42 324.776 1375.86C325.23 1376.71 324.952 1378.22 324.922 1379.18C324.891 1380.18 324.484 1381.28 324.718 1382.27C324.945 1383.24 325.749 1383.51 326.484 1384.1C327.473 1384.89 328.089 1385.34 328.659 1386.48C330.257 1389.67 333.685 1390.71 336.746 1391.73" stroke="#BCC7D1" stroke-width="6" stroke-linecap="round"/>
<path d="M219.284 634.009C222.284 632.175 224.653 628.654 227.263 626.301C230.019 623.816 232.813 621.564 235.188 618.702C241.04 611.65 250.41 608.856 256.357 601.793C262.151 594.913 261.297 585.851 261.297 577.503C261.297 574.897 260.823 572.048 262.274 569.741C265.43 564.724 268.452 560.003 272.696 555.845C276.197 552.415 278.733 548.3 282.385 544.935C284.563 542.927 285.642 540.186 287.677 538.041C289.576 536.04 291.403 534.595 293.784 533.102C297.344 530.869 301.872 528.372 304.938 525.53C307.52 523.137 308.42 521.686 312.103 521.649C313.438 521.636 315.998 521.157 317.232 522.002C317.902 522.46 318.139 523.193 318.671 523.766C319.43 524.584 320.504 524.588 321.439 525.069C322.065 525.39 322.669 526.52 323.339 527.023" stroke="#BCC7D1" stroke-width="6" stroke-linecap="round"/>
<path d="M337.002 1393.35C336.044 1394.88 334.032 1396.26 333.699 1398.08C333.477 1399.31 331.909 1400.75 331.032 1401.57C330.405 1402.16 330.38 1403.98 330.139 1404.75C329.825 1405.76 329.496 1406.91 328.956 1407.83C328.208 1409.1 327.286 1410.53 326.697 1411.87C325.044 1415.64 324.13 1419.58 322.878 1423.48C322.517 1424.61 322.299 1425.81 321.62 1426.8C321.344 1427.21 320.984 1427.5 320.727 1427.93C320.138 1428.93 319.994 1430 319.759 1431.12C319.551 1432.1 319.189 1433.1 319.189 1434.12C319.189 1435.09 319.189 1436.07 319.189 1437.04C319.189 1438.08 318.918 1439.54 319.232 1440.55C319.378 1441.02 320.063 1441.47 320.351 1441.84C321.256 1443.02 321.849 1444.38 322.373 1445.76C322.651 1446.49 322.889 1447.15 323.481 1447.68C324.62 1448.71 325.062 1450.06 325.557 1451.48C326.016 1452.79 326.184 1454.19 326.675 1455.49C327.237 1456.97 328.352 1458.04 329.203 1459.34C329.67 1460.06 329.74 1460.68 329.924 1461.48C330.168 1462.55 330.888 1463.28 331.301 1464.26C332.016 1465.96 333.089 1466.31 334.743 1467.08C337.562 1468.38 340.304 1469.82 342.918 1471.51C344.099 1472.27 344.709 1473.17 345.564 1474.24C346.815 1475.8 348.903 1476.16 350.727 1476.71C352.48 1477.25 355.089 1477.72 355.933 1479.62C356.239 1480.3 356.17 1481.1 356.17 1481.83" stroke="#BCC7D1" stroke-width="6" stroke-linecap="round"/>
<path d="M354.9 1481.65C352.737 1483.27 349.212 1482.7 346.861 1483.8C344.317 1484.99 340.372 1484.38 337.615 1484.28C335.603 1484.2 333.727 1482.66 331.694 1482.38C329.77 1482.11 328.131 1481.58 326.249 1481.17C320.855 1479.99 314.702 1482.42 309.53 1479.98C307.295 1478.93 306.886 1476.67 306.588 1474.36C306.444 1473.24 306.041 1473.2 305.236 1472.44C304.365 1471.61 303.635 1471.93 302.532 1471.71C300.635 1471.33 298.942 1470.95 297.013 1470.77C294.908 1470.58 293.68 1469.67 292.226 1468.18C291.178 1467.1 290.177 1466.72 288.864 1466.11C287.452 1465.46 286.351 1464.28 285.173 1463.3C284.308 1462.58 282.925 1461.64 282.542 1460.52C281.604 1457.78 281.732 1454.39 282.14 1451.53C282.296 1450.44 281.79 1448.66 282.359 1447.7C283.363 1446 280.651 1447.7 279.289 1447.75C277.24 1447.83 275.326 1448.1 274.301 1446.05C273.319 1444.09 272.452 1441.94 272.09 1439.77C271.674 1437.27 271.452 1434.71 270.957 1432.24C270.542 1430.16 270.436 1427.97 269.513 1426.04C268.08 1423.05 266.289 1420.7 266.791 1417.14C267.347 1413.2 268.138 1409.12 268.983 1405.23C269.871 1401.15 270.701 1397.65 270.701 1393.48C270.701 1388.53 267.866 1384.9 265.11 1381.11C263.309 1378.63 262.704 1376.26 262.807 1373.25C262.971 1368.5 270.224 1367.03 273.241 1364.39C275.656 1362.28 275.635 1360.24 275.635 1357.3C275.635 1352.25 271.505 1350.79 268.399 1347.31C266.871 1345.6 265.726 1343.48 264.689 1341.44C263.538 1339.18 261.626 1335.49 261.802 1332.96C262.009 1330.01 264.707 1327.47 266.06 1324.98C266.671 1323.85 266.425 1322.37 266.425 1321.14" stroke="#BCC7D1" stroke-width="6" stroke-linecap="round"/>
<path d="M198.541 1008.77C214.781 1010.24 209.09 1033.11 214.773 1042.94C216.411 1045.78 218.644 1048 220.144 1050.97C221.239 1053.14 222.148 1055.41 223.273 1057.55C224.397 1059.69 226.179 1061.3 227.198 1063.54C228.524 1066.46 229.384 1069.75 230.061 1072.87C230.294 1073.95 230.042 1075.77 231.005 1076.53C234.141 1078.99 237.989 1080.12 241.275 1082.31C246.288 1085.66 247.684 1091.74 253.199 1094.5C255.642 1095.72 258.471 1095.31 260.842 1096.89C263.202 1098.47 265.556 1099.2 267.778 1101.38C273.872 1107.34 279.328 1115.07 279.789 1123.84C280.155 1130.78 279.819 1137.8 279.819 1144.76" stroke="#BCC7D1" stroke-width="6" stroke-linecap="round"/>
<path d="M279.288 1142.11C279.288 1147.53 280.572 1154.4 278.461 1159.49C276.455 1164.33 275.569 1168.4 275.569 1173.6C275.569 1181.38 273.811 1189.12 273.474 1196.88C273.312 1200.61 273.444 1204.37 273.444 1208.1C273.444 1212.52 272.289 1216.54 271.024 1220.79C269.968 1224.33 270.788 1229.17 270.788 1232.83C270.788 1236.17 270.788 1239.52 270.788 1242.86C270.788 1248.31 270.788 1253.76 270.788 1259.21C270.788 1263.04 271.347 1268.64 269.696 1272.08C268.713 1274.13 267.592 1277.21 267.099 1279.43C266.773 1280.89 266.595 1283 266.538 1284.48C266.316 1290.26 265.575 1295.99 265.476 1301.77C265.34 1309.63 264.944 1317.49 264.944 1325.38" stroke="#BCC7D1" stroke-width="6" stroke-linecap="round"/>
<path d="M74.4707 802.039C77.3977 801.773 79.7369 800.308 82.7419 800.308C87.3547 800.308 89.9715 802.002 94.3792 803.241C99.0771 804.563 104.171 804.737 108.709 806.8C111.676 808.148 114.379 809.243 117.413 810.839C123.284 813.929 125.195 833.562 131.215 831.373C132.739 830.819 132.879 828.162 134.196 828.007C135.313 827.876 136.536 828.007 137.659 828.007C140.032 828.007 144.384 831.554 146.266 833.2C149.443 835.98 149.255 841.161 151.7 844.453C154.366 848.042 158.134 851.04 161.414 853.974C166.873 858.858 175.406 859.066 181.034 863.688C183.382 865.617 183.749 868.651 184.881 871.238C185.808 873.356 187.9 874.779 188.536 877.057C189.618 880.936 194.672 884.212 198.25 886.001C202.004 887.878 203.797 891.86 205.847 895.33C208.446 899.727 208.563 903.709 212.965 905.91" stroke="#BCC7D1" stroke-width="6" stroke-linecap="round"/>
<path d="M212.964 905.91C212.964 910.35 212.964 914.79 212.964 919.23C212.964 921.762 212.618 920.778 210.8 921.586C204.027 924.597 202.824 936.838 199.403 942.312C195.993 947.768 190.157 950.217 189.545 956.643C188.925 963.156 188.728 969.478 188.728 976.022C188.728 978.902 189.221 979.89 190.651 982.274C192.984 986.162 193.451 991.25 196.037 994.777C197.092 996.215 199.425 1003.54 200.846 1003.72C202.754 1003.96 203.055 1006.8 203.25 1008.24C203.792 1012.23 205.889 1015.88 206.039 1019.78C206.095 1021.23 205.817 1025.02 207.77 1025.36C209.104 1025.6 212.689 1032.64 212.964 1034.02" stroke="#BCC7D1" stroke-width="6" stroke-linecap="round"/>
<path d="M88.9229 766.257C100.134 766.257 108.655 766.589 117.012 758.232C120.165 755.079 122.387 751.06 125.428 747.754C129.874 742.922 133.913 743.733 139.64 741.623C141.067 741.098 146.215 737.721 147.889 739.394C148.805 740.31 151.036 746.792 151.121 747.977C151.75 756.787 152.883 770.087 149.616 778.073C148.707 780.296 141.067 789.92 148.111 790.334C150.562 790.478 153.072 790.334 155.524 790.334C160.525 790.334 162.517 791.717 166.949 794.18C171.807 796.878 176.201 804.28 176.201 809.618C176.201 818.783 177.204 827.802 177.204 836.927C177.204 837.439 185.02 841.046 186.735 841.999C190.729 844.218 196.403 841.497 200.501 841.497C206.082 841.497 210.183 841.817 211.815 848.018C213.113 852.951 225.447 850.938 228.144 847.962C229.541 846.422 230.899 846.745 232.77 846.457C234.402 846.206 234.521 844.224 235.891 843.615C237.769 842.781 239.085 841.849 240.963 840.996C243.11 840.02 252.273 840.557 252.444 837.484C252.656 833.673 253.139 831.528 257.404 830.462C258.535 830.179 263.874 828.08 264.427 830.016C266.919 838.738 276.81 836.481 284.546 836.481" stroke="#BCC7D1" stroke-width="6" stroke-linecap="round"/>
<path d="M284.546 836.481C292.061 837.233 299.23 841.497 306.616 841.497C310.1 841.497 326.048 843.715 328.464 840.494C332.068 835.689 339.874 842.289 342.954 844.507C347.599 847.851 350.157 852.715 353.822 856.991C355.656 859.131 357.827 860.919 360.343 862.063C363.618 863.552 365.96 863.123 368.257 866.076C372.34 871.325 375.219 875.046 379.627 879.285C384.467 883.939 390.614 879.522 396.904 879.619C406.178 879.762 405.594 889.729 409.946 895.168C413.765 899.942 422.312 897.123 427.446 899.237C433.307 901.651 433.019 910.604 433.019 915.734C433.019 917.254 431.929 934.268 433.576 934.739C440.143 936.615 446.727 939.42 453.083 942.597C459.289 945.7 464.617 948.872 470.36 952.406C478.281 957.28 492.174 947.401 496.778 957.924C498.858 962.679 502.617 963.462 507.144 966.228C509.388 967.599 511.94 967.791 514.167 969.461C516.228 971.007 517.495 972.709 519.796 973.919C522.978 975.594 523.31 979.479 525.871 980.942C529.252 982.874 531.794 985.185 535.345 986.961" stroke="#BCC7D1" stroke-width="6" stroke-linecap="round"/>
<path d="M363.027 1303.13C371.685 1303.13 377.809 1301.38 385.441 1297.35C392.723 1293.51 393.394 1283.72 393.394 1276.22C393.394 1274.53 390.977 1266.98 393.073 1266.98C397.251 1266.98 401.001 1268.43 404.963 1268.43C408.754 1268.43 415.447 1267.11 416.531 1262.64C417.693 1257.85 419.054 1247.98 424.243 1245.21C427.013 1243.73 430.283 1240.96 431.714 1238.1C433.617 1234.29 435.417 1228.75 438.543 1225.81C439.77 1224.65 440.593 1222.66 441.435 1221.19C445.506 1214.09 449.277 1206.94 453.525 1199.94C455.989 1195.88 454.128 1186.75 454.128 1181.99C454.128 1177.7 456.714 1173.32 460.233 1170.82C463.538 1168.47 466.148 1165.65 469.914 1163.99C472.609 1162.8 475.89 1161.35 477.988 1159.25C481.579 1155.66 486.863 1155 490.721 1151.82C496.574 1147 499.176 1138.68 503.293 1132.5" stroke="#BCC7D1" stroke-width="6" stroke-linecap="round"/>
<path d="M503.294 1132.5C503.294 1120.71 510.078 1110.76 511.97 1099.4C512.207 1097.98 513.81 1097.01 514.38 1095.67C515.158 1093.83 514.805 1091.7 514.862 1089.76C514.914 1088.03 515.936 1087.24 516.228 1085.7C516.624 1083.63 516.308 1081.27 516.308 1079.16C516.308 1070.91 520.143 1062.88 520.646 1054.57C520.823 1051.66 519.691 1047.66 521.289 1045.09C523.531 1041.49 526.003 1038.05 528.238 1034.45C532.302 1027.91 536.485 1020.66 539.405 1013.6C541.409 1008.76 538.88 1005.21 538.039 1000.59C537.567 997.992 536.032 994.188 534.745 991.872C533.648 989.898 534.479 989.622 532.295 988.257C530.999 987.447 529.367 987.984 528.6 986.45" stroke="#BCC7D1" stroke-width="6" stroke-linecap="round"/>
<path d="M97.1535 768.84C93.0389 768.383 89.857 764.954 86.6503 762.734C84.9332 761.545 83.4705 760.477 81.9822 758.989C80.7653 757.772 80.0594 756.102 78.7797 754.945C76.8079 753.161 74.697 751.929 73.026 749.761C70.7902 746.86 68.8193 744.618 68.8193 740.968C68.8193 736.606 71.1456 732.46 73.1889 728.782C75.0532 725.426 77.1242 721.185 77.1242 717.301C77.1242 713.764 77.1242 710.227 77.1242 706.69C77.1242 702.112 77.1242 697.534 77.1242 692.957C77.1242 688.82 80.3311 687.664 83.4749 685.141C90.3026 679.66 98.4139 676.421 103.287 668.802C104.108 667.518 105.815 662.256 107.738 662.343C113.275 662.595 116.285 670.571 121.091 672.493C125.479 674.249 128.55 670.326 131.458 667.934C135.381 664.709 141.938 667.084 146.494 665.166C148.202 664.446 150.494 664.682 152.329 664.813C156.636 665.12 160.91 665.542 165.248 665.79C174.042 666.292 175.958 676.876 180.039 682.861C181.854 685.523 183.722 686.24 184.382 689.537C184.896 692.108 185.232 694.35 186.091 696.784C187.116 699.687 187.979 700.368 190.407 701.913C192.014 702.936 194.629 704.074 196.54 704.329C198.732 704.621 201.232 705.41 203.325 704.247C206.478 702.496 205.657 698.99 206.582 696.051C208.734 689.216 206.283 682.753 206.094 675.75C206.009 672.631 206.38 668.694 205.171 665.763C203.685 662.16 204.07 660.269 206.148 656.698C207.546 654.294 209.311 652.14 210.762 649.75C212.129 647.498 212.761 645.815 214.778 643.888C218.582 640.253 221.304 636.511 224.169 632.055" stroke="#BCC7D1" stroke-width="6" stroke-linecap="round"/>
<path d="M398.082 443.974C397.496 445.929 393.993 448.403 392.736 450.053C389.849 453.843 386.292 456.592 382.83 459.824C379.222 463.191 375.999 467.425 371.947 470.273C367.788 473.195 365.058 468.453 363.37 465.198C360.425 459.518 354.718 455.41 348.471 453.745C345.518 452.957 340.769 452.6 338.157 454.45C333.55 457.714 330.373 460.186 329.798 466.392C329.568 468.883 329.273 471.962 330.368 474.29C331.632 476.976 333.14 479.544 334.385 482.242C334.671 482.861 334.859 483.978 335.335 484.521C337.676 487.197 340.111 489.734 343.341 491.551C347.059 493.642 354.087 490.657 357.047 488.212C360.688 485.205 368.467 485.259 371.105 489.732C372.163 491.526 372.089 493.735 373.412 495.323C374.34 496.436 374.418 498.609 374.036 499.991C372.455 505.723 367.091 509.358 362.23 511.878C359.852 513.112 357.395 514.133 354.93 515.19C352.036 516.43 348.982 515.743 346.136 516.872C343.777 517.808 340.705 518.969 338.754 520.455C337.211 521.631 333.561 520.309 331.617 520.916C329.972 521.43 328.421 522.59 327.491 524.037C326.665 525.322 322.733 524.58 321.385 524.58" stroke="#BCC7D1" stroke-width="6" stroke-linecap="round"/>
<path d="M397.594 443.974C393.097 451.227 388.069 458.384 384.485 466.147C383.518 468.244 383.672 469.649 382.07 471.603C380.208 473.873 379.901 475.976 380.577 478.849C381.89 484.426 383.267 488.907 389.615 489.352C395.078 489.736 401.031 489.84 406.333 488.429C411.121 487.155 416.378 487.871 420.88 486.095C423.866 484.918 427.137 484.076 430.271 483.409C430.999 483.253 432.991 483.392 433.229 482.323C434.412 476.999 431.758 475.545 427.719 473.122C425.621 471.863 425.493 470.741 426.417 468.292C427.055 466.598 432.082 464.34 431.736 463.216C430.372 458.782 427.395 457.239 423.703 454.939C419.477 452.307 411.894 448.866 410.893 443.431C409.181 434.138 418.364 425.875 415.317 416.264C413.88 411.735 409.381 410.018 405.193 409.181C402.849 408.712 400.547 408.354 398.245 407.661C395.575 406.856 399.405 406.277 400.525 405.869C406.91 403.548 410.91 393.909 401.991 392.408C398.38 391.8 394.437 392.191 390.782 392.191C389.101 392.191 385.307 392.948 384.051 391.512C381.506 388.603 379.044 385.732 377.945 382.095C375.471 373.907 376.157 366.228 376.099 357.615C376.088 355.989 376.366 355.261 374.824 354.792C372.707 354.148 370.743 353.118 368.771 352.132C365.91 350.701 363.365 348.933 360.901 346.894C359.63 345.843 359.863 344.137 359.49 342.606C358.923 340.283 360.21 334.018 358.512 332.32C355.04 328.848 343.249 353.469 339.542 352.512C333.776 351.024 328.577 346.533 323.99 342.959C321.757 341.219 317.274 338.504 320.299 335.143C322.817 332.345 325.353 329.844 325.754 325.834C326.34 319.983 323.186 313.345 319.404 309.142C317.363 306.875 315.393 304.706 313.894 302.032C312.317 299.218 309.973 297.252 307.978 294.758C305.701 291.913 305.127 289.466 300.921 289.547C295.462 289.653 291.931 291.491 289.143 295.952" stroke="#BCC7D1" stroke-width="6" stroke-linecap="round"/>
<path d="M293.143 292.817C290.693 293.262 287.815 294.805 285.359 295.556C282.701 296.368 278.218 301.234 277.502 303.917C274.126 316.58 265.82 326.476 261.501 338.803C259.703 343.934 257.456 348.83 255.771 353.976C253.756 360.126 249.994 365.503 249.175 371.96C248.974 373.545 249.135 375.135 248.959 376.717C248.647 379.524 247.033 381.699 246.508 384.321C245.778 387.975 246.664 392.024 246.436 395.746C245.888 404.708 240.795 413.544 239.373 422.487C238.416 428.498 240.772 439.818 236.922 444.615C228.8 454.734 220.007 440.363 217.965 433.047C216.826 428.965 214.87 426.253 215.442 421.622C216.08 416.46 218.397 412.834 217.785 407.531C216.306 394.712 208.151 384.232 195.909 380.465C185.279 377.194 172.95 383.723 164.014 375.78C160.734 372.864 158.016 369.65 156.374 365.545C153.96 359.51 155.531 350.937 155.617 344.498C155.711 337.452 157.566 332.412 163.077 327.703C166.802 324.52 169.185 322.327 171.474 317.828C173.892 313.076 175.3 307.172 178.97 303.196C183.784 297.982 188.576 293.786 194.431 289.934C199.464 286.623 204.601 282.363 210.181 280.131C211.37 279.655 214.984 276.959 215.298 279.626C215.841 284.237 215.67 288.915 215.442 293.538C215.335 295.711 214.206 299.22 217.172 299.304C220.637 299.402 224.086 299.43 227.552 299.592C233.159 299.855 235.089 296.419 239.625 294.006C242.713 292.364 249.719 293.774 248.887 288.78C248.141 284.307 246.354 281.14 241.931 281.14C237.696 281.14 233.337 281.719 229.354 283.23C228.74 283.463 228.462 284.272 227.948 284.672C226.621 285.704 224.753 280.575 224.452 279.807C222.804 275.596 223.083 271.216 223.083 266.796C223.083 262.429 227.01 261.907 230.831 260.634C236.913 258.606 243.21 257.188 249.247 255.047C254.522 253.178 258.349 249.519 263.159 246.903C268.528 243.981 269.836 238.819 269.79 233.208C269.757 229.204 267.821 224.423 268.565 220.522C269.447 215.887 277.236 215.58 280.746 215.62C284.399 215.662 290.704 216.687 292.423 220.738C294.511 225.661 290.92 232.475 291.197 237.893C291.471 243.234 297.596 242.876 300.856 240.56C302.905 239.103 304.224 237.606 306.911 238.469C312.679 240.324 310.802 244.886 308.857 249.209C306.251 254.999 304.562 261.58 300.856 266.796C299.188 269.144 298.76 271.304 298.477 274.22C298.387 275.153 297.699 278.181 299.162 278.473C301.947 279.03 305.261 279.049 308.1 279.158C311.219 279.278 317.84 279.017 320.389 281.428C323.25 284.134 322.984 287.35 322.984 290.943C322.984 299.104 327.853 304.046 336.283 304.458C337.456 304.515 344.586 303.861 345.04 305.791C345.542 307.924 347.437 308.684 349.365 307.989C357.554 305.041 359.961 295.929 359.961 287.988C359.961 278.463 365.625 266.941 357.005 260.237C356.443 259.8 355.004 258.677 356.537 259.156C361.892 260.83 367.837 260.255 373.367 260.417C379.732 260.605 379.562 262.712 382.81 266.868C384.339 268.826 385.249 264.426 385.693 263.481C386.902 260.906 389.38 257.724 389.765 254.831C390.38 250.221 387.086 247.795 383.603 245.605C379.141 242.801 373.839 241.693 369.007 239.623C362.605 236.879 353.208 236.945 349.726 229.892C343.731 217.752 352.647 201.151 340.139 191.906C336.074 188.902 331.209 187.292 326.372 186.068C320.909 184.686 314.636 182.563 309.001 182.031C303.447 181.507 298.479 181.388 293.071 179.977C290.291 179.252 287.545 179.292 284.71 179.292" stroke="#BCC7D1" stroke-width="6" stroke-linecap="round"/>
<path d="M147.832 218.215C146.194 224.495 143.741 230.711 143.976 237.28C144.105 240.906 142.839 249.788 145.958 252.56C151.922 257.862 160.36 250.433 164.41 246.902C167.247 244.429 170.006 238.708 171.077 235.225C171.784 232.929 172.483 230.664 172.483 228.27C172.483 224.668 172.828 220.868 172.339 217.278C171.825 213.514 170.463 210.052 170.032 206.178C169.344 199.985 172.588 197.183 177.745 193.96C180.804 192.048 187.169 187.701 191.007 190.464C193.838 192.502 199.154 195.656 200.233 199.042C201.335 202.498 201.394 206.34 201.675 209.926C201.93 213.18 203.174 216.016 203.981 219.152C205.169 223.766 205.119 228.686 209.82 230.865C213.687 232.657 218.291 235.699 222.542 236.307C228.379 237.141 229.864 235.076 233.498 230.865C235.195 228.898 240.048 225.22 240.562 222.395C241.98 214.593 235.821 208.108 229.93 204.159C225.227 201.007 219.878 198.523 214.721 196.231C211.515 194.806 211.923 189.828 212.09 186.896C212.775 174.907 226.329 173.362 234.11 168.264C236.808 166.496 237.669 165.02 240.922 165.02C246.012 165.02 247.553 172.095 248.238 176.121C248.808 179.472 249.159 179.48 252.635 179.292C256.369 179.09 257.685 174.989 259.554 172.517C261.578 169.841 270.734 158.464 275.268 162.173C280.378 166.355 278.805 173.232 280.025 178.788C281.095 183.662 292.08 177.995 295.738 177.995" stroke="#BCC7D1" stroke-width="6" stroke-linecap="round"/>
<path d="M62.0452 111.618C58.8719 111.7 55.8524 112.233 52.7457 112.927C45.3591 114.577 36.9003 116.094 30.4269 120.263C27.609 122.078 26.0972 124.584 24.4339 127.393C23.7771 128.502 20.7236 132.034 21.2652 133.524C22.2589 136.256 30.0096 135.627 31.8735 134.695C36.2879 132.487 37.5974 125.928 42.2063 124.155C43.0558 123.829 45.4483 123.466 46.3394 123.466C51.2915 123.466 52.6963 126.877 57.3955 123.708C60.7393 121.452 62.0452 120.108 62.0452 115.958C62.0452 114.191 61.2595 113.282 59.5654 112.858" stroke="#BCC7D1" stroke-width="6" stroke-linecap="round"/>
<path d="M86.8438 93.6391C85.7151 97.1382 83.9128 101.59 88.2215 103.627C91.7696 105.306 97.4124 103.465 100.345 101.423C100.825 101.089 113.578 91.3539 111.401 89.6438C110.081 88.6067 104.396 86.6238 102.619 86.9917C102.021 87.1153 97.1036 89.1688 96.8322 89.6438C96.2792 90.6114 95.3756 92.6233 94.4556 93.2602C92.0999 94.8911 86.0243 93.7317 83.124 94.2591" stroke="#BCC7D1" stroke-width="6" stroke-linecap="round"/>
<path d="M91.8038 132.077C93.7876 134.259 95.0333 137.694 93.1126 140.412C90.3648 144.3 82.793 141.339 80.6444 138.414C78.7181 135.792 77.4331 131.457 73.687 131.457C70.3793 131.457 67.1982 131.746 64.0775 132.972C56.4285 135.977 48.4279 142.653 44.4797 149.918C43.6179 151.504 45.5465 151.21 46.5462 151.158C51.1568 150.918 55.8838 150.912 60.461 150.297C67.0281 149.415 72.288 147.543 78.1645 144.752C79.8945 143.93 81.613 147.995 82.0221 148.954C83.424 152.241 84.3072 155.761 84.8464 159.287C85.1546 161.302 85.4554 161.351 87.6018 161.146C92.9824 160.634 100.418 155.358 103.652 151.02C107.592 145.735 112.469 141.184 116.361 135.762C117.566 134.085 119.353 129.889 118.807 127.84C117.443 122.728 102.841 128.446 99.7944 128.839C98.4226 129.016 95.9742 128.457 94.938 129.666C93.5237 131.316 93.0892 134.42 92.4237 136.417" stroke="#BCC7D1" stroke-width="6" stroke-linecap="round"/>
<path d="M155.041 119.678C149.34 122.269 143.361 124.314 137.579 126.739C132.909 128.697 136.651 136.472 139.335 138.793C148.06 146.339 156.605 144.321 165.718 139.241C167.148 138.444 168.387 137.736 170.058 137.657C171.306 137.597 173.574 138.136 174.57 137.14C178.637 133.073 177.221 122.515 173.468 118.851C169.605 115.08 165.235 111.833 160.207 114.511C157.917 115.731 153.562 117.176 152.561 119.678" stroke="#BCC7D1" stroke-width="6" stroke-linecap="round"/>
<path d="M168.06 106.039C165.7 105.331 163.214 105.014 161.275 103.352C158.409 100.896 156.606 97.4443 153.663 95.0169C152.079 93.7105 149.284 91.539 147.015 91.9171C145.726 92.1321 145.023 93.4328 143.743 93.6392C141.798 93.953 131.338 99.2155 130.517 96.808C129.645 94.2493 131.891 89.7566 132.928 87.474C134.576 83.8493 139.72 80.7893 142.848 78.6912C149.495 74.2319 158.432 78.556 163.376 84.0642C165.199 86.0963 166.541 88.3316 168.817 89.9194C169.809 90.6111 172.737 91.6216 172.916 93.0537C173.254 95.7555 170.811 98.7444 169.713 100.941C168.604 103.16 165.302 102.319 163.1 102.319" stroke="#BCC7D1" stroke-width="6" stroke-linecap="round"/>
<path d="M163.72 164.935C174.655 164.935 185.636 167.314 196.578 167.656C199.985 167.763 207.864 160.244 200.505 159.493C191.619 158.587 182.404 159.356 173.467 159.356C169.155 159.356 163.597 158.549 159.38 159.734C150.933 162.11 148.591 168.889 147.463 176.646C147 179.827 146.37 183.529 150.081 184.981C153.306 186.243 158.5 185.339 161.171 183.224C164.636 180.481 166.949 174.906 166.82 170.515C166.777 169.052 165.179 168.657 164.684 167.174C164.506 166.64 168.612 168.863 169.3 169.275" stroke="#BCC7D1" stroke-width="6" stroke-linecap="round"/>
<path d="M310.028 98.8386C306.146 98.8386 301.485 98.0812 297.709 98.9697C294.149 99.8074 295.33 111.655 297.185 114.04C298.682 115.965 300.29 115.819 302.231 116.596C302.269 116.611 295.377 118.115 294.237 118.299C286.876 119.486 279.201 118.889 271.762 118.889C265.035 118.889 259.568 121.249 255.184 126.555C251.168 131.418 251.374 130.917 245.815 131.928C243.585 132.334 243.005 135.93 239.786 136.515C233.925 137.581 234.544 134.121 234.544 129.307C234.544 121.001 235.481 117.968 240.704 112.205C248.091 104.054 243.22 97.5667 236.903 91.7621C231.722 87.0005 216.306 88.4637 215.674 79.1815C215.412 75.3456 211.959 67.826 214.756 65.0283C219.795 59.9892 227.12 52.7856 234.282 51.3994C244.776 49.3684 246.229 51.1291 253.415 58.7381C253.87 59.2193 258.899 65.7204 259.05 65.5525C261.233 63.1276 257.54 55.3293 256.298 53.2341C254.645 50.4434 253.546 46.1955 253.546 42.8813C253.546 42.1456 261.342 41.2004 262.196 40.8501C266.659 39.019 270.426 35.2926 274.055 32.2009C280.671 26.5652 292.3 19.7537 300.92 18.7685C309.367 17.8032 317.693 19.6859 326.081 19.6859C341.985 19.6859 349.674 10.7396 362.971 4.09122C368.689 1.23228 373.48 5.75484 378.435 7.95712C382.161 9.61317 385.917 12.5767 389.705 13.7887C393.451 14.9874 397.186 15.3159 400.647 17.3925C404.948 19.9729 410.048 20.8868 414.276 23.8139C424.573 30.9425 404.635 47.1064 399.009 49.9579C390.371 54.3359 382.181 55.7965 373.193 58.7381C361.521 62.5579 350.474 66.428 339.383 71.9739C334.519 74.4056 331.947 78.1888 328.637 82.3266C326.496 85.0023 324.234 88.8343 321.56 90.5826C315.114 94.7975 308.706 93.7062 301.772 96.4798" stroke="#BCC7D1" stroke-width="6" stroke-linecap="round"/>
<path d="M394.947 84.6854C396.711 79.8341 404.024 75.8995 407.003 71.1875C410.779 65.2169 413.52 60.4293 418.798 55.8549C429.041 46.9771 437.507 42.5697 450.38 37.3772C463.925 31.9137 477.7 25.314 492.381 23.6827C498.302 23.0249 506.783 22.2036 512.3 25.1243C519.498 28.9351 528.869 30.3752 536.675 32.5285C541.708 33.9168 547.301 29.6038 551.287 26.8934C558.983 21.6597 567.566 12.0576 578.348 18.0477C591.393 25.2949 605.266 18.6374 619.366 18.6374C624.232 18.6374 631.379 19.9971 635.55 16.8683C639.636 13.8039 645.716 13.9197 650.621 13.9197C654.196 13.9197 658.256 13.4012 660.974 16.2785C663.547 19.0036 650.147 25.5688 648.196 26.1726C642.7 27.8739 636.851 27.7755 631.619 30.4317C629.624 31.4445 628.551 32.6428 626.311 32.8561C615.569 33.8791 607.028 35.3455 601.085 44.978C593.3 57.5948 638.377 55.6778 645.51 54.9376C651.647 54.3008 657.545 52.4913 663.66 51.7269C666.224 51.4064 669.737 51.5069 672.113 50.2199C679.011 46.4834 685.547 39.6701 693.408 37.7048C695.924 37.0758 706.378 34.7534 708.675 36.722C710.316 38.1287 714.859 46.719 714.572 49.3025C713.762 56.5923 693.043 58.4479 688.494 59.3932C677.59 61.659 670.933 59.8517 667.985 71.6462C666.631 77.0597 667.449 80.6512 672.702 83.3749C678.633 86.4501 680.896 86.5536 684.038 92.6138C692.839 109.587 677.288 126.79 685.611 144.312C687.89 149.111 697.894 149.656 698.06 155.451C698.421 168.088 677.86 172.606 669.099 167.573C662.17 163.593 655.317 150.608 647.41 149.619C642.415 148.995 635.777 168.42 641.054 172.618C645.373 176.054 652.484 176.357 657.042 179.564C662.008 183.058 661.852 188.826 662.415 194.241C663.349 203.226 659.463 209.801 652.324 215.078C647.533 218.619 638.333 216.781 632.667 216.781C621.476 216.781 602.506 213.093 593.156 221.04C585.404 227.63 586.124 240.462 577.496 247.447C573.072 251.028 569.112 251.228 564.129 254.261C554.809 259.934 552.584 272.744 545.455 280.929C540.319 286.827 538.619 294.396 534.578 301.045C526.989 313.53 516.078 323.772 513.611 338.852C512.917 343.09 511.966 374.517 504.634 364.144C493.935 349.009 485.075 331.478 476.327 315.198C473.421 309.79 468.074 306.892 465.713 301.045C461.113 289.654 454.578 280.551 452.28 267.824C450.155 256.052 448.455 245.883 450.315 233.949C451.212 228.189 450.786 221.871 452.346 216.257C453.797 211.034 456.179 206.451 456.277 200.925C456.402 193.935 458.734 185.867 456.932 179.04C454.498 169.813 444.443 164.152 439.11 156.631C435.236 151.167 429.463 147.143 425.874 141.56C423.349 137.633 423.984 132.215 420.305 129.504C405.442 118.553 386.189 119.981 369.131 121.903C364.295 122.448 355.221 124.37 351.701 120.068C345.093 111.991 358.719 109.786 365.134 109.519C372.4 109.216 376.208 110.771 382.956 112.795C386.423 113.835 387.43 103.836 382.825 103.622C370.963 103.07 358.994 103.556 347.115 103.556C344.861 103.556 329.747 104.922 334.403 101.197C343.815 93.6674 354.072 94.1208 365.461 94.1208C370.554 94.1208 382.346 97.6748 386.691 94.3174C390.561 91.3272 397.635 69.7922 404.382 78.7883" stroke="#BCC7D1" stroke-width="6" stroke-linecap="round"/>
<path d="M967.276 78.58C974.597 78.58 981.854 78.8184 989.161 79.2898C996.34 79.7529 1008.16 82.1314 1014.75 78.1068C1021.75 73.8356 1012.39 65.3454 1008.76 63.2807C1000.59 58.6304 988.347 60.9497 979.5 61.388C968.65 61.9257 956.845 64.777 946.378 67.6182C937.427 70.0477 929.638 75.3538 920.432 77.1605C916.021 78.0262 914.831 79.0365 911.915 82.1288C910.993 83.1073 910.496 83.6589 910.496 85.0073C910.496 91.0928 910.496 97.1784 910.496 103.264C910.496 111.443 909.84 115.909 918.54 119.431C925.489 122.244 931.313 124.113 937.467 119.588C942.561 115.842 947.437 111.768 950.242 106.024C951.184 104.095 955.688 104.548 957.34 105.157C962.847 107.186 966.174 113.613 973.191 111.623C979.89 109.724 976.758 98.3489 973.822 94.8257C971.043 91.4902 967.527 91.7626 964.753 89.2264C961.523 86.2734 965.565 85.2943 968.775 84.4158C973.739 83.0572 982.047 82.1475 984.311 87.8069" stroke="#BCC7D1" stroke-width="6" stroke-linecap="round"/>
<path d="M1131.23 70.7727C1132.45 76.8783 1139.74 79.8059 1145.43 78.4224C1152.25 76.7627 1155.14 72.3214 1152.05 65.2524C1150.06 60.7018 1141.9 61.6723 1137.9 62.9653C1132.63 64.665 1130.52 63.5094 1130.52 69.3532" stroke="#BCC7D1" stroke-width="6" stroke-linecap="round"/>
<path d="M1173.11 57.9969C1172.71 59.7344 1167.83 67.4781 1171.14 68.801C1175.02 70.3546 1178.01 73.6116 1182.33 73.6116C1183.71 73.6116 1185.57 73.9532 1186.91 73.5722C1187.97 73.268 1187.31 67.0052 1187.18 66.1986C1186.24 60.0869 1178.16 60.9223 1174.53 57.2871" stroke="#BCC7D1" stroke-width="6" stroke-linecap="round"/>
<path d="M1203.63 67.224C1203.63 71.4403 1200.04 76.357 1201.66 80.5517C1202.48 82.6893 1208.58 82.923 1209.7 81.1037C1211.29 78.5295 1213.54 77.5741 1213.56 74.4004C1213.58 72.5482 1214.76 64.5115 1211.59 64.3849C1208.19 64.2486 1204.84 64.427 1201.5 65.0947" stroke="#BCC7D1" stroke-width="6" stroke-linecap="round"/>
<path d="M1242.66 65.0945C1239.96 68.0693 1236.61 70.227 1234.27 73.5328C1232.8 75.5984 1231.35 79.6966 1228.07 78.4222C1222.88 76.4036 1223.62 60.112 1223.54 56.3408C1223.43 51.4776 1223.24 48.4587 1227.76 45.6944C1231.35 43.5002 1238.73 48.5748 1239.75 51.8851C1240.71 55.0194 1244.48 59.8321 1241.24 62.2554" stroke="#BCC7D1" stroke-width="6" stroke-linecap="round"/>
<path d="M1158.67 1071.5C1161.5 1068.77 1164.79 1066.64 1167.62 1063.98C1168.18 1063.46 1168.72 1062.66 1169.05 1061.97C1170.51 1058.91 1172.59 1055.76 1173.56 1052.53C1174.89 1048.07 1177.31 1041.3 1182.67 1040.24C1192.67 1038.26 1198.99 1047.02 1197.08 1055.92C1193.52 1072.58 1189.47 1089.12 1183.78 1105.2C1181.74 1110.98 1178.74 1116.28 1176.68 1122C1175.1 1126.41 1174.91 1130.18 1174.88 1134.83C1174.85 1140.61 1174.1 1147.54 1172.66 1153.11C1170.47 1161.56 1164.45 1168.33 1162.48 1176.93C1161.65 1180.58 1156.59 1178.96 1154.27 1178.38C1150.61 1177.48 1144.18 1175.96 1141.47 1173.03C1138.78 1170.13 1137.54 1165.43 1136.31 1161.74C1135.29 1158.69 1134.51 1155.9 1132.73 1153.13C1129.98 1148.85 1134.09 1139.65 1135.35 1135.51C1137.17 1129.59 1138.94 1123.73 1140.31 1117.68C1142.12 1109.65 1143.1 1101.66 1144.44 1093.55C1146.03 1083.97 1149.74 1076.65 1156.63 1069.97C1158.73 1067.93 1160.97 1067.21 1163.91 1067.21" stroke="#BCC7D1" stroke-width="6" stroke-linecap="round"/>
<path d="M852.847 594.9C847.387 594.9 842.755 593.894 838.394 597.286C831.675 602.512 821.908 603.895 813.664 604.38C809.157 604.646 804.588 604.447 800.072 604.447C792.936 604.447 787.526 608.73 780.58 610.414C774.528 611.881 771.921 616.757 766.392 618.767C761.091 620.695 757.771 624.935 753.795 628.381C749.687 631.942 743.126 636.224 741.861 641.442C740.019 649.04 734.775 655.956 731.386 662.923C729.974 665.825 729.641 669.372 727.54 671.94C723.799 676.513 718.064 678.387 714.546 683.078C707.352 692.67 700.553 702.558 693.065 711.919C684.34 722.825 680.998 734.158 680.998 747.919C680.998 752.251 680.998 756.582 680.998 760.914C680.998 770.758 685.024 779.593 685.838 789.357C686.516 797.497 688.158 805.21 688.158 813.556C688.158 825.464 688.977 832.388 693.595 843.391C695.568 848.09 697.643 855.141 698.833 860.098C700.242 865.969 711.647 875.687 717.595 876.408C725.581 877.376 734.221 876.541 742.259 876.541C753.597 876.541 749.948 902.526 752.867 909.425C755.015 914.502 777.677 905.949 780.58 904.652C786.93 901.815 792.985 900.93 799.741 900.342C814.427 899.065 824.356 886.811 838.261 883.966C844.147 882.762 849.755 884.715 853.311 889.734C855.537 892.876 856.099 897.122 858.947 899.812C861.535 902.256 864.663 904.171 867.035 906.84C868.851 908.883 872.243 909.727 874.328 911.812C877.166 914.651 876.725 918.383 876.98 922.288C877.543 930.922 877.797 939.499 877.908 948.145C878.067 960.505 877.462 975.596 882.019 987.195C885.892 997.053 891.567 997.21 901.975 998.4C913.831 999.755 913.71 1020.49 913.71 1028.83C913.71 1044.59 913.208 1058.78 910.859 1074.18C907.122 1098.68 902.97 1123.83 902.97 1148.63C902.97 1152.2 902.401 1156.29 904.428 1159.44C907.72 1164.56 910.746 1167.41 911.323 1173.76C911.779 1178.77 912.674 1184.03 915.832 1188.15C920.402 1194.11 929.707 1196.86 932.937 1203.66C935.02 1208.05 933.761 1213.83 933.998 1218.51C934.358 1225.62 938.429 1231.88 938.771 1239.07C939.113 1246.25 933.897 1275.4 943.147 1276.73C948.68 1277.52 954.812 1275.11 960.319 1274.67C967.524 1274.09 974.1 1275.76 981.137 1276.86C985.236 1277.5 990.824 1276.42 994.132 1279.38C995.442 1280.55 996.676 1284.52 998.706 1282.03C1005.2 1274.06 1008.9 1262.08 1013.56 1252.99C1020.34 1239.75 1027.04 1226.77 1031.86 1212.68C1034.02 1206.36 1038.79 1197.23 1044.06 1192.79C1049.18 1188.46 1055.31 1185.64 1060.1 1180.86C1067.09 1173.86 1072.79 1165.6 1077.8 1157.12C1080.61 1152.38 1086.75 1144.45 1086.75 1138.96C1086.75 1128.34 1091.33 1121.08 1093.12 1110.58C1093.77 1106.76 1093.39 1102.67 1094.31 1098.91C1095.79 1092.85 1100.31 1086.8 1103.46 1081.67C1110.05 1070.95 1116.51 1060.04 1124.68 1050.51C1129.93 1044.38 1135.46 1034.62 1138.47 1026.97C1141.5 1019.26 1131.68 1011.64 1129.85 1004.76C1127.49 995.939 1129.57 982.992 1129.71 974.134C1129.93 960.816 1140.6 952.502 1147.35 942.31C1154.33 931.775 1165.55 919.9 1168.43 907.304C1170.08 900.11 1169.76 891.627 1173.87 885.226C1176.83 880.629 1180.38 875.823 1183.82 871.568C1188.47 865.795 1196.41 864.077 1201.58 858.905C1209.64 850.848 1192.44 847.943 1188.06 847.899C1176.59 847.786 1163.84 849.323 1152.52 847.303C1147.2 846.352 1138.48 843.598 1134.22 840.209C1124.86 832.76 1114.45 825.184 1105.71 817.136C1090.64 803.26 1087.95 783.842 1087.95 764.428C1087.95 756.662 1086.05 751.853 1081.71 745.267C1078.76 740.788 1078.44 735.647 1076.67 730.681C1073.81 722.635 1070.73 715.68 1069.78 707.079C1068.46 695.123 1066.46 683.344 1066.46 671.277C1066.46 667.368 1065.2 658.323 1068.06 667.962C1070.63 676.646 1073.53 685.262 1076.01 693.951" stroke="#BCC7D1" stroke-width="6" stroke-linecap="round"/>
<path d="M1072.43 685.598C1072.97 690.99 1076.17 695.86 1079.19 700.184C1085.36 708.994 1090.74 718.316 1096.76 727.234C1101.72 734.581 1106.85 742.686 1110.89 750.571C1113.57 755.813 1115.37 761.294 1120.37 764.627C1128.62 770.131 1134.83 778.04 1139.2 786.771C1141.79 791.969 1142.18 797.423 1144.57 802.55C1145.37 804.291 1148.39 812.282 1150.53 813.026C1156.68 815.152 1166.12 813.291 1172.61 813.291C1178.41 813.291 1183.52 812.494 1189.05 810.771C1197.76 808.063 1205.95 804.664 1212.99 798.705C1221.31 791.656 1226.12 781.571 1234.2 774.174C1243.22 765.923 1249.53 755.667 1258.14 747.057C1262.09 743.107 1263.23 741.655 1262.25 736.251C1260.58 727.072 1250.72 727.18 1245.21 721.665C1239.14 715.594 1234.83 707.079 1225.78 707.079C1216.84 707.079 1207.08 709.467 1200.12 715.432C1193.49 721.123 1189.98 704.126 1187.66 700.714C1185.25 697.171 1186.59 694.244 1185.27 690.371C1183.95 686.465 1180.98 681.815 1178.91 678.172C1173.64 668.901 1185.66 670.477 1191.24 673.664C1197.18 677.055 1202.92 677.698 1208.08 682.017C1210.21 683.801 1216.49 687.259 1216.83 690.371C1217.2 693.702 1222.02 693.797 1224.92 694.88C1241.15 700.935 1260.27 695.4 1275.57 704.692C1278.54 706.49 1281.2 706.061 1283.66 708.935C1287.25 713.126 1291.24 716.502 1295.46 720.073C1302.37 725.918 1304.17 726.173 1313.23 726.173C1318.64 726.173 1327.9 722.369 1331.93 727.499C1334.84 731.2 1337.15 737.099 1338.29 741.555C1339.45 746.052 1338.45 751.653 1341.87 755.08C1347.81 761.018 1356.06 762.888 1362.96 767.279C1373.83 774.197 1375.08 786.056 1375.49 798.705C1375.79 808.053 1375.62 817.465 1375.55 826.816C1375.51 832.944 1373.81 839.157 1374.63 845.247C1376.1 856.33 1384.71 856.535 1392.2 862.353C1395.86 865.204 1396.85 868.222 1401.54 869.115C1407.79 870.305 1411.64 865.875 1414.94 861.027C1423.32 848.695 1417.69 836.97 1421.63 823.833C1426.59 807.291 1434.83 794.942 1445.7 781.6C1450.46 775.757 1459.97 772.535 1466.72 769.798C1472.11 767.609 1476.85 764.137 1481.77 761.047C1485 759.014 1488.52 754.703 1492.24 753.886C1498.73 752.463 1501.29 757.01 1506.83 758.395" stroke="#BCC7D1" stroke-width="6" stroke-linecap="round"/>
<path d="M1429.55 868.608C1429.2 870.023 1428.54 871.336 1428.13 872.737C1427.46 875.007 1427.46 876.689 1428 878.925C1429.01 883.132 1428.3 887.501 1429.16 891.699C1429.4 892.877 1429.81 893.564 1431.1 893.478C1433.22 893.336 1436.2 892.693 1437.87 891.333C1439.95 889.647 1441.15 886.94 1442.72 884.821C1444.14 882.903 1446.03 881.106 1447.08 878.935C1447.43 878.21 1447.61 877.277 1447.66 876.478C1447.71 875.699 1447.39 875.394 1446.75 874.947C1445.45 874.028 1444.13 873.277 1442.95 872.176C1440.52 869.9 1438.6 867.106 1436.34 864.663C1435.48 863.726 1435.11 863.454 1434.9 862.291C1434.74 861.441 1434.58 860.439 1434.21 859.65C1433.58 858.325 1432.99 862.326 1432.59 863.736C1431.86 866.316 1431.2 869.094 1429.83 871.433C1429.64 871.763 1429.51 871.985 1429.16 872.101" stroke="#BCC7D1" stroke-width="6" stroke-linecap="round"/>
<path d="M1507.16 756.56C1511.91 758.384 1517.99 765.16 1519.48 769.619C1521.45 775.553 1523.76 780.935 1524.61 787.248C1524.73 788.177 1524.15 791.748 1525.63 791.818C1533.78 792.206 1541.74 791.27 1549.79 793.031C1561.14 795.514 1559.21 811.915 1559.21 821.06C1559.21 828.94 1559.11 836.826 1559.21 844.705C1559.31 852.84 1562.24 860.715 1562.57 868.864C1562.79 874.397 1568.21 876.647 1570.96 881.363C1573.32 885.397 1575.14 889.498 1577.26 893.629C1578.12 895.311 1579 898.823 1580.29 900.111C1586.6 906.416 1588.68 914.331 1593.58 921.378C1596.07 924.96 1595.73 924.734 1599.51 926.322C1604.57 928.452 1609.14 930.795 1614.62 932.198C1615.34 932.384 1618.38 933.757 1617.6 931.871C1612.74 920.121 1604.29 910.094 1599.41 898.199C1596.23 890.438 1594.43 881.655 1590.41 874.274C1586.57 867.202 1579.02 862.501 1575.72 855.246C1571.83 846.697 1572.55 840.39 1580.76 835.938C1593.71 828.908 1606.41 841.11 1616.48 848.623C1621.92 852.679 1621.27 858.973 1625.02 863.547C1630.6 870.373 1641.23 854.492 1643.86 850.815C1648.37 844.505 1648.75 835.059 1649.69 827.45C1650.27 822.765 1650.45 817.032 1649.69 812.385C1648.43 804.669 1641.22 799.779 1635.32 795.643C1622.03 786.308 1622.07 774.471 1622.17 759.358C1622.2 754.878 1622.48 750.84 1626.74 748.352C1635.95 742.984 1640.1 750.018 1643.44 757.773C1645.54 762.659 1646.18 767.767 1649.32 772.044C1650.89 774.19 1649.87 780.522 1649.87 782.677C1649.87 786.402 1649.14 791.266 1649.97 794.99C1650.79 798.705 1661.93 792.816 1663.21 791.585C1666.03 788.887 1670.02 784.221 1670.02 780.066C1670.02 777.574 1670.23 774.99 1670.02 772.51C1669.83 770.15 1662.37 766.111 1660.32 765.328C1657.95 764.422 1655.31 765.216 1657.43 761.504C1658.71 759.258 1664.3 757.202 1666.66 756.56C1675.02 754.291 1682.13 752.948 1689.89 748.865C1696.02 745.636 1701.5 742.281 1704.49 735.853C1708.32 727.609 1711.63 717.155 1718.25 710.715C1723.53 705.578 1730.69 700.848 1732.14 692.853C1733.67 684.441 1728.42 680.125 1724.31 673.638C1722.23 670.358 1720.97 666.652 1718.71 663.471C1716.37 660.17 1713.49 657.431 1711.34 653.957C1710.32 652.298 1704.87 645.407 1705.98 643.277C1712.43 630.874 1723.59 622.827 1732.7 612.636C1741.28 603.043 1733.35 588.325 1729.95 578.124C1726.9 568.965 1720.23 561.54 1717.22 552.38C1715.94 548.506 1715.35 542.745 1717.22 538.948C1718.77 535.788 1722.32 534.568 1725.33 537.083C1736.76 546.624 1739.08 566.507 1743.9 579.43" stroke="#BCC7D1" stroke-width="6" stroke-linecap="round"/>
<path d="M1852.19 423.286C1844.43 435.35 1846.4 447.567 1847.81 461.063C1848.86 471.192 1848.93 481.4 1849.48 491.564C1849.93 499.752 1849.47 505.605 1847.15 513.39C1845.65 518.431 1844.87 524.072 1841.79 528.454C1840.62 530.111 1840.57 531.074 1840.06 532.978C1839.13 536.486 1837.92 539.968 1837.92 543.612C1837.92 548.958 1838.76 554.159 1838.76 559.468C1838.76 564.37 1837.17 568.221 1835.35 572.807C1833.3 577.994 1831.93 583.734 1829.52 588.757C1823.58 601.133 1817.25 612.222 1805.83 620.377C1805.32 620.741 1798.99 622.692 1801.73 623.922C1808.43 626.93 1819.34 626.799 1824.67 632.13C1826.2 633.654 1824.21 636.589 1825.51 638.006C1827.43 640.101 1833.11 635.029 1834.37 633.809C1836.88 631.392 1839.41 629.027 1841.74 626.44C1843.99 623.944 1838.28 619.449 1842.82 615.527C1852.14 607.464 1866.05 611.616 1873.18 601.163C1878.88 592.795 1883.62 583.876 1885.63 573.833C1886.47 569.642 1886.28 565.56 1887.87 561.427C1890.37 554.908 1893.88 548.856 1897.85 543.099C1901.25 538.159 1904.38 536.173 1905.45 530.04C1906.42 524.481 1896.34 522.062 1891.88 522.858C1886.09 523.891 1884.98 530.723 1882.88 535.03C1882.45 535.899 1880.68 539.373 1879.05 538.948C1877.58 538.564 1875.82 535.898 1875.32 535.217C1871.66 530.223 1867.88 524.886 1864.97 519.407C1859.92 509.907 1863.41 495.079 1866.79 485.314C1868.77 479.565 1869.62 470.986 1865.95 465.68C1860.57 457.906 1855.05 449.234 1853.96 439.423C1853.72 437.241 1855.06 430.839 1852.98 429.629C1851.29 428.639 1849.67 429.972 1849.67 427.484" stroke="#BCC7D1" stroke-width="6" stroke-linecap="round"/>
<path d="M1792.59 639.872C1791.78 645.521 1787.04 649.867 1786.71 655.636C1786.54 658.527 1786.05 667.637 1789.74 668.415C1793.87 669.283 1794.15 668.542 1796.04 665.476C1798.14 662.054 1801.42 661.038 1805.18 660.859C1806.9 660.777 1809.9 658.409 1811.71 657.688C1815.01 656.368 1807.54 649.516 1806.06 648.687C1801.84 646.313 1795.1 643.848 1795.1 638.193" stroke="#BCC7D1" stroke-width="6" stroke-linecap="round"/>
<path d="M1738.02 723.82C1733.96 724.722 1734.5 762.95 1743.52 749.005C1745.9 745.333 1745.67 741.089 1746.88 737.019C1747.63 734.487 1748.93 733.227 1748.93 730.536C1748.93 726.838 1746.01 721.302 1742.22 721.302" stroke="#BCC7D1" stroke-width="6" stroke-linecap="round"/>
<path d="M1753.97 804.41C1753.97 797.081 1754.18 778.386 1744.27 778.386C1742.07 778.386 1739.99 777.82 1739.75 780.578C1739.28 785.899 1739.7 791.427 1739.7 796.762C1739.7 801.79 1739.41 805.545 1736.71 809.913C1733.5 815.122 1728.81 822.054 1727.99 828.195C1727.25 833.767 1724.02 842.056 1731.58 842.187C1736.66 842.274 1737.27 839.386 1740.49 835.891C1742.17 834.074 1741.73 832.69 1744.32 831.693C1746.05 831.026 1749.3 830.747 1750.61 832.3C1753.04 835.167 1756.35 836.439 1759.66 833.792C1763.77 830.505 1763.03 820.58 1762.32 815.93C1762.09 814.445 1759.09 812.438 1757.79 811.965C1755.75 811.224 1756.49 807.045 1756.49 805.25" stroke="#BCC7D1" stroke-width="6" stroke-linecap="round"/>
<path d="M1774.96 874.927C1774.83 875.904 1773.43 876.015 1772.9 877.165C1772.26 878.594 1770.81 882.119 1769.08 882.482C1762.87 883.789 1759.13 891.311 1758.21 896.8C1757.05 903.798 1764.17 902.629 1769.08 902.629C1774.19 902.629 1775.31 903.729 1778.78 907.2C1784.22 912.638 1787.53 898.032 1785.31 894.235C1783.55 891.211 1780.65 887.206 1777.9 885C1776.72 884.063 1780.83 884.254 1782.33 884.208C1787.48 884.049 1793.06 884.618 1798 882.762C1801.83 881.319 1803 878.473 1799.58 875.953C1796.06 873.358 1793.29 873.703 1789.27 873.201C1784.83 872.645 1779.18 870.298 1774.96 872.408" stroke="#BCC7D1" stroke-width="6" stroke-linecap="round"/>
<path d="M1655.75 952.998C1656.08 956.59 1656.73 963.864 1659.3 966.616C1662.65 970.218 1667.85 971.733 1670.49 976.13C1672.55 979.572 1676.34 985.703 1680.28 987.23C1684.94 989.032 1691.7 985.461 1695.67 983.406C1698.63 981.875 1702.53 979.043 1704.25 976.13C1708.93 968.224 1713.36 959.89 1717.5 951.692C1720.45 945.849 1722.18 940.288 1726.08 934.996C1727.98 932.412 1730.06 930.739 1732.33 928.467C1739.15 921.649 1733.39 902.717 1725.24 897.965C1720.65 895.287 1712.89 893.51 1707.61 893.395C1702.63 893.287 1698.85 899.676 1694.93 902.629C1682.31 912.125 1669.42 920.65 1657.71 931.265C1654.25 934.402 1649.49 938.38 1647.54 942.924C1645.58 947.509 1647.36 955.541 1647.36 960.553" stroke="#BCC7D1" stroke-width="6" stroke-linecap="round"/>
<path d="M1628.05 998.33C1627.9 995.302 1627.6 991.605 1626.7 988.676C1625.89 986.092 1623.42 984.043 1622.17 981.54C1620.64 978.478 1619.36 975.305 1617.88 972.213C1614.06 964.225 1605.88 959.481 1600.07 953.045C1591.68 943.763 1581.55 936.882 1571.8 929.026C1563.96 922.712 1561.7 911.487 1552.68 906.547C1549.86 905.004 1550.99 910.785 1550.58 912.097C1548.61 918.406 1543.45 923.575 1543.26 930.519C1543.13 935.49 1542.29 943.314 1544.57 947.868C1545.46 949.664 1549.46 950.72 1551 951.692C1557.1 955.528 1562.74 960.293 1567.98 965.217C1573.89 970.775 1579.82 976.511 1587.1 980.234C1592.22 982.854 1595.33 992.626 1596.61 997.77C1597.41 1000.94 1599.13 1008.4 1603.28 1008.4C1608.04 1008.4 1612.8 1008.4 1617.55 1008.4C1620.92 1008.4 1625.89 1012.39 1627.21 1015.49C1634.09 1031.76 1656.81 1027.71 1671.28 1027.71C1673.16 1027.71 1677.2 1028.52 1678.88 1027.53C1679.82 1026.97 1679.44 1021.48 1679.44 1021.46C1679.61 1015.92 1681.47 1005.63 1677.95 1000.71C1674.05 995.242 1657.67 997.001 1653.14 998.33C1646.67 1000.23 1626.46 1008.09 1624.69 997.49" stroke="#BCC7D1" stroke-width="6" stroke-linecap="round"/>
<path d="M1727.11 1020.16C1719 1020.16 1710.45 1019.25 1702.39 1020.2C1699.75 1020.51 1709.01 1025.78 1710.27 1026.41C1712.05 1027.3 1719.12 1034.34 1721.04 1031.07C1722.29 1028.96 1723.68 1025.79 1724.59 1023.51" stroke="#BCC7D1" stroke-width="6" stroke-linecap="round"/>
<path d="M1743.06 979.022C1743.53 981.133 1747.82 982.573 1749.31 984.059C1750.97 985.726 1754.13 991.733 1757.37 989.702C1763.1 986.123 1764.88 974.195 1764.88 968.342C1764.88 965.823 1764.05 961.149 1765.07 958.688C1766.33 955.639 1770.57 953.611 1773 951.412C1778.51 946.422 1780.29 937.634 1777.06 930.985C1774.14 925.009 1769.49 930.919 1765.16 933.084C1762.05 934.641 1760.52 938.441 1758.35 941.245C1755.99 944.308 1749.31 943.309 1745.85 942.551C1744.14 942.174 1733.29 937.219 1731.72 938.96C1730.02 940.856 1729.34 945.033 1728.51 947.402C1727.77 949.478 1726.43 950.718 1725.57 952.578C1724.81 954.225 1724.9 956.823 1724.4 958.595C1723.64 961.294 1721.84 963.788 1721.23 966.43C1719.73 972.932 1714.24 977.122 1711.53 982.846C1710.24 985.561 1709.91 996.153 1711.3 998.703C1712.63 1001.16 1717.96 1002.93 1720.25 1001.45C1730.11 995.095 1737.59 985.115 1748.09 979.861" stroke="#BCC7D1" stroke-width="6" stroke-linecap="round"/>
<path d="M1795.1 939.566C1795.38 942.333 1798.05 949.64 1800.93 949.64C1805.24 949.64 1811.05 944.624 1811.05 939.986C1811.05 935.192 1801.98 936.208 1798.46 936.208" stroke="#BCC7D1" stroke-width="6" stroke-linecap="round"/>
<path d="M1748.09 1023.51C1744.77 1023.51 1737.25 1021.69 1735.5 1025.19C1733.74 1028.73 1736.12 1031.91 1739.7 1031.91C1744.23 1031.91 1746.93 1031.68 1750.99 1030.23C1752.63 1029.64 1756.88 1028.99 1757.98 1027.53C1759.02 1026.14 1758.17 1021.87 1758.17 1020.16" stroke="#BCC7D1" stroke-width="6" stroke-linecap="round"/>
<path d="M1798.46 991.614C1802.74 991.614 1810.59 992.96 1812.31 987.79C1813.88 983.085 1812.17 979.861 1807.46 979.861C1800.84 979.861 1797.01 981.931 1791.14 984.712C1789.48 985.499 1788.15 985.598 1786.38 985.784C1784.55 985.978 1784.37 988.118 1783.35 989.375C1781.69 991.434 1777.68 993.293 1783.07 993.293C1785.68 993.293 1788.3 993.293 1790.91 993.293" stroke="#BCC7D1" stroke-width="6" stroke-linecap="round"/>
<path d="M1892.62 1323.92C1888.22 1329.27 1884.73 1334.69 1877.21 1335.11C1872.64 1335.36 1876.3 1326.65 1873.01 1326.65C1871.49 1326.65 1871.57 1329.93 1871.43 1330.8C1870.21 1337.92 1869.7 1345.1 1868.72 1352.25C1868.29 1355.38 1869.66 1358.62 1870.61 1361.55C1871.18 1363.26 1871.63 1365.39 1873.74 1365.57C1877.87 1365.92 1881 1364.58 1883.92 1361.66C1887 1358.58 1889.06 1355.93 1893.23 1354.48C1896.34 1353.4 1897.91 1351.83 1898.64 1348.55C1899.65 1344.07 1899.48 1339.36 1900.23 1334.84C1900.59 1332.65 1901.6 1330.65 1900.4 1328.65C1899.54 1327.22 1898.42 1325.16 1896.87 1324.39C1895.3 1323.61 1894.35 1323.61 1892.62 1323.61" stroke="#BCC7D1" stroke-width="6" stroke-linecap="round"/>
<path d="M1919.62 1028.78C1916.73 1027.96 1913.89 1027.8 1910.93 1028.22C1909.86 1028.37 1907.76 1028.02 1906.91 1028.88C1906.47 1029.32 1906.47 1030.83 1906.25 1031.42C1905.75 1032.7 1901.58 1032.7 1900.5 1032.9C1896.75 1033.59 1893.16 1034.32 1889.51 1032.7C1885.84 1031.07 1883.09 1027.81 1879.23 1026.59C1873.41 1024.75 1867.96 1021.78 1864.48 1016.65C1860.44 1010.68 1866.98 1002.1 1866.98 995.689C1866.98 993.584 1863.21 990.675 1861.79 989.636C1852.62 982.956 1841.1 981.026 1830.45 977.911C1826.67 976.804 1823.56 976.13 1819.64 976.13C1818.38 976.13 1817.94 974.102 1817.53 973.18C1816.71 971.309 1815.77 970.831 1816.64 968.805C1817.6 966.576 1817.69 966.54 1819.87 965.55C1826.85 962.384 1833.07 955.283 1841.13 955.071C1845.06 954.968 1846.17 956.811 1848.56 959.853C1849.54 961.093 1849.63 962.5 1850.39 963.769C1851.53 965.658 1854 966.626 1855.23 968.704C1858.57 974.353 1862.86 974.562 1869.21 974.274C1872 974.147 1873.81 972.698 1876.36 972.086C1878.66 971.535 1881.52 971.552 1883.89 971.552C1888.67 971.552 1894.88 973.471 1898.97 975.901C1904.91 979.425 1911.75 981.095 1917.33 985.287" stroke="#BCC7D1" stroke-width="6" stroke-linecap="round"/>
<path d="M204.749 754.217C201.884 751.967 198.835 750.022 196.018 747.657C191.585 743.937 186.81 738.356 181.281 736.177C178.372 735.031 174.669 735.454 171.58 735.508C169.747 735.539 168.623 737.728 166.729 736.917C163.347 735.467 172.623 730.215 172.758 730.126C176.789 727.438 181.108 724.903 186.131 725.067C189.233 725.169 191.786 726.936 194.447 728.255C199.254 730.636 205.312 731.589 209.461 735.092C212.21 737.413 214.377 740.255 217.869 741.49C225.367 744.143 232.509 746.391 240.597 745.532C247.995 744.747 255.177 744.146 262.633 744.239C267.786 744.303 272.977 745.234 277.023 748.674C279.89 751.11 280.902 754.319 282.729 757.451C284.02 759.664 286.074 761.144 287.441 763.272C290.251 767.647 292.264 771.229 288.665 775.237C286.58 777.559 283.963 779.892 280.719 780.226C274.002 780.918 265.546 778.28 259.63 775.191C250.275 770.305 244.996 760.103 233.599 758.837C232.788 758.747 231.781 758.678 230.965 758.814C229.625 759.037 230.527 772.424 230.527 773.758C230.527 777.378 232.012 784.205 226.9 784.638C222.667 784.997 219.47 780.64 216.621 778.147C214.148 775.983 212.267 774.274 210.708 771.218C209.138 768.138 207.824 764.924 206.412 761.77C205.965 760.774 205.181 759.499 205.165 758.329C205.128 755.778 207.218 755.304 208.56 753.663C208.604 753.609 203.929 753.386 203.086 753.386" stroke="#BCC7D1" stroke-width="6" stroke-linecap="round"/>
<path d="M1194.14 530.287C1188.73 528.232 1188.81 521.886 1193.15 518.551C1195.69 516.6 1198.7 515.845 1201.73 515.01C1203.05 514.645 1204.91 514.739 1204.56 512.947C1203.9 509.506 1201.45 506.129 1199.65 503.214C1196.34 497.884 1192.92 494.112 1186.82 492.207C1182.4 490.828 1177.1 490.282 1173.18 493.259C1171.19 494.769 1169.74 496.938 1168.18 498.844C1166.17 501.301 1163.99 503.577 1161.81 505.885C1158.47 509.424 1154.99 513.063 1152.44 517.236C1150.53 520.366 1150.49 524.497 1150.9 528.061C1151.61 534.161 1155.8 540.742 1158.93 545.867C1161.32 549.769 1164.06 553.38 1166.3 557.38C1167.7 559.886 1169.92 560.993 1172.21 562.58C1175.76 565.042 1179.08 567.75 1181.76 571.159C1184.17 574.229 1186.75 577.343 1187.95 581.114C1188.75 583.64 1189.47 586.175 1190.34 588.681C1191.67 592.529 1194 593.4 1198.07 592.121C1201.23 591.127 1204.64 589.987 1207.41 588.135C1211.13 585.658 1211.42 580.866 1211.74 576.784C1212.25 570.448 1211.98 565.469 1208.35 560.111C1207.4 558.717 1206.12 556.938 1204.26 556.874C1203.83 556.859 1202.82 557.086 1202.68 556.469C1202.27 554.693 1204.45 552.432 1205.69 551.512C1208.18 549.683 1211.1 549.854 1213.99 549.549C1216.33 549.303 1213.83 545.06 1213.28 544.268C1210.8 540.684 1207.33 537.422 1203.37 535.548C1201.52 534.672 1197.08 533.77 1195.15 535.183C1194.58 535.606 1193.42 537.184 1192.97 535.952C1192.29 534.089 1191.97 532.137 1191.23 530.287" stroke="#BCC7D1" stroke-width="6" stroke-linecap="round"/>
<path d="M1250.23 504.064C1249.63 510.47 1248.81 516.841 1248.81 523.286C1248.81 526.321 1248.28 530.381 1250.8 532.654C1253.01 534.654 1255.02 531.791 1256.74 530.368C1261.51 526.422 1265.63 523.486 1268.03 517.54C1269.55 513.792 1269.28 509.877 1267.49 506.249C1266.54 504.322 1264.94 503.127 1263.28 501.838C1262.07 500.899 1260.43 499.145 1258.89 498.742C1257.99 498.508 1254.38 502.09 1253.63 502.526C1251.65 503.674 1248.11 504.315 1246.95 506.249" stroke="#BCC7D1" stroke-width="6" stroke-linecap="round"/>
<path d="M1067.4 517.175C1065.12 519.455 1062.97 520.431 1060.03 521.869C1059.62 522.07 1056.93 523.409 1056.55 522.395C1055.7 520.136 1056.49 516.22 1056.67 513.877C1057.02 509.36 1057.57 504.629 1057.12 500.098C1056.81 496.948 1054.02 495.549 1051.25 494.716C1047.5 493.586 1045.9 495.621 1043.12 497.832C1038.38 501.599 1035.12 506.588 1031.22 511.146C1028.26 514.599 1023.86 516.523 1021.22 520.17C1019.07 523.148 1018.86 526.667 1017.56 529.983C1015.96 534.072 1014.2 538.074 1011.84 541.779C1010.63 543.677 1014.09 545.332 1015.21 546.555C1017.16 548.681 1018.64 551.178 1020.58 553.313C1023.27 556.29 1026.56 557.782 1030.21 559.261C1035.94 561.589 1040.94 565.019 1046.94 566.768C1048.46 567.21 1050.62 568.215 1051.78 566.505C1053.89 563.398 1054.59 558.889 1055.7 555.376C1057.33 550.231 1058.92 545.706 1062.24 541.456C1066.6 535.864 1072.68 538.613 1078.73 540.282C1083.89 541.705 1089.16 542.799 1094.39 543.904C1099.43 544.969 1104.44 544.179 1109.52 543.924C1113.14 543.743 1116.75 543.762 1120.37 543.762C1121.91 543.762 1120.02 534.391 1119.88 533.726C1119.4 531.396 1118.85 528.615 1117.5 526.584C1115.87 524.145 1113.06 522.18 1110.88 520.271C1107.25 517.104 1103.52 514.116 1098.6 513.614C1096.6 513.41 1095.43 513.459 1093.98 511.813C1091.73 509.244 1090.52 505.956 1088.44 503.295C1087.52 502.114 1087.51 502.407 1087.41 500.806C1087.27 498.51 1084.32 500.416 1083.3 501.15C1079.71 503.74 1076.51 507.375 1074.4 511.247C1073.84 512.279 1073.29 514.844 1072.17 515.435C1069.66 516.761 1067.13 516.879 1064.48 517.539" stroke="#BCC7D1" stroke-width="6" stroke-linecap="round"/>
<path d="M850.655 594.473C860.739 591.112 871.558 591.675 882.06 591.675C887.841 591.675 890.247 629.676 895.741 630.5C902.828 631.563 947.626 652.93 953 649.5C959.628 645.27 1005.93 651.861 1010.5 645C1017.05 635.176 1066.22 656.996 1058.5 649.5C1049.64 640.899 1090.58 611.342 1079 609.5C1065.32 591.429 1047.8 605.522 1040.5 603C999 537.83 1000.65 571.104 995.5 570.945C987.752 570.707 918.208 554.595 913.5 560C908.44 565.81 837.935 551.142 834.331 557.886C831.38 563.407 827.72 566.776 823.396 570.945C819.834 574.38 816.183 577.088 812.098 579.963C805.358 584.707 798.626 589.404 791.369 593.333C788.268 595.012 784.639 598.209 781.16 598.982C773.096 600.774 761.342 599.788 753.019 598.93C747.547 598.366 739.44 597.108 735.192 593.126C726.534 585.008 727.781 572.38 726.589 561.773C725.468 551.79 726.997 548.497 732.86 539.851C739.754 529.686 747.773 527.528 757.995 522.646C765.491 519.065 775.727 520.62 783.492 522.439C787.043 523.27 790.678 523.981 793.753 526.066C796.283 527.782 798 531.136 800.801 532.337C806.165 534.636 807.547 529.168 808.989 525.341C811.07 519.817 821.684 503.199 815.311 497.771C805.573 489.475 792.254 489.117 782.663 481.239C779.444 478.596 778.745 477.273 782.87 474.917C788.834 471.508 795.05 467.345 800.075 462.634C814.156 449.433 820.353 430.284 835.16 417.755C837.527 415.752 840.71 413.968 843.4 412.366C847.271 410.059 851.992 410.199 855.267 406.924C859.621 402.571 861.623 396.463 866.098 392.103C870.016 388.285 874.405 384.411 879.262 381.79C885.656 378.339 892.285 377.936 895.949 385.21C900.32 393.89 896.049 416.523 907.609 419.414C915.498 421.386 923.817 419.108 930.93 415.734C935.838 413.406 940.606 410.866 945.907 409.515C948.664 408.812 951.54 408.971 953.784 406.976C957.206 403.934 960.537 401.047 963.734 397.648C968.169 392.932 974.363 388.871 977.519 383.085C982.576 373.815 988.557 366.512 995.553 358.676C1000.9 352.684 967.192 350.363 963.786 350.022C961.667 349.81 969.245 324.956 970.419 321.778C973.029 314.716 977.552 306.847 981.457 300.427C986.413 292.28 985.333 286.716 974.824 285.761C967.427 285.088 966.612 294.944 964.874 300.427C961.995 309.505 960.017 318.052 958.448 327.271C956.948 336.083 957.607 347.231 949.068 352.924C946.978 354.317 945.989 357.373 943.834 359.039C937.935 363.597 932.704 370.351 927.665 375.882C920.389 383.867 911.838 372.919 906.676 367.435C899.761 360.088 885.263 360.929 876.567 364.273C873.039 365.63 869.823 366.335 865.995 365.932C861.99 365.51 856.899 357.504 854.283 354.686C850.914 351.058 843.828 347.699 842.83 342.507C841.385 334.998 847.393 323.666 851.588 317.839C855.488 312.422 864.131 308.269 870.244 306.231" stroke="#BCC7D1" stroke-width="6" stroke-linecap="round"/>
<path d="M740.488 399.5C738.55 399.799 736.106 401.182 734.86 402.678C732.299 405.751 730.282 409.834 728.018 413.183C724.885 417.819 724.161 424.267 725.059 429.728C725.511 432.478 725.469 436.968 727.509 439.068C729.458 441.074 732.503 444.676 735.684 443.265C739.693 441.487 742.794 436.058 745.874 432.979C749.265 429.588 752.933 425.982 753.928 421.092C754.191 419.799 753.537 419.591 753.2 418.496C752.645 416.693 753.151 414.001 753.151 412.164C753.151 409.599 752.692 406.567 753.394 404.061C753.789 402.652 754.239 402.013 753.248 400.81C751.241 398.373 746.421 398.73 743.545 398.287C741.626 397.992 739.949 397.89 738.741 399.5" stroke="#BCC7D1" stroke-width="6" stroke-linecap="round"/>
<path d="M793.762 449.281C793.762 442.057 798.519 436.815 801.089 430.31C802.105 427.737 802.944 425.097 804.995 423.105C807.672 420.504 811.628 419.669 814.893 418.083C816.863 417.126 817.936 417.269 819.429 415.415C821.238 413.17 822.049 409.309 822.049 406.463C822.049 402.833 820.311 398.896 818.992 395.57C816.795 390.03 815.2 384.625 811.132 380.093C802.81 370.821 790.741 366.313 778.406 366.313C775.63 366.313 775.018 367.558 773.772 370.195C772.875 372.093 772.165 374.064 771.128 375.896C770.654 376.732 769.794 377.545 769.794 378.564C769.794 383.348 771.068 388.421 772.365 392.999C773.403 396.661 775.645 398.299 778.721 400.374C783.454 403.566 780.56 414.731 778.915 418.665C777.523 421.997 775.774 424.792 775.058 428.442C774.384 431.878 774.536 435.351 774.063 438.777C773.301 444.306 771.603 445.718 766.3 446.2C763.046 446.496 766.223 454.464 763.777 456.996C762.596 458.219 760.924 459.414 759.993 460.853C759.134 462.181 759.194 464.981 758.925 466.554C758.44 469.395 769.01 467.316 769.939 467.185C776.084 466.319 779.034 464.944 781.511 459.082C782.137 457.6 782.591 455.931 783.476 454.57C784.098 453.615 785.203 453.187 785.805 452.241C786.483 451.176 786.378 450.189 787.261 449.208C787.862 448.54 788.607 446.661 789.59 446.661C790.744 446.661 791.771 447.311 792.889 447.535" stroke="#BCC7D1" stroke-width="6" stroke-linecap="round"/>
<path d="M866.8 305.467C872.722 304.928 878.76 298.649 883.153 295.217C887.699 291.665 890.792 288.466 892.481 282.837C893.875 278.19 893.674 276.039 896.972 272.127C912.019 254.281 928.974 238.312 945.341 221.743C951.034 215.98 955.26 209.081 961.464 203.778C970.339 196.191 984.327 195.972 994.976 199.344C1001.23 201.325 1005.57 206.88 1011.9 208.615C1014.19 209.24 1016.9 208.571 1018.93 209.997C1021.01 211.455 1022.19 213.335 1024.57 214.488C1031.67 217.92 1036.9 222.632 1043 227.559C1052.58 235.296 1063.32 239.758 1072.25 248.691C1083.67 260.114 1097.17 275.212 1114.51 274.373C1123.24 273.95 1131.59 269.464 1140.08 267.636C1149.47 265.615 1158.3 264.008 1167.89 264.008C1177.04 264.008 1184.9 263.825 1193.29 259.632C1198.78 256.885 1202.13 251.558 1205.15 246.446C1208.09 241.458 1213.29 234.921 1213.84 228.884C1214.26 224.236 1211.24 214.972 1206.99 213.221C1198.42 209.692 1188.31 206.853 1179.01 207.406C1169.27 207.984 1159.64 213.356 1149.81 212.127C1146.21 211.677 1146.69 205.05 1146.65 202.511C1146.55 196.695 1150.27 192.855 1153.67 188.346C1157.23 183.63 1161.9 180.539 1165.47 176.024C1171.15 168.846 1176.85 162.979 1183.5 156.734C1186.39 154.017 1190.64 152.071 1193.06 148.961C1196.84 144.089 1200.48 139.458 1206.07 136.408C1211.69 133.34 1222.54 130.769 1228.7 131.398C1238.84 132.436 1247.25 142.627 1257.09 142.627C1261.55 142.627 1265.89 138.883 1270.33 139.69C1273.17 140.206 1260.87 155.192 1259.1 156.619C1250.75 163.344 1238.14 159.638 1228.18 162.204C1222.7 163.618 1213.92 166.673 1209.81 170.784C1207.08 173.518 1191.75 182.535 1193.52 186.504C1197.15 194.675 1211.82 192.447 1217.47 199.172C1222.61 205.285 1222.25 213.703 1226.45 220.246C1230.19 226.059 1236.7 227.556 1240.85 233.432C1242.89 236.321 1244.05 237.243 1247.18 239.018C1254.67 243.259 1262.12 249.887 1270.1 252.952C1280.05 256.776 1276.24 231.629 1275.97 227.732C1275.27 217.511 1272.31 207.291 1269.35 197.502C1267.67 191.933 1262.96 184.053 1263.82 177.982C1264.27 174.881 1269.07 175.852 1271.25 175.909C1277.29 176.065 1280.57 178.419 1283.23 183.74C1285.13 187.55 1287.32 190.381 1289.56 193.932C1290.87 196.009 1292.73 195.763 1295.03 196.235C1299.36 197.12 1303.28 198.874 1307.24 200.784C1316.54 205.276 1330.56 209.046 1341.27 206.542C1345.79 205.485 1349.7 201.807 1352.33 198.135C1356.49 192.309 1360.8 188.289 1366.26 183.682C1372.13 178.726 1376.77 171.804 1383.42 167.617C1390.98 162.857 1404.41 165.544 1413.07 165.544C1420.54 165.544 1426.52 162.208 1432.02 157.252C1436.42 153.279 1439.1 146.563 1443.88 143.202C1449.69 139.112 1459.75 142.758 1465.88 143.778" stroke="#BCC7D1" stroke-width="6" stroke-linecap="round"/>
<path d="M1725.1 147.624C1725.1 148.68 1725.06 149.742 1725.2 150.791C1725.59 153.576 1726.3 155.615 1728.29 157.674C1729.4 158.819 1731.13 160.429 1732.82 160.67C1734.86 160.961 1737.06 159.63 1739.07 159.369C1740.87 159.136 1741.42 158.512 1742.71 157.297C1743.35 156.695 1743.78 156.743 1744.55 156.527C1746.27 156.044 1747.45 155.936 1748.47 157.554C1749.52 159.208 1750.42 160.833 1752 162.057C1753.14 162.943 1754.56 163.66 1755.95 164.077C1757.08 164.414 1758.45 164.313 1759.6 164.231C1762.25 164.044 1765.09 162.955 1767.58 162.108C1769.23 161.546 1770.73 160.661 1772.12 159.609C1772.59 159.248 1772.74 159.312 1773.02 159.865C1773.58 160.94 1773.85 161.803 1773.52 163.016C1773.18 164.271 1772.79 165.729 1772.04 166.808C1771.51 167.568 1770.86 168.112 1770.17 168.751C1769.07 169.788 1768.22 171.257 1766.96 172.107C1763.84 174.217 1759.99 175.658 1756.59 177.2C1751.44 179.528 1745.77 179.748 1740.22 179.948C1735.21 180.13 1729.25 180.371 1724.81 177.714C1722.78 176.499 1720.93 175.014 1718.97 173.699C1718.07 173.092 1717.08 172.644 1716.17 172.047C1715.12 171.355 1715.32 169.658 1715.46 168.58C1715.74 166.409 1716.36 164.066 1717.05 162.006C1718.22 158.528 1719.92 154.805 1722.23 151.913C1722.54 151.516 1724.95 148.862 1725.1 149.165" stroke="#BCC7D1" stroke-width="6" stroke-linecap="round"/>
<path d="M1807.08 170.583C1801.67 167.88 1796.9 164.186 1791.87 160.858C1790.42 159.897 1787.6 159.068 1786.21 160.644C1784.91 162.114 1785.49 165.548 1785.92 167.202C1787.05 171.496 1790.6 173.556 1794.03 175.942C1794.73 176.431 1795.4 176.862 1796.17 177.235C1797.19 177.727 1798.02 178.552 1799.06 178.989C1800.84 179.735 1803.95 180.128 1805.84 179.46C1807.23 178.971 1808.66 176.951 1808.93 175.497C1809.14 174.337 1809.37 173.735 1808.31 173.203" stroke="#BCC7D1" stroke-width="6" stroke-linecap="round"/>
<path d="M1456.25 88.1997C1452.45 86.8505 1448.47 84.3692 1445.85 81.2658C1443.35 78.3121 1442.53 75.5664 1441.99 71.7633C1441.73 69.9599 1441.44 67.767 1440.12 66.3731C1438.61 64.7752 1436.22 64.1468 1434.18 63.5514C1431.74 62.8387 1428.7 62.3489 1426.24 63.2984C1424.84 63.8368 1423.71 65.0463 1422.62 66.0061C1420.54 67.8278 1418.43 69.5682 1416.21 71.2192C1414.01 72.8649 1413.3 74.0984 1412.52 76.8119C1411.38 80.7749 1411.22 84.5194 1411.66 88.6299C1412.28 94.4607 1416.79 98.6387 1422.52 99.7646C1425.78 100.406 1428.8 101.441 1432.01 102.27C1433.75 102.721 1435.57 102.715 1437.33 103.067C1439.34 103.468 1441.18 104.341 1443.14 104.889C1445.31 105.496 1447.48 105.746 1449.47 106.876C1450.37 107.392 1451.18 107.626 1452.12 108.014C1454.11 108.835 1456.25 110.871 1457.41 112.671C1457.91 113.441 1457.8 114.334 1458.01 115.189C1458.31 116.429 1459.15 117.524 1459.94 118.491C1462.16 121.192 1465 123.333 1467.43 125.83C1468.94 127.374 1470.5 129.38 1472.6 130.17C1475.48 131.257 1479.02 129.608 1481.76 128.816C1484.3 128.082 1486.54 127.113 1488.79 125.704C1493.6 122.696 1497.08 117.794 1500.64 113.506C1502.11 111.723 1503.4 110.669 1503.71 108.255C1504.12 105.082 1503.34 101.831 1500.46 100.081C1498.67 98.9942 1496.61 98.3152 1494.64 97.6389C1492.87 97.0314 1490.86 96.2164 1488.94 96.6014C1487.27 96.9386 1485.72 97.9246 1484.21 98.6765C1481.93 99.8162 1479.72 100.667 1477.22 101.144C1475.72 101.429 1474.68 101.835 1473.31 102.321C1471.82 102.847 1469.46 103.537 1467.89 103.459C1465.5 103.341 1463.36 99.9493 1461.91 98.3981C1460.13 96.5038 1457.44 94.0038 1456.95 91.287C1456.72 90.062 1455.34 88.9694 1455.34 87.7442" stroke="#BCC7D1" stroke-width="6" stroke-linecap="round"/>
<path d="M143.29 220.161C143.29 228.308 144.871 237.773 142.497 245.605C141.819 247.844 141.655 250.528 140.371 252.525C139.08 254.532 135.638 251.856 134.244 251.263C123.266 246.592 111.302 246.65 100.511 241.929C99.0338 241.283 95.5932 241.204 93.9882 241.569C91.6115 242.109 89.3478 246.921 87.8615 248.704C85.5501 251.478 83.5354 255.344 82.0952 258.651C81.7731 259.391 81.9582 261.432 80.6536 260.958C78.2775 260.094 77.2328 257.148 76.0766 255.192C73.5745 250.957 70.3417 251.299 65.9855 251.299C61.6487 251.299 57.312 251.299 52.9752 251.299C49.3016 251.299 46.0494 250.104 42.3796 250.002C38.8725 249.904 35.744 247.225 33.9824 244.38C33.0553 242.882 31.7119 241.016 31.7119 239.19C31.7119 237.457 33.0132 234.326 31.9642 232.811C30.08 230.089 24.3076 231.098 21.4767 231.189C18.7646 231.277 16.3346 232.487 13.548 232.487C9.37506 232.487 7.88011 228.26 5.40309 225.783C3.32515 223.705 -3.30992 224.225 -5.87728 224.089C-9.70446 223.888 -13.2399 224.702 -16.9414 224.702" stroke="#BCC7D1" stroke-width="6" stroke-linecap="round"/>
<path d="M0.668644 207.093C5.76436 201.714 7.24587 194.144 11.828 188.356C14.0919 185.496 14.5127 185.394 18.1655 185.394C20.7211 185.394 24.7551 184.325 26.225 187.047C28.8137 191.841 27.9961 197.302 29.2215 202.409C30.7228 208.664 56.3895 203.119 55.8457 208.195C55.3437 212.88 43.58 214.22 40.2776 214.395C34.8249 214.684 24.0211 211.664 21.7131 218.011C21.2467 219.294 19.8946 221.617 20.7831 223.005C23.2708 226.892 30.8274 227.32 34.8701 227.793C40.1974 228.415 45.6326 228.172 50.9893 228.172C56.7444 228.172 63.7248 227.067 69.3816 228.482C72.1979 229.186 76.0404 229.97 78.9222 230.032C83.7042 230.133 88.0596 227.635 92.4237 225.967C95.9459 224.622 100.485 224.216 104.272 224.486C113.097 225.117 125.435 234.325 128.244 220.594C128.746 218.14 128.861 215.814 131.482 214.395C136.636 211.603 140.139 210.256 135.546 204.131C132.626 200.238 127.92 198.033 124.593 194.487C122.17 191.904 120.296 188.928 117.567 186.634C114.577 184.121 110.593 178.421 113.124 174.372C113.228 174.206 111.432 173.959 111.126 173.89C108.265 173.244 104.625 172.421 102.756 175.337C99.2311 180.836 100.483 190.173 100.483 196.14C100.483 197.48 101.354 201.165 99.5877 201.651C96.9119 202.387 94.1847 203.287 91.3904 203.373C84.3955 203.588 85.881 196.305 85.2941 190.905C84.7435 185.84 84.9917 182.914 79.3699 182.914C77.2223 182.914 75.5573 184.325 73.9625 185.635C73.2444 186.225 72.6315 188.215 71.8959 188.425C67.2601 189.749 63.9446 182.502 62.4586 179.332C61.3872 177.046 59.4082 175.142 57.0856 174.097C54.2684 172.829 52.8624 172.667 50.1282 170.17C46.2228 166.604 42.7064 162.643 38.9344 158.942C38.2104 158.232 37.7426 157.818 36.8334 157.495C30.6458 155.304 26.7287 156.077 21.7475 159.975C17.8282 163.043 15.1873 164.757 10.0026 163.523C5.15405 162.369 4.28547 155.987 -0.571289 155.016" stroke="#BCC7D1" stroke-width="6" stroke-linecap="round"/>
<path d="M1744.74 579.43C1748.32 598.93 1747.92 618.282 1753.22 637.447C1753.55 638.617 1754.34 647.375 1756.16 647.148C1764.42 646.115 1772.72 641.696 1780.74 639.406C1782.19 638.993 1783.35 639.405 1783.35 637.68C1783.35 630.998 1786.12 623.799 1786.71 617.02C1787.53 607.64 1789.82 596.785 1787.46 587.498C1786.67 584.418 1783.83 581.34 1783.54 578.31C1782.56 568.277 1789.87 559.877 1798.28 555.738C1803.5 553.167 1807.73 549.336 1813.29 547.25C1816.55 546.027 1818.62 544.472 1820.85 541.746C1834.51 525.08 1832.04 501.56 1832.04 481.397C1832.04 468.26 1833.03 453.034 1825.75 441.522C1823.46 437.903 1819.99 433.874 1816.75 431.028C1813.54 428.215 1808.39 429.395 1804.48 428.743C1794.74 427.12 1803.9 410.633 1807.88 407.15C1817.91 398.377 1824.98 387.876 1835.03 379.12C1842.9 372.263 1847.91 365.533 1853.4 356.967C1857.61 350.412 1860.4 345.038 1868.42 342.883C1879.97 339.78 1883.67 347.481 1888.99 356.408C1892.08 361.595 1893.14 361.514 1898.83 362.191C1902.5 362.628 1903.86 364.803 1906.76 366.575C1914.93 371.572 1920.47 365.04 1926.06 358.646" stroke="#BCC7D1" stroke-width="6" stroke-linecap="round"/>
<path d="M81.6804 802.447C74.7795 804.843 66.8973 804.978 59.7601 803.509C58.0295 803.153 57.4372 801.811 56.457 800.414C54.4414 797.541 52.5275 795.4 49.8971 793.161C46.8437 790.562 44.607 787.112 41.9974 784.106C38.501 780.079 33.5902 779.263 29.5474 776.068C26.3283 773.525 24.1514 769.672 20.4698 767.707C19.2484 767.055 17.972 767.026 16.7278 766.598C15.2012 766.073 13.7383 765.378 12.2006 764.866C10.0797 764.159 9.97881 760.366 9.15159 758.513C8.54323 757.151 7.62121 755.709 7.34992 754.217C6.71145 750.706 7.5471 746.959 7.16513 743.407C6.98877 741.767 5.44492 739.719 4.67051 738.372C3.59548 736.502 2.11202 733.592 -0.203235 733.013C-1.19262 732.766 -1.29041 731.485 -1.75082 730.703C-2.71774 729.062 -3.73375 727.366 -4.7998 725.945" stroke="#BCC7D1" stroke-width="6" stroke-linecap="round"/>
<path d="M1463.8 143.778C1490.72 142.497 1512.82 120.17 1539.87 120.17C1558.27 120.17 1561.86 143.096 1558.93 157.252C1558.21 160.733 1555.8 163.69 1554.67 167.041C1552.37 173.821 1552.16 181.449 1551.44 188.519C1551.12 191.648 1549.17 197.037 1549.89 200.266C1550.45 202.821 1557.65 203.946 1559.5 204.239C1567.09 205.436 1575.03 202.254 1582.07 199.805C1593.45 195.847 1602.22 185.804 1614.15 183.912C1627.14 181.852 1634 184.348 1645.18 189.383C1657.92 195.113 1672.12 200.279 1683.42 208.442C1688.56 212.156 1694.22 214.963 1699.2 218.979C1704.95 223.63 1706.44 224.84 1713.13 225.889C1718.5 226.732 1723.2 227.013 1728.56 225.429C1733.22 224.053 1737.61 222.053 1742.5 221.628C1744.91 221.418 1749.83 222.577 1751.48 220.131C1753.3 217.428 1753 213.068 1753.67 209.997C1754.67 205.405 1756.09 200.974 1756.09 196.235C1756.09 191.228 1757.2 189.383 1762.25 189.383C1767.21 189.383 1770.16 190.146 1774.4 192.722C1779.81 196.02 1780.12 197.21 1782.46 202.281C1784.4 206.495 1786.25 211.629 1790.92 213.279C1795.5 214.895 1799.19 213.852 1803.82 214.315C1813.49 215.282 1825.08 213.376 1834.34 215.812C1840.2 217.356 1843.34 219.826 1847.29 224.622C1850.1 228.027 1853.35 233.726 1858.12 234.757C1867.54 236.794 1877.4 233.029 1886.68 233.029C1889.62 233.029 1892.09 237.023 1893.7 239.133C1896.8 243.186 1898.76 242.934 1903.72 243.509C1909.87 244.222 1913.27 243.703 1918.81 241.436C1920.6 240.702 1923.08 242.063 1924.57 240.515C1927.85 237.09 1929.36 231.006 1931.25 226.695" stroke="#BCC7D1" stroke-width="6" stroke-linecap="round"/>
<path d="M1929.88 1289.17C1919.9 1294.87 1910.76 1307.36 1898.55 1307.36C1887.29 1307.36 1880.78 1303.32 1870.37 1300.4C1859.78 1297.44 1845.3 1305.06 1838.48 1291.42C1835.36 1285.17 1836.36 1265.68 1831.63 1262C1828.16 1259.3 1818.74 1260.88 1814.79 1260.88C1809.23 1260.88 1803.62 1261.08 1798.06 1260.88C1789.63 1260.57 1789.12 1248.91 1781.44 1246.28C1759.9 1238.91 1746.65 1246.08 1728.9 1258.86C1716 1268.15 1703.76 1280.02 1687.35 1279.07C1671.2 1278.13 1638.19 1250.69 1656.25 1234.49C1681.91 1211.49 1686.47 1178.45 1687.35 1145.68C1687.47 1141.41 1689.4 1136.33 1693.64 1134.68C1704.74 1130.36 1721.03 1127.49 1732.94 1127.49C1744.74 1127.49 1752.68 1124.61 1760.56 1115.36C1769.02 1105.43 1778.38 1098.25 1787.28 1089.09C1795.01 1081.14 1803.12 1060.8 1815.47 1060.8C1825.31 1060.8 1835.15 1060.8 1844.99 1060.8C1859.36 1060.8 1852.02 1087.28 1863.97 1092.8C1877.47 1099.03 1889.46 1088.22 1889.46 1074.94C1889.46 1059.79 1893.32 1055.42 1908.55 1056.87C1921.42 1058.09 1917.75 1088.47 1917.75 1097.17" stroke="#BCC7D1" stroke-width="6" stroke-linecap="round"/>
</svg>
