<svg width="915" height="877" viewBox="0 0 915 877" fill="none" xmlns="http://www.w3.org/2000/svg">
<path d="M592.5 0.499961C613.5 0.499961 635 1.49995 657 3.49992C680 4.49997 701.5 8.99997 721.5 16.9999C731.5 19.9999 741 24.4999 750 30.4999C760 35.4999 769.5 41.4999 778.5 48.5C785.5 53.5 791.5 59 796.5 65C802.5 70 808 76 813 83C813 85 814 87 816 89C818 91 819 92.9999 819 95C819 96 818.5 98 817.5 101C816.5 104 815.5 106 814.5 107C813.5 109 812.5 112 811.5 116C810.5 120 809.5 122.5 808.5 123.5C807.5 124.5 806 125 804 125C803 125 802 125.5 801 126.5C797 127.5 793 129 789 131C785 133 781 134 777 134C775 134 772.5 133.5 769.5 132.5C766.5 130.5 764 129.5 762 129.5C749 125.5 736.5 119.5 724.5 111.5C713.5 103.5 702 96.5 690 90.5C672 83.5 653 80 633 80C614 79 595.5 78 577.5 77C563.5 76 549.5 74 535.5 70.9999C533.5 70.9999 531 70.9999 528 70.9999C526 70 524.5 69 523.5 68C520.5 67 518 64.5 516 60.4999C514 56.5 512 53.5 510 51.4999C509 50.4999 508 49.5 507 48.5C506 47.5 505.5 46 505.5 43.9999C504.5 42.9999 504.5 42 505.5 41C507.5 40 508.5 39 508.5 37.9999C510.5 35 512 32 513 29C515 24.9999 517 22 519 20C521 19 523.5 18 526.5 16.9999C529.5 15.9999 532 15 534 14C550 6.99994 569.5 2.49993 592.5 0.499961ZM1.5 548C0.500001 536 0.500001 524.5 1.5 513.5C2.5 501.5 3.5 489.5 4.5 477.5C4.5 462.5 4.5 447.5 4.5 432.5C5.5 416.5 7.5 401 10.5 386C13.5 369 17 352 21 335C26 318 30.5 301.5 34.5 285.5C40.5 262.5 47 236 54 206C61 175 73.5 148 91.5 125C100.5 114 111 104 123 95C135 85 146.5 75 157.5 65C165.5 58 174 50 183 41C193 32 203.5 25.5 214.5 21.5C217.5 20.5 220 20 222 20C225 20 228 19.5 231 18.5C233 18.5 235.5 18 238.5 16.9999C241.5 15.9999 244.5 15.4999 247.5 15.4999C250.5 16.4999 253.5 17.5 256.5 18.5C259.5 19.5 262.5 20 265.5 20C267.5 21 269.5 21.5 271.5 21.5C274.5 21.5 276.5 22 277.5 22.9999C279.5 25 281.5 27 283.5 29C286.5 31 288.5 33 289.5 35C291.5 36 294 38 297 41C301 44 303 46 303 47C303 48 301.5 50.5 298.5 54.5C295.5 57.5 293.5 59.5 292.5 60.4999C291.5 62.5 290 65 288 68C287 70 285.5 71.5 283.5 72.5C278.5 76.5 273 79.5 267 81.4999C261 83.5 255.5 85.5 250.5 87.5C215.5 105.5 185.5 127 160.5 152C154.5 158 148.5 165 142.5 173C136.5 180 132 187.5 129 195.5C124 211.5 122.5 228 124.5 245C127.5 262 127.5 279 124.5 296C120.5 312 114.5 328 106.5 344C99.5 359 93.5 375 88.5 392C83.5 414 80.5 436.5 79.5 459.5C79.5 482.5 77 505.5 72 528.5C71 533.5 69.5 539 67.5 545C66.5 551 65 556 63 560C61 562 59 564.5 57 567.5C55 569.5 53 571.5 51 573.5C50 574.5 48.5 576.5 46.5 579.5C45.5 581.5 44 582.5 42 582.5C41 583.5 38.5 583.5 34.5 582.5C30.5 581.5 27.5 581 25.5 581C24.5 581 22.5 581 19.5 581C16.5 581 14.5 580.5 13.5 579.5C12.5 578.5 11.5 577.5 10.5 576.5C10.5 574.5 10.5 573 10.5 572C8.5 568 6.5 564.5 4.5 561.5C3.5 557.5 2.5 553 1.5 548ZM409.5 51.4999C407.5 50.4999 405 49.5 402 48.5C399 47.5 396 46.5 393 45.5C391 43.5 390 42.5 390 42.5C389 42.5 389 40.9999 390 37.9999C392 34 393 31.5 393 30.4999C394 29.4999 394.5 27.4999 394.5 24.4999C395.5 21.5 396.5 19.5 397.5 18.5C397.5 18.5 398.5 19 400.5 20C403.5 20 406.5 20 409.5 20C412.5 20 415 20 417 20C419 20 420.5 20 421.5 20C423.5 20 425 20.5 426 21.5C427 21.5 427 22.4999 426 24.4999C426 26.5 426 28 426 29C426 31 426.5 34.5 427.5 39.5C428.5 44.5 428.5 48 427.5 49.9999C425.5 53 419.5 53.5 409.5 51.4999ZM874.5 162.5C879.5 168.5 884 174 888 179C892 184 895.5 190 898.5 197C900.5 201 902 205.5 903 210.5C905 214.5 907 219 909 224C909 227 910 231 912 236C914 241 915 244.5 915 246.5C914 248.5 912 251 909 254C907 256 905.5 258 904.5 260C903.5 261 902.5 262.5 901.5 264.5C901.5 265.5 901 266 900 266C898 266 896.5 266 895.5 266C894.5 265 893.5 264 892.5 263C889.5 262 886.5 261 883.5 260C881.5 259 879.5 258 877.5 257C869.5 254 862.5 248.5 856.5 240.5C851.5 231.5 847 223 843 215C843 213 842 211 840 209C839 206 838 203 837 200C837 198 837 196 837 194C838 192 838.5 190 838.5 188C839.5 186 840 183 840 179C840 175 840.5 172 841.5 170C842.5 169 843.5 168.5 844.5 168.5C846.5 168.5 848 168 849 167C853 166 857 165 861 164C865 163 869.5 162.5 874.5 162.5ZM552 389C550 412 549 436 549 461C549 485 545 508 537 530C534 537 530.5 544.5 526.5 552.5C522.5 559.5 517.5 566 511.5 572C508.5 575 504 578.5 498 582.5C493 585.5 488.5 588 484.5 590C482.5 591 479.5 591.5 475.5 591.5C471.5 591.5 468 591.5 465 591.5C464 591.5 462 592 459 593C457 593 455 593 453 593C452 592 450.5 591 448.5 590C446.5 589 444.5 588 442.5 587C439.5 585 436 583.5 432 582.5C429 581.5 426.5 580 424.5 578C418.5 573 413 567 408 560C403 552 399 545 396 539C387 523 378.5 505.5 370.5 486.5C362.5 466.5 359 447 360 428C360 412 363.5 396 370.5 380C377.5 364 384 348.5 390 333.5C395 323.5 399.5 313 403.5 302C407.5 290 412.5 279 418.5 269C420.5 265 422.5 261 424.5 257C427.5 252 430.5 248 433.5 245C435.5 243 437.5 241.5 439.5 240.5C442.5 238.5 445.5 236.5 448.5 234.5C449.5 233.5 451 232.5 453 231.5C455 229.5 457 228 459 227C461 227 463 227.5 465 228.5C468 228.5 470 228.5 471 228.5C474 228.5 477.5 228.5 481.5 228.5C485.5 228.5 488.5 229 490.5 230C493.5 232 496.5 235 499.5 239C503.5 242 507 244.5 510 246.5C514 250.5 517 255 519 260C522 264 525 268.5 528 273.5C539 289.5 546 307.5 549 327.5C552 347.5 553 368 552 389ZM429 357.5C425 372.5 422 387.5 420 402.5C419 417.5 420.5 433 424.5 449C425.5 453 427 457 429 461C431 465 433 469.5 435 474.5C437 478.5 440 482 444 485C448 488 451.5 491 454.5 494C455.5 495 456.5 496 457.5 497C458.5 498 459.5 498.5 460.5 498.5C461.5 498.5 462.5 498 463.5 497C465.5 496 467 495.5 468 495.5C470 494.5 473 493.5 477 492.5C481 490.5 483.5 488.5 484.5 486.5C485.5 485.5 486 484.5 486 483.5C486 481.5 486 480 486 479C487 476 487.5 473 487.5 470C487.5 466 488 462.5 489 459.5C490 454.5 490 449 489 443C488 437 487 431.5 486 426.5C485 415.5 483.5 404.5 481.5 393.5C480.5 382.5 479.5 371.5 478.5 360.5C477.5 355.5 476 351 474 347C472 342 470 337.5 468 333.5C467 331.5 466 330 465 329C465 327 464.5 326 463.5 326C462.5 325 460.5 325.5 457.5 327.5C454.5 328.5 453 329 453 329C451 330 448 331 444 332C441 333 439 334 438 335C436 337 434 340.5 432 345.5C431 349.5 430 353.5 429 357.5ZM903 356C903 356 902.5 357.5 901.5 360.5C900.5 363.5 900 365 900 365C900 365 900 363.5 900 360.5C900 360.5 900 358.5 900 354.5C900 349.5 900 347 900 347C902 346 903 349 903 356ZM907.5 483.5C907.5 486.5 907.5 490 907.5 494C907.5 497 907.5 500 907.5 503C907.5 505 907.5 507 907.5 509C908.5 510 909 511 909 512C908 513 906 514 903 515C900 515 898 515.5 897 516.5C895 516.5 892 517.5 888 519.5C884 521.5 881.5 522 880.5 521C879.5 521 878.5 520.5 877.5 519.5C877.5 517.5 877.5 515.5 877.5 513.5C875.5 510.5 873 507 870 503C868 499 867 495.5 867 492.5C866 488.5 866 484.5 867 480.5C868 475.5 869 471 870 467C870 466 869.5 465 868.5 464C868.5 462 869 460.5 870 459.5C871 458.5 873.5 458 877.5 458C881.5 458 884.5 458 886.5 458C887.5 458 889 458 891 458C894 457 896 457 897 458C898 459 898.5 460.5 898.5 462.5C899.5 463.5 900.5 464.5 901.5 465.5C902.5 467.5 903.5 470 904.5 473C905.5 475 906.5 478.5 907.5 483.5ZM898.5 645.5C896.5 649.5 894.5 654 892.5 659C891.5 663 889.5 667 886.5 671C882.5 677 877 683 870 689C864 695 858 700.5 852 705.5C841 715.5 830 725 819 734C808 742 797 750 786 758C773 769 759.5 779.5 745.5 789.5C732.5 799.5 718 807 702 812C687 818 669 821 648 821C627 821 606 820.5 585 819.5C564 819.5 546 821.5 531 825.5C515 829.5 499.5 835.5 484.5 843.5C470.5 851.5 455.5 858.5 439.5 864.5C431.5 867.5 423 869.5 414 870.5C405 872.5 396.5 874 388.5 875C375.5 876 362 876.5 348 876.5C335 876.5 322.5 874.5 310.5 870.5C296.5 865.5 283.5 858 271.5 848C259.5 838 248 828 237 818C233 815 228 810.5 222 804.5C217 798.5 213 793 210 788C209 786 208 783.5 207 780.5C207 776.5 206.5 773.5 205.5 771.5C205.5 769.5 204.5 767 202.5 764C201.5 761 201.5 759 202.5 758C202.5 756 204 753.5 207 750.5C211 747.5 214 745 216 743C217 742 217.5 741 217.5 740C218.5 739 219.5 738.5 220.5 738.5C221.5 737.5 223.5 738 226.5 740C229.5 741 231.5 742 232.5 743C237.5 745 242 747 246 749C250 751 254.5 753 259.5 755C272.5 763 286 770.5 300 777.5C315 783.5 330 787.5 345 789.5C368 791.5 390 788.5 411 780.5C432 771.5 453 764 474 758C497 751 524.5 747 556.5 746C588.5 745 615.5 743 637.5 740C663.5 737 686 730 705 719C714 713 723 706.5 732 699.5C741 692.5 750 686.5 759 681.5C769 676.5 779 671.5 789 666.5C799 661.5 808.5 655.5 817.5 648.5C823.5 643.5 829 638 834 632C840 626 846 620.5 852 615.5C854 613.5 856 611.5 858 609.5C860 606.5 862 604.5 864 603.5C867 602.5 870.5 602.5 874.5 603.5C878.5 604.5 882 605 885 605C886 605 887 605 888 605C890 604 891.5 604 892.5 605C893.5 606 894 607.5 894 609.5C894 610.5 894.5 612 895.5 614C897.5 619 899 624 900 629C902 633 901.5 638.5 898.5 645.5ZM75 681.5C75 678.5 75 676 75 674C76 671 76.5 668 76.5 665C76.5 663 76.5 661.5 76.5 660.5C76.5 658.5 77 657 78 656C79 655 81.5 655 85.5 656C90.5 656 93.5 656 94.5 656C96.5 656 99 656 102 656C105 655 107 655 108 656C109 657 110 659 111 662C113 664 114.5 665.5 115.5 666.5C124.5 677.5 130.5 688.5 133.5 699.5C133.5 700.5 134.5 703 136.5 707C138.5 711 139 713.5 138 714.5C138 715.5 136 717 132 719C128 720 125.5 721 124.5 722C123.5 723 122 724.5 120 726.5C118 727.5 116.5 728 115.5 728C113.5 728 111.5 727.5 109.5 726.5C107.5 724.5 106 723 105 722C102 721 98.5 719.5 94.5 717.5C91.5 715.5 89 713.5 87 711.5C85 708.5 83 704.5 81 699.5C79 693.5 77 687.5 75 681.5Z" fill="white"/>
</svg>
