<svg width="1920" height="743" viewBox="0 0 1920 743" fill="none" xmlns="http://www.w3.org/2000/svg">
<path d="M690.5 260.4L853 191L830.5 260.4L931 327.307L998 549H609L667 260.4H690.5Z" fill="#85909A"/>
<path d="M731.5 457L806 393.5L935.5 318.5L1236 255.512L1286 428L1226 473L964 623.5L731.5 457Z" fill="black"/>
<path d="M0 17L586.5 240.5L527 543L0 461V17Z" fill="white"/>
<path d="M586 240.5L675.979 257.297L613.79 558.142L527 543L586 240.5Z" fill="white"/>
<path d="M1028.71 506.439C1028.63 505.609 1028.51 504.716 1028.32 503.762C1028.01 502.92 1027.94 502.089 1028.1 501.272C1028.13 500.801 1028.27 500.337 1028.53 499.879C1028.67 499.532 1028.75 499.124 1028.77 498.653C1029.46 496.919 1030.25 495.31 1031.16 493.825C1032.06 492.339 1033.09 490.86 1034.23 489.387C1036.36 487.024 1038.5 484.661 1040.63 482.297C1042.53 479.921 1044.15 477.235 1045.49 474.239C1046.29 472.629 1046.97 470.896 1047.54 469.039C1048.12 467.181 1048.92 465.454 1049.95 463.857C1050.2 463.635 1050.51 463.356 1050.88 463.022C1051.25 462.688 1051.57 462.292 1051.83 461.834C1052.2 461.5 1052.57 461.166 1052.94 460.832C1053.2 460.374 1053.52 459.978 1053.89 459.644C1054.25 459.546 1054.73 459.453 1055.32 459.367C1055.79 459.393 1056.21 459.356 1056.57 459.257C1057.16 459.172 1057.76 459.086 1058.35 459C1058.71 458.901 1059.13 458.864 1059.6 458.89C1060.66 458.829 1061.83 459.01 1063.11 459.433C1064.26 459.968 1065.36 460.44 1066.4 460.85C1070.33 462.243 1074.45 463.704 1078.73 465.233C1083.13 466.886 1087.22 468.583 1091.02 470.322C1094.94 472.185 1098.1 474.717 1100.53 477.916C1102.06 480.123 1103.35 482.553 1104.38 485.206C1105.3 487.969 1106.46 490.51 1107.87 492.829C1109.49 495.631 1111.63 498.52 1114.3 501.497C1116.88 504.114 1120.07 507.296 1123.88 511.042C1127.69 514.788 1130.88 517.97 1133.46 520.587C1135.14 522.212 1136.77 523.775 1138.34 525.277C1139.9 527.013 1141.58 528.638 1143.39 530.152C1145.75 532.286 1148.3 534.253 1151.03 536.052C1153.77 537.852 1156.26 539.875 1158.5 542.12C1161.18 544.861 1163.32 547.868 1164.91 551.141C1166.49 554.649 1168.32 557.934 1170.4 560.997C1171.82 563.08 1173.65 565.244 1175.89 567.489C1178.12 569.97 1180.28 572.506 1182.39 575.098C1184.37 577.801 1185.57 580.64 1186 583.613C1186.27 585.162 1186.41 586.94 1186.42 588.947C1186.43 590.954 1186.1 592.707 1185.43 594.205C1184.46 596.867 1182.86 599.082 1180.64 600.851C1178.53 602.743 1176.54 604.642 1174.67 606.548C1173.03 608.466 1171.02 610.718 1168.64 613.304C1166.26 615.89 1163.54 618.104 1160.49 619.946C1157.55 621.912 1154.32 622.799 1150.79 622.609C1150.32 622.583 1149.73 622.552 1149.02 622.514C1148.43 622.599 1147.96 622.574 1147.61 622.437C1144.45 621.913 1141.58 620.577 1138.98 618.431C1136.38 616.284 1133.97 613.971 1131.74 611.49C1129.51 609.009 1127.38 607.006 1125.34 605.48C1123.52 604.201 1121.69 603.04 1119.86 601.997C1117.9 601.066 1116.07 600.023 1114.36 598.868C1114.03 598.496 1113.52 598.056 1112.84 597.547C1112.04 597.15 1111.52 596.827 1111.3 596.579C1111.31 596.343 1111.39 596.052 1111.52 595.706C1111.65 595.594 1111.72 595.421 1111.73 595.186C1111.74 594.95 1111.83 594.424 1111.99 593.606C1112.15 592.789 1112.3 592.325 1112.42 592.213C1112.67 591.991 1113.09 591.836 1113.68 591.75C1114.39 591.789 1114.81 591.752 1114.93 591.641C1117.2 591.173 1119.49 591.238 1121.82 591.835C1124.15 592.433 1126.35 593.26 1128.42 594.316C1130.03 595.111 1131.51 596.017 1132.87 597.034C1134.35 598.176 1135.69 599.429 1136.92 600.793C1137.81 601.786 1138.7 602.778 1139.59 603.77C1140.48 604.762 1141.5 605.643 1142.63 606.413C1142.98 606.55 1143.38 606.748 1143.84 607.009C1144.18 607.381 1144.52 607.636 1144.86 607.772C1145.21 607.909 1145.56 607.928 1145.92 607.829C1146.39 607.855 1146.75 607.874 1146.98 607.887C1147.58 607.801 1148.23 607.777 1148.93 607.815C1149.51 607.964 1150.05 607.934 1150.53 607.724C1150.89 607.625 1151.31 607.471 1151.79 607.261C1152.28 607.051 1152.64 606.835 1152.89 606.612C1155.43 605.451 1157.88 603.93 1160.22 602.05C1162.55 600.406 1164.83 598.699 1167.05 596.931C1168.41 595.706 1169.68 594.122 1170.84 592.179C1170.86 591.943 1170.99 591.597 1171.25 591.139C1171.5 590.916 1171.63 590.687 1171.64 590.451C1171.91 589.993 1171.99 589.467 1171.91 588.872C1171.81 588.513 1171.77 588.098 1171.8 587.627C1171.82 587.156 1171.85 586.686 1171.87 586.215C1171.9 585.744 1171.92 585.274 1171.95 584.803C1171.85 584.443 1171.7 584.022 1171.49 583.539C1171.15 583.167 1170.82 582.794 1170.48 582.422C1170.39 582.063 1170.23 581.642 1170.02 581.158C1169.81 580.675 1169.54 580.247 1169.21 579.875C1168.22 578.523 1166.99 577.277 1165.51 576.135C1163.92 575.105 1162.5 573.907 1161.28 572.543C1159.94 571.055 1158.86 569.344 1158.02 567.41C1157.18 565.476 1156.39 563.605 1155.66 561.795C1155.03 560.345 1154.35 558.833 1153.61 557.258C1152.98 555.808 1152.16 554.525 1151.16 553.408C1149.81 552.156 1148.33 551.132 1146.72 550.337C1144.99 549.653 1143.32 548.914 1141.71 548.119C1139.97 547.435 1138.31 546.578 1136.71 545.548C1135.23 544.641 1133.81 543.562 1132.46 542.309C1130.89 540.808 1129.45 539.078 1128.14 537.119C1126.94 535.284 1125.37 533.665 1123.44 532.263C1123.22 532.014 1122.94 531.704 1122.61 531.332C1122.15 531.072 1121.75 530.873 1121.4 530.736C1121.05 530.599 1120.59 530.456 1120.01 530.307C1119.54 530.281 1119.07 530.256 1118.6 530.231C1118.36 530.218 1117.95 530.137 1117.37 529.988C1116.79 529.838 1116.32 529.813 1115.96 529.911C1115.6 530.01 1115.18 530.164 1114.69 530.374C1114.21 530.584 1113.79 530.738 1113.43 530.837C1112.23 531.244 1111.14 531.776 1110.16 532.431C1109.05 533.198 1107.95 533.964 1106.85 534.731C1105.01 535.93 1103.12 537.067 1101.17 538.142C1099.22 539.453 1097.2 540.702 1095.13 541.888C1093.3 543.087 1091.63 544.473 1090.13 546.044C1089.88 546.267 1089.63 546.489 1089.38 546.712C1089.01 547.046 1088.76 547.386 1088.62 547.733C1088.61 547.968 1088.65 548.266 1088.75 548.625C1088.72 549.096 1088.7 549.567 1088.67 550.037C1088.66 550.273 1088.58 550.681 1088.43 551.263C1088.39 551.97 1088.42 552.502 1088.52 552.862C1088.62 553.221 1088.83 553.587 1089.17 553.959C1089.38 554.442 1089.65 554.87 1089.98 555.242C1090.52 556.333 1091.05 557.306 1091.6 558.162C1092.25 559.141 1093.02 560.127 1093.92 561.119C1095.13 562.719 1096.4 564.263 1097.74 565.751C1099.06 567.475 1100.51 568.97 1102.1 570.235C1103.24 571.005 1104.32 571.713 1105.35 572.358C1106.25 573.115 1107.09 573.928 1107.87 574.796C1108.21 575.168 1108.6 575.602 1109.04 576.098C1109.6 576.718 1109.92 577.208 1110.02 577.567C1110.01 577.803 1109.87 578.149 1109.61 578.607C1109.34 579.301 1109.2 579.765 1109.18 580C1109.17 580.236 1109.1 580.527 1108.96 580.874C1108.81 581.456 1108.67 581.802 1108.55 581.914C1108.43 582.025 1108.13 582.068 1107.66 582.043C1107.06 582.128 1106.65 582.165 1106.41 582.152C1105.94 582.127 1105.47 582.102 1105 582.076C1104.52 582.286 1104.04 582.378 1103.57 582.353C1103.22 582.216 1102.82 582.018 1102.36 581.757C1101.9 581.496 1101.5 581.297 1101.15 581.161C1096.54 579.259 1092.9 576.585 1090.26 573.137C1089.37 572.145 1088.54 571.097 1087.77 569.994C1087.01 568.89 1086.24 567.787 1085.47 566.683C1084.25 565.319 1082.95 564.128 1081.59 563.11C1080.23 562.092 1078.81 561.013 1077.34 559.871C1077.01 559.499 1076.56 559.121 1075.99 558.736C1075.53 558.475 1075.13 558.159 1074.8 557.787C1073.24 556.05 1072.29 553.992 1071.95 551.613C1071.59 549.47 1071 547.314 1070.17 545.144C1070.07 544.785 1069.98 544.308 1069.89 543.713C1069.68 543.23 1069.47 542.864 1069.24 542.616C1069.02 542.368 1068.8 542.12 1068.58 541.872C1068.23 541.735 1067.94 541.543 1067.72 541.295C1066.03 539.905 1064.08 538.738 1061.89 537.794C1059.94 536.862 1057.92 535.868 1055.86 534.812C1053.66 533.868 1051.66 532.757 1049.84 531.478C1048.37 530.337 1047.08 529.028 1045.98 527.552C1044.88 526.077 1043.84 524.545 1042.86 522.958C1042.43 522.227 1042.01 521.378 1041.59 520.411C1041.15 519.68 1040.72 518.948 1040.29 518.217C1039.3 516.865 1038.01 515.556 1036.43 514.291C1035.87 513.67 1035.13 513.1 1034.22 512.578C1033.41 512.181 1032.73 511.672 1032.18 511.052C1031.16 510.171 1030.01 508.633 1028.71 506.439ZM1094.04 522.71C1094.65 522.388 1095.14 522.061 1095.51 521.727C1095.88 521.393 1096.37 521.065 1096.98 520.744C1097.1 520.633 1097.29 520.466 1097.54 520.243C1097.77 520.256 1097.9 520.144 1097.91 519.909C1098.03 519.798 1097.98 519.618 1097.76 519.37C1097.65 519.246 1097.48 519.06 1097.26 518.812C1097.38 518.7 1097.34 518.403 1097.13 517.92C1096.92 517.436 1096.76 517.132 1096.65 517.008C1096.41 516.996 1096.23 517.045 1096.11 517.156C1095.97 517.503 1095.78 517.788 1095.53 518.01C1094.55 518.666 1093.82 519.098 1093.34 519.308C1093.09 519.531 1092.85 519.636 1092.61 519.623C1092.49 519.735 1092.3 519.902 1092.06 520.124C1092.06 520.124 1092.22 520.31 1092.56 520.682C1093.09 521.773 1093.58 522.449 1094.04 522.71ZM1071.84 520.804C1072.35 520.123 1072.85 519.442 1073.36 518.762C1073.87 518.081 1074.44 517.462 1075.06 516.906C1076.31 515.557 1077.67 514.332 1079.15 513.232C1080.5 512.242 1081.86 511.136 1083.22 509.911C1085.32 508.254 1087.38 506.181 1089.4 503.694C1090.53 502.457 1091.55 501.095 1092.45 499.61C1093.35 498.36 1094.02 496.862 1094.47 495.115C1094.49 494.645 1094.58 494.118 1094.73 493.536C1094.87 493.19 1094.95 492.781 1094.97 492.31C1095 491.839 1094.91 491.362 1094.7 490.879C1094.49 490.396 1094.33 489.974 1094.23 489.615C1094.26 489.144 1094.23 488.611 1094.14 488.017C1094.04 487.657 1093.89 487.236 1093.68 486.752C1093.15 485.662 1092.38 484.558 1091.38 483.442C1090.38 482.325 1089.36 481.445 1088.33 480.799C1085.97 478.665 1083 476.853 1079.42 475.361C1075.96 473.994 1072.62 473.519 1069.41 473.936C1068.81 474.022 1068.16 474.046 1067.46 474.008C1066.86 474.094 1066.32 474.242 1065.84 474.451C1065.23 474.773 1064.5 475.205 1063.65 475.749C1062.78 476.529 1062.1 477.141 1061.6 477.586C1060.47 478.824 1059.4 480.123 1058.38 481.484C1057.24 482.957 1056.1 484.312 1054.97 485.549C1053.58 487.245 1052.14 488.878 1050.64 490.45C1049.12 492.256 1047.85 494.076 1046.8 495.908C1046.42 496.477 1045.98 496.984 1045.48 497.43C1044.97 498.11 1044.64 498.742 1044.49 499.324C1044.48 499.559 1044.47 499.795 1044.46 500.03C1044.44 500.265 1044.49 500.445 1044.6 500.569C1044.57 501.275 1044.53 501.981 1044.49 502.687C1044.45 503.393 1044.47 504.044 1044.56 504.638C1044.77 505.122 1045.04 505.55 1045.38 505.922C1045.71 506.294 1045.99 506.604 1046.21 506.852C1046.98 507.955 1047.81 509.003 1048.7 509.996C1049.46 511.099 1050.29 512.265 1051.16 513.492C1052.38 515.092 1053.71 516.698 1055.15 518.31C1056.48 520.034 1058.05 521.535 1059.87 522.814C1060.33 523.074 1060.78 523.335 1061.24 523.596C1061.69 524.092 1062.14 524.47 1062.6 524.731C1063.07 524.756 1063.54 524.664 1064.03 524.454C1064.5 524.48 1064.97 524.505 1065.44 524.53C1065.68 524.543 1066.09 524.507 1066.68 524.421C1067.27 524.57 1067.74 524.595 1068.1 524.497C1068.58 524.287 1069.2 523.73 1069.96 522.827C1070.59 522.035 1071.22 521.36 1071.84 520.804Z" fill="#85909A"/>
<path d="M1075.71 449.439C1075.63 448.609 1075.51 447.716 1075.32 446.762C1075.01 445.92 1074.94 445.089 1075.1 444.272C1075.13 443.801 1075.27 443.337 1075.53 442.879C1075.67 442.532 1075.75 442.124 1075.77 441.653C1076.46 439.919 1077.25 438.31 1078.16 436.825C1079.06 435.339 1080.09 433.86 1081.23 432.387C1083.36 430.024 1085.5 427.661 1087.63 425.297C1089.53 422.921 1091.15 420.235 1092.49 417.239C1093.29 415.629 1093.97 413.896 1094.54 412.039C1095.12 410.181 1095.92 408.454 1096.95 406.857C1097.2 406.635 1097.51 406.356 1097.88 406.022C1098.25 405.688 1098.57 405.292 1098.83 404.834C1099.2 404.5 1099.57 404.166 1099.94 403.832C1100.2 403.374 1100.52 402.978 1100.89 402.644C1101.25 402.546 1101.73 402.453 1102.32 402.367C1102.79 402.393 1103.21 402.356 1103.57 402.257C1104.16 402.172 1104.76 402.086 1105.35 402C1105.71 401.901 1106.13 401.864 1106.6 401.89C1107.66 401.829 1108.83 402.01 1110.11 402.433C1111.26 402.968 1112.36 403.44 1113.4 403.85C1117.33 405.243 1121.45 406.704 1125.73 408.233C1130.13 409.886 1134.22 411.583 1138.02 413.322C1141.94 415.185 1145.1 417.717 1147.53 420.916C1149.06 423.123 1150.35 425.553 1151.38 428.206C1152.3 430.969 1153.46 433.51 1154.87 435.829C1156.49 438.631 1158.63 441.52 1161.3 444.497C1163.88 447.114 1167.07 450.296 1170.88 454.042C1174.69 457.788 1177.88 460.97 1180.46 463.587C1182.14 465.212 1183.77 466.775 1185.34 468.277C1186.9 470.013 1188.58 471.638 1190.39 473.152C1192.75 475.286 1195.3 477.253 1198.03 479.052C1200.77 480.852 1203.26 482.875 1205.5 485.12C1208.18 487.861 1210.32 490.868 1211.91 494.141C1213.49 497.649 1215.32 500.934 1217.4 503.997C1218.82 506.08 1220.65 508.244 1222.89 510.489C1225.12 512.97 1227.28 515.506 1229.39 518.098C1231.37 520.801 1232.57 523.64 1233 526.613C1233.27 528.162 1233.41 529.94 1233.42 531.947C1233.43 533.954 1233.1 535.707 1232.43 537.205C1231.46 539.867 1229.86 542.082 1227.64 543.851C1225.53 545.743 1223.54 547.642 1221.67 549.548C1220.03 551.466 1218.02 553.718 1215.64 556.304C1213.26 558.89 1210.54 561.104 1207.49 562.946C1204.55 564.912 1201.32 565.799 1197.79 565.609C1197.32 565.583 1196.73 565.552 1196.02 565.514C1195.43 565.599 1194.96 565.574 1194.61 565.437C1191.45 564.913 1188.58 563.577 1185.98 561.431C1183.38 559.284 1180.97 556.971 1178.74 554.49C1176.51 552.009 1174.38 550.006 1172.34 548.48C1170.52 547.201 1168.69 546.04 1166.86 544.997C1164.9 544.066 1163.07 543.023 1161.36 541.868C1161.03 541.496 1160.52 541.056 1159.84 540.547C1159.04 540.15 1158.52 539.827 1158.3 539.579C1158.31 539.343 1158.39 539.052 1158.52 538.706C1158.65 538.594 1158.72 538.421 1158.73 538.186C1158.74 537.95 1158.83 537.424 1158.99 536.606C1159.15 535.789 1159.3 535.325 1159.42 535.213C1159.67 534.991 1160.09 534.836 1160.68 534.75C1161.39 534.789 1161.81 534.752 1161.93 534.641C1164.2 534.173 1166.49 534.238 1168.82 534.835C1171.15 535.433 1173.35 536.26 1175.42 537.316C1177.03 538.111 1178.51 539.017 1179.87 540.034C1181.35 541.176 1182.69 542.429 1183.92 543.793C1184.81 544.786 1185.7 545.778 1186.59 546.77C1187.48 547.762 1188.5 548.643 1189.63 549.413C1189.98 549.55 1190.38 549.748 1190.84 550.009C1191.18 550.381 1191.52 550.636 1191.86 550.772C1192.21 550.909 1192.56 550.928 1192.92 550.829C1193.39 550.855 1193.75 550.874 1193.98 550.887C1194.58 550.801 1195.23 550.777 1195.93 550.815C1196.51 550.964 1197.05 550.934 1197.53 550.724C1197.89 550.625 1198.31 550.471 1198.79 550.261C1199.28 550.051 1199.64 549.835 1199.89 549.612C1202.43 548.451 1204.88 546.93 1207.22 545.05C1209.55 543.406 1211.83 541.699 1214.05 539.931C1215.41 538.706 1216.68 537.122 1217.84 535.179C1217.86 534.943 1217.99 534.597 1218.25 534.139C1218.5 533.916 1218.63 533.687 1218.64 533.451C1218.91 532.993 1218.99 532.467 1218.91 531.872C1218.81 531.513 1218.77 531.098 1218.8 530.627C1218.82 530.156 1218.85 529.686 1218.87 529.215C1218.9 528.744 1218.92 528.274 1218.95 527.803C1218.85 527.443 1218.7 527.022 1218.49 526.539C1218.15 526.167 1217.82 525.794 1217.48 525.422C1217.39 525.063 1217.23 524.642 1217.02 524.158C1216.81 523.675 1216.54 523.247 1216.21 522.875C1215.22 521.523 1213.99 520.277 1212.51 519.135C1210.92 518.105 1209.5 516.907 1208.28 515.543C1206.94 514.055 1205.86 512.344 1205.02 510.41C1204.18 508.476 1203.39 506.605 1202.66 504.795C1202.03 503.345 1201.35 501.833 1200.61 500.258C1199.98 498.808 1199.16 497.525 1198.16 496.408C1196.81 495.156 1195.33 494.132 1193.72 493.337C1191.99 492.653 1190.32 491.914 1188.71 491.119C1186.97 490.435 1185.31 489.578 1183.71 488.548C1182.23 487.641 1180.81 486.562 1179.46 485.309C1177.89 483.808 1176.45 482.078 1175.14 480.119C1173.94 478.284 1172.37 476.665 1170.44 475.263C1170.22 475.014 1169.94 474.704 1169.61 474.332C1169.15 474.072 1168.75 473.873 1168.4 473.736C1168.05 473.599 1167.59 473.456 1167.01 473.307C1166.54 473.281 1166.07 473.256 1165.6 473.231C1165.36 473.218 1164.95 473.137 1164.37 472.988C1163.79 472.838 1163.32 472.813 1162.96 472.911C1162.6 473.01 1162.18 473.164 1161.69 473.374C1161.21 473.584 1160.79 473.738 1160.43 473.837C1159.23 474.244 1158.14 474.776 1157.16 475.431C1156.05 476.198 1154.95 476.964 1153.85 477.731C1152.01 478.93 1150.12 480.067 1148.17 481.142C1146.22 482.453 1144.2 483.702 1142.13 484.888C1140.3 486.087 1138.63 487.473 1137.13 489.044C1136.88 489.267 1136.63 489.489 1136.38 489.712C1136.01 490.046 1135.76 490.386 1135.62 490.733C1135.61 490.968 1135.65 491.266 1135.75 491.625C1135.72 492.096 1135.7 492.567 1135.67 493.037C1135.66 493.273 1135.58 493.681 1135.43 494.263C1135.39 494.97 1135.42 495.502 1135.52 495.862C1135.62 496.221 1135.83 496.587 1136.17 496.959C1136.38 497.442 1136.65 497.87 1136.98 498.242C1137.52 499.333 1138.05 500.306 1138.6 501.162C1139.25 502.141 1140.02 503.127 1140.92 504.119C1142.13 505.719 1143.4 507.263 1144.74 508.751C1146.06 510.475 1147.51 511.97 1149.1 513.235C1150.24 514.005 1151.32 514.713 1152.35 515.358C1153.25 516.115 1154.09 516.928 1154.87 517.796C1155.21 518.168 1155.6 518.602 1156.04 519.098C1156.6 519.718 1156.92 520.208 1157.02 520.567C1157.01 520.803 1156.87 521.149 1156.61 521.607C1156.34 522.301 1156.2 522.765 1156.18 523C1156.17 523.236 1156.1 523.527 1155.96 523.874C1155.81 524.456 1155.67 524.802 1155.55 524.914C1155.43 525.025 1155.13 525.068 1154.66 525.043C1154.06 525.128 1153.65 525.165 1153.41 525.152C1152.94 525.127 1152.47 525.102 1152 525.076C1151.52 525.286 1151.04 525.378 1150.57 525.353C1150.22 525.216 1149.82 525.018 1149.36 524.757C1148.9 524.496 1148.5 524.297 1148.15 524.161C1143.54 522.259 1139.9 519.585 1137.26 516.137C1136.37 515.145 1135.54 514.097 1134.77 512.994C1134.01 511.89 1133.24 510.787 1132.47 509.683C1131.25 508.319 1129.95 507.128 1128.59 506.11C1127.23 505.092 1125.81 504.013 1124.34 502.871C1124.01 502.499 1123.56 502.121 1122.99 501.736C1122.53 501.475 1122.13 501.159 1121.8 500.787C1120.24 499.05 1119.29 496.992 1118.95 494.613C1118.59 492.47 1118 490.314 1117.17 488.144C1117.07 487.785 1116.98 487.308 1116.89 486.713C1116.68 486.23 1116.47 485.864 1116.24 485.616C1116.02 485.368 1115.8 485.12 1115.58 484.872C1115.23 484.735 1114.94 484.543 1114.72 484.295C1113.03 482.905 1111.08 481.738 1108.89 480.794C1106.94 479.862 1104.92 478.868 1102.86 477.812C1100.66 476.868 1098.66 475.757 1096.84 474.478C1095.37 473.337 1094.08 472.028 1092.98 470.552C1091.88 469.077 1090.84 467.545 1089.86 465.958C1089.43 465.227 1089.01 464.378 1088.59 463.411C1088.15 462.68 1087.72 461.948 1087.29 461.217C1086.3 459.865 1085.01 458.556 1083.43 457.291C1082.87 456.67 1082.13 456.1 1081.22 455.578C1080.41 455.181 1079.73 454.672 1079.18 454.052C1078.16 453.171 1077.01 451.633 1075.71 449.439ZM1141.04 465.71C1141.65 465.388 1142.14 465.061 1142.51 464.727C1142.88 464.393 1143.37 464.065 1143.98 463.744C1144.1 463.633 1144.29 463.466 1144.54 463.243C1144.77 463.256 1144.9 463.144 1144.91 462.909C1145.03 462.798 1144.98 462.618 1144.76 462.37C1144.65 462.246 1144.48 462.06 1144.26 461.812C1144.38 461.7 1144.34 461.403 1144.13 460.92C1143.92 460.436 1143.76 460.132 1143.65 460.008C1143.41 459.996 1143.23 460.045 1143.11 460.156C1142.97 460.503 1142.78 460.788 1142.53 461.01C1141.55 461.666 1140.82 462.098 1140.34 462.308C1140.09 462.531 1139.85 462.636 1139.61 462.623C1139.49 462.735 1139.3 462.902 1139.06 463.124C1139.06 463.124 1139.22 463.31 1139.56 463.682C1140.09 464.773 1140.58 465.449 1141.04 465.71ZM1118.84 463.804C1119.35 463.123 1119.85 462.442 1120.36 461.762C1120.87 461.081 1121.44 460.462 1122.06 459.906C1123.31 458.557 1124.67 457.332 1126.15 456.232C1127.5 455.242 1128.86 454.136 1130.22 452.911C1132.32 451.254 1134.38 449.181 1136.4 446.694C1137.53 445.457 1138.55 444.095 1139.45 442.61C1140.35 441.36 1141.02 439.862 1141.47 438.115C1141.49 437.645 1141.58 437.118 1141.73 436.536C1141.87 436.19 1141.95 435.781 1141.97 435.31C1142 434.839 1141.91 434.362 1141.7 433.879C1141.49 433.396 1141.33 432.974 1141.23 432.615C1141.26 432.144 1141.23 431.611 1141.14 431.017C1141.04 430.657 1140.89 430.236 1140.68 429.752C1140.15 428.662 1139.38 427.558 1138.38 426.442C1137.38 425.325 1136.36 424.445 1135.33 423.799C1132.97 421.665 1130 419.853 1126.42 418.361C1122.96 416.994 1119.62 416.519 1116.41 416.936C1115.81 417.022 1115.16 417.046 1114.46 417.008C1113.86 417.094 1113.32 417.242 1112.84 417.451C1112.23 417.773 1111.5 418.205 1110.65 418.749C1109.78 419.529 1109.1 420.141 1108.6 420.586C1107.47 421.824 1106.4 423.123 1105.38 424.484C1104.24 425.957 1103.1 427.312 1101.97 428.549C1100.58 430.245 1099.14 431.878 1097.64 433.45C1096.12 435.256 1094.85 437.076 1093.8 438.908C1093.42 439.477 1092.98 439.984 1092.48 440.43C1091.97 441.11 1091.64 441.742 1091.49 442.324C1091.48 442.559 1091.47 442.795 1091.46 443.03C1091.44 443.265 1091.49 443.445 1091.6 443.569C1091.57 444.275 1091.53 444.981 1091.49 445.687C1091.45 446.393 1091.47 447.044 1091.56 447.638C1091.77 448.122 1092.04 448.55 1092.38 448.922C1092.71 449.294 1092.99 449.604 1093.21 449.852C1093.98 450.955 1094.81 452.003 1095.7 452.996C1096.46 454.099 1097.29 455.265 1098.16 456.492C1099.38 458.092 1100.71 459.698 1102.15 461.31C1103.48 463.034 1105.05 464.535 1106.87 465.814C1107.33 466.074 1107.78 466.335 1108.24 466.596C1108.69 467.092 1109.14 467.47 1109.6 467.731C1110.07 467.756 1110.54 467.664 1111.03 467.454C1111.5 467.48 1111.97 467.505 1112.44 467.53C1112.68 467.543 1113.09 467.507 1113.68 467.421C1114.27 467.57 1114.74 467.595 1115.1 467.497C1115.58 467.287 1116.2 466.73 1116.96 465.827C1117.59 465.035 1118.22 464.36 1118.84 463.804Z" fill="#85909A"/>
<path d="M1146.71 417.439C1146.63 416.609 1146.51 415.716 1146.32 414.762C1146.01 413.92 1145.94 413.089 1146.1 412.272C1146.13 411.801 1146.27 411.337 1146.53 410.879C1146.67 410.532 1146.75 410.124 1146.77 409.653C1147.46 407.919 1148.25 406.31 1149.16 404.825C1150.06 403.339 1151.09 401.86 1152.23 400.387C1154.36 398.024 1156.5 395.661 1158.63 393.297C1160.53 390.921 1162.15 388.235 1163.49 385.239C1164.29 383.629 1164.97 381.896 1165.54 380.039C1166.12 378.181 1166.92 376.454 1167.95 374.857C1168.2 374.635 1168.51 374.356 1168.88 374.022C1169.25 373.688 1169.57 373.292 1169.83 372.834C1170.2 372.5 1170.57 372.166 1170.94 371.832C1171.2 371.374 1171.52 370.978 1171.89 370.644C1172.25 370.546 1172.73 370.453 1173.32 370.367C1173.79 370.393 1174.21 370.356 1174.57 370.257C1175.16 370.172 1175.76 370.086 1176.35 370C1176.71 369.901 1177.13 369.864 1177.6 369.89C1178.66 369.829 1179.83 370.01 1181.11 370.433C1182.26 370.968 1183.36 371.44 1184.4 371.85C1188.33 373.243 1192.45 374.704 1196.73 376.233C1201.13 377.886 1205.22 379.583 1209.02 381.322C1212.94 383.185 1216.1 385.717 1218.53 388.916C1220.06 391.123 1221.35 393.553 1222.38 396.206C1223.3 398.969 1224.46 401.51 1225.87 403.829C1227.49 406.631 1229.63 409.52 1232.3 412.497C1234.88 415.114 1238.07 418.296 1241.88 422.042C1245.69 425.788 1248.88 428.97 1251.46 431.587C1253.14 433.212 1254.77 434.775 1256.34 436.277C1257.9 438.013 1259.58 439.638 1261.39 441.152C1263.75 443.286 1266.3 445.253 1269.03 447.052C1271.77 448.852 1274.26 450.875 1276.5 453.12C1279.18 455.861 1281.32 458.868 1282.91 462.141C1284.49 465.649 1286.32 468.934 1288.4 471.997C1289.82 474.08 1291.65 476.244 1293.89 478.489C1296.12 480.97 1298.28 483.506 1300.39 486.098C1302.37 488.801 1303.57 491.64 1304 494.613C1304.27 496.162 1304.41 497.94 1304.42 499.947C1304.43 501.954 1304.1 503.707 1303.43 505.205C1302.46 507.867 1300.86 510.082 1298.64 511.851C1296.53 513.743 1294.54 515.642 1292.67 517.548C1291.03 519.466 1289.02 521.718 1286.64 524.304C1284.26 526.89 1281.54 529.104 1278.49 530.946C1275.55 532.912 1272.32 533.799 1268.79 533.609C1268.32 533.583 1267.73 533.552 1267.02 533.514C1266.43 533.599 1265.96 533.574 1265.61 533.437C1262.45 532.913 1259.58 531.577 1256.98 529.431C1254.38 527.284 1251.97 524.971 1249.74 522.49C1247.51 520.009 1245.38 518.006 1243.34 516.48C1241.52 515.201 1239.69 514.04 1237.86 512.997C1235.9 512.066 1234.07 511.023 1232.36 509.868C1232.03 509.496 1231.52 509.056 1230.84 508.547C1230.04 508.15 1229.52 507.827 1229.3 507.579C1229.31 507.343 1229.39 507.052 1229.52 506.706C1229.65 506.594 1229.72 506.421 1229.73 506.186C1229.74 505.95 1229.83 505.424 1229.99 504.606C1230.15 503.789 1230.3 503.325 1230.42 503.213C1230.67 502.991 1231.09 502.836 1231.68 502.75C1232.39 502.789 1232.81 502.752 1232.93 502.641C1235.2 502.173 1237.49 502.238 1239.82 502.835C1242.15 503.433 1244.35 504.26 1246.42 505.316C1248.03 506.111 1249.51 507.017 1250.87 508.034C1252.35 509.176 1253.69 510.429 1254.92 511.793C1255.81 512.786 1256.7 513.778 1257.59 514.77C1258.48 515.762 1259.5 516.643 1260.63 517.413C1260.98 517.55 1261.38 517.748 1261.84 518.009C1262.18 518.381 1262.52 518.636 1262.86 518.772C1263.21 518.909 1263.56 518.928 1263.92 518.829C1264.39 518.855 1264.75 518.874 1264.98 518.887C1265.58 518.801 1266.23 518.777 1266.93 518.815C1267.51 518.964 1268.05 518.934 1268.53 518.724C1268.89 518.625 1269.31 518.471 1269.79 518.261C1270.28 518.051 1270.64 517.835 1270.89 517.612C1273.43 516.451 1275.88 514.93 1278.22 513.05C1280.55 511.406 1282.83 509.699 1285.05 507.931C1286.41 506.706 1287.68 505.122 1288.84 503.179C1288.86 502.943 1288.99 502.597 1289.25 502.139C1289.5 501.916 1289.63 501.687 1289.64 501.451C1289.91 500.993 1289.99 500.467 1289.91 499.872C1289.81 499.513 1289.77 499.098 1289.8 498.627C1289.82 498.156 1289.85 497.686 1289.87 497.215C1289.9 496.744 1289.92 496.274 1289.95 495.803C1289.85 495.443 1289.7 495.022 1289.49 494.539C1289.15 494.167 1288.82 493.794 1288.48 493.422C1288.39 493.063 1288.23 492.642 1288.02 492.158C1287.81 491.675 1287.54 491.247 1287.21 490.875C1286.22 489.523 1284.99 488.277 1283.51 487.135C1281.92 486.105 1280.5 484.907 1279.28 483.543C1277.94 482.055 1276.86 480.344 1276.02 478.41C1275.18 476.476 1274.39 474.605 1273.66 472.795C1273.03 471.345 1272.35 469.833 1271.61 468.258C1270.98 466.808 1270.16 465.525 1269.16 464.408C1267.81 463.156 1266.33 462.132 1264.72 461.337C1262.99 460.653 1261.32 459.914 1259.71 459.119C1257.97 458.435 1256.31 457.578 1254.71 456.548C1253.23 455.641 1251.81 454.562 1250.46 453.309C1248.89 451.808 1247.45 450.078 1246.14 448.119C1244.94 446.284 1243.37 444.665 1241.44 443.263C1241.22 443.014 1240.94 442.704 1240.61 442.332C1240.15 442.072 1239.75 441.873 1239.4 441.736C1239.05 441.599 1238.59 441.456 1238.01 441.307C1237.54 441.281 1237.07 441.256 1236.6 441.231C1236.36 441.218 1235.95 441.137 1235.37 440.988C1234.79 440.838 1234.32 440.813 1233.96 440.911C1233.6 441.01 1233.18 441.164 1232.69 441.374C1232.21 441.584 1231.79 441.738 1231.43 441.837C1230.23 442.244 1229.14 442.776 1228.16 443.431C1227.05 444.198 1225.95 444.964 1224.85 445.731C1223.01 446.93 1221.12 448.067 1219.17 449.142C1217.22 450.453 1215.2 451.702 1213.13 452.888C1211.3 454.087 1209.63 455.473 1208.13 457.044C1207.88 457.267 1207.63 457.489 1207.38 457.712C1207.01 458.046 1206.76 458.386 1206.62 458.733C1206.61 458.968 1206.65 459.266 1206.75 459.625C1206.72 460.096 1206.7 460.567 1206.67 461.037C1206.66 461.273 1206.58 461.681 1206.43 462.263C1206.39 462.97 1206.42 463.502 1206.52 463.862C1206.62 464.221 1206.83 464.587 1207.17 464.959C1207.38 465.442 1207.65 465.87 1207.98 466.242C1208.52 467.333 1209.05 468.306 1209.6 469.162C1210.25 470.141 1211.02 471.127 1211.92 472.119C1213.13 473.719 1214.4 475.263 1215.74 476.751C1217.06 478.475 1218.51 479.97 1220.1 481.235C1221.24 482.005 1222.32 482.713 1223.35 483.358C1224.25 484.115 1225.09 484.928 1225.87 485.796C1226.21 486.168 1226.6 486.602 1227.04 487.098C1227.6 487.718 1227.92 488.208 1228.02 488.567C1228.01 488.803 1227.87 489.149 1227.61 489.607C1227.34 490.301 1227.2 490.765 1227.18 491C1227.17 491.236 1227.1 491.527 1226.96 491.874C1226.81 492.456 1226.67 492.802 1226.55 492.914C1226.43 493.025 1226.13 493.068 1225.66 493.043C1225.06 493.128 1224.65 493.165 1224.41 493.152C1223.94 493.127 1223.47 493.102 1223 493.076C1222.52 493.286 1222.04 493.378 1221.57 493.353C1221.22 493.216 1220.82 493.018 1220.36 492.757C1219.9 492.496 1219.5 492.297 1219.15 492.161C1214.54 490.259 1210.9 487.585 1208.26 484.137C1207.37 483.145 1206.54 482.097 1205.77 480.994C1205.01 479.89 1204.24 478.787 1203.47 477.683C1202.25 476.319 1200.95 475.128 1199.59 474.11C1198.23 473.092 1196.81 472.013 1195.34 470.871C1195.01 470.499 1194.56 470.121 1193.99 469.736C1193.53 469.475 1193.13 469.159 1192.8 468.787C1191.24 467.05 1190.29 464.992 1189.95 462.613C1189.59 460.47 1189 458.314 1188.17 456.144C1188.07 455.785 1187.98 455.308 1187.89 454.713C1187.68 454.23 1187.47 453.864 1187.24 453.616C1187.02 453.368 1186.8 453.12 1186.58 452.872C1186.23 452.735 1185.94 452.543 1185.72 452.295C1184.03 450.905 1182.08 449.738 1179.89 448.794C1177.94 447.862 1175.92 446.868 1173.86 445.812C1171.66 444.868 1169.66 443.757 1167.84 442.478C1166.37 441.337 1165.08 440.028 1163.98 438.552C1162.88 437.077 1161.84 435.545 1160.86 433.958C1160.43 433.227 1160.01 432.378 1159.59 431.411C1159.15 430.68 1158.72 429.948 1158.29 429.217C1157.3 427.865 1156.01 426.556 1154.43 425.291C1153.87 424.67 1153.13 424.1 1152.22 423.578C1151.41 423.181 1150.73 422.672 1150.18 422.052C1149.16 421.171 1148.01 419.633 1146.71 417.439ZM1212.04 433.71C1212.65 433.388 1213.14 433.061 1213.51 432.727C1213.88 432.393 1214.37 432.065 1214.98 431.744C1215.1 431.633 1215.29 431.466 1215.54 431.243C1215.77 431.256 1215.9 431.144 1215.91 430.909C1216.03 430.798 1215.98 430.618 1215.76 430.37C1215.65 430.246 1215.48 430.06 1215.26 429.812C1215.38 429.7 1215.34 429.403 1215.13 428.92C1214.92 428.436 1214.76 428.132 1214.65 428.008C1214.41 427.996 1214.23 428.045 1214.11 428.156C1213.97 428.503 1213.78 428.788 1213.53 429.01C1212.55 429.666 1211.82 430.098 1211.34 430.308C1211.09 430.531 1210.85 430.636 1210.61 430.623C1210.49 430.735 1210.3 430.902 1210.06 431.124C1210.06 431.124 1210.22 431.31 1210.56 431.682C1211.09 432.773 1211.58 433.449 1212.04 433.71ZM1189.84 431.804C1190.35 431.123 1190.85 430.442 1191.36 429.762C1191.87 429.081 1192.44 428.462 1193.06 427.906C1194.31 426.557 1195.67 425.332 1197.15 424.232C1198.5 423.242 1199.86 422.136 1201.22 420.911C1203.32 419.254 1205.38 417.181 1207.4 414.694C1208.53 413.457 1209.55 412.095 1210.45 410.61C1211.35 409.36 1212.02 407.862 1212.47 406.115C1212.49 405.645 1212.58 405.118 1212.73 404.536C1212.87 404.19 1212.95 403.781 1212.97 403.31C1213 402.839 1212.91 402.362 1212.7 401.879C1212.49 401.396 1212.33 400.974 1212.23 400.615C1212.26 400.144 1212.23 399.611 1212.14 399.017C1212.04 398.657 1211.89 398.236 1211.68 397.752C1211.15 396.662 1210.38 395.558 1209.38 394.442C1208.38 393.325 1207.36 392.445 1206.33 391.799C1203.97 389.665 1201 387.853 1197.42 386.361C1193.96 384.994 1190.62 384.519 1187.41 384.936C1186.81 385.022 1186.16 385.046 1185.46 385.008C1184.86 385.094 1184.32 385.242 1183.84 385.451C1183.23 385.773 1182.5 386.205 1181.65 386.749C1180.78 387.529 1180.1 388.141 1179.6 388.586C1178.47 389.824 1177.4 391.123 1176.38 392.484C1175.24 393.957 1174.1 395.312 1172.97 396.549C1171.58 398.245 1170.14 399.878 1168.64 401.45C1167.12 403.256 1165.85 405.076 1164.8 406.908C1164.42 407.477 1163.98 407.984 1163.48 408.43C1162.97 409.11 1162.64 409.742 1162.49 410.324C1162.48 410.559 1162.47 410.795 1162.46 411.03C1162.44 411.265 1162.49 411.445 1162.6 411.569C1162.57 412.275 1162.53 412.981 1162.49 413.687C1162.45 414.393 1162.47 415.044 1162.56 415.638C1162.77 416.122 1163.04 416.55 1163.38 416.922C1163.71 417.294 1163.99 417.604 1164.21 417.852C1164.98 418.955 1165.81 420.003 1166.7 420.996C1167.46 422.099 1168.29 423.265 1169.16 424.492C1170.38 426.092 1171.71 427.698 1173.15 429.31C1174.48 431.034 1176.05 432.535 1177.87 433.814C1178.33 434.074 1178.78 434.335 1179.24 434.596C1179.69 435.092 1180.14 435.47 1180.6 435.731C1181.07 435.756 1181.54 435.664 1182.03 435.454C1182.5 435.48 1182.97 435.505 1183.44 435.53C1183.68 435.543 1184.09 435.507 1184.68 435.421C1185.27 435.57 1185.74 435.595 1186.1 435.497C1186.58 435.287 1187.2 434.73 1187.96 433.827C1188.59 433.035 1189.22 432.36 1189.84 431.804Z" fill="#85909A"/>
<path d="M783.15 410.667C783.983 410.656 784.882 410.594 785.848 410.481C786.711 410.236 787.544 410.226 788.347 410.448C788.815 410.509 789.267 410.686 789.705 410.981C790.04 411.143 790.442 411.254 790.909 411.315C792.587 412.126 794.132 413.039 795.545 414.054C796.959 415.069 798.357 416.201 799.74 417.449C801.938 419.754 804.135 422.059 806.332 424.363C808.559 426.434 811.117 428.251 814.004 429.813C815.549 430.726 817.227 431.538 819.036 432.247C820.846 432.957 822.508 433.885 824.023 435.032C824.227 435.296 824.481 435.626 824.786 436.022C825.092 436.418 825.463 436.763 825.9 437.057C826.205 437.453 826.511 437.85 826.816 438.246C827.253 438.54 827.624 438.885 827.93 439.281C828.001 439.647 828.057 440.129 828.099 440.729C828.038 441.196 828.044 441.613 828.115 441.979C828.156 442.578 828.197 443.178 828.239 443.777C828.31 444.143 828.316 444.56 828.255 445.027C828.236 446.094 827.968 447.248 827.45 448.488C826.832 449.596 826.279 450.654 825.792 451.66C824.109 455.483 822.344 459.473 820.499 463.631C818.521 467.89 816.523 471.85 814.504 475.51C812.353 479.272 809.592 482.242 806.22 484.42C803.905 485.784 801.386 486.884 798.663 487.72C795.839 488.423 793.218 489.391 790.801 490.623C787.885 492.028 784.844 493.952 781.676 496.393C778.873 498.764 775.462 501.709 771.441 505.229C767.42 508.748 764.008 511.693 761.206 514.064C759.459 515.62 757.779 517.126 756.165 518.58C754.317 520.005 752.57 521.561 750.926 523.249C748.621 525.447 746.469 527.842 744.469 530.435C742.47 533.028 740.267 535.357 737.861 537.422C734.926 539.894 731.768 541.803 728.385 543.147C724.769 544.461 721.356 546.04 718.146 547.882C715.963 549.144 713.668 550.808 711.261 552.873C708.621 554.908 705.93 556.877 703.188 558.779C700.344 560.55 697.424 561.539 694.426 561.745C692.861 561.899 691.078 561.905 689.076 561.765C687.074 561.625 685.351 561.164 683.907 560.383C681.325 559.217 679.235 557.461 677.638 555.115C675.908 552.871 674.163 550.743 672.403 548.733C670.613 546.956 668.518 544.784 666.117 542.215C663.717 539.646 661.712 536.772 660.104 533.593C658.363 530.516 657.72 527.224 658.174 523.718C658.234 523.25 658.31 522.666 658.401 521.964C658.36 521.365 658.42 520.897 658.582 520.562C659.342 517.452 660.889 514.681 663.224 512.25C665.559 509.819 668.046 507.587 670.686 505.552C673.326 503.517 675.484 501.538 677.159 499.616C678.57 497.898 679.864 496.164 681.041 494.415C682.116 492.534 683.293 490.785 684.572 489.168C684.968 488.863 685.445 488.39 686.004 487.749C686.46 486.976 686.821 486.488 687.085 486.285C687.318 486.315 687.603 486.411 687.939 486.573C688.04 486.706 688.208 486.787 688.442 486.817C688.676 486.847 689.194 486.974 689.997 487.197C690.8 487.419 691.252 487.597 691.354 487.729C691.557 487.993 691.68 488.425 691.721 489.024C691.63 489.725 691.636 490.142 691.737 490.274C692.034 492.57 691.798 494.857 691.027 497.134C690.257 499.411 689.269 501.541 688.061 503.523C687.148 505.069 686.133 506.482 685.017 507.764C683.768 509.147 682.418 510.398 680.965 511.517C679.909 512.331 678.853 513.145 677.797 513.959C676.741 514.773 675.787 515.719 674.934 516.797C674.772 517.132 674.544 517.519 674.249 517.956C673.853 518.261 673.574 518.582 673.412 518.917C673.25 519.253 673.204 519.603 673.276 519.969C673.215 520.436 673.17 520.787 673.14 521.021C673.181 521.62 673.156 522.271 673.065 522.972C672.873 523.541 672.863 524.075 673.036 524.572C673.108 524.938 673.23 525.37 673.403 525.868C673.577 526.366 673.765 526.746 673.968 527.01C674.936 529.631 676.27 532.181 677.969 534.659C679.435 537.106 680.966 539.503 682.564 541.849C683.683 543.301 685.168 544.682 687.019 545.991C687.252 546.021 687.588 546.183 688.025 546.478C688.229 546.742 688.447 546.889 688.681 546.919C689.118 547.213 689.637 547.34 690.236 547.299C690.602 547.227 691.019 547.222 691.486 547.282C691.954 547.343 692.421 547.403 692.889 547.464C693.356 547.524 693.824 547.585 694.291 547.645C694.657 547.574 695.089 547.452 695.586 547.278C695.982 546.973 696.378 546.668 696.774 546.363C697.14 546.291 697.572 546.169 698.07 545.996C698.568 545.822 699.014 545.583 699.41 545.278C700.832 544.392 702.167 543.258 703.416 541.875C704.563 540.36 705.862 539.043 707.315 537.923C708.899 536.703 710.686 535.746 712.677 535.053C714.668 534.36 716.593 533.718 718.453 533.127C719.946 532.607 721.505 532.037 723.13 531.415C724.624 530.896 725.964 530.178 727.153 529.262C728.503 528.011 729.635 526.613 730.548 525.067C731.359 523.39 732.221 521.778 733.134 520.233C733.946 518.555 734.925 516.959 736.072 515.444C737.087 514.03 738.269 512.698 739.62 511.447C741.234 509.992 743.067 508.685 745.119 507.524C747.038 506.466 748.769 505.026 750.312 503.206C750.576 503.002 750.906 502.748 751.302 502.443C751.597 502.006 751.825 501.619 751.987 501.284C752.15 500.948 752.327 500.496 752.519 499.927C752.58 499.459 752.641 498.992 752.701 498.524C752.731 498.29 752.843 497.889 753.035 497.32C753.228 496.75 753.288 496.283 753.217 495.917C753.145 495.551 753.023 495.12 752.85 494.622C752.677 494.124 752.554 493.692 752.483 493.326C752.167 492.097 751.718 490.97 751.138 489.944C750.456 488.786 749.774 487.628 749.092 486.47C748.034 484.551 747.041 482.58 746.115 480.559C744.954 478.507 743.86 476.405 742.831 474.252C741.773 472.332 740.516 470.565 739.062 468.951C738.858 468.687 738.655 468.423 738.451 468.159C738.146 467.763 737.825 467.483 737.49 467.321C737.256 467.291 736.956 467.311 736.591 467.383C736.123 467.322 735.656 467.262 735.188 467.201C734.954 467.171 734.553 467.06 733.984 466.867C733.282 466.776 732.749 466.767 732.383 466.838C732.017 466.91 731.637 467.098 731.241 467.403C730.743 467.576 730.296 467.816 729.9 468.121C728.772 468.569 727.762 469.032 726.868 469.511C725.842 470.091 724.801 470.788 723.745 471.602C722.059 472.691 720.424 473.846 718.84 475.067C717.022 476.257 715.423 477.595 714.042 479.08C713.19 480.158 712.403 481.185 711.683 482.161C710.86 483.006 709.987 483.784 709.063 484.496C708.667 484.801 708.205 485.157 707.677 485.564C707.017 486.073 706.504 486.363 706.138 486.434C705.905 486.404 705.569 486.242 705.132 485.948C704.461 485.623 704.008 485.446 703.775 485.415C703.541 485.385 703.256 485.289 702.921 485.127C702.352 484.934 702.016 484.772 701.914 484.64C701.813 484.508 701.792 484.208 701.853 483.741C701.811 483.141 701.806 482.724 701.836 482.491C701.897 482.023 701.957 481.556 702.018 481.088C701.844 480.59 701.788 480.108 701.849 479.64C702.011 479.305 702.239 478.918 702.534 478.481C702.828 478.044 703.056 477.658 703.218 477.322C705.46 472.859 708.399 469.437 712.034 467.055C713.09 466.241 714.197 465.494 715.355 464.812C716.513 464.13 717.671 463.448 718.829 462.766C720.281 461.647 721.565 460.446 722.682 459.165C723.798 457.883 724.981 456.551 726.229 455.168C726.625 454.863 727.037 454.441 727.463 453.902C727.757 453.464 728.102 453.093 728.498 452.788C730.346 451.364 732.47 450.569 734.868 450.404C737.032 450.209 739.226 449.78 741.451 449.118C741.817 449.046 742.3 448.99 742.899 448.948C743.397 448.775 743.778 448.587 744.042 448.383C744.306 448.18 744.57 447.976 744.834 447.773C744.996 447.437 745.209 447.168 745.473 446.965C746.986 445.378 748.295 443.527 749.401 441.412C750.476 439.532 751.618 437.6 752.825 435.617C753.931 433.502 755.189 431.586 756.6 429.867C757.848 428.484 759.25 427.299 760.803 426.311C762.357 425.324 763.962 424.403 765.618 423.548C766.379 423.171 767.258 422.81 768.254 422.463C769.015 422.087 769.777 421.71 770.539 421.333C771.961 420.448 773.362 419.263 774.743 417.778C775.403 417.269 776.027 416.577 776.615 415.703C777.072 414.93 777.63 414.289 778.29 413.781C779.245 412.835 780.865 411.797 783.15 410.667ZM762.038 474.599C762.313 475.229 762.603 475.742 762.908 476.138C763.213 476.534 763.503 477.047 763.778 477.677C763.88 477.809 764.033 478.007 764.236 478.271C764.206 478.505 764.308 478.637 764.541 478.667C764.643 478.799 764.826 478.763 765.09 478.56C765.222 478.458 765.42 478.305 765.684 478.102C765.786 478.234 766.085 478.213 766.583 478.04C767.081 477.867 767.396 477.729 767.528 477.628C767.558 477.394 767.522 477.211 767.421 477.079C767.085 476.917 766.816 476.703 766.612 476.439C766.032 475.414 765.655 474.652 765.482 474.154C765.279 473.89 765.192 473.641 765.222 473.407C765.121 473.275 764.968 473.077 764.764 472.813C764.764 472.813 764.566 472.966 764.17 473.271C763.043 473.719 762.332 474.162 762.038 474.599ZM765.599 452.601C766.24 453.159 766.881 453.717 767.521 454.276C768.162 454.834 768.737 455.443 769.245 456.103C770.497 457.453 771.616 458.906 772.603 460.459C773.488 461.881 774.491 463.318 775.61 464.77C777.106 466.984 779.018 469.193 781.347 471.396C782.497 472.614 783.778 473.73 785.192 474.745C786.371 475.73 787.815 476.511 789.523 477.089C789.99 477.149 790.509 477.276 791.078 477.468C791.413 477.631 791.815 477.742 792.282 477.802C792.75 477.863 793.232 477.807 793.73 477.633C794.228 477.46 794.66 477.338 795.026 477.266C795.493 477.327 796.027 477.337 796.626 477.295C796.992 477.224 797.424 477.102 797.921 476.928C799.049 476.48 800.207 475.798 801.395 474.883C802.583 473.967 803.537 473.021 804.258 472.045C806.562 469.848 808.592 467.021 810.347 463.564C811.97 460.209 812.693 456.916 812.517 453.685C812.476 453.085 812.501 452.435 812.592 451.734C812.551 451.134 812.443 450.585 812.27 450.088C811.995 449.458 811.618 448.696 811.14 447.802C810.428 446.878 809.868 446.152 809.461 445.624C808.312 444.406 807.096 443.238 805.815 442.122C804.432 440.873 803.165 439.64 802.016 438.421C800.429 436.909 798.909 435.345 797.454 433.731C795.766 432.086 794.047 430.675 792.298 429.498C791.759 429.072 791.286 428.595 790.879 428.067C790.238 427.508 789.633 427.133 789.064 426.94C788.83 426.91 788.597 426.88 788.363 426.85C788.129 426.819 787.946 426.855 787.814 426.957C787.113 426.866 786.412 426.775 785.71 426.684C785.009 426.594 784.359 426.569 783.759 426.61C783.262 426.783 782.815 427.022 782.419 427.328C782.023 427.633 781.693 427.887 781.429 428.091C780.271 428.773 779.164 429.521 778.108 430.335C776.95 431.016 775.726 431.749 774.436 432.533C772.75 433.622 771.049 434.828 769.333 436.15C767.516 437.341 765.901 438.796 764.49 440.514C764.196 440.951 763.902 441.389 763.607 441.826C763.079 442.233 762.668 442.655 762.374 443.092C762.313 443.56 762.37 444.042 762.543 444.54C762.482 445.008 762.422 445.475 762.361 445.943C762.331 446.176 762.337 446.593 762.378 447.193C762.185 447.762 762.125 448.229 762.196 448.595C762.369 449.093 762.878 449.753 763.722 450.575C764.465 451.265 765.09 451.941 765.599 452.601Z" fill="black"/>
<path d="M851.15 451.667C851.983 451.656 852.882 451.594 853.848 451.481C854.711 451.236 855.544 451.226 856.347 451.448C856.815 451.509 857.267 451.686 857.705 451.981C858.04 452.143 858.442 452.254 858.909 452.315C860.587 453.126 862.132 454.039 863.545 455.054C864.959 456.069 866.357 457.201 867.74 458.449C869.938 460.754 872.135 463.059 874.332 465.363C876.559 467.434 879.117 469.251 882.004 470.813C883.549 471.726 885.227 472.538 887.036 473.247C888.846 473.957 890.508 474.885 892.023 476.032C892.227 476.296 892.481 476.626 892.786 477.022C893.092 477.418 893.463 477.763 893.9 478.057C894.205 478.453 894.511 478.85 894.816 479.246C895.253 479.54 895.624 479.885 895.93 480.281C896.001 480.647 896.057 481.129 896.099 481.729C896.038 482.196 896.044 482.613 896.115 482.979C896.156 483.578 896.197 484.178 896.239 484.777C896.31 485.143 896.316 485.56 896.255 486.027C896.236 487.094 895.968 488.248 895.45 489.488C894.832 490.596 894.279 491.654 893.792 492.66C892.109 496.483 890.344 500.473 888.499 504.631C886.521 508.89 884.523 512.85 882.504 516.51C880.353 520.272 877.592 523.242 874.22 525.42C871.905 526.784 869.386 527.884 866.663 528.72C863.839 529.423 861.218 530.391 858.801 531.623C855.885 533.028 852.844 534.952 849.676 537.393C846.873 539.764 843.462 542.709 839.441 546.229C835.42 549.748 832.008 552.693 829.206 555.064C827.459 556.62 825.779 558.126 824.165 559.58C822.317 561.005 820.57 562.561 818.926 564.249C816.621 566.447 814.469 568.842 812.469 571.435C810.47 574.028 808.267 576.357 805.861 578.422C802.926 580.894 799.768 582.803 796.385 584.147C792.769 585.461 789.356 587.04 786.146 588.882C783.963 590.144 781.668 591.808 779.261 593.873C776.621 595.908 773.93 597.877 771.188 599.779C768.344 601.55 765.424 602.539 762.426 602.745C760.861 602.899 759.078 602.905 757.076 602.765C755.074 602.625 753.351 602.164 751.907 601.383C749.325 600.217 747.235 598.461 745.638 596.115C743.908 593.871 742.163 591.743 740.403 589.733C738.613 587.956 736.518 585.784 734.117 583.215C731.717 580.646 729.712 577.772 728.104 574.593C726.363 571.516 725.72 568.224 726.174 564.718C726.234 564.25 726.31 563.666 726.401 562.964C726.36 562.365 726.42 561.897 726.582 561.562C727.342 558.452 728.889 555.681 731.224 553.25C733.559 550.819 736.046 548.587 738.686 546.552C741.326 544.517 743.484 542.538 745.159 540.616C746.57 538.898 747.864 537.164 749.041 535.415C750.116 533.534 751.293 531.785 752.572 530.168C752.968 529.863 753.445 529.39 754.004 528.749C754.46 527.976 754.821 527.488 755.085 527.285C755.318 527.315 755.603 527.411 755.939 527.573C756.04 527.706 756.208 527.787 756.442 527.817C756.676 527.847 757.194 527.974 757.997 528.197C758.8 528.419 759.252 528.597 759.354 528.729C759.557 528.993 759.68 529.425 759.721 530.024C759.63 530.725 759.636 531.142 759.737 531.274C760.034 533.57 759.798 535.857 759.027 538.134C758.257 540.411 757.269 542.541 756.061 544.523C755.148 546.069 754.133 547.482 753.017 548.764C751.768 550.147 750.418 551.398 748.965 552.517C747.909 553.331 746.853 554.145 745.797 554.959C744.741 555.773 743.787 556.719 742.934 557.797C742.772 558.132 742.544 558.519 742.249 558.956C741.853 559.261 741.574 559.582 741.412 559.917C741.25 560.253 741.204 560.603 741.276 560.969C741.215 561.436 741.17 561.787 741.14 562.021C741.181 562.62 741.156 563.271 741.065 563.972C740.873 564.541 740.863 565.075 741.036 565.572C741.108 565.938 741.23 566.37 741.403 566.868C741.577 567.366 741.765 567.746 741.968 568.01C742.936 570.631 744.27 573.181 745.969 575.659C747.435 578.106 748.966 580.503 750.564 582.849C751.683 584.301 753.168 585.682 755.019 586.991C755.252 587.021 755.588 587.183 756.025 587.478C756.229 587.742 756.447 587.889 756.681 587.919C757.118 588.213 757.637 588.34 758.236 588.299C758.602 588.227 759.019 588.222 759.486 588.282C759.954 588.343 760.421 588.403 760.889 588.464C761.356 588.524 761.824 588.585 762.291 588.645C762.657 588.574 763.089 588.452 763.586 588.278C763.982 587.973 764.378 587.668 764.774 587.363C765.14 587.291 765.572 587.169 766.07 586.996C766.568 586.822 767.014 586.583 767.41 586.278C768.832 585.392 770.167 584.258 771.416 582.875C772.563 581.36 773.862 580.043 775.315 578.923C776.899 577.703 778.686 576.746 780.677 576.053C782.668 575.36 784.593 574.718 786.453 574.127C787.946 573.607 789.505 573.037 791.13 572.415C792.624 571.896 793.964 571.178 795.153 570.262C796.503 569.011 797.635 567.613 798.548 566.067C799.359 564.39 800.221 562.778 801.134 561.233C801.946 559.555 802.925 557.959 804.072 556.444C805.087 555.03 806.269 553.698 807.62 552.447C809.234 550.992 811.067 549.685 813.119 548.524C815.038 547.466 816.769 546.026 818.312 544.206C818.576 544.002 818.906 543.748 819.302 543.443C819.597 543.006 819.825 542.619 819.987 542.284C820.15 541.948 820.327 541.496 820.519 540.927C820.58 540.459 820.641 539.992 820.701 539.524C820.731 539.29 820.843 538.889 821.035 538.32C821.228 537.75 821.288 537.283 821.217 536.917C821.145 536.551 821.023 536.12 820.85 535.622C820.677 535.124 820.554 534.692 820.483 534.326C820.167 533.097 819.718 531.97 819.138 530.944C818.456 529.786 817.774 528.628 817.092 527.47C816.034 525.551 815.041 523.58 814.115 521.559C812.954 519.507 811.86 517.405 810.831 515.252C809.773 513.332 808.516 511.565 807.062 509.951C806.858 509.687 806.655 509.423 806.451 509.159C806.146 508.763 805.825 508.483 805.49 508.321C805.256 508.291 804.956 508.311 804.591 508.383C804.123 508.322 803.656 508.262 803.188 508.201C802.954 508.171 802.553 508.06 801.984 507.867C801.282 507.776 800.749 507.767 800.383 507.838C800.017 507.91 799.637 508.098 799.241 508.403C798.743 508.576 798.296 508.816 797.9 509.121C796.772 509.569 795.762 510.032 794.868 510.511C793.842 511.091 792.801 511.788 791.745 512.602C790.059 513.691 788.424 514.846 786.84 516.067C785.022 517.257 783.423 518.595 782.042 520.08C781.19 521.158 780.403 522.185 779.683 523.161C778.86 524.006 777.987 524.784 777.063 525.496C776.667 525.801 776.205 526.157 775.677 526.564C775.017 527.073 774.504 527.363 774.138 527.434C773.905 527.404 773.569 527.242 773.132 526.948C772.461 526.623 772.008 526.446 771.775 526.415C771.541 526.385 771.256 526.289 770.921 526.127C770.352 525.934 770.016 525.772 769.914 525.64C769.813 525.508 769.792 525.208 769.853 524.741C769.811 524.141 769.806 523.724 769.836 523.491C769.897 523.023 769.957 522.556 770.018 522.088C769.844 521.59 769.788 521.108 769.849 520.64C770.011 520.305 770.239 519.918 770.534 519.481C770.828 519.044 771.056 518.658 771.218 518.322C773.46 513.859 776.399 510.437 780.034 508.055C781.09 507.241 782.197 506.494 783.355 505.812C784.513 505.13 785.671 504.448 786.829 503.766C788.281 502.647 789.565 501.446 790.682 500.165C791.798 498.883 792.981 497.551 794.229 496.168C794.625 495.863 795.037 495.441 795.463 494.902C795.757 494.464 796.102 494.093 796.498 493.788C798.346 492.364 800.47 491.569 802.868 491.404C805.032 491.209 807.226 490.78 809.451 490.118C809.817 490.046 810.3 489.99 810.899 489.948C811.397 489.775 811.778 489.587 812.042 489.383C812.306 489.18 812.57 488.976 812.834 488.773C812.996 488.437 813.209 488.168 813.473 487.965C814.986 486.378 816.295 484.527 817.401 482.412C818.476 480.532 819.618 478.6 820.825 476.617C821.931 474.502 823.189 472.586 824.6 470.867C825.848 469.484 827.25 468.299 828.803 467.311C830.357 466.324 831.962 465.403 833.618 464.548C834.379 464.171 835.258 463.81 836.254 463.463C837.015 463.087 837.777 462.71 838.539 462.333C839.961 461.448 841.362 460.263 842.743 458.778C843.403 458.269 844.027 457.577 844.615 456.703C845.072 455.93 845.63 455.289 846.29 454.781C847.245 453.835 848.865 452.797 851.15 451.667ZM830.038 515.599C830.313 516.229 830.603 516.742 830.908 517.138C831.213 517.534 831.503 518.047 831.778 518.677C831.88 518.809 832.033 519.007 832.236 519.271C832.206 519.505 832.308 519.637 832.541 519.667C832.643 519.799 832.826 519.763 833.09 519.56C833.222 519.458 833.42 519.305 833.684 519.102C833.786 519.234 834.085 519.213 834.583 519.04C835.081 518.867 835.396 518.729 835.528 518.628C835.558 518.394 835.522 518.211 835.421 518.079C835.085 517.917 834.816 517.703 834.612 517.439C834.032 516.414 833.655 515.652 833.482 515.154C833.279 514.89 833.192 514.641 833.222 514.407C833.121 514.275 832.968 514.077 832.764 513.813C832.764 513.813 832.566 513.966 832.17 514.271C831.043 514.719 830.332 515.162 830.038 515.599ZM833.599 493.601C834.24 494.159 834.881 494.717 835.521 495.276C836.162 495.834 836.737 496.443 837.245 497.103C838.497 498.453 839.616 499.906 840.603 501.459C841.488 502.881 842.491 504.318 843.61 505.77C845.106 507.984 847.018 510.193 849.347 512.396C850.497 513.614 851.778 514.73 853.192 515.745C854.371 516.73 855.815 517.511 857.523 518.089C857.99 518.149 858.509 518.276 859.078 518.468C859.413 518.631 859.815 518.742 860.282 518.802C860.75 518.863 861.232 518.807 861.73 518.633C862.228 518.46 862.66 518.338 863.026 518.266C863.493 518.327 864.027 518.337 864.626 518.295C864.992 518.224 865.424 518.102 865.921 517.928C867.049 517.48 868.207 516.798 869.395 515.883C870.583 514.967 871.537 514.021 872.258 513.045C874.562 510.848 876.592 508.021 878.347 504.564C879.97 501.209 880.693 497.916 880.517 494.685C880.476 494.085 880.501 493.435 880.592 492.734C880.551 492.134 880.443 491.585 880.27 491.088C879.995 490.458 879.618 489.696 879.14 488.802C878.428 487.878 877.868 487.152 877.461 486.624C876.312 485.406 875.096 484.238 873.815 483.122C872.432 481.873 871.165 480.64 870.016 479.421C868.429 477.909 866.909 476.345 865.454 474.731C863.766 473.086 862.047 471.675 860.298 470.498C859.759 470.072 859.286 469.595 858.879 469.067C858.238 468.508 857.633 468.133 857.064 467.94C856.83 467.91 856.597 467.88 856.363 467.85C856.129 467.819 855.946 467.855 855.814 467.957C855.113 467.866 854.412 467.775 853.71 467.684C853.009 467.594 852.359 467.569 851.759 467.61C851.262 467.783 850.815 468.022 850.419 468.328C850.023 468.633 849.693 468.887 849.429 469.091C848.271 469.773 847.164 470.521 846.108 471.335C844.95 472.016 843.726 472.749 842.436 473.533C840.75 474.622 839.049 475.828 837.333 477.15C835.516 478.341 833.901 479.796 832.49 481.514C832.196 481.951 831.902 482.389 831.607 482.826C831.079 483.233 830.668 483.655 830.374 484.092C830.313 484.56 830.37 485.042 830.543 485.54C830.482 486.008 830.422 486.475 830.361 486.943C830.331 487.176 830.337 487.593 830.378 488.193C830.185 488.762 830.125 489.229 830.196 489.595C830.369 490.093 830.878 490.753 831.722 491.575C832.465 492.265 833.09 492.941 833.599 493.601Z" fill="black"/>
<path d="M927.15 479.667C927.983 479.656 928.882 479.594 929.848 479.481C930.711 479.236 931.544 479.226 932.347 479.448C932.815 479.509 933.267 479.686 933.705 479.981C934.04 480.143 934.442 480.254 934.909 480.315C936.587 481.126 938.132 482.039 939.545 483.054C940.959 484.069 942.357 485.201 943.74 486.449C945.938 488.754 948.135 491.059 950.332 493.363C952.559 495.434 955.117 497.251 958.004 498.813C959.549 499.726 961.227 500.538 963.036 501.247C964.846 501.957 966.508 502.885 968.023 504.032C968.227 504.296 968.481 504.626 968.786 505.022C969.092 505.418 969.463 505.763 969.9 506.057C970.205 506.453 970.511 506.85 970.816 507.246C971.253 507.54 971.624 507.885 971.93 508.281C972.001 508.647 972.057 509.129 972.099 509.729C972.038 510.196 972.044 510.613 972.115 510.979C972.156 511.578 972.197 512.178 972.239 512.777C972.31 513.143 972.316 513.56 972.255 514.027C972.236 515.094 971.968 516.248 971.45 517.488C970.832 518.596 970.279 519.654 969.792 520.66C968.109 524.483 966.344 528.473 964.499 532.631C962.521 536.89 960.523 540.85 958.504 544.51C956.353 548.272 953.592 551.242 950.22 553.42C947.905 554.784 945.386 555.884 942.663 556.72C939.839 557.423 937.218 558.391 934.801 559.623C931.885 561.028 928.844 562.952 925.676 565.393C922.873 567.764 919.462 570.709 915.441 574.229C911.42 577.748 908.008 580.693 905.206 583.064C903.459 584.62 901.779 586.126 900.165 587.58C898.317 589.005 896.57 590.561 894.926 592.249C892.621 594.447 890.469 596.842 888.469 599.435C886.47 602.028 884.267 604.357 881.861 606.422C878.926 608.894 875.768 610.803 872.385 612.147C868.769 613.461 865.356 615.04 862.146 616.882C859.963 618.144 857.668 619.808 855.261 621.873C852.621 623.908 849.93 625.877 847.188 627.779C844.344 629.55 841.424 630.539 838.426 630.745C836.861 630.899 835.078 630.905 833.076 630.765C831.074 630.625 829.351 630.164 827.907 629.383C825.325 628.217 823.235 626.461 821.638 624.115C819.908 621.871 818.163 619.743 816.403 617.733C814.613 615.956 812.518 613.784 810.117 611.215C807.717 608.646 805.712 605.772 804.104 602.593C802.363 599.516 801.72 596.224 802.174 592.718C802.234 592.25 802.31 591.666 802.401 590.964C802.36 590.365 802.42 589.897 802.582 589.562C803.342 586.452 804.889 583.681 807.224 581.25C809.559 578.819 812.046 576.587 814.686 574.552C817.326 572.517 819.484 570.538 821.159 568.616C822.57 566.898 823.864 565.164 825.041 563.415C826.116 561.534 827.293 559.785 828.572 558.168C828.968 557.863 829.445 557.39 830.004 556.749C830.46 555.976 830.821 555.488 831.085 555.285C831.318 555.315 831.603 555.411 831.939 555.573C832.04 555.706 832.208 555.787 832.442 555.817C832.676 555.847 833.194 555.974 833.997 556.197C834.8 556.419 835.252 556.597 835.354 556.729C835.557 556.993 835.68 557.425 835.721 558.024C835.63 558.725 835.636 559.142 835.737 559.274C836.034 561.57 835.798 563.857 835.027 566.134C834.257 568.411 833.269 570.541 832.061 572.523C831.148 574.069 830.133 575.482 829.017 576.764C827.768 578.147 826.418 579.398 824.965 580.517C823.909 581.331 822.853 582.145 821.797 582.959C820.741 583.773 819.787 584.719 818.934 585.797C818.772 586.132 818.544 586.519 818.249 586.956C817.853 587.261 817.574 587.582 817.412 587.917C817.25 588.253 817.204 588.603 817.276 588.969C817.215 589.436 817.17 589.787 817.14 590.021C817.181 590.62 817.156 591.271 817.065 591.972C816.873 592.541 816.863 593.075 817.036 593.572C817.108 593.938 817.23 594.37 817.403 594.868C817.577 595.366 817.765 595.746 817.968 596.01C818.936 598.631 820.27 601.181 821.969 603.659C823.435 606.106 824.966 608.503 826.564 610.849C827.683 612.301 829.168 613.682 831.019 614.991C831.252 615.021 831.588 615.183 832.025 615.478C832.229 615.742 832.447 615.889 832.681 615.919C833.118 616.213 833.637 616.34 834.236 616.299C834.602 616.227 835.019 616.222 835.486 616.282C835.954 616.343 836.421 616.403 836.889 616.464C837.356 616.524 837.824 616.585 838.291 616.645C838.657 616.574 839.089 616.452 839.586 616.278C839.982 615.973 840.378 615.668 840.774 615.363C841.14 615.291 841.572 615.169 842.07 614.996C842.568 614.822 843.014 614.583 843.41 614.278C844.832 613.392 846.167 612.258 847.416 610.875C848.563 609.36 849.862 608.043 851.315 606.923C852.899 605.703 854.686 604.746 856.677 604.053C858.668 603.36 860.593 602.718 862.453 602.127C863.946 601.607 865.505 601.037 867.13 600.415C868.624 599.896 869.964 599.178 871.153 598.262C872.503 597.011 873.635 595.613 874.548 594.067C875.359 592.39 876.221 590.778 877.134 589.233C877.946 587.555 878.925 585.959 880.072 584.444C881.087 583.03 882.269 581.698 883.62 580.447C885.234 578.992 887.067 577.685 889.119 576.524C891.038 575.466 892.769 574.026 894.312 572.206C894.576 572.002 894.906 571.748 895.302 571.443C895.597 571.006 895.825 570.619 895.987 570.284C896.15 569.948 896.327 569.496 896.519 568.927C896.58 568.459 896.641 567.992 896.701 567.524C896.731 567.29 896.843 566.889 897.035 566.32C897.228 565.75 897.288 565.283 897.217 564.917C897.145 564.551 897.023 564.12 896.85 563.622C896.677 563.124 896.554 562.692 896.483 562.326C896.167 561.097 895.718 559.97 895.138 558.944C894.456 557.786 893.774 556.628 893.092 555.47C892.034 553.551 891.041 551.58 890.115 549.559C888.954 547.507 887.86 545.405 886.831 543.252C885.773 541.332 884.516 539.565 883.062 537.951C882.858 537.687 882.655 537.423 882.451 537.159C882.146 536.763 881.825 536.483 881.49 536.321C881.256 536.291 880.956 536.311 880.591 536.383C880.123 536.322 879.656 536.262 879.188 536.201C878.954 536.171 878.553 536.06 877.984 535.867C877.282 535.776 876.749 535.767 876.383 535.838C876.017 535.91 875.637 536.098 875.241 536.403C874.743 536.576 874.296 536.816 873.9 537.121C872.772 537.569 871.762 538.032 870.868 538.511C869.842 539.091 868.801 539.788 867.745 540.602C866.059 541.691 864.424 542.846 862.84 544.067C861.022 545.257 859.423 546.595 858.042 548.08C857.19 549.158 856.403 550.185 855.683 551.161C854.86 552.006 853.987 552.784 853.063 553.496C852.667 553.801 852.205 554.157 851.677 554.564C851.017 555.073 850.504 555.363 850.138 555.434C849.905 555.404 849.569 555.242 849.132 554.948C848.461 554.623 848.008 554.446 847.775 554.415C847.541 554.385 847.256 554.289 846.921 554.127C846.352 553.934 846.016 553.772 845.914 553.64C845.813 553.508 845.792 553.208 845.853 552.741C845.811 552.141 845.806 551.724 845.836 551.491C845.897 551.023 845.957 550.556 846.018 550.088C845.844 549.59 845.788 549.108 845.849 548.64C846.011 548.305 846.239 547.918 846.534 547.481C846.828 547.044 847.056 546.658 847.218 546.322C849.46 541.859 852.399 538.437 856.034 536.055C857.09 535.241 858.197 534.494 859.355 533.812C860.513 533.13 861.671 532.448 862.829 531.766C864.281 530.647 865.565 529.446 866.682 528.165C867.798 526.883 868.981 525.551 870.229 524.168C870.625 523.863 871.037 523.441 871.463 522.902C871.757 522.464 872.102 522.093 872.498 521.788C874.346 520.364 876.47 519.569 878.868 519.404C881.032 519.209 883.226 518.78 885.451 518.118C885.817 518.046 886.3 517.99 886.899 517.948C887.397 517.775 887.778 517.587 888.042 517.383C888.306 517.18 888.57 516.976 888.834 516.773C888.996 516.437 889.209 516.168 889.473 515.965C890.986 514.378 892.295 512.527 893.401 510.412C894.476 508.532 895.618 506.6 896.825 504.617C897.931 502.502 899.189 500.586 900.6 498.867C901.848 497.484 903.25 496.299 904.803 495.311C906.357 494.324 907.962 493.403 909.618 492.548C910.379 492.171 911.258 491.81 912.254 491.463C913.015 491.087 913.777 490.71 914.539 490.333C915.961 489.448 917.362 488.263 918.743 486.778C919.403 486.269 920.027 485.577 920.615 484.703C921.072 483.93 921.63 483.289 922.29 482.781C923.245 481.835 924.865 480.797 927.15 479.667ZM906.038 543.599C906.313 544.229 906.603 544.742 906.908 545.138C907.213 545.534 907.503 546.047 907.778 546.677C907.88 546.809 908.033 547.007 908.236 547.271C908.206 547.505 908.308 547.637 908.541 547.667C908.643 547.799 908.826 547.763 909.09 547.56C909.222 547.458 909.42 547.305 909.684 547.102C909.786 547.234 910.085 547.213 910.583 547.04C911.081 546.867 911.396 546.729 911.528 546.628C911.558 546.394 911.522 546.211 911.421 546.079C911.085 545.917 910.816 545.703 910.612 545.439C910.032 544.414 909.655 543.652 909.482 543.154C909.279 542.89 909.192 542.641 909.222 542.407C909.121 542.275 908.968 542.077 908.764 541.813C908.764 541.813 908.566 541.966 908.17 542.271C907.043 542.719 906.332 543.162 906.038 543.599ZM909.599 521.601C910.24 522.159 910.881 522.717 911.521 523.276C912.162 523.834 912.737 524.443 913.245 525.103C914.497 526.453 915.616 527.906 916.603 529.459C917.488 530.881 918.491 532.318 919.61 533.77C921.106 535.984 923.018 538.193 925.347 540.396C926.497 541.614 927.778 542.73 929.192 543.745C930.371 544.73 931.815 545.511 933.523 546.089C933.99 546.149 934.509 546.276 935.078 546.468C935.413 546.631 935.815 546.742 936.282 546.802C936.75 546.863 937.232 546.807 937.73 546.633C938.228 546.46 938.66 546.338 939.026 546.266C939.493 546.327 940.027 546.337 940.626 546.295C940.992 546.224 941.424 546.102 941.921 545.928C943.049 545.48 944.207 544.798 945.395 543.883C946.583 542.967 947.537 542.021 948.258 541.045C950.562 538.848 952.592 536.021 954.347 532.564C955.97 529.209 956.693 525.916 956.517 522.685C956.476 522.085 956.501 521.435 956.592 520.734C956.551 520.134 956.443 519.585 956.27 519.088C955.995 518.458 955.618 517.696 955.14 516.802C954.428 515.878 953.868 515.152 953.461 514.624C952.312 513.406 951.096 512.238 949.815 511.122C948.432 509.873 947.165 508.64 946.016 507.421C944.429 505.909 942.909 504.345 941.454 502.731C939.766 501.086 938.047 499.675 936.298 498.498C935.759 498.072 935.286 497.595 934.879 497.067C934.238 496.508 933.633 496.133 933.064 495.94C932.83 495.91 932.597 495.88 932.363 495.85C932.129 495.819 931.946 495.855 931.814 495.957C931.113 495.866 930.412 495.775 929.71 495.684C929.009 495.594 928.359 495.569 927.759 495.61C927.262 495.783 926.815 496.022 926.419 496.328C926.023 496.633 925.693 496.887 925.429 497.091C924.271 497.773 923.164 498.521 922.108 499.335C920.95 500.016 919.726 500.749 918.436 501.533C916.75 502.622 915.049 503.828 913.333 505.15C911.516 506.341 909.901 507.796 908.49 509.514C908.196 509.951 907.902 510.389 907.607 510.826C907.079 511.233 906.668 511.655 906.374 512.092C906.313 512.56 906.37 513.042 906.543 513.54C906.482 514.008 906.422 514.475 906.361 514.943C906.331 515.176 906.337 515.593 906.378 516.193C906.185 516.762 906.125 517.229 906.196 517.595C906.369 518.093 906.878 518.753 907.722 519.575C908.465 520.265 909.09 520.941 909.599 521.601Z" fill="black"/>
<path d="M996.036 504.324C996.868 504.271 997.763 504.164 998.721 504.003C999.571 503.714 1000.4 503.661 1001.22 503.843C1001.69 503.88 1002.15 504.034 1002.6 504.306C1002.94 504.451 1003.35 504.542 1003.82 504.579C1005.53 505.304 1007.12 506.138 1008.59 507.08C1010.05 508.022 1011.5 509.081 1012.95 510.258C1015.26 512.449 1017.57 514.639 1019.88 516.83C1022.21 518.785 1024.86 520.47 1027.82 521.884C1029.41 522.718 1031.13 523.443 1032.97 524.06C1034.81 524.677 1036.52 525.52 1038.09 526.589C1038.31 526.842 1038.58 527.159 1038.9 527.539C1039.23 527.919 1039.62 528.245 1040.07 528.517C1040.39 528.897 1040.72 529.277 1041.04 529.657C1041.49 529.929 1041.88 530.255 1042.21 530.635C1042.3 530.997 1042.38 531.476 1042.45 532.072C1042.41 532.542 1042.44 532.958 1042.53 533.32C1042.6 533.917 1042.67 534.513 1042.74 535.11C1042.83 535.471 1042.86 535.887 1042.82 536.357C1042.86 537.424 1042.65 538.59 1042.19 539.854C1041.63 540.993 1041.13 542.077 1040.7 543.106C1039.21 547.009 1037.65 551.084 1036.02 555.33C1034.26 559.684 1032.46 563.74 1030.63 567.498C1028.68 571.364 1026.07 574.469 1022.81 576.815C1020.57 578.294 1018.11 579.52 1015.43 580.493C1012.65 581.339 1010.08 582.438 1007.73 583.791C1004.89 585.342 1001.94 587.417 998.904 590.016C996.225 592.525 992.967 595.639 989.13 599.358C985.292 603.077 982.034 606.191 979.355 608.7C977.69 610.343 976.088 611.931 974.549 613.466C972.776 614.982 971.11 616.625 969.553 618.394C967.363 620.705 965.335 623.206 963.469 625.897C961.604 628.588 959.521 631.026 957.223 633.21C954.417 635.828 951.359 637.894 948.049 639.408C944.504 640.903 941.175 642.653 938.063 644.655C935.946 646.026 933.738 647.804 931.44 649.988C928.906 652.154 926.318 654.256 923.676 656.296C920.926 658.208 918.059 659.343 915.075 659.701C913.521 659.934 911.74 660.031 909.733 659.992C907.727 659.953 905.983 659.58 904.501 658.873C901.863 657.839 899.687 656.191 897.973 653.929C896.132 651.775 894.282 649.739 892.422 647.821C890.544 646.137 888.342 644.073 885.814 641.629C883.287 639.185 881.139 636.417 879.372 633.323C877.477 630.338 876.668 627.083 876.944 623.558C876.981 623.088 877.027 622.5 877.082 621.795C877.011 621.199 877.047 620.729 877.192 620.386C877.793 617.241 879.198 614.396 881.407 611.85C883.616 609.304 885.987 606.948 888.521 604.782C891.055 602.616 893.109 600.531 894.685 598.526C896.007 596.738 897.211 594.941 898.298 593.135C899.277 591.202 900.364 589.396 901.56 587.716C901.94 587.391 902.392 586.895 902.917 586.226C903.334 585.431 903.669 584.926 903.923 584.709C904.158 584.728 904.447 584.809 904.79 584.954C904.899 585.081 905.07 585.154 905.305 585.172C905.54 585.19 906.064 585.291 906.877 585.472C907.691 585.654 908.151 585.809 908.26 585.935C908.476 586.189 908.62 586.614 908.692 587.21C908.637 587.915 908.663 588.331 908.772 588.458C909.184 590.736 909.064 593.032 908.41 595.345C907.756 597.658 906.876 599.835 905.771 601.876C904.937 603.466 903.995 604.929 902.945 606.265C901.768 607.71 900.483 609.028 899.089 610.219C898.076 611.086 897.062 611.952 896.048 612.818C895.035 613.685 894.13 614.678 893.333 615.797C893.188 616.141 892.979 616.538 892.708 616.99C892.328 617.315 892.065 617.649 891.92 617.992C891.775 618.335 891.747 618.688 891.837 619.049C891.8 619.519 891.773 619.872 891.754 620.107C891.826 620.703 891.834 621.354 891.779 622.059C891.615 622.637 891.633 623.171 891.831 623.659C891.921 624.021 892.065 624.446 892.263 624.934C892.461 625.423 892.669 625.793 892.885 626.047C893.985 628.615 895.445 631.094 897.268 633.483C898.856 635.853 900.507 638.169 902.221 640.431C903.412 641.825 904.965 643.128 906.88 644.342C907.115 644.36 907.458 644.505 907.91 644.777C908.126 645.031 908.352 645.166 908.587 645.185C909.039 645.457 909.563 645.557 910.159 645.485C910.521 645.395 910.937 645.369 911.407 645.406C911.877 645.442 912.347 645.479 912.817 645.516C913.287 645.553 913.757 645.589 914.227 645.626C914.588 645.536 915.013 645.392 915.502 645.194C915.882 644.869 916.262 644.544 916.642 644.219C917.004 644.13 917.429 643.986 917.917 643.787C918.405 643.589 918.84 643.328 919.22 643.003C920.595 642.046 921.871 640.846 923.048 639.401C924.116 637.83 925.348 636.449 926.741 635.258C928.261 633.958 929.998 632.912 931.952 632.119C933.905 631.326 935.795 630.588 937.622 629.903C939.087 629.308 940.616 628.66 942.207 627.957C943.672 627.362 944.975 626.578 946.115 625.603C947.4 624.285 948.46 622.831 949.294 621.242C950.019 619.525 950.799 617.872 951.632 616.282C952.358 614.566 953.255 612.922 954.323 611.351C955.265 609.888 956.379 608.497 957.664 607.179C959.203 605.645 960.967 604.246 962.958 602.983C964.821 601.829 966.477 600.304 967.926 598.407C968.179 598.191 968.496 597.92 968.876 597.595C969.148 597.144 969.356 596.746 969.502 596.403C969.647 596.06 969.801 595.599 969.964 595.021C970.001 594.551 970.038 594.081 970.075 593.611C970.093 593.376 970.184 592.969 970.348 592.391C970.511 591.813 970.548 591.343 970.458 590.981C970.368 590.619 970.224 590.194 970.026 589.706C969.828 589.218 969.683 588.793 969.594 588.431C969.216 587.219 968.711 586.116 968.08 585.121C967.34 583.999 966.6 582.877 965.86 581.755C964.706 579.892 963.615 577.974 962.587 576.002C961.324 574.012 960.125 571.968 958.989 569.869C957.834 568.006 956.49 566.304 954.955 564.766C954.739 564.512 954.522 564.259 954.306 564.006C953.981 563.626 953.647 563.363 953.303 563.218C953.068 563.2 952.77 563.235 952.408 563.325C951.938 563.288 951.468 563.252 950.998 563.215C950.764 563.196 950.357 563.106 949.779 562.942C949.074 562.887 948.54 562.904 948.179 562.994C947.817 563.084 947.446 563.291 947.066 563.616C946.578 563.815 946.144 564.076 945.763 564.401C944.66 564.906 943.674 565.42 942.806 565.943C941.811 566.574 940.806 567.323 939.793 568.189C938.164 569.362 936.59 570.598 935.07 571.898C933.314 573.179 931.785 574.596 930.481 576.149C929.684 577.269 928.951 578.334 928.28 579.346C927.502 580.23 926.669 581.052 925.782 581.81C925.402 582.135 924.959 582.514 924.452 582.947C923.819 583.489 923.321 583.804 922.96 583.894C922.725 583.876 922.381 583.731 921.93 583.459C921.243 583.169 920.782 583.014 920.547 582.996C920.312 582.978 920.023 582.896 919.68 582.751C919.102 582.587 918.758 582.442 918.65 582.316C918.542 582.189 918.506 581.891 918.543 581.421C918.471 580.824 918.445 580.408 918.463 580.173C918.5 579.703 918.537 579.233 918.574 578.763C918.375 578.275 918.295 577.796 918.331 577.326C918.477 576.982 918.685 576.585 918.957 576.133C919.229 575.682 919.437 575.284 919.582 574.941C921.595 570.37 924.356 566.804 927.867 564.241C928.88 563.375 929.948 562.572 931.07 561.832C932.192 561.093 933.313 560.353 934.435 559.613C935.829 558.422 937.051 557.158 938.101 555.822C939.151 554.486 940.265 553.095 941.442 551.65C941.822 551.326 942.211 550.883 942.61 550.323C942.881 549.872 943.207 549.484 943.587 549.159C945.361 547.643 947.441 546.741 949.828 546.455C951.979 546.151 954.15 545.612 956.338 544.837C956.7 544.747 957.179 544.667 957.775 544.595C958.264 544.397 958.635 544.189 958.888 543.973C959.141 543.756 959.395 543.54 959.648 543.323C959.793 542.98 959.992 542.7 960.246 542.483C961.676 540.822 962.89 538.907 963.887 536.739C964.866 534.806 965.908 532.819 967.014 530.778C968.011 528.61 969.17 526.632 970.492 524.844C971.669 523.4 973.009 522.145 974.511 521.08C976.013 520.016 977.569 519.015 979.179 518.077C979.92 517.662 980.78 517.256 981.756 516.86C982.498 516.445 983.24 516.03 983.982 515.616C985.357 514.659 986.696 513.405 988 511.852C988.633 511.31 989.222 510.588 989.765 509.685C990.182 508.89 990.707 508.222 991.341 507.68C992.246 506.687 993.811 505.569 996.036 504.324ZM978.188 569.244C978.495 569.859 978.81 570.357 979.135 570.737C979.46 571.117 979.776 571.614 980.082 572.229C980.191 572.356 980.353 572.546 980.57 572.799C980.551 573.034 980.659 573.161 980.894 573.18C981.003 573.306 981.184 573.261 981.437 573.045C981.564 572.936 981.754 572.774 982.007 572.557C982.115 572.684 982.414 572.648 982.902 572.45C983.39 572.252 983.698 572.099 983.825 571.99C983.843 571.755 983.798 571.575 983.69 571.448C983.346 571.303 983.067 571.104 982.85 570.85C982.219 569.855 981.804 569.113 981.606 568.625C981.389 568.372 981.29 568.127 981.308 567.892C981.2 567.766 981.038 567.576 980.821 567.322C980.821 567.322 980.631 567.485 980.251 567.81C979.147 568.314 978.46 568.792 978.188 569.244ZM980.631 547.093C981.299 547.618 981.967 548.144 982.636 548.669C983.304 549.194 983.909 549.773 984.45 550.407C985.768 551.692 986.959 553.085 988.024 554.587C988.98 555.962 990.054 557.347 991.245 558.74C992.851 560.876 994.873 562.984 997.311 565.067C998.52 566.225 999.857 567.276 1001.32 568.218C1002.55 569.141 1004.03 569.848 1005.76 570.339C1006.23 570.375 1006.76 570.475 1007.34 570.639C1007.68 570.784 1008.09 570.875 1008.56 570.912C1009.03 570.949 1009.51 570.868 1009.99 570.67C1010.48 570.471 1010.91 570.327 1011.27 570.237C1011.74 570.274 1012.27 570.257 1012.87 570.185C1013.23 570.095 1013.66 569.951 1014.14 569.753C1015.25 569.249 1016.37 568.509 1017.51 567.534C1018.65 566.56 1019.55 565.567 1020.22 564.555C1022.42 562.244 1024.3 559.318 1025.88 555.777C1027.33 552.344 1027.88 549.019 1027.54 545.8C1027.47 545.204 1027.46 544.553 1027.52 543.848C1027.45 543.251 1027.31 542.709 1027.12 542.22C1026.81 541.605 1026.39 540.864 1025.87 539.995C1025.11 539.108 1024.52 538.412 1024.08 537.905C1022.87 536.746 1021.6 535.642 1020.26 534.592C1018.82 533.415 1017.49 532.247 1016.28 531.088C1014.62 529.658 1013.02 528.173 1011.49 526.635C1009.72 525.078 1007.93 523.756 1006.13 522.669C1005.57 522.27 1005.07 521.817 1004.64 521.311C1003.97 520.786 1003.35 520.441 1002.77 520.278C1002.53 520.259 1002.3 520.241 1002.06 520.223C1001.83 520.204 1001.65 520.249 1001.52 520.357C1000.81 520.302 1000.11 520.247 999.405 520.192C998.7 520.137 998.049 520.145 997.452 520.216C996.964 520.415 996.53 520.676 996.15 521.001C995.77 521.326 995.453 521.597 995.199 521.813C994.078 522.553 993.01 523.356 991.996 524.222C990.875 524.962 989.69 525.756 988.441 526.604C986.812 527.777 985.175 529.067 983.528 530.475C981.773 531.756 980.234 533.291 978.912 535.078C978.64 535.53 978.368 535.982 978.097 536.433C977.59 536.866 977.201 537.309 976.929 537.76C976.892 538.23 976.973 538.709 977.171 539.198C977.134 539.668 977.097 540.138 977.06 540.608C977.042 540.843 977.069 541.258 977.14 541.855C976.977 542.433 976.94 542.903 977.03 543.265C977.228 543.753 977.769 544.387 978.654 545.165C979.431 545.817 980.09 546.46 980.631 547.093Z" fill="black"/>
<path d="M989.707 569.439C989.633 568.609 989.504 567.716 989.32 566.762C989.011 565.92 988.938 565.089 989.1 564.272C989.125 563.801 989.269 563.337 989.529 562.879C989.666 562.532 989.747 562.124 989.773 561.653C990.456 559.919 991.251 558.31 992.157 556.825C993.064 555.339 994.088 553.86 995.229 552.387C997.363 550.024 999.497 547.661 1001.63 545.297C1003.53 542.921 1005.15 540.235 1006.49 537.239C1007.29 535.629 1007.97 533.896 1008.54 532.039C1009.11 530.181 1009.92 528.454 1010.95 526.857C1011.19 526.635 1011.5 526.356 1011.88 526.022C1012.25 525.688 1012.57 525.292 1012.83 524.834C1013.2 524.5 1013.57 524.166 1013.94 523.832C1014.2 523.374 1014.52 522.978 1014.89 522.644C1015.25 522.546 1015.73 522.453 1016.32 522.367C1016.79 522.393 1017.21 522.356 1017.57 522.257C1018.16 522.172 1018.76 522.086 1019.35 522C1019.71 521.901 1020.13 521.864 1020.6 521.89C1021.66 521.829 1022.83 522.01 1024.11 522.433C1025.26 522.968 1026.36 523.44 1027.4 523.85C1031.33 525.243 1035.44 526.704 1039.73 528.233C1044.12 529.886 1048.22 531.583 1052.02 533.322C1055.94 535.185 1059.1 537.717 1061.53 540.916C1063.06 543.123 1064.35 545.553 1065.38 548.206C1066.3 550.969 1067.46 553.51 1068.87 555.829C1070.49 558.631 1072.63 561.52 1075.3 564.497C1077.88 567.114 1081.07 570.296 1084.88 574.042C1088.69 577.788 1091.88 580.97 1094.46 583.587C1096.14 585.212 1097.77 586.775 1099.34 588.277C1100.9 590.013 1102.58 591.638 1104.38 593.152C1106.75 595.286 1109.3 597.253 1112.03 599.052C1114.77 600.852 1117.26 602.875 1119.49 605.12C1122.18 607.861 1124.32 610.868 1125.91 614.141C1127.49 617.649 1129.32 620.934 1131.4 623.997C1132.82 626.08 1134.65 628.244 1136.89 630.489C1139.12 632.97 1141.28 635.506 1143.39 638.098C1145.36 640.801 1146.57 643.64 1147 646.613C1147.27 648.162 1147.41 649.94 1147.42 651.947C1147.43 653.954 1147.1 655.707 1146.43 657.205C1145.46 659.867 1143.86 662.082 1141.64 663.851C1139.53 665.743 1137.54 667.642 1135.67 669.548C1134.03 671.466 1132.02 673.718 1129.64 676.304C1127.26 678.89 1124.54 681.104 1121.49 682.946C1118.55 684.912 1115.32 685.799 1111.79 685.609C1111.32 685.583 1110.73 685.552 1110.02 685.514C1109.43 685.599 1108.96 685.574 1108.61 685.437C1105.45 684.913 1102.57 683.577 1099.98 681.431C1097.38 679.284 1094.96 676.971 1092.74 674.49C1090.51 672.009 1088.38 670.006 1086.33 668.48C1084.52 667.201 1082.69 666.04 1080.86 664.997C1078.9 664.066 1077.07 663.023 1075.36 661.868C1075.03 661.496 1074.52 661.056 1073.84 660.547C1073.03 660.15 1072.52 659.827 1072.3 659.579C1072.31 659.343 1072.39 659.052 1072.52 658.706C1072.65 658.594 1072.71 658.421 1072.73 658.186C1072.74 657.95 1072.83 657.424 1072.99 656.606C1073.15 655.789 1073.29 655.325 1073.42 655.213C1073.67 654.991 1074.09 654.836 1074.68 654.75C1075.39 654.789 1075.8 654.752 1075.93 654.641C1078.2 654.173 1080.49 654.238 1082.82 654.835C1085.15 655.433 1087.35 656.26 1089.42 657.316C1091.03 658.111 1092.51 659.017 1093.87 660.034C1095.34 661.176 1096.69 662.429 1097.92 663.793C1098.81 664.786 1099.7 665.778 1100.59 666.77C1101.48 667.762 1102.5 668.643 1103.63 669.413C1103.98 669.55 1104.38 669.748 1104.84 670.009C1105.17 670.381 1105.52 670.636 1105.86 670.772C1106.21 670.909 1106.56 670.928 1106.92 670.829C1107.39 670.855 1107.74 670.874 1107.98 670.887C1108.57 670.801 1109.23 670.777 1109.93 670.815C1110.51 670.964 1111.05 670.934 1111.53 670.724C1111.89 670.625 1112.31 670.471 1112.79 670.261C1113.28 670.051 1113.64 669.835 1113.89 669.612C1116.43 668.451 1118.87 666.93 1121.22 665.05C1123.55 663.406 1125.83 661.699 1128.04 659.931C1129.41 658.706 1130.67 657.122 1131.84 655.179C1131.85 654.943 1131.99 654.597 1132.25 654.139C1132.5 653.916 1132.63 653.687 1132.64 653.451C1132.9 652.993 1132.99 652.467 1132.91 651.872C1132.81 651.513 1132.77 651.098 1132.8 650.627C1132.82 650.156 1132.85 649.686 1132.87 649.215C1132.9 648.744 1132.92 648.274 1132.95 647.803C1132.85 647.443 1132.7 647.022 1132.49 646.539C1132.15 646.167 1131.82 645.794 1131.48 645.422C1131.38 645.063 1131.23 644.642 1131.02 644.158C1130.81 643.675 1130.54 643.247 1130.2 642.875C1129.22 641.523 1127.98 640.277 1126.51 639.135C1124.91 638.105 1123.5 636.907 1122.28 635.543C1120.94 634.055 1119.86 632.344 1119.02 630.41C1118.18 628.476 1117.39 626.605 1116.66 624.795C1116.03 623.345 1115.35 621.833 1114.61 620.258C1113.98 618.808 1113.16 617.525 1112.16 616.408C1110.81 615.156 1109.33 614.132 1107.72 613.337C1105.99 612.653 1104.32 611.914 1102.71 611.119C1100.97 610.435 1099.31 609.578 1097.71 608.548C1096.23 607.641 1094.81 606.562 1093.46 605.309C1091.89 603.808 1090.45 602.078 1089.14 600.119C1087.94 598.284 1086.37 596.665 1084.44 595.263C1084.22 595.014 1083.94 594.704 1083.61 594.332C1083.15 594.072 1082.75 593.873 1082.4 593.736C1082.05 593.599 1081.59 593.456 1081.01 593.307C1080.54 593.281 1080.07 593.256 1079.6 593.231C1079.36 593.218 1078.95 593.137 1078.37 592.988C1077.79 592.838 1077.32 592.813 1076.96 592.911C1076.6 593.01 1076.18 593.164 1075.69 593.374C1075.21 593.584 1074.79 593.738 1074.43 593.837C1073.23 594.244 1072.14 594.776 1071.16 595.431C1070.05 596.198 1068.95 596.964 1067.85 597.731C1066.01 598.93 1064.12 600.067 1062.17 601.142C1060.21 602.453 1058.2 603.702 1056.13 604.888C1054.29 606.087 1052.63 607.473 1051.13 609.044C1050.88 609.267 1050.63 609.489 1050.38 609.712C1050.01 610.046 1049.75 610.386 1049.62 610.733C1049.6 610.968 1049.65 611.266 1049.75 611.625C1049.72 612.096 1049.7 612.567 1049.67 613.037C1049.66 613.273 1049.58 613.681 1049.43 614.263C1049.39 614.97 1049.42 615.502 1049.52 615.862C1049.62 616.221 1049.83 616.587 1050.17 616.959C1050.38 617.442 1050.65 617.87 1050.98 618.242C1051.51 619.333 1052.05 620.306 1052.6 621.162C1053.25 622.141 1054.02 623.127 1054.91 624.119C1056.13 625.719 1057.4 627.263 1058.74 628.751C1060.06 630.475 1061.51 631.97 1063.1 633.235C1064.24 634.005 1065.32 634.713 1066.35 635.358C1067.25 636.115 1068.09 636.928 1068.87 637.796C1069.2 638.168 1069.59 638.602 1070.04 639.098C1070.6 639.718 1070.92 640.208 1071.02 640.567C1071.01 640.803 1070.87 641.149 1070.61 641.607C1070.34 642.301 1070.2 642.765 1070.18 643C1070.17 643.236 1070.1 643.527 1069.96 643.874C1069.81 644.456 1069.67 644.802 1069.55 644.914C1069.42 645.025 1069.13 645.068 1068.66 645.043C1068.06 645.128 1067.65 645.165 1067.41 645.152C1066.94 645.127 1066.47 645.102 1066 645.076C1065.52 645.286 1065.04 645.378 1064.57 645.353C1064.22 645.216 1063.82 645.018 1063.36 644.757C1062.9 644.496 1062.5 644.297 1062.15 644.161C1057.54 642.259 1053.9 639.585 1051.26 636.137C1050.37 635.145 1049.54 634.097 1048.77 632.994C1048 631.89 1047.24 630.787 1046.47 629.683C1045.25 628.319 1043.95 627.128 1042.59 626.11C1041.23 625.092 1039.81 624.013 1038.34 622.871C1038.01 622.499 1037.56 622.121 1036.99 621.736C1036.53 621.475 1036.13 621.159 1035.8 620.787C1034.24 619.05 1033.29 616.992 1032.94 614.613C1032.59 612.47 1032 610.314 1031.17 608.144C1031.07 607.785 1030.98 607.308 1030.89 606.713C1030.68 606.23 1030.47 605.864 1030.24 605.616C1030.02 605.368 1029.8 605.12 1029.57 604.872C1029.23 604.735 1028.94 604.543 1028.72 604.295C1027.03 602.905 1025.08 601.738 1022.89 600.794C1020.93 599.862 1018.92 598.868 1016.86 597.812C1014.66 596.868 1012.66 595.757 1010.84 594.478C1009.37 593.337 1008.08 592.028 1006.98 590.552C1005.88 589.077 1004.84 587.545 1003.86 585.958C1003.43 585.227 1003 584.378 1002.58 583.411C1002.15 582.68 1001.72 581.948 1001.29 581.217C1000.3 579.865 999.011 578.556 997.426 577.291C996.87 576.67 996.133 576.1 995.217 575.578C994.413 575.181 993.732 574.672 993.175 574.052C992.161 573.171 991.004 571.633 989.707 569.439ZM1055.04 585.71C1055.65 585.388 1056.14 585.061 1056.51 584.727C1056.88 584.393 1057.37 584.065 1057.98 583.744C1058.1 583.633 1058.29 583.466 1058.54 583.243C1058.77 583.256 1058.9 583.144 1058.91 582.909C1059.03 582.798 1058.98 582.618 1058.76 582.37C1058.65 582.246 1058.48 582.06 1058.26 581.812C1058.38 581.7 1058.34 581.403 1058.13 580.92C1057.92 580.436 1057.76 580.132 1057.65 580.008C1057.41 579.996 1057.23 580.045 1057.11 580.156C1056.97 580.503 1056.78 580.788 1056.53 581.01C1055.55 581.666 1054.82 582.098 1054.34 582.308C1054.09 582.531 1053.85 582.636 1053.61 582.623C1053.49 582.735 1053.3 582.902 1053.05 583.124C1053.05 583.124 1053.22 583.31 1053.56 583.682C1054.09 584.773 1054.58 585.449 1055.04 585.71ZM1032.84 583.804C1033.34 583.123 1033.85 582.442 1034.36 581.762C1034.87 581.081 1035.44 580.462 1036.06 579.906C1037.31 578.557 1038.67 577.332 1040.15 576.232C1041.5 575.242 1042.86 574.136 1044.22 572.911C1046.32 571.254 1048.38 569.181 1050.4 566.694C1051.53 565.457 1052.55 564.095 1053.45 562.61C1054.35 561.36 1055.02 559.862 1055.47 558.115C1055.49 557.645 1055.58 557.118 1055.73 556.536C1055.86 556.19 1055.95 555.781 1055.97 555.31C1056 554.839 1055.9 554.362 1055.69 553.879C1055.48 553.396 1055.33 552.974 1055.23 552.615C1055.26 552.144 1055.23 551.611 1055.14 551.017C1055.04 550.657 1054.89 550.236 1054.68 549.752C1054.15 548.662 1053.38 547.558 1052.38 546.442C1051.38 545.325 1050.36 544.445 1049.33 543.799C1046.97 541.665 1044 539.853 1040.42 538.361C1036.95 536.994 1033.62 536.519 1030.41 536.936C1029.81 537.022 1029.16 537.046 1028.46 537.008C1027.86 537.094 1027.32 537.242 1026.84 537.451C1026.23 537.773 1025.5 538.205 1024.64 538.749C1023.78 539.529 1023.09 540.141 1022.6 540.586C1021.47 541.824 1020.4 543.123 1019.38 544.484C1018.24 545.957 1017.1 547.312 1015.97 548.549C1014.58 550.245 1013.14 551.878 1011.64 553.45C1010.12 555.256 1008.84 557.076 1007.8 558.908C1007.42 559.477 1006.98 559.984 1006.48 560.43C1005.97 561.11 1005.64 561.742 1005.49 562.324C1005.48 562.559 1005.47 562.795 1005.45 563.03C1005.44 563.265 1005.49 563.445 1005.6 563.569C1005.56 564.275 1005.53 564.981 1005.49 565.687C1005.45 566.393 1005.47 567.044 1005.56 567.638C1005.77 568.122 1006.04 568.55 1006.38 568.922C1006.71 569.294 1006.99 569.604 1007.21 569.852C1007.98 570.955 1008.81 572.003 1009.7 572.996C1010.46 574.099 1011.29 575.265 1012.16 576.492C1013.38 578.092 1014.7 579.698 1016.15 581.31C1017.48 583.034 1019.05 584.535 1020.87 585.814C1021.32 586.074 1021.78 586.335 1022.24 586.596C1022.69 587.092 1023.14 587.47 1023.6 587.731C1024.07 587.756 1024.54 587.664 1025.03 587.454C1025.5 587.48 1025.97 587.505 1026.44 587.53C1026.67 587.543 1027.09 587.507 1027.68 587.421C1028.27 587.57 1028.74 587.595 1029.1 587.497C1029.58 587.287 1030.2 586.73 1030.96 585.827C1031.59 585.035 1032.22 584.36 1032.84 583.804Z" fill="#85909A"/>
<path d="M1213 180.239L1306 165.504L1374 414L1286 428L1213 180.239Z" fill="white"/>
<path d="M1924.83 14.8719L1924.83 396.082L1374 414L1301.49 165.844L1924.83 14.8719Z" fill="white"/>
<path d="M1081.91 315.378C1082.32 316.575 1082.84 317.844 1083.46 319.184C1084.22 320.314 1084.64 321.512 1084.7 322.777C1084.83 323.481 1084.79 324.218 1084.57 324.99C1084.5 325.551 1084.53 326.184 1084.66 326.888C1084.29 329.695 1083.71 332.361 1082.91 334.884C1082.12 337.407 1081.15 339.964 1080.01 342.555C1077.73 346.823 1075.44 351.091 1073.16 355.359C1071.23 359.56 1069.82 364.116 1068.94 369.027C1068.36 371.693 1067.99 374.5 1067.82 377.45C1067.66 380.4 1067.11 383.241 1066.17 385.974C1065.89 386.393 1065.53 386.918 1065.11 387.547C1064.68 388.176 1064.36 388.876 1064.14 389.647C1063.72 390.276 1063.29 390.905 1062.86 391.534C1062.65 392.305 1062.32 393.005 1061.9 393.634C1061.4 393.911 1060.73 394.222 1059.89 394.567C1059.18 394.702 1058.58 394.908 1058.09 395.185C1057.24 395.53 1056.4 395.874 1055.55 396.219C1055.06 396.496 1054.46 396.702 1053.76 396.837C1052.21 397.317 1050.41 397.478 1048.38 397.321C1046.48 396.955 1044.69 396.66 1043.01 396.436C1036.69 395.824 1030.09 395.174 1023.21 394.488C1016.12 393.659 1009.45 392.657 1003.21 391.484C996.754 390.168 991.153 387.594 986.406 383.762C983.336 381.068 980.55 377.954 978.048 374.421C975.689 370.679 973.045 367.355 970.117 364.451C966.702 360.911 962.478 357.435 957.446 354.022C952.691 351.104 946.817 347.579 939.823 343.449C932.83 339.318 926.955 335.793 922.2 332.875C919.123 331.094 916.15 329.384 913.282 327.745C910.347 325.755 907.269 323.974 904.05 322.403C899.782 320.12 895.3 318.153 890.606 316.5C885.911 314.846 881.501 312.774 877.375 310.282C872.41 307.221 868.153 303.569 864.603 299.325C860.986 294.729 857.084 290.553 852.898 286.796C850.037 284.244 846.544 281.722 842.418 279.23C838.225 276.386 834.102 273.437 830.051 270.384C826.142 267.121 823.326 263.375 821.603 259.145C820.637 256.959 819.779 254.388 819.029 251.431C818.28 248.474 818.125 245.767 818.566 243.312C819.022 239.029 820.563 235.177 823.19 231.755C825.607 228.19 827.848 224.66 829.913 221.163C831.627 217.733 833.767 213.675 836.334 208.988C838.9 204.3 842.096 200.039 845.92 196.205C849.535 192.229 853.982 189.734 859.259 188.722C859.963 188.587 860.843 188.418 861.898 188.216C862.744 187.871 863.448 187.736 864.009 187.811C868.861 187.428 873.596 188.344 878.216 190.558C882.836 192.773 887.243 195.302 891.436 198.146C895.63 200.99 899.512 203.163 903.084 204.667C906.236 205.887 909.354 206.93 912.439 207.798C915.666 208.456 918.751 209.323 921.693 210.4C922.322 210.827 923.232 211.291 924.423 211.792C925.755 212.084 926.631 212.372 927.051 212.656C927.118 213.008 927.115 213.465 927.04 214.026C926.898 214.236 926.86 214.517 926.928 214.869C926.995 215.22 927.059 216.029 927.119 217.294C927.18 218.559 927.139 219.297 926.997 219.506C926.712 219.926 926.147 220.308 925.301 220.652C924.246 220.855 923.647 221.061 923.505 221.271C920.331 222.791 916.917 223.537 913.263 223.508C909.61 223.479 906.065 223.065 902.628 222.265C899.963 221.682 897.44 220.889 895.058 219.886C892.468 218.742 890.019 217.387 887.713 215.823C886.036 214.686 884.358 213.548 882.681 212.411C881.003 211.273 879.184 210.345 877.222 209.627C876.661 209.552 875.994 209.407 875.223 209.19C874.594 208.763 873.999 208.513 873.437 208.438C872.876 208.363 872.348 208.464 871.854 208.742C871.15 208.877 870.623 208.978 870.271 209.045C869.425 209.39 868.474 209.663 867.418 209.866C866.505 209.859 865.73 210.098 865.094 210.585C864.6 210.862 864.035 211.244 863.399 211.731C862.762 212.218 862.302 212.671 862.018 213.09C858.694 215.734 855.648 218.872 852.879 222.504C850.043 225.784 847.311 229.135 844.684 232.557C843.12 234.863 841.833 237.664 840.823 240.958C840.891 241.31 840.816 241.872 840.599 242.643C840.315 243.062 840.207 243.448 840.274 243.8C840.057 244.571 840.121 245.379 840.466 246.225C840.743 246.719 840.949 247.318 841.084 248.022C841.219 248.726 841.354 249.429 841.489 250.133C841.624 250.837 841.759 251.54 841.894 252.244C842.171 252.738 842.553 253.303 843.04 253.939C843.669 254.366 844.298 254.793 844.927 255.219C845.204 255.713 845.586 256.278 846.073 256.915C846.559 257.551 847.117 258.082 847.746 258.509C849.701 260.14 851.973 261.528 854.564 262.673C857.297 263.608 859.817 264.858 862.123 266.422C864.639 268.128 866.871 270.254 868.818 272.799C870.765 275.343 872.608 277.817 874.345 280.22C875.806 282.129 877.371 284.108 879.041 286.159C880.502 288.068 882.175 289.662 884.062 290.942C886.511 292.296 889.068 293.265 891.733 293.848C894.541 294.222 897.277 294.7 899.943 295.283C902.75 295.657 905.521 296.311 908.254 297.246C910.777 298.039 913.263 299.113 915.711 300.467C918.579 302.106 921.339 304.13 923.99 306.54C926.431 308.808 929.332 310.623 932.694 311.984C933.114 312.269 933.638 312.624 934.267 313.051C935.038 313.267 935.704 313.413 936.266 313.488C936.827 313.563 937.565 313.604 938.478 313.611C939.182 313.476 939.886 313.341 940.589 313.206C940.941 313.138 941.574 313.108 942.487 313.116C943.401 313.123 944.104 312.988 944.598 312.711C945.092 312.434 945.658 312.052 946.294 311.565C946.93 311.078 947.495 310.696 947.989 310.419C949.614 309.378 951.028 308.194 952.233 306.869C953.58 305.334 954.927 303.799 956.275 302.263C958.542 299.822 960.915 297.452 963.392 295.153C965.802 292.502 968.317 289.922 970.937 287.413C973.205 284.972 975.158 282.317 976.797 279.449C977.081 279.03 977.365 278.611 977.65 278.191C978.076 277.562 978.327 276.967 978.402 276.405C978.334 276.054 978.162 275.631 977.885 275.137C977.75 274.433 977.615 273.729 977.48 273.026C977.412 272.674 977.382 272.041 977.389 271.128C977.187 270.072 976.947 269.297 976.67 268.803C976.393 268.309 975.94 267.849 975.311 267.422C974.824 266.786 974.266 266.255 973.637 265.828C972.454 264.414 971.304 263.175 970.188 262.112C968.863 260.907 967.361 259.736 965.684 258.598C963.31 256.682 960.865 254.871 958.349 253.165C955.766 251.107 953.074 249.434 950.273 248.148C948.312 247.429 946.455 246.782 944.703 246.206C943.093 245.421 941.554 244.53 940.086 243.535C939.457 243.108 938.724 242.611 937.885 242.042C936.837 241.331 936.174 240.729 935.897 240.235C935.829 239.883 935.904 239.321 936.121 238.55C936.27 237.427 936.311 236.69 936.244 236.338C936.176 235.986 936.18 235.529 936.255 234.968C936.262 234.054 936.336 233.493 936.479 233.283C936.621 233.073 937.044 232.901 937.748 232.766C938.593 232.421 939.192 232.215 939.544 232.148C940.248 232.013 940.952 231.878 941.655 231.743C942.292 231.256 942.961 230.945 943.665 230.81C944.227 230.885 944.893 231.031 945.664 231.248C946.435 231.465 947.102 231.61 947.663 231.685C955.173 232.798 961.511 235.413 966.678 239.529C968.355 240.667 969.962 241.909 971.497 243.256C973.032 244.604 974.567 245.951 976.102 247.298C978.409 248.862 980.752 250.145 983.133 251.148C985.514 252.15 988 253.224 990.591 254.369C991.22 254.795 992.025 255.188 993.006 255.547C993.777 255.764 994.477 256.086 995.106 256.512C998.041 258.503 1000.2 261.19 1001.58 264.574C1002.89 267.605 1004.55 270.57 1006.57 273.466C1006.84 273.96 1007.15 274.63 1007.5 275.476C1007.99 276.112 1008.44 276.573 1008.86 276.857C1009.28 277.141 1009.7 277.426 1010.12 277.71C1010.68 277.785 1011.17 277.964 1011.59 278.249C1014.6 279.678 1017.89 280.688 1021.47 281.278C1024.7 281.936 1028.03 282.665 1031.47 283.465C1035.04 284.056 1038.41 284.96 1041.56 286.18C1044.15 287.325 1046.53 288.784 1048.69 290.558C1050.86 292.331 1052.95 294.21 1054.97 296.193C1055.88 297.114 1056.82 298.21 1057.79 299.483C1058.7 300.403 1059.61 301.324 1060.51 302.245C1062.47 303.876 1064.84 305.335 1067.64 306.622C1068.69 307.333 1069.99 307.906 1071.53 308.339C1072.86 308.631 1074.05 309.132 1075.1 309.843C1076.92 310.771 1079.19 312.616 1081.91 315.378ZM979.569 315.306C978.791 316.002 978.189 316.665 977.762 317.294C977.335 317.923 976.733 318.586 975.955 319.282C975.812 319.492 975.599 319.807 975.315 320.226C974.963 320.293 974.821 320.503 974.888 320.855C974.746 321.065 974.885 321.312 975.304 321.596C975.514 321.738 975.828 321.951 976.247 322.236C976.105 322.446 976.278 322.868 976.764 323.505C977.251 324.141 977.599 324.53 977.809 324.672C978.161 324.605 978.408 324.466 978.55 324.257C978.625 323.695 978.804 323.205 979.089 322.785C980.294 321.46 981.214 320.554 981.851 320.067C982.135 319.647 982.453 319.404 982.805 319.337C982.947 319.127 983.16 318.812 983.445 318.393C983.445 318.393 983.13 318.18 982.501 317.753C981.318 316.339 980.341 315.523 979.569 315.306ZM1013.02 309.985C1012.52 311.175 1012.02 312.366 1011.52 313.556C1011.02 314.747 1010.41 315.866 1009.7 316.914C1008.35 319.363 1006.78 321.669 1005.01 323.833C1003.38 325.788 1001.78 327.918 1000.21 330.225C997.73 333.437 995.451 337.249 993.379 341.659C992.167 343.898 991.164 346.279 990.371 348.802C989.511 350.973 989.07 353.429 989.048 356.169C989.183 356.873 989.247 357.682 989.24 358.595C989.165 359.156 989.195 359.789 989.33 360.493C989.465 361.196 989.776 361.866 990.263 362.503C990.75 363.139 991.132 363.704 991.409 364.198C991.544 364.902 991.784 365.677 992.128 366.523C992.405 367.017 992.787 367.582 993.274 368.218C994.457 369.633 995.993 370.98 997.88 372.259C999.767 373.539 1001.59 374.467 1003.34 375.043C1007.61 377.325 1012.65 378.911 1018.48 379.8C1024.09 380.547 1029.19 380.025 1033.77 378.235C1034.62 377.89 1035.57 377.616 1036.62 377.414C1037.47 377.069 1038.21 376.654 1038.85 376.167C1039.63 375.47 1040.55 374.564 1041.61 373.448C1042.6 371.981 1043.39 370.828 1043.96 369.989C1045.17 367.75 1046.28 365.44 1047.28 363.059C1048.42 360.468 1049.6 358.053 1050.81 355.815C1052.24 352.805 1053.78 349.866 1055.41 346.998C1056.99 343.778 1058.21 340.626 1059.07 337.541C1059.43 336.56 1059.9 335.65 1060.46 334.812C1060.97 333.621 1061.22 332.569 1061.23 331.656C1061.16 331.304 1061.09 330.952 1061.03 330.6C1060.96 330.248 1060.82 330.001 1060.61 329.859C1060.41 328.804 1060.2 327.748 1060 326.692C1059.8 325.637 1059.53 324.686 1059.18 323.84C1058.69 323.204 1058.14 322.673 1057.51 322.246C1056.88 321.82 1056.35 321.464 1055.94 321.18C1054.4 319.833 1052.79 318.59 1051.12 317.453C1049.58 316.106 1047.94 314.687 1046.2 313.198C1043.82 311.282 1041.27 309.4 1038.55 307.551C1035.96 305.493 1033.1 303.855 1029.94 302.635C1029.17 302.418 1028.4 302.201 1027.63 301.985C1026.79 301.416 1025.99 301.023 1025.22 300.806C1024.51 300.941 1023.84 301.252 1023.21 301.739C1022.5 301.874 1021.8 302.009 1021.09 302.144C1020.74 302.211 1020.14 302.417 1019.3 302.762C1018.38 302.755 1017.68 302.89 1017.19 303.167C1016.55 303.654 1015.84 304.702 1015.05 306.312C1014.41 307.712 1013.73 308.936 1013.02 309.985Z" fill="#85909A"/>
</svg>
